<?xml version="1.0" encoding="utf-8"?>
<svg width="64px" height="64px" viewBox="0 0 64 64" version="1.1" xmlns:xlink="http://www.w3.org/1999/xlink" xmlns="http://www.w3.org/2000/svg">
  <defs>
    <path d="M0 0L55 0L55 55L0 55L0 0Z" id="path_1" />
    <clipPath id="mask_1">
      <use xlink:href="#path_1" />
    </clipPath>
  </defs>
  <g id="binoculars">
    <path d="M0 0L64 0L64 64L0 64L0 0Z" id="Rectangle" fill="#FFFFFF" fill-opacity="0" fill-rule="evenodd" stroke="none" />
    <g id="binoculars-see-svgrepo-com" transform="translate(4.5 5)">
      <path d="M0 0L55 0L55 55L0 55L0 0Z" id="Background" fill="none" fill-rule="evenodd" stroke="none" />
      <g clip-path="url(#mask_1)">
        <g id="Group" transform="translate(17.45079 8.780762)">
          <path d="M0 0L20.0996 0L20.0996 7.57056L0 7.57056L0 0Z" transform="translate(0 10.714365)" id="Rectangle" fill="#57A3A7" fill-rule="evenodd" stroke="none" />
          <path d="M0 1.9641C0.191963 1.64162 0.31872 1.42989 0.334297 1.4039C0.854004 0.561494 1.78385 0 2.84442 0C4.47294 0 5.79197 1.31903 5.79197 2.94755L5.79197 9.28028" transform="translate(0.7871878 0.0001077652)" id="Shape" fill="#57A3A7" fill-rule="evenodd" stroke="none" />
          <path d="M0 9.28028L0 2.94755C0 1.31903 1.31903 0 2.94755 0C4.00791 0 4.93786 0.561601 5.45768 1.4039C5.47325 1.43011 5.60001 1.64162 5.79197 1.9641" transform="translate(13.519151 0)" id="Shape" fill="#57A3A7" fill-rule="evenodd" stroke="none" />
        </g>
        <g id="Group" transform="translate(2.5802765 10.547974)">
          <path d="M0 12.0148C0 5.37921 5.37922 0 12.0148 0C18.6504 0 24.0296 5.37921 24.0296 12.0148C24.0296 18.6504 18.6504 24.0296 12.0148 24.0296C5.37922 24.0296 0 18.6504 0 12.0148Z" transform="translate(28.390102 11.641631)" id="Circle" fill="#65B4BB" fill-rule="evenodd" stroke="none" />
          <path d="M21.4494 7.51212L21.4494 23.6563L2.81639 17.1931L0 16.2153C0 16.2153 7.32671 3.91993 7.53876 3.57704C8.86059 1.43107 11.2313 0 13.9372 0C14.1519 0 14.3652 0.00891604 14.5747 0.0266407C18.4247 0.350519 21.4494 3.57833 21.4494 7.51212L21.4494 7.51212Z" id="Shape" fill="#65B4BB" fill-rule="evenodd" stroke="none" />
        </g>
        <path d="M14.5747 0.0267465L9.43465 11.6412L2.81639 17.1931L0 16.2153C0 16.2153 7.32671 3.91993 7.53876 3.57704C8.86059 1.43107 11.2313 0 13.9372 0C14.1519 -1.63913e-06 14.3652 0.0089144 14.5747 0.0267465L14.5747 0.0267465Z" transform="translate(2.5802765 10.547974)" id="Shape" fill="#57A3A7" fill-rule="evenodd" stroke="none" />
        <g id="Group" transform="translate(0 10.547974)">
          <path d="M0 0L17.7124 0L17.7124 7.44101L0 7.44101L0 0Z" transform="translate(19.836739 12.732392)" id="Rectangle" fill="#65B4BB" fill-rule="evenodd" stroke="none" />
          <path d="M0 12.0148C0 5.37922 5.37922 0 12.0148 0C18.6504 0 24.0296 5.37922 24.0296 12.0148C24.0296 18.6504 18.6504 24.0296 12.0148 24.0296C5.37922 24.0296 0 18.6504 0 12.0148Z" transform="translate(0 11.641629)" id="Circle" fill="#65B4BB" fill-rule="evenodd" stroke="none" />
          <path d="M21.4495 16.2153L0 23.6563L0 7.51212C0 4.96622 1.26726 2.71605 3.20493 1.35738C4.42395 0.501553 5.9096 0 7.51212 0C10.2181 0 12.5888 1.43107 13.9106 3.57704C14.1228 3.91993 21.4495 16.2153 21.4495 16.2153L21.4495 16.2153Z" transform="translate(30.970263 0)" id="Shape" fill="#65B4BB" fill-rule="evenodd" stroke="none" />
        </g>
        <path d="M4.97256 12.5634L4.97127 12.5647C2.41774 14.4148 0.620895 17.2465 0.13331 20.506L0 20.7244L0 6.15474C0 3.60884 1.26726 1.35867 3.20493 0L4.97256 12.5634L4.97256 12.5634Z" transform="translate(30.970367 11.905365)" id="Shape" fill="#57A3A7" fill-rule="evenodd" stroke="none" />
        <g id="Group" transform="translate(4.0976105 26.2872)">
          <path d="M0 7.91721C0 3.54465 3.54465 0 7.91721 0C12.2898 0 15.8344 3.54465 15.8344 7.91721C15.8344 12.2898 12.2898 15.8344 7.91721 15.8344C3.54465 15.8344 0 12.2898 0 7.91721Z" transform="translate(30.970375 0)" id="Circle" fill="#A0DBFD" fill-rule="evenodd" stroke="none" />
          <path d="M0 7.91721C0 3.54465 3.54465 0 7.91721 0C12.2898 0 15.8344 3.54465 15.8344 7.91721C15.8344 12.2898 12.2898 15.8344 7.91721 15.8344C3.54465 15.8344 0 12.2898 0 7.91721Z" id="Circle" fill="#A0DBFD" fill-rule="evenodd" stroke="none" />
        </g>
        <g id="Group" transform="translate(4.097183 26.286438)">
          <path d="M7.91774 15.8355C8.3947 15.8355 8.8608 15.7909 9.31455 15.7101C5.60828 15.0501 2.79361 11.8137 2.79361 7.91775C2.79361 4.02177 5.60828 0.785472 9.31455 0.125362C8.8608 0.044581 8.3947 0 7.91774 0C3.54492 0 0 3.54492 0 7.91774C0.000107363 12.2906 3.54492 15.8355 7.91774 15.8355L7.91774 15.8355Z" id="Shape" fill="#96D5F6" fill-rule="evenodd" stroke="none" />
          <path d="M7.91774 15.8355C8.3947 15.8355 8.8608 15.7909 9.31455 15.7101C5.60828 15.0501 2.79361 11.8137 2.79361 7.91775C2.79361 4.02177 5.60828 0.785472 9.31455 0.125362C8.8608 0.044581 8.3947 0 7.91774 0C3.54492 0 0 3.54492 0 7.91774C0 12.2906 3.54492 15.8355 7.91774 15.8355L7.91774 15.8355Z" transform="translate(30.970156 0)" id="Shape" fill="#96D5F6" fill-rule="evenodd" stroke="none" />
        </g>
        <g id="Group" transform="translate(12.40863 29.662506)">
          <path d="M0 2.66643C0 1.1938 1.1938 0 2.66643 0C4.13905 0 5.33285 1.1938 5.33285 2.66643C5.33285 4.13905 4.13905 5.33285 2.66643 5.33285C1.1938 5.33285 0 4.13905 0 2.66643Z" id="Circle" fill="#C1E9FD" fill-rule="evenodd" stroke="none" />
          <path d="M0 2.66643C0 1.1938 1.1938 0 2.66642 0C4.13905 0 5.33285 1.1938 5.33285 2.66643C5.33285 4.13905 4.13905 5.33285 2.66642 5.33285C1.1938 5.33285 0 4.13905 0 2.66643Z" transform="translate(30.47387 0)" id="Circle" fill="#C1E9FD" fill-rule="evenodd" stroke="none" />
        </g>
        <g id="Group" transform="translate(3.144989 25.334167)">
          <path d="M8.87004 17.7401C3.97901 17.7401 0 13.7611 0 8.87004C0 3.97902 3.97902 0 8.87004 0C13.7611 0 17.7401 3.97902 17.7401 8.87004C17.7401 13.7611 13.7611 17.7401 8.87004 17.7401L8.87004 17.7401ZM8.87004 1.9047C5.02928 1.9047 1.9047 5.02928 1.9047 8.87004C1.9047 12.7108 5.02928 15.8354 8.87004 15.8354C12.7108 15.8354 15.8354 12.7108 15.8354 8.87004C15.8354 5.02928 12.7108 1.9047 8.87004 1.9047L8.87004 1.9047Z" transform="translate(30.970049 0)" id="Shape" fill="#57A3A7" fill-rule="evenodd" stroke="none" />
          <path d="M8.87004 17.7401C3.97901 17.7401 0 13.7611 0 8.87004C0 3.97902 3.97901 0 8.87004 0C13.7611 0 17.7401 3.97902 17.7401 8.87004C17.7401 13.7611 13.761 17.7401 8.87004 17.7401L8.87004 17.7401ZM8.87004 1.9047C5.02928 1.9047 1.9047 5.02928 1.9047 8.87004C1.9047 12.7108 5.02928 15.8354 8.87004 15.8354C12.7108 15.8354 15.8354 12.7108 15.8354 8.87004C15.8354 5.02928 12.7107 1.9047 8.87004 1.9047L8.87004 1.9047Z" id="Shape" fill="#57A3A7" fill-rule="evenodd" stroke="none" />
        </g>
      </g>
    </g>
  </g>
</svg>