<?xml version="1.0" encoding="utf-8"?>
<svg width="64px" height="64px" viewBox="0 0 64 64" version="1.1" xmlns:xlink="http://www.w3.org/1999/xlink" xmlns="http://www.w3.org/2000/svg">
  <defs>
    <path d="M3.1397 9.09435C2.05705 8.20376 1.00931 7.27302 0 6.30211C0.162398 6.17463 0.328282 6.0489 0.494166 5.92494C1.31489 5.31202 2.12339 4.3516 3.04541 4.3516C3.35972 4.3516 3.68979 4.46511 4.03726 4.74102C4.86498 5.4011 4.87022 7.00763 4.37078 7.76725C4.03726 8.27193 3.59022 8.68578 3.1397 9.09438M8.13393 4.88593C8.09902 4.88593 8.06407 4.88593 8.02915 4.8842C6.96744 4.81783 6.19037 3.64436 6.36325 2.59489C6.60597 1.1263 7.46512 0.347499 8.40111 0.0942929C8.6351 0.031431 8.87609 0 9.11181 0C10.5996 0 11.9512 1.20838 11.0484 2.98079C10.68 3.7055 10.0042 4.2381 9.26724 4.58559C8.91101 4.75496 8.52511 4.88593 8.13393 4.88593" id="path_1" />
    <clipPath id="mask_1">
      <use xlink:href="#path_1" />
    </clipPath>
  </defs>
  <g id="candycorn">
    <path d="M0 0L64 0L64 64L0 64L0 0Z" id="Rectangle" fill="#FFFFFF" fill-opacity="0" fill-rule="evenodd" stroke="none" />
    <g id="Group-19" transform="translate(11.300049 5.9999695)">
      <g id="Group-10">
        <g id="g42" transform="translate(0.0026245117 0)">
          <path d="M1.08074 27.74C0.492232 29.2094 -0.0347563 30.7479 0.00179057 32.3288C0.0345005 33.8021 0.553767 35.2272 1.23654 36.5331C5.36191 44.4223 14.8685 48.5342 23.1328 50.1959C24.1771 50.4055 25.2329 50.5824 26.2965 50.592C30.2873 50.6267 33.0914 49.0131 35.18 45.7281C40.3632 37.5755 43.1788 27.9361 43.2 18.2756C43.2057 14.281 42.7114 10.1711 40.8074 6.65728C30.0218 -13.2349 5.49268 16.739 1.08074 27.74" id="path44" fill="#F1CB9D" fill-rule="evenodd" stroke="none" />
        </g>
        <g id="g46" transform="translate(0 1.5667267)">
          <path d="M35.1825 44.1626C40.3644 36.0112 43.1799 26.3715 43.2001 16.7115C43.2074 12.7156 42.7125 8.60598 40.808 5.0921C39.5286 2.72935 38.0512 1.07048 36.44 0C40.918 12.3673 38.3023 27.057 29.7862 37.089C20.5258 48.0009 4.8756 36.9168 1.27924 25.7024C1.2096 25.8637 1.14176 26.0214 1.08128 26.1753C0.492887 27.6435 -0.0331736 29.1815 0.0016307 30.7633C0.0346284 32.2371 0.555206 33.6613 1.23892 34.9683C5.36318 42.8575 14.8691 46.9689 23.1342 48.6296C24.179 48.8405 25.233 49.0182 26.2979 49.0274C30.2884 49.0604 33.0929 47.4474 35.1825 44.1626" id="path48" fill="#CFA783" fill-rule="evenodd" stroke="none" />
        </g>
        <g id="g50" transform="translate(0.002380371 19.69423)">
          <path d="M35.1818 26.0347C36.7132 23.6245 38.0367 21.0823 39.1433 18.4515C26.427 16.0287 14.5171 9.45448 5.67737 0C3.55106 3.06108 1.93643 5.91065 1.0812 8.04597C0.491768 9.51415 -0.0343886 11.0528 0.0017586 12.6349C0.0343087 14.1085 0.55503 15.5333 1.2385 16.8387C5.36274 24.7274 14.8679 28.839 23.1344 30.5006C24.1777 30.7103 25.2318 30.8893 26.2986 30.8984C30.2872 30.9327 33.0934 29.3181 35.1818 26.0346" id="path52" fill="#F8A92A" fill-rule="evenodd" stroke="none" />
        </g>
        <g id="g54" transform="translate(0.002380371 27.266525)">
          <path d="M35.1817 18.4624C36.7132 16.0522 38.0367 13.51 39.1432 10.8793C36.6155 10.3965 34.1185 9.74739 31.6704 8.94822C31.0774 9.78718 30.4517 10.6026 29.7846 11.3891C20.5253 22.2991 4.87455 11.2174 1.27828 0C1.20774 0.160928 1.14087 0.320033 1.08119 0.473703C0.491752 1.94188 -0.0344046 3.48056 0.0017586 5.06262C0.0342927 6.53622 0.555014 7.96099 1.23849 9.26643C5.36274 17.1551 14.8678 21.2667 23.1344 22.9283C24.1777 23.1381 25.2318 23.3171 26.2986 23.3261C30.2872 23.3605 33.0933 21.7458 35.1817 18.4623" id="path56" fill="#EA8F25" fill-rule="evenodd" stroke="none" />
        </g>
        <g id="g58" transform="translate(5.6781616 7.71978)">
          <path d="M33.4659 30.4274C35.4952 25.6068 36.7919 20.4784 37.2901 15.2714C27.1159 12.905 17.6414 7.53313 10.4031 0C6.43052 3.60267 2.77846 7.96904 0 11.9746C8.83899 21.4309 20.7495 28.0042 33.4659 30.4274" id="path60" fill="#F1502E" fill-rule="evenodd" stroke="none" />
        </g>
        <g id="g62" transform="translate(31.671326 21.53688)">
          <path d="M7.47271 16.6103C9.50204 11.7896 10.7988 6.66132 11.297 1.45427C9.57897 1.055 7.88112 0.567804 6.21077 0C5.18877 5.26202 3.09165 10.3098 0 14.6798C2.4488 15.4783 4.94336 16.1267 7.47271 16.6103" id="path64" fill="#C13F27" fill-rule="evenodd" stroke="none" />
        </g>
        <g id="g66" transform="translate(17.56134 2.8957062)">
          <g id="Mask-group">
            <path d="M3.1397 9.09435C2.05705 8.20376 1.00931 7.27302 0 6.30211C0.162398 6.17463 0.328282 6.0489 0.494166 5.92494C1.31489 5.31202 2.12339 4.3516 3.04541 4.3516C3.35972 4.3516 3.68979 4.46511 4.03726 4.74102C4.86498 5.4011 4.87022 7.00763 4.37078 7.76725C4.03726 8.27193 3.59022 8.68578 3.1397 9.09438M8.13393 4.88593C8.09902 4.88593 8.06407 4.88593 8.02915 4.8842C6.96744 4.81783 6.19037 3.64436 6.36325 2.59489C6.60597 1.1263 7.46512 0.347499 8.40111 0.0942929C8.6351 0.031431 8.87609 0 9.11181 0C10.5996 0 11.9512 1.20838 11.0484 2.98079C10.68 3.7055 10.0042 4.2381 9.26724 4.58559C8.91101 4.75496 8.52511 4.88593 8.13393 4.88593" id="path70" fill="none" fill-rule="evenodd" stroke="none" />
            <g clip-path="url(#mask_1)">
              <g id="g68" transform="translate(0.00091552734 -0.00022125244)">
                <g id="g74">
                  <path d="M0 0L11.9509 0L11.9509 9.09228L0 9.09228" id="path76" fill="#F7E3C6" fill-rule="evenodd" stroke="none" />
                </g>
              </g>
            </g>
          </g>
        </g>
        <g id="g78" transform="translate(10.51239 9.197342)">
          <path d="M1.92388 10.9637C1.56853 10.9637 1.22032 10.8798 0.916774 10.6906C0.106091 10.1852 -0.147451 9.07098 0.0793128 8.14423C0.306076 7.21572 0.907837 6.4318 1.51139 5.689C3.17739 3.63912 4.96835 1.64096 7.0504 0C8.05929 0.971386 9.10745 1.90168 10.1896 2.79093C10.086 2.88736 9.97885 2.98201 9.87349 3.07841C8.04679 4.76759 6.579 6.79788 5.07191 8.77813C4.563 9.44598 4.03092 10.1263 3.30951 10.562C2.89525 10.8102 2.40418 10.9637 1.92386 10.9637" id="path80" fill="#F68659" fill-rule="evenodd" stroke="none" />
        </g>
      </g>
    </g>
  </g>
</svg>