<?xml version="1.0" encoding="utf-8"?>
<svg width="75px" height="32px" viewBox="0 0 75 32" version="1.1" xmlns:xlink="http://www.w3.org/1999/xlink" xmlns="http://www.w3.org/2000/svg">
  <defs>
    <path d="M0 0L20 0L20 20L0 20L0 0Z" id="path_1" />
    <clipPath id="mask_1">
      <use xlink:href="#path_1" />
    </clipPath>
  </defs>
  <g id="clear">
    <g id="Group-44">
      <g id="clear">
        <g id="Group-44">
          <g id="Group-33">
            <g id="Group-32">
              <g id="Group-31">
                <g id="Group-31">
                  <path d="M5.999 0L69.001 0Q69.1483 0 69.2953 0.00722606Q69.4424 0.0144521 69.589 0.0288868Q69.7356 0.0433215 69.8812 0.0649301Q70.0269 0.0865387 70.1713 0.115269Q70.3158 0.143999 70.4586 0.179782Q70.6015 0.215565 70.7424 0.258315Q70.8833 0.301064 71.022 0.350677Q71.1606 0.40029 71.2967 0.456647Q71.4328 0.513003 71.5659 0.575968Q71.699 0.638933 71.8289 0.708354Q71.9588 0.777776 72.0851 0.853486Q72.2114 0.929196 72.3339 1.01101Q72.4563 1.09283 72.5746 1.18056Q72.6929 1.26828 72.8067 1.36171Q72.9205 1.45514 73.0297 1.55403Q73.1388 1.65293 73.2429 1.75707Q73.3471 1.8612 73.446 1.97032Q73.5449 2.07944 73.6383 2.19327Q73.7317 2.30711 73.8194 2.4254Q73.9072 2.54369 73.989 2.66613Q74.0708 2.78858 74.1465 2.9149Q74.2222 3.04121 74.2916 3.17109Q74.3611 3.30097 74.424 3.4341Q74.487 3.56722 74.5433 3.70328Q74.5997 3.83934 74.6493 3.978Q74.6989 4.11666 74.7417 4.25758Q74.7844 4.39851 74.8202 4.54136Q74.856 4.68422 74.8847 4.82865Q74.9134 4.97309 74.9351 5.11876Q74.9567 5.26444 74.9711 5.411Q74.9855 5.55755 74.9928 5.70464Q75 5.85173 75 5.999L75 26.001Q75 26.1483 74.9928 26.2954Q74.9855 26.4424 74.9711 26.589Q74.9567 26.7356 74.9351 26.8812Q74.9134 27.0269 74.8847 27.1713Q74.856 27.3158 74.8202 27.4586Q74.7844 27.6015 74.7417 27.7424Q74.6989 27.8833 74.6493 28.022Q74.5997 28.1607 74.5433 28.2967Q74.487 28.4328 74.424 28.5659Q74.3611 28.699 74.2916 28.8289Q74.2222 28.9588 74.1465 29.0851Q74.0708 29.2114 73.989 29.3339Q73.9072 29.4563 73.8194 29.5746Q73.7317 29.6929 73.6383 29.8067Q73.5449 29.9206 73.446 30.0297Q73.3471 30.1388 73.2429 30.2429Q73.1388 30.3471 73.0297 30.446Q72.9205 30.5449 72.8067 30.6383Q72.6929 30.7317 72.5746 30.8194Q72.4563 30.9072 72.3339 30.989Q72.2114 31.0708 72.0851 31.1465Q71.9588 31.2222 71.8289 31.2916Q71.699 31.3611 71.5659 31.424Q71.4328 31.487 71.2967 31.5433Q71.1606 31.5997 71.022 31.6493Q70.8833 31.6989 70.7424 31.7417Q70.6015 31.7844 70.4586 31.8202Q70.3158 31.856 70.1713 31.8847Q70.0269 31.9135 69.8812 31.9351Q69.7356 31.9567 69.589 31.9711Q69.4424 31.9855 69.2953 31.9928Q69.1483 32 69.001 32L5.999 32Q5.85173 32 5.70464 31.9928Q5.55755 31.9855 5.411 31.9711Q5.26444 31.9567 5.11876 31.9351Q4.97309 31.9135 4.82865 31.8847Q4.68422 31.856 4.54136 31.8202Q4.39851 31.7844 4.25758 31.7417Q4.11666 31.6989 3.978 31.6493Q3.83934 31.5997 3.70328 31.5434Q3.56722 31.487 3.4341 31.424Q3.30097 31.3611 3.17109 31.2916Q3.04121 31.2222 2.9149 31.1465Q2.78858 31.0708 2.66613 30.989Q2.54369 30.9072 2.4254 30.8194Q2.30711 30.7317 2.19327 30.6383Q2.07944 30.5449 1.97032 30.446Q1.8612 30.3471 1.75707 30.2429Q1.65293 30.1388 1.55403 30.0297Q1.45514 29.9206 1.36171 29.8067Q1.26829 29.6929 1.18056 29.5746Q1.09283 29.4563 1.01101 29.3339Q0.929196 29.2114 0.853486 29.0851Q0.777776 28.9588 0.708354 28.8289Q0.638933 28.699 0.575968 28.5659Q0.513003 28.4328 0.456647 28.2967Q0.40029 28.1607 0.350677 28.022Q0.301064 27.8833 0.258315 27.7424Q0.215565 27.6015 0.179782 27.4586Q0.143999 27.3158 0.115269 27.1713Q0.0865387 27.0269 0.0649301 26.8812Q0.0433215 26.7356 0.0288868 26.589Q0.0144521 26.4424 0.00722606 26.2954Q0 26.1483 0 26.001L0 5.999Q0 5.85173 0.00722606 5.70464Q0.0144521 5.55755 0.0288868 5.411Q0.0433215 5.26444 0.0649301 5.11876Q0.0865387 4.97309 0.115269 4.82865Q0.143999 4.68422 0.179782 4.54136Q0.215565 4.39851 0.258315 4.25758Q0.301064 4.11666 0.350677 3.978Q0.40029 3.83934 0.456647 3.70328Q0.513003 3.56722 0.575968 3.4341Q0.638933 3.30097 0.708354 3.17109Q0.777776 3.04121 0.853486 2.9149Q0.929196 2.78858 1.01101 2.66613Q1.09283 2.54369 1.18056 2.4254Q1.26828 2.30711 1.36171 2.19327Q1.45514 2.07944 1.55403 1.97032Q1.65293 1.8612 1.75707 1.75707Q1.8612 1.65293 1.97032 1.55403Q2.07944 1.45514 2.19327 1.36171Q2.30711 1.26829 2.4254 1.18056Q2.54369 1.09283 2.66613 1.01101Q2.78858 0.929196 2.9149 0.853486Q3.04121 0.777776 3.17109 0.708354Q3.30097 0.638933 3.4341 0.575968Q3.56722 0.513003 3.70328 0.456647Q3.83934 0.40029 3.978 0.350677Q4.11666 0.301064 4.25758 0.258315Q4.39851 0.215565 4.54136 0.179782Q4.68422 0.143999 4.82865 0.115269Q4.97309 0.0865387 5.11876 0.0649301Q5.26444 0.0433215 5.411 0.0288868Q5.55755 0.0144521 5.70464 0.00722606Q5.85173 0 5.999 0Z" id="Rectangle" fill="#FF3853" fill-rule="evenodd" stroke="none" />
                  <g id="Clear" fill="#FFFFFF" transform="translate(19 7.399994)">
                    <path d="M47.8906 10.5391Q48.6953 9.42969 48.6953 7.99219Q48.6953 3.27344 42.125 3.27344Q40.3516 3.27344 38.2031 3.5Q38.4531 7.57813 38.5234 9.88281Q38.6797 13.7969 38.7656 15.5L43.1641 15.5L43.2422 12.7656L43.2578 12.7656Q43.9531 14.1719 44.3125 14.7656Q45.0938 15.9375 45.3203 16.2188Q46.0938 15.8359 46.9688 15.4375Q48.2188 14.8984 48.5859 14.7656Q47.6719 13.9219 47.2266 13.4063Q46.3359 12.2813 46.1094 11.9297Q47.1797 11.5078 47.8906 10.5391ZM10.3203 8.41406Q9.89063 8.28125 9.21875 8.28125Q7.96875 8.28125 7.1875 8.9375Q6.30469 9.67188 6.30469 11.0547Q6.30469 12.1328 7.00391 12.8242Q7.70313 13.5156 8.83594 13.5156Q9.60938 13.5156 10.3047 13.1328Q10.2266 13.4531 10.0391 14.3125Q9.92969 14.8828 9.82813 15.5Q8.95313 15.8359 7.58594 15.8359Q5.10938 15.8359 3.35156 14.1719Q1.44531 12.3594 1.44531 9.45313Q1.44531 6.76563 3.08594 5.10938Q4.83594 3.34375 7.92188 3.34375Q9.40625 3.34375 10.0703 3.51563L10.3203 8.41406ZM19.1094 13.1328Q19.0313 13.4453 18.8203 14.3125Q18.7109 14.8203 18.6328 15.5L11.5625 15.5Q11.5234 13.6641 11.3672 9.45313Q11.2656 7.29688 11 3.5L16.4219 3.5L15.9766 13.4531Q16.7344 13.4531 18.25 13.2891Q18.5625 13.2578 19.1094 13.1328ZM27.3516 8.44531L27.6875 3.5L19.4766 3.5Q19.7188 7.27344 19.7813 9.375L20.0078 15.5L27 15.5Q27.1563 14.7734 27.2656 14.2969Q27.4922 13.375 27.5547 13.1328Q26.875 13.2969 26.5781 13.3203Q25.0078 13.4141 24.4219 13.4219L24.5 11.6797Q25.3281 11.6719 25.75 11.6953Q26.6563 11.7813 26.8828 11.8359Q26.9688 11.2109 27.0781 10.7344Q27.2656 9.94531 27.3516 9.65625Q25.4063 9.71875 24.5469 9.69531L24.6641 8.20313Q25.4453 8.21875 26.1016 8.28125Q27.0625 8.39844 27.3516 8.44531ZM37.9141 15.5L33.6406 15.5L33.3516 14.4609Q33.1719 14.5313 32.4531 14.9375Q31.9922 15.2344 31.4297 15.7266L30.9844 14.7813Q30.8516 14.5 30.6016 13.9922L30.1797 15.5L27.9141 15.5Q28.4141 13.5703 29.4609 9.13281Q30.1016 6.16406 30.5313 3.5L35.2266 3.5Q35.4453 4.72656 36.4219 9.21094Q36.9609 11.5547 37.9141 15.5ZM44.5234 8.61719Q45.1484 8.9375 45.1484 9.67969Q45.1484 10.4219 44.4766 10.7969Q43.9688 11.0859 43.3203 11.0859L43.3672 8.41406Q44.0625 8.38281 44.5234 8.61719ZM32.9844 12.9375Q32.8516 12.5234 32.5156 11.5938Q32.3125 11.0781 31.8984 10.1719Q31.7188 10.625 31.3359 11.6563Q31.125 12.25 30.8359 13.2734Q31.0703 13.2734 31.8984 13.1797Q32.3984 13.1094 32.9844 12.9375Z" />
                  </g>
                </g>
              </g>
            </g>
          </g>
        </g>
      </g>
      <g id="Remove-icon" transform="translate(3 6)">
        <path d="M0 0L20 0L20 20L0 20L0 0Z" id="Background" fill="none" fill-rule="evenodd" stroke="none" />
        <g clip-path="url(#mask_1)">
          <path d="M6.66574 8.13802e-05C6.29807 0.0058287 6.00446 0.308175 6.00949 0.675863L6.00949 1.0092L2.34283 1.0092C2.16445 1.00678 1.99254 1.07594 1.86554 1.20123C1.73854 1.32651 1.66705 1.49747 1.66705 1.67586L0.676161 1.67586C0.435738 1.67246 0.212107 1.79878 0.0909033 2.00644C-0.0303008 2.21411 -0.0303011 2.47095 0.090903 2.67861C0.212107 2.88628 0.435737 3.0126 0.676161 3.0092L12.6762 3.0092C12.9166 3.0126 13.1402 2.88628 13.2614 2.67861C13.3826 2.47095 13.3826 2.21411 13.2614 2.00645C13.1402 1.79878 12.9166 1.67246 12.6762 1.67586L11.6853 1.67586C11.6853 1.49747 11.6138 1.32652 11.4868 1.20123C11.3598 1.07594 11.1879 1.00678 11.0095 1.0092L7.34283 1.0092L7.34283 0.675863C7.3453 0.495666 7.27471 0.322141 7.14716 0.194831C7.0196 0.06752 6.84594 -0.00273228 6.66575 8.13802e-05L6.66574 8.13802e-05ZM0.676147 4.34253L1.87146 14.4988C1.95013 15.1701 2.51838 15.6759 3.19438 15.6759L10.1579 15.6759C10.8339 15.6759 11.4015 15.1701 11.4808 14.4988L12.6761 4.34253L0.676147 4.34253L0.676147 4.34253Z" transform="translate(3.3238525 1.6574707)" id="Shape" fill="#FFFFFF" fill-rule="evenodd" stroke="none" />
        </g>
      </g>
    </g>
  </g>
</svg>