<?xml version="1.0" encoding="utf-8"?>
<svg width="26px" height="26px" viewBox="0 0 26 26" version="1.1" xmlns:xlink="http://www.w3.org/1999/xlink" xmlns="http://www.w3.org/2000/svg">
  <defs>
    <path d="M0 0L26 0L26 26L0 26L0 0Z" id="path_1" />
    <clipPath id="mask_1">
      <use xlink:href="#path_1" />
    </clipPath>
  </defs>
  <g id="Delete-icon">
    <path d="M0 0L26 0L26 26L0 26L0 0Z" id="Background" fill="none" fill-rule="evenodd" stroke="none" />
    <g clip-path="url(#mask_1)">
      <path d="M17.7588 15.665L15.6611 17.7588C15.2783 18.1455 14.6533 18.1455 14.2666 17.7588L9.02441 12.5205L3.78613 17.7588C3.39941 18.1455 2.77051 18.1455 2.38769 17.7588L0.290039 15.665C-0.0966797 15.2783 -0.0966797 14.6533 0.290039 14.2666L5.52832 9.02441L0.290039 3.78613C-0.0927727 3.39551 -0.0927727 2.7666 0.290039 2.3877L2.38769 0.290039C2.77051 -0.0966797 3.39941 -0.0966797 3.78613 0.290039L9.02441 5.53223L14.2666 0.290039C14.6533 -0.0966797 15.2822 -0.0966797 15.6611 0.290039L17.7588 2.38379C18.1455 2.77051 18.1455 3.39941 17.7627 3.78613L12.5205 9.02441L17.7588 14.2666C18.1455 14.6533 18.1455 15.2783 17.7588 15.665L17.7588 15.665Z" transform="translate(3.9755857 3.9755857)" id="Shape" fill="#FFFFFF" fill-rule="evenodd" stroke="none" />
    </g>
  </g>
</svg>