<?xml version="1.0" encoding="utf-8"?>
<svg width="66px" height="66px" viewBox="0 0 66 66" version="1.1" xmlns:xlink="http://www.w3.org/1999/xlink" xmlns="http://www.w3.org/2000/svg">
  <g id="gobo" transform="translate(1 1)">
    <path d="M0 0L64 0L64 64L0 64L0 0Z" id="Rectangle" fill="#FFFFFF" fill-opacity="0" fill-rule="evenodd" stroke="none" />
    <g id="Group-14" transform="translate(8.815918 0.0987854)">
      <g id="Group-13">
        <g id="Group">
          <path d="M1.52588e-05 1.96779C1.52588e-05 1.27104 0.19545 0.270172 1.27658 0.0442505C2.83635 -0.282959 4.62097 1.29646 5.10635 1.76117C5.07047 1.94609 5.6774 5.67732 5.6774 6.00044C5.6774 7.09444 5.3851 7.13779 5.27167 7.15576C4.2037 7.31122 1.35756 4.31839 0.0511627 2.57712C0.0331879 2.48262 0 2.27226 0 1.96777L0 1.96777L0 1.96777L1.52588e-05 1.96779Z" transform="translate(23.320862 47.10978)" id="Shape" fill="#FFC93E" fill-rule="evenodd" stroke="#FF9A00" stroke-width="2" />
          <path d="M0.884674 7.47018C0.110428 6.63023 0 4.35376 0 3.38539C0 2.97455 0.0209808 2.7012 0.0220032 2.69273L0.0233765 2.67175C0.0233765 2.67175 0.0209808 2.584 0.0209808 2.55182C0.0209808 0.72789 1.69997 0.0951691 1.9845 0C2.95657 0.0118408 4.6369 0.471802 5.03793 1.16548C5.07857 1.23563 5.1165 1.32365 5.1165 1.43648C5.1165 1.53537 5.08704 1.65524 5.00307 1.79988C4.96411 1.86626 4.2738 3.4975 3.68988 4.74834L3.27261 5.90503C2.96031 6.91571 2.46886 7.92711 1.93401 7.92711C1.51132 7.92777 1.16818 7.77808 0.884674 7.47017L0.884674 7.47017L0.884674 7.47017L0.884674 7.47018Z" transform="translate(18.111542 46.835655)" id="Shape" fill="#FFC93E" fill-rule="evenodd" stroke="#FF9A00" stroke-width="2" />
          <path d="M5.77575 10.5492L5.02081 9.21711C4.19402 7.77726 3.23884 6.45897 2.39649 5.2986C1.31362 3.80387 0.371346 2.25733 0.0594101 1.16465C-0.0530624 0.771061 0.0011673 0.395451 0.163048 0.187809C0.178612 0.131916 0.341881 0.0428658 0.457024 0.0191231C1.84438 -0.280621 7.58718 3.01635 9.01992 4.77834C11.1189 7.35962 11.9582 10.9801 11.4901 12.8036C11.298 13.5488 10.8686 14.0768 10.2464 14.3282C8.65719 14.9704 7.6116 13.8113 5.77575 10.5492L5.77575 10.5492L5.77575 10.5492L5.77575 10.5492Z" transform="translate(35.118286 30.536171)" id="Shape" fill="#FFC93E" fill-rule="evenodd" stroke="#FF9A00" stroke-width="2" />
          <path d="M12.8472 15.6424C14.8859 14.5344 12.7818 10.3626 10.7461 6.32757C9.6335 4.12119 7.64936 0.394754 8.29424 0.0455265C9.54171 -0.630545 15.5013 6.40241 17.9173 9.23701L20.38 12.0419C20.38 12.0419 22.1406 14.2021 23.488 15.6264C23.5117 15.6515 24.7856 15.4537 25.6656 14.7224C26.383 14.1239 26.2881 13.4543 26.5164 12.046C26.726 10.7521 26.9537 8.41059 27.648 8.39875C28.6939 8.38282 29.3815 12.6939 29.6494 14.2909L29.7974 15.1451C30.1487 17.0446 31.9811 22.7556 32.0597 22.9977C32.0848 23.0567 32.1261 23.1332 32.1261 23.1332L32.1413 23.1641L32.1623 23.1898C34.9919 26.6991 37.0966 30.9543 37.0966 34.9409C37.0966 43.3829 29.6965 49.3255 19.7914 49.3255C17.9542 49.3255 16.1573 49.0681 14.4506 48.5621L14.3588 48.5356C14.3588 48.5356 11.6796 48.3104 8.25225 52.8156C7.56464 53.7199 7.62595 54.563 6.65694 54.3035C6.3338 54.2171 6.09636 53.9797 5.90261 53.5485C5.43929 52.5202 5.78134 50.0839 6.3477 48.5272L6.43674 48.2826L6.23217 48.1207C6.18202 48.0807 0.623187 44.0301 0.0615873 38.2257C-0.427823 33.1661 2.12807 30.2854 3.18854 28.7023L3.79788 27.6874C4.56708 25.8158 3.11946 23.2135 1.84188 20.917C1.07906 19.5459 -0.152127 17.5452 0.125979 17.0751C0.434558 16.5541 1.53739 17.1083 2.65105 17.6397C3.55406 18.0712 4.42279 18.6809 5.02606 18.2788C5.65332 17.8612 5.24182 16.8119 4.67174 15.3602C4.13561 13.9965 3.12049 11.8424 3.51035 10.9532C3.61772 10.7087 3.806 10.537 4.08615 10.4282C5.1219 10.0272 6.60274 11.7719 7.80147 13.1365C9.26332 14.8027 10.9216 16.6906 12.8472 15.6423L12.8472 15.6423L12.8472 15.6423L12.8472 15.6424Z" transform="translate(5.4408264 0)" id="Shape" fill="#FFC93E" fill-rule="evenodd" stroke="#FF9A00" stroke-width="2" />
          <g id="Group" transform="translate(19.997437 32.799263)">
            <path d="M0 2.75977L0 2.75977L0 2.75977C0 1.2363 1.23491 0.000671387 2.75844 0C4.2816 0 5.51653 1.2363 5.51653 2.75977C5.51653 4.28227 4.28197 5.51688 2.75844 5.51688C1.23528 5.51688 0 4.28227 0 2.75977L0 2.75977Z" id="Shape" fill="#FFFFFF" fill-rule="evenodd" stroke="none" />
            <path d="M1.94116 0C2.47662 0 2.96201 0.217438 3.31326 0.569016C3.66483 0.920273 3.88228 1.40564 3.88228 1.94112C3.88228 2.47662 3.66484 2.96201 3.31326 3.31322C2.96201 3.66483 2.47664 3.88228 1.94116 3.88228C1.40565 3.88228 0.920273 3.66484 0.569061 3.31322C0.217453 2.96201 0 2.47664 0 1.94112C0 1.40565 0.217438 0.920273 0.569061 0.569016C0.920273 0.217453 1.40564 0 1.94116 0L1.94116 0L1.94116 0Z" transform="translate(1.1888428 0.7438202)" id="Shape" fill="#603813" fill-rule="evenodd" stroke="none" />
          </g>
          <g id="Group" transform="translate(33.285645 32.799263)">
            <path d="M0 2.75977L0 2.75977L0 2.75977C0 1.2363 1.23495 0.000671387 2.75909 0C4.28226 0 5.51723 1.2363 5.51723 2.75977C5.51723 4.28227 4.2816 5.51688 2.75909 5.51688C1.23495 5.51688 0 4.28227 0 2.75977L0 2.75977Z" id="Shape" fill="#FFFFFF" fill-rule="evenodd" stroke="none" />
            <path d="M0 1.9411L0 1.9411L0 1.9411C0 0.869461 0.868439 0 1.9408 0C3.01244 0 3.8819 0.869766 3.8819 1.9411C3.8819 3.01381 3.01244 3.88159 1.9408 3.88159C0.868439 3.88159 0 3.01279 0 1.9411L0 1.9411Z" transform="translate(1.1885529 0.74380493)" id="Shape" fill="#603813" fill-rule="evenodd" stroke="none" />
          </g>
          <path d="M0.951253 12.3645C0.38593 12.0034 0.0600939 11.4073 0.00760364 10.6384C-0.120082 8.75825 1.36785 5.35321 3.90238 3.19972C5.63318 1.72905 11.8823 -0.46172 13.1911 0.0859947C13.2992 0.13139 13.4442 0.24789 13.4486 0.306805C13.5708 0.539516 13.5545 0.918179 13.372 1.28465C12.866 2.30212 11.6568 3.6512 10.3182 4.92103C9.27768 5.91139 8.09862 7.0298 7.02326 8.29556L6.03693 9.46409C3.63649 12.337 2.39515 13.2874 0.951268 12.3645L0.951268 12.3645L0.951268 12.3645L0.951253 12.3645Z" transform="translate(0 33.84323)" id="Shape" fill="#FFC93E" fill-rule="evenodd" stroke="#FF9A00" stroke-width="2" />
          <path d="M0.0021019 0.225922L0.0021019 0.225922L0.0021019 0.225922L4.69389 0L4.64508 0.402359C4.62614 0.555786 4.20509 3.08427 2.14033 3.08427C1.69055 3.08427 1.29936 2.92166 0.977917 2.5965C0.032589 1.64305 -0.0019722 0.636749 7.24792e-05 0.549362L0.00211716 0.225937L0.0021019 0.225922Z" transform="translate(28.254395 42.0951)" id="Shape" fill="#603813" fill-rule="evenodd" stroke="none" />
        </g>
      </g>
    </g>
  </g>
</svg>