<?xml version="1.0" encoding="utf-8"?>
<svg width="64px" height="64px" viewBox="0 0 64 64" version="1.1" xmlns:xlink="http://www.w3.org/1999/xlink" xmlns="http://www.w3.org/2000/svg">
  <g id="suitcase">
    <path d="M0 0L64 0L64 64L0 64L0 0Z" id="Rectangle" fill="#FFFFFF" fill-opacity="0" fill-rule="evenodd" stroke="none" />
    <g id="g10" transform="translate(8.815979 10.761475)">
      <g id="g12">
        <g id="g14" transform="translate(0 7.168518)">
          <path d="M47.7916 27.8018C47.7916 31.2656 44.9835 34.0735 41.5197 34.0735L6.27194 34.0735C2.80795 34.0735 0 31.2656 0 27.8018L0 6.27187C0 2.80775 2.80795 0 6.27194 0L41.5197 0C44.9835 0 47.7916 2.80775 47.7916 6.27187L47.7916 27.8018" id="path16" fill="#824B2F" fill-rule="evenodd" stroke="none" />
        </g>
        <g id="g18" transform="translate(0 9.29715)">
          <path d="M47.7916 27.8015C47.7916 31.2655 44.9835 34.0734 41.5197 34.0734L6.27194 34.0734C2.80795 34.0734 0 31.2655 0 27.8015L0 6.27187C0 2.80775 2.80795 0 6.27194 0L41.5197 0C44.9835 0 47.7916 2.80775 47.7916 6.27187L47.7916 27.8015" id="path20" fill="#8A5B33" fill-rule="evenodd" stroke="none" />
        </g>
        <path d="M0 0L0 7.51775L4.56154 7.51775L4.56154 0L0 0" transform="translate(7.1121216 35.852844)" id="path22" fill="#824B2F" fill-rule="evenodd" stroke="none" />
        <g id="g24" transform="translate(38.972992 35.852783)">
          <path d="M0 0L0 7.51775L2.54723 7.51775C3.02252 7.51775 3.48492 7.46318 3.93023 7.36303L3.93023 0L0 0" id="path26" fill="#824B2F" fill-rule="evenodd" stroke="none" />
        </g>
        <g id="g28" transform="translate(0 9.29715)">
          <path d="M41.5197 0L6.27194 0C2.80795 0 0 2.80775 0 6.27187L0 27.8015C0 27.9688 0.00860403 28.134 0.0214611 28.298L41.5197 28.298C43.737 28.298 45.6837 29.4495 46.7993 31.1859C47.4263 30.2094 47.7916 29.0486 47.7916 27.8015L47.7916 6.27187C47.7916 2.80775 44.9835 0 41.5197 0" id="path30" fill="#824B2F" fill-rule="evenodd" stroke="none" />
        </g>
        <g id="g32" transform="translate(0 9.29715)">
          <path d="M41.5197 0L6.27194 0C2.80795 0 0 2.80775 0 6.27187L0 21.3081C0 24.7721 2.80795 27.5801 6.27194 27.5801L41.5197 27.5801C44.9835 27.5801 47.7916 24.7721 47.7916 21.3081L47.7916 6.27187C47.7916 2.80775 44.9835 0 41.5197 0" id="path34" fill="#A5703B" fill-rule="evenodd" stroke="none" />
        </g>
        <path d="M4.56154 0L0 0L0 27.5804L4.56154 27.5804L4.56154 0" transform="translate(7.1121216 9.296814)" id="path36" fill="#8A5B33" fill-rule="evenodd" stroke="none" />
        <g id="g38" transform="translate(38.972992 9.296753)">
          <path d="M2.54723 0L0 0L0 27.5804L2.54723 27.5804C3.02252 27.5804 3.48492 27.5258 3.93023 27.4254L3.93023 0.154934C3.48492 0.0545424 3.02252 0 2.54723 0" id="path40" fill="#8A5B33" fill-rule="evenodd" stroke="none" />
        </g>
        <g id="g42" transform="translate(0.49124146 9.788361)">
          <path d="M43.4657 0C43.7822 0.748997 43.9569 1.57283 43.9569 2.43721L43.9569 17.4735C43.9569 20.9373 41.1491 23.7452 37.6853 23.7452L2.43728 23.7452C1.57283 23.7452 0.749394 23.5703 0 23.254C0.951149 25.5072 3.18116 27.0889 5.7807 27.0889L41.0285 27.0889C44.4923 27.0889 47.3003 24.2809 47.3003 20.8169L47.3003 5.78067C47.3003 3.18093 45.7193 0.951082 43.4657 0" id="path44" fill="#8A5B33" fill-rule="evenodd" stroke="none" />
        </g>
        <path d="M3.69721 0L0.265634 0C0.118919 0 0 0.119004 0 0.26558L0 34.3861C0 34.5329 0.118919 34.6516 0.265634 34.6516L3.69721 34.6516C3.84392 34.6516 3.96273 34.5329 3.96273 34.3861L3.96273 0.26558C3.96273 0.119006 3.84392 0 3.69721 0" transform="translate(6.305725 9.007874)" id="path46" fill="#3D3628" fill-rule="evenodd" stroke="none" />
        <path d="M3.76743 0L0.335855 0C0.150682 0 0 0.150795 0 0.335914L0 32.1264C0 33.2576 0.920265 34.1779 2.05164 34.1779C3.18268 34.1779 4.10317 33.2576 4.10317 32.1264L4.10317 0.335914C4.10317 0.150795 3.95249 0 3.76743 0" transform="translate(6.235504 6.4632263)" id="path48" fill="#584F3F" fill-rule="evenodd" stroke="none" />
        <path d="M0.13041 6.21915C0.125796 6.21915 0.108213 6.01631 0.106666 6.00055C0.0975497 5.90237 0.0885477 5.80362 0.0808387 5.70516C0.0648026 5.50344 0.0522552 5.30088 0.0418186 5.09861C0.0193948 4.66226 0.00895818 4.22535 0.00324792 3.78788C-0.00851259 2.89465 0.0118275 1.99692 0.0615959 1.10651C0.0731594 0.902541 0.0876475 0.699701 0.103796 0.496296C0.110942 0.408241 0.118763 0.320184 0.127992 0.232408C0.134911 0.164608 0.150414 0.103838 0.186902 0.0577027C0.272174 -0.0500478 0.407663 -0.000533164 0.449637 0.153355C0.466687 0.21581 0.468008 0.290363 0.474368 0.356478C0.48351 0.452409 0.49074 0.548345 0.498337 0.644842C0.566587 1.51894 0.58493 2.40289 0.588559 3.28233C0.591738 4.1432 0.572636 5.01139 0.495804 5.86552C0.487224 5.96117 0.477573 6.05654 0.467558 6.15191C0.458978 6.23181 0.44733 6.3058 0.402935 6.36094C0.307001 6.47994 0.155138 6.40117 0.130409 6.21915C0.130409 6.21915 0.143265 6.3148 0.130409 6.21915" transform="translate(6.7243347 15.886414)" id="path50" fill="#9E9587" fill-rule="evenodd" stroke="none" />
        <path d="M0.0538714 1.27534C0.00627046 1.10514 -0.00163426 0.903141 0.00024984 0.721396C0.00233227 0.531219 0.0124315 0.335409 0.0511154 0.153108C0.0815547 0.00934711 0.202781 -0.0517014 0.282003 0.0515469C0.313428 0.0929044 0.32499 0.148044 0.335091 0.205716C0.351689 0.299963 0.361453 0.39646 0.367726 0.492955C0.383875 0.739122 0.382776 1.0002 0.331461 1.23792C0.313765 1.31951 0.275195 1.38478 0.215863 1.40222C0.149243 1.42135 0.0809069 1.36762 0.0538714 1.27534" transform="translate(6.8313293 22.799255)" id="path52" fill="#9E9587" fill-rule="evenodd" stroke="none" />
        <path d="M1.52017 0.921631C1.19017 0.921631 0.921692 1.1903 0.921692 1.5203L0.921692 5.10082C0.921692 5.43082 1.19017 5.69921 1.52017 5.69921L5.10068 5.69921C5.43068 5.69921 5.69916 5.43082 5.69916 5.10082L5.69916 1.5203C5.69916 1.1903 5.43068 0.921631 5.10068 0.921631L1.52017 0.921631ZM5.10069 6.62086L1.52018 6.62086C0.682005 6.62086 0 5.93892 0 5.10083L0 1.52032C0 0.682231 0.682005 0 1.52018 0L5.10069 0C5.93886 0 6.62075 0.682231 6.62075 1.52032L6.62075 5.10083C6.62075 5.93892 5.93886 6.62086 5.10069 6.62086" transform="translate(4.976654 28.401764)" id="path54" fill="#9E9587" fill-rule="evenodd" stroke="none" />
        <path d="M0.935654 0.467852C0.935654 0.726398 0.726201 0.935707 0.467827 0.935707C0.209452 0.935707 0 0.726395 0 0.467852C0 0.209592 0.209452 0 0.467827 0C0.726201 0 0.935654 0.209592 0.935654 0.467852" transform="translate(7.819214 8.540009)" id="path56" fill="#3D3628" fill-rule="evenodd" stroke="none" />
        <path d="M0.935654 0.467856C0.935654 0.726118 0.726201 0.935431 0.467827 0.935431C0.209452 0.935431 0 0.726118 0 0.467856C0 0.20931 0.209452 0 0.467827 0C0.726201 0 0.935654 0.209312 0.935654 0.467856" transform="translate(7.819214 12.294678)" id="path58" fill="#3D3628" fill-rule="evenodd" stroke="none" />
        <path d="M0.935654 0.467854C0.935654 0.726396 0.726201 0.935705 0.467827 0.935705C0.209452 0.935705 0 0.726394 0 0.467854C0 0.209592 0.209452 0 0.467827 0C0.726201 0 0.935654 0.209592 0.935654 0.467854" transform="translate(7.819214 16.049042)" id="path60" fill="#3D3628" fill-rule="evenodd" stroke="none" />
        <path d="M0.935654 0.467852C0.935654 0.726115 0.726201 0.935427 0.467827 0.935427C0.209452 0.935427 0 0.726115 0 0.467852C0 0.209309 0.209452 0 0.467827 0C0.726201 0 0.935654 0.209312 0.935654 0.467852" transform="translate(7.819214 19.80371)" id="path62" fill="#3D3628" fill-rule="evenodd" stroke="none" />
        <path d="M0.935654 0.467854C0.935654 0.7264 0.726201 0.935709 0.467827 0.935709C0.209452 0.935709 0 0.726397 0 0.467854C0 0.209592 0.209452 0 0.467827 0C0.726201 0 0.935654 0.209592 0.935654 0.467854" transform="translate(7.819214 23.558075)" id="path64" fill="#3D3628" fill-rule="evenodd" stroke="none" />
        <path d="M0.935654 0.467855C0.935654 0.726117 0.726201 0.935707 0.467827 0.935707C0.209452 0.935707 0 0.726117 0 0.467855C0 0.209592 0.209452 0 0.467827 0C0.726201 0 0.935654 0.209592 0.935654 0.467855" transform="translate(7.819214 27.312744)" id="path66" fill="#3D3628" fill-rule="evenodd" stroke="none" />
        <path d="M0.935654 0.467856C0.935654 0.726398 0.726201 0.935713 0.467827 0.935713C0.209452 0.935713 0 0.726398 0 0.467856C0 0.209593 0.209452 0 0.467827 0C0.726201 0 0.935654 0.209593 0.935654 0.467856" transform="translate(7.819214 31.067108)" id="path68" fill="#3D3628" fill-rule="evenodd" stroke="none" />
        <g id="g70" transform="translate(37.523346 9.007843)">
          <path d="M3.69721 0L0.265953 0C0.1193 0 0 0.119014 0 0.265667L0 34.3861C0 34.533 0.1193 34.6517 0.265953 34.6517L3.69721 34.6517C3.84416 34.6517 3.96288 34.533 3.96288 34.3861L3.96288 0.26567C3.96288 0.119014 3.84416 5.15134e-06 3.69721 5.15134e-06" id="path72" fill="#3D3628" fill-rule="evenodd" stroke="none" />
        </g>
        <g id="g74" transform="translate(37.45331 6.463043)">
          <path d="M3.76737 0L0.335996 0C0.150661 0 0 0.150661 0 0.335996L0 32.1266C0 33.2578 0.920276 34.1781 2.05154 34.1781C3.1828 34.1781 4.10308 33.2578 4.10308 32.1266L4.10308 0.335996C4.10308 0.150661 3.95271 0 3.76737 0" id="path76" fill="#584F3F" fill-rule="evenodd" stroke="none" />
        </g>
        <path d="M0.130313 6.21915C0.12581 6.21915 0.108085 6.01631 0.106678 6.00055C0.0976738 5.90237 0.0886745 5.80362 0.0807982 5.70516C0.0647622 5.50344 0.0523836 5.30088 0.0419728 5.09861C0.0194668 4.66226 0.00905599 4.22535 0.0031526 3.78788C-0.00838117 2.89465 0.0118686 1.99692 0.0616662 1.10651C0.0732 0.902541 0.0875515 0.699701 0.103866 0.496296C0.110897 0.408241 0.118774 0.320184 0.128061 0.232408C0.13481 0.164608 0.150567 0.103838 0.186858 0.0577027C0.272102 -0.0500478 0.4077 -0.000533164 0.449621 0.153355C0.46678 0.21581 0.467908 0.290363 0.474095 0.356478C0.483666 0.452409 0.490698 0.548345 0.498291 0.644842C0.566654 1.51894 0.584941 2.40289 0.588598 3.28233C0.591972 4.1432 0.572562 5.01139 0.495756 5.86552C0.487035 5.96117 0.477469 6.05654 0.467625 6.15191C0.458904 6.23181 0.44737 6.3058 0.402919 6.36094C0.306987 6.47994 0.15507 6.40117 0.130307 6.21915C0.130307 6.21915 0.143247 6.3148 0.130307 6.21915" transform="translate(37.94226 15.886414)" id="path78" fill="#9E9587" fill-rule="evenodd" stroke="none" />
        <path d="M0.0537286 1.27534C0.00618162 1.10514 -0.00169479 0.903141 0.000273021 0.721396C0.00224599 0.531219 0.0126569 0.335409 0.0511941 0.153108C0.0815767 0.00934711 0.202834 -0.0517014 0.281887 0.0515469C0.313398 0.0929044 0.324932 0.148044 0.335342 0.205716C0.351657 0.299963 0.361506 0.39646 0.367693 0.492955C0.384012 0.739122 0.382889 1.0002 0.331402 1.23792C0.313676 1.31951 0.275133 1.38478 0.215775 1.40222C0.149101 1.42135 0.0807371 1.36762 0.0537286 1.27534" transform="translate(38.049225 22.799255)" id="path80" fill="#9E9587" fill-rule="evenodd" stroke="none" />
        <g id="g82" transform="translate(36.194733 28.401825)">
          <path d="M1.5199 0.921631C1.18996 0.921631 0.921631 1.19031 0.921631 1.52029L0.921631 5.10081C0.921631 5.43082 1.18996 5.6992 1.5199 5.6992L5.10054 5.6992C5.43048 5.6992 5.69881 5.43082 5.69881 5.10081L5.69881 1.52029C5.69881 1.19031 5.43048 0.921633 5.10054 0.921633L1.5199 0.921631ZM5.10054 6.62084L1.5199 6.62084C0.681726 6.62084 0 5.9389 0 5.10081L0 1.52029C0 0.682208 0.681728 0 1.5199 0L5.10054 0C5.93841 0 6.62044 0.682208 6.62044 1.52029L6.62044 5.10082C6.62044 5.9389 5.93841 6.62084 5.10054 6.62084" id="path84" fill="#9E9587" fill-rule="evenodd" stroke="none" />
        </g>
        <g id="g86" transform="translate(39.036987 8.540405)">
          <path d="M0.935509 0.467613C0.935509 0.726208 0.72621 0.935507 0.467613 0.935507C0.209299 0.935507 0 0.726208 0 0.467613C0 0.209299 0.209299 0 0.467613 0C0.72621 0 0.935509 0.209299 0.935509 0.467613" id="path88" fill="#3D3628" fill-rule="evenodd" stroke="none" />
        </g>
        <g id="g90" transform="translate(39.036987 12.294861)">
          <path d="M0.935509 0.467613C0.935509 0.726208 0.72621 0.935507 0.467613 0.935507C0.209299 0.935507 0 0.726208 0 0.467613C0 0.209296 0.209299 0 0.467613 0C0.72621 0 0.935509 0.209296 0.935509 0.467613" id="path92" fill="#3D3628" fill-rule="evenodd" stroke="none" />
        </g>
        <g id="g94" transform="translate(39.036987 16.049286)">
          <path d="M0.935509 0.467894C0.935509 0.726208 0.72621 0.935787 0.467613 0.935787C0.209299 0.935787 0 0.726205 0 0.467894C0 0.20958 0.209299 0 0.467613 0C0.72621 0 0.935509 0.209582 0.935509 0.467894" id="path96" fill="#3D3628" fill-rule="evenodd" stroke="none" />
        </g>
        <g id="g98" transform="translate(39.036987 19.803986)">
          <path d="M0.935509 0.467612C0.935509 0.725926 0.72621 0.935225 0.467613 0.935225C0.209299 0.935225 0 0.725926 0 0.467612C0 0.209296 0.209299 0 0.467613 0C0.72621 0 0.935509 0.209296 0.935509 0.467612" id="path100" fill="#3D3628" fill-rule="evenodd" stroke="none" />
        </g>
        <g id="g102" transform="translate(39.036987 23.558228)">
          <path d="M0.935509 0.467841C0.935509 0.726408 0.72621 0.935707 0.467613 0.935707C0.209299 0.935707 0 0.726408 0 0.467841C0 0.209583 0.209299 0 0.467613 0C0.72621 0 0.935509 0.209583 0.935509 0.467841" id="path104" fill="#3D3628" fill-rule="evenodd" stroke="none" />
        </g>
        <g id="g106" transform="translate(39.036987 27.312836)">
          <path d="M0.935509 0.467866C0.935509 0.726124 0.72621 0.935707 0.467613 0.935707C0.209299 0.935707 0 0.726124 0 0.467866C0 0.209609 0.209299 0 0.467613 0C0.72621 0 0.935509 0.209609 0.935509 0.467866" id="path108" fill="#3D3628" fill-rule="evenodd" stroke="none" />
        </g>
        <g id="g110" transform="translate(39.036987 31.06723)">
          <path d="M0.935509 0.467839C0.935509 0.72638 0.72621 0.935678 0.467613 0.935678C0.209299 0.935678 0 0.72638 0 0.467839C0 0.209582 0.209299 0 0.467613 0C0.72621 0 0.935509 0.209582 0.935509 0.467839" id="path112" fill="#3D3628" fill-rule="evenodd" stroke="none" />
        </g>
        <g id="g114" transform="translate(12.374756 0)">
          <path d="M23.0426 8.31586L21.7796 8.31586L21.7796 4.61013C21.7796 2.76487 20.2777 1.26336 18.4325 1.26336L4.61022 1.26336C2.76462 1.26336 1.26311 2.76487 1.26311 4.61013L1.26311 8.31586L0 8.31586L0 4.61013C0 2.06818 2.06812 0 4.61022 0L18.4325 0C20.9748 0 23.0426 2.06818 23.0426 4.61013L23.0426 8.31586" id="path116" fill="#A5703B" fill-rule="evenodd" stroke="none" />
        </g>
      </g>
    </g>
  </g>
</svg>