<?xml version="1.0" encoding="utf-8"?>
<svg width="64px" height="64px" viewBox="0 0 64 64" version="1.1" xmlns:xlink="http://www.w3.org/1999/xlink" xmlns="http://www.w3.org/2000/svg">
  <g id="taco">
    <path d="M0 0L64 0L64 64L0 64L0 0Z" id="Rectangle" fill="#FFFFFF" fill-opacity="0" fill-rule="evenodd" stroke="none" />
    <g id="Group-16" transform="translate(6.7559204 15.70462)">
      <g id="Group">
        <path d="M2.78439 24.9663C-3.30304 24.9663 0.381988 -0.371805 15.9075 0.00414085C31.7218 0.387457 37.4634 24.9663 37.4634 24.9663L2.78439 24.9663Z" transform="translate(1.0315552 6.7781525)" id="Shape" fill="#EFAB00" fill-rule="evenodd" stroke="none" />
        <path d="M48.5664 21.5741C48.5664 21.5741 16.9699 29.9876 11.2986 30.8232C3.70408 31.9423 1.18709 29.5004 0.270353 25.546C-1.24614 19.0049 4.03914 18.7891 5.65884 15.2153C7.27788 11.6408 3.46887 5.82615 11.0473 5.52593C17.386 5.27463 17.4826 0.404151 20.5986 0.0463171C25.4316 -0.508538 26.487 4.07981 30.0628 5.35841C33.4403 6.56597 35.2175 3.47602 38.9976 4.9952C42.2363 6.29726 42.3824 13.2176 46.6485 14.6564C53.601 17.0019 48.5664 21.5741 48.5664 21.5741" transform="translate(1.3960571 0)" id="Shape" fill="#59C059" fill-rule="evenodd" stroke="none" />
        <path d="M0.930223 3.95091C0.240663 3.74184 -0.153365 3.00536 0.0563822 2.3158L0.476548 0.929977C0.685624 0.240417 1.42143 -0.152939 2.11166 0.0561371L5.80138 1.17458C6.49161 1.38432 6.88496 2.12013 6.67522 2.81035L6.25505 4.1955C6.04598 4.88573 5.31017 5.27841 4.61994 5.06934L0.930223 3.9509" transform="translate(7.977112 15.618721)" id="Shape" fill="#E8511C" fill-rule="evenodd" stroke="none" />
        <path d="M6.43495 0.0299149C7.1989 0.224251 8.2912 1.0552 9.18246 1.27634C6.87723 7.24717 6.46176 12.97 3.60701 13.1711L3.59361 13.1711C1.4023 12.9902 -0.963243 10.9396 0.403808 8.82867C1.21466 7.57552 -0.045167 6.02084 0.296584 4.58007C0.785781 2.50268 2.91008 2.05369 3.64722 1.84596C4.45137 1.62481 5.30243 -0.258247 6.43495 0.0299149" transform="translate(0 18.56134)" id="Shape" fill="#C18500" fill-rule="evenodd" stroke="none" />
        <path d="M2.93513 0.354492C2.2583 1.58083 1.7021 2.84067 1.23302 4.0871L0.603104 3.89276L0 3.71249C0.489197 2.46538 1.06551 1.21225 1.76244 0L2.93513 0.354492Z" transform="translate(9.242676 15.958061)" id="Shape" fill="#C6431A" fill-rule="evenodd" stroke="none" />
        <path d="M6.8688 0.207748C4.65068 6.05125 4.20171 11.5999 1.44748 11.888C1.12582 11.888 0.964996 11.888 0.428894 11.9081L0.294861 11.9081C0.194336 11.9081 0.100525 11.9014 0 11.8947C2.85474 11.6937 3.27022 5.97083 5.57545 0C5.81671 0.0603027 6.03784 0.0737152 6.23889 0.0133972L6.8688 0.207748Z" transform="translate(3.6068726 19.837685)" id="Shape" fill="#A06B00" fill-rule="evenodd" stroke="none" />
        <path d="M1.99653 3.60459C1.34651 3.9162 0.559111 3.63877 0.248167 2.98807L0.127546 2.73745C-0.183397 2.08675 0.094038 1.3007 0.744062 0.98908L2.54335 0.127966C3.19404 -0.183649 3.98077 0.0937862 4.29172 0.743811L4.41234 0.995108C4.72328 1.64513 4.44584 2.43253 3.79582 2.74347L1.99653 3.60459" transform="translate(9.692444 8.298538)" id="Shape" fill="#E8511C" fill-rule="evenodd" stroke="none" />
        <path d="M18.9445 0.0111942C18.4553 0.0178928 17.9527 0.0447025 17.4367 0.0849094C8.44359 0.775141 3.85321 5.08405 1.17271 9.94917L0 9.594C2.70731 4.86961 7.29097 0.761744 16.0629 0.0849094C17.0681 0.00449562 18.0264 -0.0156155 18.9445 0.0111942" transform="translate(11.005066 6.36372)" id="Shape" fill="#4BA04B" fill-rule="evenodd" stroke="none" />
        <path d="M0.174644 2.33434C-0.18589 1.70979 0.0298996 0.90362 0.655113 0.5431L1.29308 0.174524C1.91766 -0.18601 2.72381 0.0304508 3.08434 0.654337L4.44671 3.01452C4.80724 3.63908 4.59145 4.44457 3.96624 4.80577L3.32827 5.17367C2.7037 5.5342 1.89754 5.31841 1.53701 4.69386L0.174644 2.33434" transform="translate(45.295776 14.156872)" id="Shape" fill="#E8511C" fill-rule="evenodd" stroke="none" />
        <path d="M1.99271 4.15009C1.31253 4.39 0.559986 4.03081 0.320072 3.35064L0.0748024 2.65572C-0.165783 1.97554 0.193409 1.223 0.8736 0.98241L3.44286 0.0743904C4.12304 -0.165524 4.87558 0.19434 5.1155 0.873844L5.36144 1.56876C5.60202 2.24894 5.24216 3.00216 4.56199 3.24207L1.99273 4.15009" transform="translate(28.022339 3.2977028)" id="Shape" fill="#E8511C" fill-rule="evenodd" stroke="none" />
        <path d="M0 25.3832C6.03114 25.3832 1.48968 1.78467 23.6219 0.0858936C41.2409 -1.26642 45.6021 13.6814 46.5182 21.5313C46.7574 23.5799 45.1779 25.3832 43.1166 25.3832L0 25.3832Z" transform="translate(4.821045 6.361332)" id="Shape" fill="#FFBF00" fill-rule="evenodd" stroke="none" />
        <path d="M0.670551 4.20492C0.476215 4.20492 0.283222 4.12048 0.150532 3.95763C-0.0833397 3.67083 -0.0397911 3.24865 0.247028 3.01543L3.76519 0.149971C4.05266 -0.0825577 4.47484 -0.0403519 4.70806 0.246468C4.94193 0.533272 4.89838 0.955452 4.61156 1.18934L1.0934 4.05413C0.968769 4.15533 0.819324 4.20492 0.670551 4.20492" transform="translate(20.224426 1.5679016)" id="Shape" fill="#FFBF00" fill-rule="evenodd" stroke="none" />
        <path d="M5.12942 2.18533C5.08786 2.18533 5.04632 2.18197 5.00412 2.17327L0.545773 1.32959C0.181896 1.26124 -0.056675 0.910091 0.0116844 0.546871C0.0806999 0.182995 0.43185 -0.0595894 0.794399 0.012783L5.25341 0.857143C5.61731 0.925488 5.85586 1.27664 5.78683 1.63986C5.72653 1.96151 5.44506 2.18534 5.12945 2.18534" transform="translate(38.610718 5.684902)" id="Shape" fill="#FFBF00" fill-rule="evenodd" stroke="none" />
        <path d="M4.18617 4.20847C4.03739 4.20847 3.88729 4.15955 3.76264 4.05702L0.246499 1.18889C-0.0403051 0.955688 -0.0831976 0.533508 0.151345 0.246689C0.385217 -0.039444 0.806726 -0.0836792 1.09422 0.150864L4.61036 3.01967C4.89716 3.25287 4.94006 3.67505 4.70551 3.96187C4.57351 4.12404 4.3805 4.20848 4.18617 4.20848" transform="translate(1.4697266 17.418663)" id="Shape" fill="#FFBF00" fill-rule="evenodd" stroke="none" />
        <path d="M0.820496 1.69878C-0.272491 1.69878 -0.274506 0 0.820496 0C1.91415 0 1.9155 1.69878 0.820496 1.69878" transform="translate(42.643494 18.014198)" id="Shape" fill="#EFAB00" fill-rule="evenodd" stroke="none" />
        <path d="M0.820492 1.69878C-0.272495 1.69878 -0.274494 0 0.820492 0C1.91413 0 1.91548 1.69878 0.820492 1.69878" transform="translate(33.943665 19.533714)" id="Shape" fill="#EFAB00" fill-rule="evenodd" stroke="none" />
        <path d="M0.820492 1.69878C-0.272495 1.69878 -0.274494 0 0.820492 0C1.91413 0 1.91615 1.69878 0.820492 1.69878" transform="translate(32.891968 26.52816)" id="Shape" fill="#EFAB00" fill-rule="evenodd" stroke="none" />
        <path d="M0.82049 1.69878C-0.272497 1.69878 -0.274496 0 0.82049 0C1.91348 0 1.91548 1.69878 0.82049 1.69878" transform="translate(18.503296 27.377617)" id="Shape" fill="#EFAB00" fill-rule="evenodd" stroke="none" />
        <path d="M0.82049 1.69878C-0.272497 1.69878 -0.274496 0 0.82049 0C1.91348 0 1.91548 1.69878 0.82049 1.69878" transform="translate(20.186768 12.607368)" id="Shape" fill="#EFAB00" fill-rule="evenodd" stroke="none" />
        <path d="M0.820492 1.69943C-0.272495 1.69943 -0.274494 0 0.820492 0C1.91348 0 1.91548 1.69943 0.820492 1.69943" transform="translate(29.192505 8.757439)" id="Shape" fill="#EFAB00" fill-rule="evenodd" stroke="none" />
        <path d="M0.82049 1.69878C-0.272497 1.69878 -0.274496 0 0.82049 0C1.91348 0 1.91548 1.69878 0.82049 1.69878" transform="translate(24.777771 20.562492)" id="Shape" fill="#EFAB00" fill-rule="evenodd" stroke="none" />
        <path d="M0.82049 1.69878C-0.272497 1.69878 -0.274496 0 0.82049 0C1.91348 0 1.91548 1.69878 0.82049 1.69878" transform="translate(15.3741455 21.232628)" id="Shape" fill="#EFAB00" fill-rule="evenodd" stroke="none" />
        <path d="M0.820496 1.69878C-0.272491 1.69878 -0.274506 0 0.820496 0C1.91348 0 1.9155 1.69878 0.820496 1.69878" transform="translate(44.30249 24.913765)" id="Shape" fill="#EFAB00" fill-rule="evenodd" stroke="none" />
        <path d="M0.820988 1.69878C-0.272655 1.69878 -0.27467 0 0.820988 0C1.91397 0 1.91597 1.69878 0.820988 1.69878" transform="translate(37.67401 11.757912)" id="Shape" fill="#EFAB00" fill-rule="evenodd" stroke="none" />
        <path d="M0.0909405 0L1 0.823374C0.69698 1.09482 0.363647 1.03684 0 0.762404C0.0302905 0.518454 0.060604 0.274435 0.0908945 0" transform="translate(9.182373 19.670433)" id="Shape" fill="#4BA04B" fill-rule="evenodd" stroke="none" />
      </g>
    </g>
  </g>
</svg>