<?xml version="1.0" encoding="utf-8"?>
<svg width="64px" height="64px" viewBox="0 0 64 64" version="1.1" xmlns:xlink="http://www.w3.org/1999/xlink" xmlns="http://www.w3.org/2000/svg">
  <defs>
    <path d="M0 0L53.5918 0L53.5918 48.2534L0 48.2534L0 0Z" id="path_1" />
    <clipPath id="mask_1">
      <use xlink:href="#path_1" />
    </clipPath>
  </defs>
  <g id="apple">
    <path d="M0 0L64 0L64 64L0 64L0 0Z" id="Rectangle" fill="#FFFFFF" fill-opacity="0" fill-rule="evenodd" stroke="none" />
    <g id="Group-20" transform="translate(1.6999512 6.746643)">
      <g id="Group-8">
        <g id="3c0f_7pgf_170821">
          <path d="M0 0L53.5918 0L53.5918 48.2534L0 48.2534L0 0Z" id="Background" fill="none" fill-rule="evenodd" stroke="none" />
          <g clip-path="url(#mask_1)">
            <g id="g10" transform="translate(1.9663086 2.008461)">
              <g id="g12">
                <path d="M17.6962 0.487774C17.7483 0.580688 17.8558 0.849975 17.9847 1.17547C17.1021 0.922282 16.1529 0.818443 15.1546 0.82644C12.584 0.844237 9.29308 1.32458 7.46431 3.36063C7.23585 3.61573 7.46233 3.94752 7.77701 3.90349C8.21978 3.84188 8.68845 3.92399 9.15559 4.06477C5.26379 5.43328 1.75713 8.66947 0.0458347 12.0754C-0.0871987 12.341 0.0787438 12.751 0.422117 12.721C2.87626 12.5005 5.50721 14.1666 7.909 14.6051C9.91117 14.9706 11.6055 14.6696 13.4119 13.9819C13.0889 14.7542 12.8638 15.6492 12.9075 16.4156C12.9214 16.6666 13.1543 16.8869 13.4169 16.8078C14.0517 16.6148 14.5784 16.1835 15.1599 15.8684C16.1038 15.3563 17.0581 14.8651 18.0271 14.4021C18.5066 14.1738 19.028 13.8812 19.4779 13.5192C19.3982 13.9904 19.2736 14.4562 19.1162 14.9675C19.0095 15.3135 19.3569 15.6052 19.6811 15.5327C22.9538 14.8024 26.0009 12.0568 28.0075 9.42542C28.188 9.3325 28.3079 9.10522 28.1729 8.91759C25.4438 5.1551 22.9973 0.889178 18.0656 0.00574108C17.7931 -0.042804 17.5461 0.225024 17.6962 0.487779" transform="translate(0.05633545 1.813057)" id="path14" fill="#84CE2A" fill-rule="evenodd" stroke="none" />
                <path d="M17.7525 0.544091L17.7034 0.57157C17.7267 0.612902 17.7669 0.703569 17.8159 0.822276C17.8652 0.941324 17.9243 1.08987 17.9888 1.25251L18.0411 1.23178L18.0566 1.17772C17.1992 0.931745 16.2809 0.825988 15.3175 0.825988C15.2818 0.825988 15.2461 0.826215 15.2103 0.826442C13.9219 0.835454 12.4521 0.960132 11.0727 1.33866C9.69347 1.71731 8.40315 2.35027 7.47874 3.37933C7.40571 3.46053 7.37113 3.55333 7.37135 3.64208C7.37188 3.84796 7.55001 4.0196 7.77697 4.02006C7.79801 4.02006 7.81934 4.01848 7.84103 4.01555C7.94011 4.00181 8.04064 3.99539 8.14249 3.99539C8.48357 3.99528 8.83909 4.06747 9.19562 4.17492L9.2119 4.12108L9.19321 4.06792C5.28553 5.44286 1.77099 8.68636 0.051864 12.1064C0.0163645 12.1773 4.49503e-05 12.2558 0 12.334C0.000168846 12.4564 0.0396328 12.5789 0.114867 12.674C0.189617 12.7689 0.304135 12.8354 0.443115 12.835C0.456269 12.835 0.469593 12.8345 0.483052 12.8334L0.483502 12.8334C0.632765 12.82 0.782794 12.8135 0.933476 12.8135C2.08234 12.8133 3.27143 13.1837 4.45592 13.608C5.64061 14.0319 6.82006 14.5093 7.9552 14.7168C8.54323 14.8241 9.1053 14.8744 9.65157 14.8744C10.9754 14.8744 12.2055 14.5792 13.4883 14.0908L13.4682 14.0382L13.4163 14.0165C13.1182 14.7294 12.9023 15.5457 12.9021 16.2771C12.9021 16.3438 12.9039 16.4099 12.9076 16.4751C12.9146 16.597 12.9664 16.7111 13.0472 16.7959C13.128 16.8806 13.2397 16.9368 13.3645 16.9368C13.4053 16.9368 13.4473 16.9307 13.4893 16.9181L13.4895 16.9181C14.1385 16.72 14.6676 16.2852 15.243 15.9742C16.1862 15.4625 17.1396 14.9718 18.1076 14.5092C18.5898 14.2797 19.1146 13.9854 19.5696 13.6194L19.5343 13.5756L19.4787 13.5661C19.3997 14.0337 19.2758 14.4971 19.1188 15.0073C19.1037 15.0559 19.0966 15.1043 19.0966 15.1512C19.0966 15.295 19.1635 15.4224 19.2632 15.5119C19.3629 15.6017 19.4963 15.6562 19.6358 15.6563C19.6737 15.6563 19.7117 15.6523 19.7496 15.6439L19.7497 15.6439C23.0442 14.9075 26.0964 12.1534 28.1086 9.51586L28.0638 9.48173L28.0896 9.53185C28.232 9.45774 28.3421 9.31268 28.3434 9.14813C28.3435 9.07831 28.3219 9.00611 28.2748 8.94101C26.9113 7.06141 25.6165 5.05216 24.0423 3.39949C22.4685 1.74705 20.6122 0.450728 18.1318 0.00664556C18.1067 0.00213957 18.0818 0 18.0573 0C17.948 0 17.8472 0.0422346 17.773 0.110484C17.699 0.178734 17.6507 0.274695 17.6507 0.381122C17.6507 0.443747 17.6676 0.509182 17.7036 0.572024L17.7034 0.571575L17.7525 0.544096L17.8014 0.516163C17.7745 0.46886 17.7634 0.423697 17.7633 0.381122C17.7633 0.309382 17.7956 0.242932 17.8494 0.193268C17.9031 0.143826 17.9774 0.112516 18.0573 0.112624C18.0752 0.112624 18.0935 0.114202 18.112 0.11747C20.5634 0.55682 22.3962 1.83523 23.9608 3.47721C25.525 5.11906 26.818 7.12403 28.1836 9.00702C28.2171 9.05387 28.2306 9.10095 28.2308 9.14814C28.232 9.25817 28.1486 9.37541 28.038 9.43173L28.0268 9.43747L28.019 9.44761C26.018 12.0729 22.9759 14.8098 19.7251 15.534L19.7253 15.5339C19.6955 15.5405 19.6656 15.5437 19.6358 15.5437C19.526 15.5438 19.4179 15.4999 19.3385 15.4283C19.2591 15.3565 19.2092 15.2594 19.2092 15.1512C19.2092 15.1156 19.2145 15.0787 19.2263 15.0404C19.3841 14.5278 19.5095 14.0596 19.5898 13.5849L19.6145 13.4386L19.499 13.5316C19.054 13.8897 18.5363 14.1805 18.0592 14.4075C17.089 14.8711 16.134 15.3627 15.1893 15.8752C14.6018 16.1943 14.0776 16.6222 13.4567 16.8103L13.457 16.8102C13.4251 16.8197 13.3942 16.8241 13.3645 16.8241C13.2742 16.8241 13.1915 16.7838 13.1288 16.7182C13.066 16.6526 13.0252 16.5624 13.0201 16.4688C13.0165 16.4057 13.0147 16.3418 13.0147 16.2771C13.0145 15.5678 13.2262 14.7623 13.5201 14.06L13.5707 13.9389L13.4482 13.9856C12.1735 14.4707 10.9584 14.7617 9.65157 14.7617C9.1122 14.7617 8.55708 14.7122 7.97539 14.6061C6.85657 14.4019 5.68117 13.9272 4.4939 13.5019C3.30648 13.0771 2.10667 12.7011 0.933471 12.7009C0.779579 12.7009 0.626171 12.7074 0.473372 12.7212L0.473811 12.7211C0.463303 12.722 0.453043 12.7224 0.443109 12.7224C0.340068 12.722 0.261185 12.6762 0.203025 12.6039C0.145395 12.5316 0.11244 12.4318 0.112621 12.334C0.112621 12.2715 0.12582 12.2101 0.152524 12.1569C1.8559 8.76521 5.35473 5.53634 9.23055 4.17413L9.39343 4.11692L9.22808 4.06714C8.86521 3.95778 8.4995 3.88277 8.14248 3.88277C8.03593 3.88277 7.93012 3.88941 7.82554 3.90405C7.809 3.9063 7.79277 3.90743 7.77697 3.90743C7.69206 3.90732 7.61877 3.87556 7.56655 3.82634C7.51432 3.77712 7.48397 3.71135 7.48397 3.64208C7.48414 3.58205 7.50601 3.51797 7.56254 3.45456C8.4668 2.44746 9.73637 1.82228 11.1025 1.44723C12.4683 1.0723 13.9293 0.947851 15.2112 0.939066C15.2468 0.938731 15.2822 0.938617 15.3175 0.938617C16.2727 0.938617 17.1805 1.04347 18.0256 1.28596L18.1357 1.31749L18.0934 1.21106C18.0289 1.0482 17.9698 0.899425 17.92 0.779139C17.8701 0.658633 17.8304 0.568193 17.8016 0.516493L17.8014 0.516158L17.7525 0.544085" transform="translate(0 1.7567406)" id="path16" fill="#56A034" fill-rule="evenodd" stroke="none" />
                <path d="M0.139149 0.0844688C0.0928267 0.0577455 0.0464585 0.0295865 0 0C0.00422373 0.00285505 0.0085712 0.00570195 0.01284 0.00819809C0.0133691 0.00855701 0.0140787 0.00891593 0.0146078 0.00926669C0.0155654 0.00998454 0.0165785 0.0106942 0.0175471 0.0110531C0.0581604 0.036716 0.0986719 0.0613021 0.139149 0.0844688L0.139149 0.0844688" transform="translate(7.826172 16.391428)" id="path18" fill="#4A9034" fill-rule="evenodd" stroke="none" />
                <path d="M0.888245 12.6066C0.735187 12.5946 0.582568 12.5883 0.430354 12.5883C0.286441 12.5883 0.142933 12.594 0 12.606C0.00479793 12.5967 0.00962953 12.5874 0.0146865 12.578C0.628496 11.4442 1.84385 10.5627 2.90007 9.87795C4.82276 8.63062 7.15543 7.74865 9.34386 7.11333C10.2737 6.84381 12.6219 6.55977 13.2336 5.68535C13.6106 5.14609 12.775 4.27335 12.1916 3.6814C12.4471 3.65662 12.7083 3.64525 12.9734 3.64525C14.5502 3.64525 16.261 4.04833 17.6779 4.43565C18.0812 4.54546 18.8635 4.86723 19.4918 4.86723C19.8864 4.86723 20.2203 4.74008 20.3608 4.35343C20.7758 3.21456 19.0754 1.52889 18.3933 0.90506C18.0641 0.602998 17.7041 0.339908 17.327 0.100349C17.3331 0.0934813 17.3395 0.0869491 17.3463 0.0806438C17.4 0.0312017 17.4741 0 17.5538 0C17.5539 0 17.554 0 17.5542 0C17.5721 0 17.5904 0.00157761 17.6089 0.00484626C17.7727 0.0342435 17.9336 0.0672393 18.0918 0.103957C18.7756 0.334727 19.4173 0.748288 19.977 1.19124C20.9912 1.9928 22.5515 3.08223 23.0548 4.30782C23.2223 4.71463 23.2991 5.06793 23.3168 5.38216C23.521 6.07841 23.4127 6.7402 22.6504 7.19521C21.1697 6.9721 19.6555 6.90576 18.1744 6.90576C17.8545 6.90576 17.5363 6.90891 17.22 6.91421C15.0441 6.94968 12.4257 7.29082 10.158 8.15433C9.64378 8.31065 9.13471 8.48331 8.63254 8.67455C5.90928 9.71239 3.3752 11.1085 0.888246 12.6066" transform="translate(0.5031128 1.8693619)" id="path20" fill="#6EB92E" fill-rule="evenodd" stroke="none" />
                <path d="M0.00505683 12.7291L0 12.7272C0.010249 12.7063 0.0197994 12.6853 0.0297444 12.6642C0.172678 12.651 0.316185 12.6446 0.460099 12.6446C0.612312 12.6446 0.764931 12.6516 0.91799 12.6649C0.890047 12.6835 0.862116 12.7022 0.834219 12.7207C0.709238 12.7118 0.584381 12.7069 0.460099 12.7069C0.307874 12.7069 0.156055 12.7141 0.00505748 12.7291M18.1216 0.160267C17.9633 0.123549 17.8024 0.0905529 17.6386 0.0611557C17.6202 0.057887 17.6018 0.0563146 17.5839 0.0563146C17.5838 0.0563146 17.5837 0.0563146 17.5836 0.0563146C17.5038 0.0563146 17.4297 0.0875111 17.376 0.136953C17.3692 0.143259 17.3628 0.149791 17.3567 0.156663C17.3411 0.146754 17.3255 0.136953 17.3099 0.127152C17.3753 0.0510198 17.475 0 17.5849 0C17.6052 0 17.6258 0.0017993 17.6465 0.00540306C17.6407 0.00438741 17.6348 0.0040523 17.6291 0.0040523C17.6025 0.0040523 17.5778 0.0129509 17.552 0.0150904C17.7445 0.0477511 17.9346 0.0971933 18.1216 0.160262" transform="translate(0.47338867 1.8130417)" id="path22" fill="#4A9034" fill-rule="evenodd" stroke="none" />
                <path d="M0.525647 0.0844667C0.349849 0.0555071 0.174705 0.0341887 0 0.0218524C0.0102039 0.0144783 0.0201938 0.00723913 0.0303529 0C0.213246 0.0142143 0.396612 0.0383468 0.580732 0.0707925C0.562386 0.0753526 0.544039 0.0799097 0.525647 0.0844698" transform="translate(1.2772827 14.526463)" id="path24" fill="#4A9034" fill-rule="evenodd" stroke="none" />
                <path d="M0.126302 0.085371C0.0858243 0.0587251 0.0453129 0.0304275 0.00469971 0.000900269C0.0453574 0.0304275 0.0857786 0.0587158 0.126302 0.085371M0.0844693 0.0844707C0.059187 0.0567437 0.0252823 0.0283718 0 0C0.0295935 0.0283718 0.0548758 0.0567437 0.0844693 0.0844707" transform="translate(7.8389893 16.394016)" id="path26" fill="#3F8132" fill-rule="evenodd" stroke="none" />
                <path d="M0.627449 4.68477C0.417729 4.64941 0.208538 4.62261 0 4.60639C2.48696 3.10824 5.02103 1.71213 7.74429 0.674288C8.24646 0.483051 8.75553 0.310395 9.26978 0.15407C8.09881 0.599957 7.02147 1.18505 6.14655 1.9393C6.02838 2.04145 6.13647 2.2096 6.26506 2.2096C6.28909 2.2096 6.31381 2.20375 6.33792 2.19046C9.43793 0.491385 13.4786 0.0491045 16.9599 0.00236384C17.0819 0.000788806 17.2045 0 17.3269 0C18.3702 0 19.4259 0.0571008 20.4719 0.163646C20.9675 0.505014 21.3561 0.929951 21.5869 1.46143C21.3261 1.43755 21.0638 1.42472 20.8001 1.4246C20.2215 1.4246 19.6354 1.48666 19.0413 1.63116C16.8837 2.15543 14.8971 3.15476 13.2224 4.5173C13.2711 4.03223 13.6969 3.64108 14.0197 3.2247C11.839 3.79853 9.64155 4.49264 7.38653 4.60087C7.10689 4.61427 6.83008 4.61979 6.5556 4.61979C5.92028 4.61979 5.29754 4.59028 4.6814 4.56078C4.06544 4.53127 3.45589 4.50165 2.84758 4.50165C2.10949 4.50165 1.37293 4.54512 0.627446 4.68478" transform="translate(1.3913574 9.869617)" id="path28" fill="#5EA632" fill-rule="evenodd" stroke="none" />
                <path d="M0.550379 0.109922C0.366259 0.0826674 0.182893 0.0623956 0 0.0504552C0.0278972 0.0336738 0.0558283 0.0167815 0.0837707 0C0.292308 0.0162169 0.501499 0.0430234 0.711219 0.0783856C0.657542 0.0884081 0.604135 0.0988843 0.550379 0.109922" transform="translate(1.3075562 14.476006)" id="path30" fill="#3F8132" fill-rule="evenodd" stroke="none" />
                <path d="M6.05596 1.79401C4.10916 1.4032 2.02127 0.278748 0 0.00698326C0.010857 0.00473026 0.0218159 0.00236642 0.0326842 0C2.0398 0.278523 4.11264 1.40118 6.04602 1.79199C6.04927 1.79267 6.05271 1.79334 6.05596 1.79401" transform="translate(1.7702026 14.597418)" id="path32" fill="#4A9034" fill-rule="evenodd" stroke="none" />
                <path d="M0.109006 0.089423C0.0811702 0.0724519 0.0520383 0.0388955 0.0245361 0.00495338C0.0546496 0.0388955 0.0798924 0.0724519 0.109006 0.089423M0.0844697 0.0844696C0.0686437 0.0700376 0.0525262 0.0535776 0.0368675 0.0370704C0.0248021 0.0247136 0.0120678 0.0123096 0 0C0.0282258 0.0288168 0.0562844 0.057728 0.0844697 0.0844696" transform="translate(7.816223 16.389402)" id="path34" fill="#3F8132" fill-rule="evenodd" stroke="none" />
                <path d="M6.01333 1.80348C4.07996 1.41267 2.00711 0.29001 0 0.0114892C0.0183916 0.00765863 0.0367385 0.00383061 0.055085 0C2.04494 0.295078 4.09865 1.41615 6.01333 1.80347" transform="translate(1.8029175 14.585926)" id="path36" fill="#3F8132" fill-rule="evenodd" stroke="none" />
                <path d="M7.63276 3.42416C7.09339 3.42416 6.53827 3.37461 5.95658 3.26851C4.83776 3.06432 3.66236 2.5896 2.47508 2.16433C1.65172 1.8697 0.822258 1.59861 0 1.46008C0.745481 1.32042 1.48204 1.27695 2.22013 1.27695C2.82845 1.27695 3.43799 1.30657 4.05395 1.33608C4.67009 1.36559 5.29283 1.39509 5.92815 1.39509C6.20263 1.39509 6.47945 1.38958 6.75908 1.37617C9.01411 1.26794 11.2115 0.573828 13.3922 0C13.0694 0.416376 12.6437 0.807526 12.5949 1.29261C12.0252 1.75617 11.4915 2.26164 10.9996 2.80483C9.87908 3.19519 8.79201 3.42416 7.63276 3.42416" transform="translate(2.0187988 13.094313)" id="path38" fill="#4F9633" fill-rule="evenodd" stroke="none" />
                <path d="M7.7936 2.0205C7.25084 2.0205 6.69207 1.9705 6.10734 1.86373L6.10734 1.86373L6.10734 1.86373C6.06682 1.85641 6.0264 1.84864 5.98574 1.84053C5.98473 1.84041 5.98385 1.84019 5.9828 1.83996C5.98218 1.83985 5.98165 1.83974 5.98103 1.83962C5.97343 1.83816 5.96586 1.83658 5.95825 1.83501C4.04357 1.44769 1.98986 0.326612 0 0.0315342C0.0537564 0.0204986 0.107164 0.010025 0.160841 0C0.983099 0.138528 1.81256 0.40962 2.63593 0.704246C3.8232 1.12952 4.9986 1.60424 6.11742 1.80843C6.69911 1.91452 7.25423 1.96408 7.7936 1.96408C8.95285 1.96408 10.0399 1.73511 11.1604 1.34475C11.1345 1.37336 11.1085 1.4023 11.0828 1.43102C9.99171 1.8028 8.92729 2.0205 7.7936 2.0205" transform="translate(1.8579712 14.554398)" id="path40" fill="#367330" fill-rule="evenodd" stroke="none" />
                <path d="M5.23541 2.29858C5.06005 2.25938 4.88436 2.21106 4.70821 2.1525C3.52755 1.76 2.33642 1.40917 1.115 1.29778C0.884226 0.766304 0.495667 0.341367 0 0C0.609868 0.0620553 1.21613 0.141006 1.81485 0.235273C3.1016 0.436424 4.43565 1.01937 5.74087 1.12952C5.73963 1.32966 5.73051 1.53024 5.71429 1.73094C5.55977 1.9206 5.39984 2.11015 5.2354 2.29857" transform="translate(21.86322 10.03326)" id="path42" fill="#4F9633" fill-rule="evenodd" stroke="none" />
                <path d="M0.0627333 0.58126C0.0417836 0.57687 0.0209498 0.572251 0 0.567634C0.164435 0.37921 0.324365 0.189659 0.478886 0C0.476295 0.0329984 0.473367 0.0661128 0.470327 0.0992246C0.338104 0.26028 0.202164 0.420996 0.0627333 0.581263" transform="translate(27.098633 11.764206)" id="path44" fill="#367330" fill-rule="evenodd" stroke="none" />
                <path d="M0.0844688 0.0844693C0.0562768 0.0563129 0.0281384 0.0281564 0 0C0.0281384 0.0281564 0.0562768 0.0563129 0.0844688 0.0844693" transform="translate(18.119873 1.8184509)" id="path46" fill="#4A9034" fill-rule="evenodd" stroke="none" />
                <path d="M8.96793 8.38419C7.58151 7.71936 6.08787 7.3218 4.55853 7.09125C5.32089 6.63624 5.42912 5.97446 5.22493 5.2782C5.20725 4.96398 5.13044 4.61067 4.96296 4.20387C4.45964 2.97827 2.89932 1.88885 1.88513 1.08729C1.32549 0.644331 0.68375 0.23077 0 0C2.21208 0.512672 3.90563 1.72824 5.36583 3.26063C6.65426 4.61293 7.75867 6.21176 8.87119 7.7857C8.91365 7.98426 8.94552 8.18384 8.96793 8.38419" transform="translate(18.59491 1.9733124)" id="path48" fill="#5EA632" fill-rule="evenodd" stroke="none" />
                <path d="M9.44073 7.94191C8.32822 6.36797 7.22381 4.76914 5.93537 3.41684C4.47518 1.88445 2.78163 0.668887 0.569548 0.156215C0.382589 0.093141 0.192476 0.0436988 0 0.0110381C0.0257909 0.00889856 0.0504552 0 0.0770349 0C0.0827795 0 0.0886363 0.000340269 0.094493 0.00135592C0.0951684 0.00146934 0.0958438 0.00158277 0.0965205 0.00169104L0.0965205 0.00169104C3.26941 0.570116 5.41358 2.53847 7.26616 4.87219C7.29657 4.93042 7.33272 4.98245 7.37349 5.02942C7.39906 5.0587 7.4262 5.08607 7.45469 5.11208C8.12977 5.98009 8.76836 6.89225 9.40796 7.79809C9.41956 7.84596 9.43049 7.89394 9.44073 7.94192" transform="translate(18.02539 1.8171005)" id="path50" fill="#3F8132" fill-rule="evenodd" stroke="none" />
                <path d="M10.236 0.00838106C6.93655 0.0622158 2.62029 0.818498 0.0508335 3.03373C-0.0894193 3.15492 0.0889804 3.36913 0.242207 3.28488C3.34222 1.58581 7.38289 1.14353 10.8641 1.09679C12.6326 1.07382 14.4449 1.21843 16.191 1.49335C17.6485 1.72119 19.1664 2.43873 20.6345 2.40438C20.8819 2.39863 20.9814 2.06188 20.7581 1.93653C17.5975 0.163802 13.7795 -0.050751 10.236 0.00837849" transform="translate(7.4870605 8.775185)" id="path52" fill="#3C7C32" fill-rule="evenodd" stroke="none" />
                <path d="M21.8088 0.755834C20.2414 1.14439 18.6623 1.454 17.0458 0.915987C15.0639 0.25679 13.0687 -0.276716 10.9692 0.233587C5.45399 1.57361 1.06384 6.04305 0.196062 11.7341C-0.818346 18.3928 2.16465 23.8269 7.72903 27.7753C10.4298 29.6919 13.3537 32.9556 16.9422 32.7982C18.3466 32.7364 18.619 31.8395 19.9167 31.4601C21.8133 30.906 22.9203 32.3489 24.7813 32.3669C26.7086 32.3855 28.2939 30.2946 29.363 28.9865C31.9467 25.826 35.3126 22.534 36.577 18.6034C38.4838 12.675 38.0233 3.39679 30.905 0.704022C30.2784 0.466045 29.6254 0.298006 28.9644 0.187746C27.5166 -0.053497 26.0297 -0.0548504 24.5847 0.141232C23.6617 0.266134 22.7363 0.524046 21.8088 0.755831" transform="translate(9.490051 11.376652)" id="path54" fill="#EE2429" fill-rule="evenodd" stroke="none" />
                <path d="M21.9215 0.868455L21.8944 0.759097C20.9316 0.997976 19.971 1.20442 19.0073 1.20431C18.4055 1.20431 17.8025 1.12412 17.194 0.921728C15.7612 0.445433 14.313 0.0305211 12.814 0.0301834C12.2354 0.0301834 11.6493 0.0922413 11.0552 0.23674C5.49816 1.58701 1.07299 6.09035 0.19732 11.8298C0.0647594 12.6999 0 13.5498 0 14.3785C-0.000225557 17.1548 0.727674 19.6945 2.06443 21.9693C3.40107 24.2444 5.3451 26.2545 7.77647 27.9798C9.08709 28.9095 10.4601 30.1675 11.9449 31.1965C13.4294 32.2248 15.0312 33.0283 16.804 33.0288C16.8889 33.0288 16.9742 33.0269 17.0597 33.0233C17.4226 33.0075 17.7173 32.9367 17.9719 32.8333C18.3544 32.6779 18.6437 32.4529 18.9524 32.239C19.2617 32.0246 19.5902 31.8187 20.0609 31.6807C20.3562 31.5945 20.6296 31.5587 20.8899 31.5586C21.5677 31.5583 22.1629 31.804 22.7933 32.0614C23.4228 32.3177 24.0871 32.5843 24.8929 32.5922L24.8932 32.5922L24.9193 32.5923C25.4189 32.5923 25.8942 32.4567 26.3399 32.2355C27.0086 31.9035 27.6136 31.3802 28.1526 30.819C28.6915 30.2578 29.1645 29.6576 29.5628 29.1703C30.8515 27.5938 32.3399 25.9797 33.6664 24.2653C34.9928 22.5507 36.1584 20.735 36.7968 18.7505C37.3986 16.8794 37.7653 14.6805 37.7654 12.4564C37.7653 10.0227 37.3263 7.5582 36.2679 5.46347C35.2104 3.3692 33.5282 1.64524 31.0575 0.711232C30.4232 0.47044 29.7629 0.3006 29.0955 0.189324C28.3254 0.0609314 27.5446 0 26.7653 0C26.0671 0 25.3698 0.0488802 24.6821 0.142245C23.7488 0.268723 22.8197 0.527876 21.8942 0.759097L21.8944 0.759097L21.9215 0.868455L21.9488 0.977702C22.8781 0.745244 23.7999 0.488794 24.7124 0.365354C25.3904 0.273339 26.0776 0.225248 26.7653 0.225248C27.5329 0.225248 28.3013 0.28528 29.0584 0.411533C29.713 0.520666 30.3589 0.687014 30.9777 0.921841C33.393 1.83625 35.0285 3.51178 36.0669 5.56517C37.1048 7.61811 37.5404 10.0495 37.5402 12.4564C37.5403 14.6556 37.1767 16.8341 36.5824 18.6816C35.9565 20.6277 34.807 22.4232 33.4884 24.1275C32.1698 25.8317 30.6833 27.444 29.3883 29.0278C28.8553 29.6804 28.1983 30.5205 27.4419 31.1936C27.064 31.5303 26.6615 31.8247 26.2398 32.0337C25.8179 32.2429 25.3777 32.3671 24.9193 32.3671L24.8947 32.3669L24.8951 32.3669C24.1393 32.3597 23.5076 32.1095 22.8783 31.8528C22.2501 31.5973 21.624 31.3338 20.8899 31.3334C20.6088 31.3334 20.3128 31.3724 19.9977 31.4646C19.3272 31.6604 18.9184 31.9929 18.5183 32.268C18.3178 32.4061 18.1191 32.5306 17.8872 32.6246C17.6553 32.7185 17.3893 32.7832 17.0498 32.7982C16.9676 32.8018 16.8856 32.8036 16.804 32.8036C15.1023 32.804 13.5418 32.0293 12.0731 31.0114C10.6048 29.9942 9.23384 28.7381 7.90677 27.7961C5.49647 26.0857 3.57609 24.0977 2.2586 21.8552C0.941213 19.6125 0.225476 17.1154 0.225251 14.3785C0.225251 13.5615 0.28911 12.7231 0.419981 11.8638C1.27999 6.22099 5.63523 1.78545 11.1084 0.455682C11.6839 0.31569 12.2514 0.255547 12.814 0.255547C14.2707 0.25521 15.696 0.660661 17.1229 1.13538C17.7569 1.34644 18.3856 1.42956 19.0073 1.42956C20.0033 1.42945 20.9815 1.21737 21.9486 0.977705L21.9488 0.977705L21.9215 0.868458" transform="translate(9.377441 11.264032)" id="path56" fill="#C31E24" fill-rule="evenodd" stroke="none" />
                <path d="M3.96993 31.5489C3.79941 31.5489 3.63104 31.5438 3.46649 31.5342C2.50163 31.4787 1.66843 31.2183 0.93996 30.8113C0.888149 30.7762 0.83657 30.7408 0.784986 30.7051C0.76922 30.6942 0.753452 30.6833 0.737572 30.6722C0.963839 30.7421 1.19877 30.7737 1.43788 30.7737C2.64061 30.7737 3.94504 29.9713 4.73612 29.1908C5.73522 28.2059 6.5093 26.7633 7.96454 26.7633C8.15138 26.7633 8.34983 26.7872 8.56111 26.8389C9.94359 27.1764 11.0273 28.272 12.4649 28.4666C12.5602 28.4796 12.6519 28.4858 12.74 28.4858C15.1497 28.4857 14.9367 23.8026 16.0129 22.3815C17.236 20.7651 19.2419 19.987 20.5621 18.4543C21.708 17.1242 22.631 15.5389 23.2302 13.89C24.4493 10.5334 24.0321 6.82669 20.9547 4.64502C20.3037 4.18348 19.5637 3.99731 18.8093 3.99731C17.8398 3.99731 16.8463 4.305 15.9876 4.73129C13.9526 5.74244 12.089 7.12245 9.88255 7.75957C9.03617 8.00363 8.18224 8.1238 7.33371 8.1238C5.96238 8.1238 4.60581 7.80969 3.32232 7.19689C1.4301 6.29319 -0.505934 3.95722 0.119927 1.7216C0.434039 0.600294 1.40712 0.179639 2.44306 0C2.83094 0.0417835 3.21702 0.107783 3.60197 0.19135C3.23121 0.245074 2.87621 0.363895 2.70243 0.67643C2.59217 0.874428 2.55027 1.09033 2.55692 1.30961C2.80075 2.07964 3.40004 2.7573 4.02793 3.29284C4.43451 3.63759 4.86834 3.94325 5.31749 4.22695C5.93411 4.51201 6.5798 4.72994 7.19102 4.89134C7.5878 4.94359 7.98142 4.96837 8.37212 4.96837C10.108 4.96837 11.79 4.47901 13.4756 3.73332C14.5306 3.2666 17.0255 2.88322 17.3142 1.54365C18.2556 1.39791 19.1705 1.13662 20.0456 0.758313C22.2666 1.69829 23.7922 3.30804 24.7788 5.25895C24.7857 5.27257 24.7926 5.28643 24.7995 5.30005C24.853 5.68839 24.8657 6.08663 24.8765 6.45864C24.9775 9.94271 25.1423 13.5285 24.1565 16.9142C23.5844 18.8762 22.6089 20.6987 21.3786 22.3251C20.0981 24.0166 18.4013 25.3434 17.1736 27.0707C17.0414 27.2569 16.9059 27.4469 16.7684 27.6363C16.151 29.0872 14.9148 30.8616 13.4082 30.8617C12.9059 30.8617 12.3735 30.6645 11.824 30.1921C11.8065 30.1776 11.7919 30.1589 11.7747 30.1441C11.4565 29.9727 11.1495 29.7251 10.8891 29.4654C10.3556 28.9323 9.76564 28.6906 9.1185 28.68C9.01364 28.6886 8.90991 28.7071 8.80889 28.7419C7.98503 29.0249 7.90473 29.8174 7.3844 30.3808C6.5575 31.273 5.20723 31.5489 3.96993 31.5489" transform="translate(20.665588 11.570263)" id="path58" fill="#E41D24" fill-rule="evenodd" stroke="none" />
                <path d="M3.02895 32.3179C1.93502 31.9451 0.910128 31.3267 0 30.6495C0.961485 31.3422 1.96622 31.9509 3.02895 32.3179M0.533607 30.8856C0.440804 30.8337 0.349686 30.7796 0.260376 30.7232C0.283803 30.7313 0.307565 30.7392 0.331219 30.7464C0.347098 30.7575 0.362867 30.7684 0.378632 30.7794C0.430217 30.8151 0.481796 30.8504 0.533607 30.8856M25.0934 18.2527C25.1779 18.1682 25.0934 18.2527 25.1779 18.1682L25.0934 18.2527M25.0959 18.242C25.1202 18.2162 25.1561 18.1796 25.1804 18.1575C25.1445 18.1905 25.1318 18.2053 25.0959 18.242M25.0981 18.1532C26.2836 14.2087 26.4218 8.92007 24.3347 5.03674C24.3584 5.14779 24.3775 5.26064 24.3932 5.37428C24.3863 5.36065 24.3794 5.3468 24.3724 5.33317C23.3858 3.38227 21.8603 1.77251 19.6392 0.832532C19.6863 0.812146 19.7333 0.791426 19.7801 0.770363C26.3344 3.62633 26.8429 12.3484 25.0981 18.1532M6.41417 1.02163C6.0987 0.975565 5.78211 0.902472 5.46394 0.796604C4.84743 0.591852 4.22551 0.390588 3.59965 0.226493C3.46822 0.235051 3.33092 0.245976 3.19566 0.265572C2.81071 0.182005 2.42462 0.116006 2.03674 0.0742225C2.21694 0.0430234 2.39906 0.019037 2.57982 0C3.55054 0.170627 4.51316 0.480349 5.46394 0.796601C5.78211 0.902469 6.0987 0.975562 6.41417 1.02163L6.41417 1.02163" transform="translate(21.0719 11.49604)" id="path60" fill="#A71C21" fill-rule="evenodd" stroke="none" />
                <path d="M5.81588 4.77702C5.42518 4.77702 5.03156 4.75225 4.63477 4.69998C4.02355 4.53859 3.37787 4.32066 2.76124 4.0356C2.31209 3.7519 1.87826 3.44623 1.47168 3.10149C0.843791 2.56595 0.244512 1.88828 0.000675383 1.11826C-0.00597018 0.898979 0.0359242 0.683078 0.146187 0.48508C0.319967 0.172545 0.674963 0.0537239 1.04573 0C1.79266 0.162069 2.53532 0.390585 3.27853 0.637799C3.60244 0.745695 3.925 0.820139 4.24588 0.867107C4.20544 1.10519 4.15701 1.34295 4.10273 1.57958C3.70944 1.30184 2.98548 0.897063 2.50693 0.897063C2.1766 0.897063 1.96329 1.08988 2.05632 1.65041C2.49286 2.28765 3.10543 2.78591 3.99494 3.06364C4.12221 3.1034 4.25094 3.13955 4.38069 3.17165C4.58398 3.24643 4.76271 3.28923 4.92343 3.28957C4.92478 3.28957 4.92613 3.28957 4.92737 3.28957C4.9428 3.28957 4.95812 3.28912 4.97321 3.28822C5.22606 3.32493 5.48082 3.34464 5.73479 3.34464C6.42586 3.34464 7.11107 3.19845 7.73818 2.84841C8.00397 2.7002 8.24454 2.52946 8.47644 2.3514C8.62713 2.16264 8.76273 1.95608 8.87367 1.72283C9.21538 1.00282 8.81792 0.746706 8.28284 0.746706C7.92322 0.746706 7.50155 0.862374 7.20005 1.03063C6.7562 1.27796 6.32472 1.53655 5.86465 1.752C5.9204 1.46166 5.96444 1.17333 5.9953 0.886139C6.70574 0.810906 7.40785 0.652665 8.10421 0.480123L8.10444 0.480123C8.11007 0.478658 8.11559 0.477308 8.12122 0.475843C8.29545 0.560088 8.4698 0.646697 8.64921 0.722381C9.64853 1.14123 10.7015 1.33822 11.7933 1.43755C12.1786 1.47269 12.5619 1.49026 12.9425 1.49026L12.9425 1.49026C13.556 1.49026 14.1623 1.44442 14.7579 1.35229C14.4693 2.69187 11.9744 3.07524 10.9194 3.54196C9.23373 4.28766 7.55178 4.77702 5.81588 4.77702" transform="translate(23.221863 11.761608)" id="path62" fill="#C41E25" fill-rule="evenodd" stroke="none" />
                <path d="M4.94958 0.925219C4.95364 0.887039 4.95758 0.848859 4.96118 0.81068C5.61577 0.739726 6.26652 0.597594 6.91513 0.438564C6.96863 0.463566 7.02201 0.489133 7.07551 0.514924C7.06988 0.516388 7.06436 0.517741 7.05873 0.519203L7.05873 0.519203L7.0585 0.519203C6.36214 0.691745 5.66003 0.849986 4.94958 0.925219M3.20015 0.906186C2.87927 0.859221 2.55671 0.784774 2.2328 0.676878C1.48959 0.429665 0.746932 0.201148 0 0.0390794C0.135262 0.019483 0.272553 0.00855829 0.40399 0C1.02985 0.164095 1.65177 0.365356 2.26828 0.570111C2.58645 0.675978 2.90304 0.749072 3.21851 0.795137C3.21265 0.832193 3.20646 0.869133 3.20015 0.906188" transform="translate(24.267578 11.72253)" id="path64" fill="#8F191E" fill-rule="evenodd" stroke="none" />
                <path d="M3.70036 2.59794C3.44639 2.59794 3.19163 2.57823 2.93878 2.54151C3.11279 2.53137 3.26472 2.46222 3.38467 2.32628C3.51621 2.17795 3.61307 1.9563 3.68955 1.64602C3.74237 1.43113 3.78945 1.21759 3.83021 1.00529C4.29029 0.789845 4.72176 0.531253 5.16562 0.283929C5.46712 0.115666 5.88879 0 6.2484 0C6.78349 0 7.18094 0.256109 6.83924 0.976124C6.7283 1.20937 6.5927 1.41593 6.44201 1.60469C6.21011 1.78275 5.96954 1.95349 5.70374 2.1017C5.07664 2.45175 4.39143 2.59794 3.70036 2.59794M2.34627 2.42494C2.21652 2.39284 2.08779 2.35669 1.96053 2.31693C1.07101 2.0392 0.458438 1.54094 0.0219035 0.903704C-0.0711266 0.343167 0.142186 0.150352 0.472518 0.150352C0.951065 0.150352 1.67502 0.555129 2.06831 0.832866C1.99071 1.17041 1.90083 1.50592 1.80353 1.83805C1.79193 1.87803 1.78596 1.91813 1.78596 1.95755C1.78584 2.0249 1.80387 2.09056 1.84092 2.14687C1.87786 2.2033 1.93316 2.2497 2.00377 2.28168L2.00513 2.28236C2.1262 2.33766 2.23961 2.38575 2.34627 2.42494" transform="translate(25.256287 12.508324)" id="path66" fill="#88181C" fill-rule="evenodd" stroke="none" />
                <path d="M5.7232 14.5311C5.00431 14.5311 4.31211 14.3958 3.64301 14.1647C4.31662 14.3942 5.01648 14.5307 5.73221 14.5307C5.81285 14.5307 5.89349 14.529 5.97436 14.5256C7.3788 14.4637 7.65124 13.5669 8.94891 13.1875C9.25402 13.0982 9.53885 13.0608 9.80948 13.0608C11.2214 13.0608 12.252 14.0792 13.8136 14.0943C13.8219 14.0944 13.8306 14.0945 13.8389 14.0945C15.7549 14.0948 17.3309 12.0164 18.3952 10.7139C20.9789 7.55337 24.3448 4.26142 25.6092 0.330777C25.6427 0.226601 25.6755 0.121409 25.7075 0.0152035C25.6755 0.121295 25.6427 0.226712 25.6092 0.330777C24.3449 4.26142 20.9789 7.55337 18.3952 10.7139C17.3309 12.0164 15.7549 14.0948 13.8389 14.0945C13.8306 14.0945 13.8219 14.0944 13.8136 14.0943C12.252 14.0792 11.2214 13.0608 9.80949 13.0608C9.53885 13.0608 9.25402 13.0982 8.94892 13.1875C7.65124 13.5669 7.3788 14.4637 5.97436 14.5256C5.89023 14.5292 5.80666 14.5311 5.7232 14.5311M0.874425 12.5699C0.711568 12.5134 0.553781 12.4363 0.402747 12.3363C0.472464 12.3899 0.542853 12.4432 0.614034 12.4963C0.423022 12.3587 0.233698 12.2176 0.0459518 12.0746C0.0291704 12.0181 0.0146419 11.9624 0 11.9059C0.273342 12.1509 0.563916 12.374 0.874425 12.5699M25.7075 0.0913395C25.7356 0.0643738 25.7678 0.0338628 25.792 0.00687027C25.764 0.0350446 25.7356 0.0631921 25.7075 0.0913395M25.7108 0.0844693C25.7389 0.0533276 25.7672 0.0289027 25.7953 0C25.7672 0.0289027 25.7389 0.0533276 25.7108 0.0844693" transform="translate(20.457886 29.649279)" id="path68" fill="#A71C21" fill-rule="evenodd" stroke="none" />
                <path d="M4.57418 27.1973C2.93277 27.1973 1.42291 26.4761 0 25.5113C0.728462 25.9182 1.56167 26.1787 2.52653 26.2341C2.69108 26.2437 2.85945 26.2489 3.02997 26.2489C4.26728 26.2489 5.61754 25.9729 6.44444 25.0807C6.96477 24.5174 7.04507 23.7248 7.86893 23.4418C7.96995 23.407 8.07368 23.3885 8.17854 23.3799C8.82568 23.3906 9.41562 23.6323 9.94913 24.1653C10.2095 24.425 10.5165 24.6727 10.8347 24.8441C10.8519 24.8589 10.8666 24.8776 10.884 24.8921C11.4335 25.3644 11.9659 25.5616 12.4682 25.5616C13.9748 25.5615 15.211 23.7871 15.8284 22.3363C15.9659 22.1468 16.1014 21.9568 16.2336 21.7707C17.4614 20.0433 19.1582 18.7166 20.4386 17.0251C21.6689 15.3986 22.6444 13.5761 23.2165 11.6142C24.2024 8.22844 24.0376 4.64266 23.9366 1.15858C23.9257 0.786579 23.913 0.388335 23.8595 0C24.8825 2.04438 25.3123 4.45919 25.3121 6.85012C25.3122 9.04936 24.9486 11.2278 24.3543 13.0753C23.7284 15.0215 22.5789 16.8169 21.2602 18.5212C19.9417 20.2254 18.4552 21.8377 17.1602 23.4215C16.6272 24.0741 15.9702 24.9143 15.2138 25.5873C14.8358 25.924 14.4334 26.2184 14.0116 26.4274C13.5898 26.6366 13.1496 26.7608 12.6912 26.7608L12.6666 26.7607L12.667 26.7607L12.667 26.7607C11.9112 26.7534 11.2795 26.5032 10.6502 26.2465C10.022 25.991 9.39591 25.7275 8.66182 25.7271C8.6617 25.7271 8.66159 25.7271 8.66148 25.7271C8.38048 25.7271 8.08461 25.7662 7.7696 25.8583C7.09914 26.0542 6.6903 26.3866 6.29014 26.6618C6.08967 26.7999 5.891 26.9243 5.6591 27.0183C5.4272 27.1123 5.16118 27.1769 4.82173 27.1919C4.73951 27.1955 4.65752 27.1973 4.57587 27.1973C4.57542 27.1973 4.57463 27.1973 4.57418 27.1973" transform="translate(21.60559 16.87031)" id="path70" fill="#C41E25" fill-rule="evenodd" stroke="none" />
                <path d="M5.32945 27.6472C4.61371 27.6472 3.91386 27.5107 3.24024 27.2812C2.1775 26.9142 1.17277 26.3054 0.211287 25.6128C0.140106 25.5597 0.0697165 25.5064 0 25.4528C0.151031 25.5528 0.308818 25.6299 0.471675 25.6864C0.560986 25.7429 0.652103 25.797 0.744906 25.8488C2.16782 26.8136 3.67768 27.5348 5.31909 27.5348C5.31954 27.5348 5.32033 27.5348 5.32078 27.5348C5.40243 27.5348 5.48442 27.533 5.56664 27.5294C5.90609 27.5145 6.17211 27.4498 6.40401 27.3559C6.63591 27.2618 6.83458 27.1374 7.03505 26.9993C7.43521 26.7242 7.84405 26.3917 8.5145 26.1958C8.82952 26.1037 9.12539 26.0646 9.40639 26.0646C9.4065 26.0646 9.40661 26.0646 9.40673 26.0646C10.1408 26.0651 10.7669 26.3285 11.3951 26.5841C12.0244 26.8407 12.6561 27.091 13.4119 27.0982L13.4115 27.0982L13.4361 27.0983C13.8945 27.0983 14.3347 26.9742 14.7566 26.7649C15.1783 26.5559 15.5808 26.2615 15.9587 25.9249C16.7151 25.2518 17.3721 24.4116 17.9051 23.7591C19.2001 22.1752 20.6866 20.563 22.0051 18.8587C23.3238 17.1545 24.4733 15.359 25.0992 13.4128C25.6935 11.5653 26.0571 9.3869 26.057 7.18766C26.0572 4.79673 25.6274 2.38192 24.6044 0.337539C24.5888 0.2239 24.5696 0.111049 24.546 0C26.6331 3.88334 26.4949 9.17201 25.3094 13.1165C25.3089 13.118 25.3085 13.1192 25.308 13.1208C25.3078 13.1215 25.3074 13.1226 25.3072 13.1234C25.3065 13.126 25.3056 13.1289 25.3049 13.1315C25.3047 13.1317 25.3049 13.1315 25.3047 13.1317C25.2728 13.2379 25.24 13.3431 25.2064 13.4473C23.9421 17.3779 20.5762 20.6699 17.9924 23.8304C16.9281 25.1329 15.3521 27.2113 13.4361 27.211C13.4278 27.211 13.4191 27.211 13.4108 27.2108C11.8492 27.1957 10.8186 26.1773 9.40673 26.1773C9.13609 26.1773 8.85126 26.2147 8.54616 26.304C7.24848 26.6834 6.97604 27.5802 5.5716 27.6421C5.49073 27.6455 5.41009 27.6472 5.32945 27.6472" transform="translate(20.860657 16.532778)" id="path72" fill="#8F191E" fill-rule="evenodd" stroke="none" />
                <path d="M3.58044 3.69329C3.44281 3.2768 2.81762 2.41443 3.64621 2.10144C3.79105 2.04693 3.95829 2.02699 4.05876 1.89815C4.31453 1.57063 4.04344 1.21845 3.8308 0.958064C3.06281 0.0212436 1.55126 -0.117511 0.376683 0.0749675C0.290301 0.0897228 0.202001 0.130942 0.137353 0.192662C0.0948939 0.21057 0.0611067 0.244357 0.0531104 0.296277C0.0490555 0.317561 0.0490555 0.334119 0.0452275 0.354053C-0.00669454 0.543377 -0.013451 0.70567 0.0225892 0.839805C0.0982734 1.76863 1.02248 1.5088 1.68607 2.67482C2.8183 4.66739 2.49337 6.85796 1.89341 8.90696C1.84825 9.06294 1.90209 9.21037 2.06292 9.28346C2.96843 9.69882 3.42625 9.68148 3.67065 8.68565C4.08793 6.98939 4.14244 5.39089 3.58044 3.69329" transform="translate(25.220459 5.455288)" id="path74" fill="#583613" fill-rule="evenodd" stroke="none" />
                <path d="M3.63669 3.74965L3.69007 3.73197C3.64491 3.59614 3.55605 3.42597 3.4789 3.24396C3.40141 3.06241 3.33699 2.87038 3.33744 2.70302C3.33755 2.59884 3.36098 2.50559 3.41887 2.42337C3.47676 2.34126 3.57136 2.26761 3.72228 2.21051C3.79008 2.18483 3.86836 2.16613 3.94562 2.13662C4.02254 2.107 4.10048 2.06477 4.15938 1.98908C4.24047 1.88581 4.2755 1.77476 4.27516 1.66697C4.27291 1.4014 4.08133 1.16534 3.93075 0.978829C3.33485 0.253856 2.31885 0.000448537 1.3505 0C1.03165 0 0.717429 0.0275928 0.423813 0.0757976L0.423475 0.0759084C0.32639 0.092579 0.22897 0.137629 0.154748 0.208358L0.193603 0.249015L0.171756 0.197096C0.116119 0.219507 0.0643109 0.270865 0.0537239 0.344185L0.10936 0.352632L0.0540616 0.342045C0.049107 0.369187 0.0489936 0.386193 0.0461787 0.399711L0.101478 0.410411L0.0471892 0.395542C0.0157684 0.509968 0 0.616065 0 0.714047C0 0.783988 0.00799633 0.849537 0.0244401 0.910692L0.0788393 0.896164L0.0226382 0.900667C0.0418969 1.14214 0.119272 1.31468 0.234714 1.44758C0.408269 1.64681 0.654245 1.75809 0.913283 1.93007C1.17277 2.10171 1.44916 2.33034 1.69344 2.75899C2.23506 3.71226 2.43992 4.71057 2.44004 5.72004C2.44004 6.79944 2.20499 7.89112 1.8956 8.94744C1.884 8.98742 1.87803 9.02752 1.87803 9.06693C1.87792 9.13428 1.89594 9.19995 1.93299 9.25626C1.96993 9.31268 2.02523 9.35908 2.09585 9.39107L2.09957 9.39276L2.09574 9.39107C2.44803 9.55224 2.73579 9.65169 2.98109 9.65225C3.17593 9.65326 3.34555 9.58445 3.47675 9.43567C3.6083 9.28734 3.70516 9.06569 3.78163 8.75541C3.98717 7.91951 4.10543 7.10578 4.10543 6.2915C4.10543 5.44692 3.97816 4.60189 3.69007 3.73197L3.63668 3.74965L3.58319 3.76734C3.86746 4.62611 3.99281 5.45819 3.99281 6.2915C3.99281 7.09475 3.87624 7.89923 3.67228 8.72849C3.59851 9.02965 3.50503 9.23497 3.39263 9.36077C3.27977 9.48613 3.15138 9.53861 2.98109 9.53962C2.76722 9.54018 2.48926 9.44806 2.1426 9.28869L2.14248 9.28858C2.08865 9.26403 2.05159 9.23159 2.02715 9.19454C2.00283 9.15726 1.99066 9.1148 1.99066 9.06693C1.99066 9.03911 1.99494 9.00949 2.00373 8.97897C2.31446 7.91747 2.55255 6.81588 2.55266 5.72003C2.55278 4.69547 2.34385 3.67565 1.79131 2.70324C1.45355 2.10835 1.04179 1.8724 0.719342 1.67655C0.557949 1.57845 0.419982 1.48981 0.319972 1.37392C0.220072 1.2578 0.153624 1.11454 0.13493 0.891542L0.134479 0.88636L0.133239 0.881519C0.11961 0.830951 0.112627 0.775314 0.112513 0.714042C0.112513 0.628333 0.126593 0.531929 0.155763 0.425272L0.156328 0.423246L0.156776 0.421106C0.16162 0.394865 0.161507 0.378534 0.164662 0.363217L0.164886 0.362428L0.165113 0.361188C0.170405 0.330667 0.186174 0.314337 0.215455 0.300932L0.225029 0.296877L0.232574 0.28967C0.287424 0.236848 0.36671 0.199571 0.442394 0.186844L0.442056 0.186957C0.729816 0.139768 1.03818 0.112624 1.35049 0.112624C2.30128 0.112284 3.28327 0.365016 3.84358 1.05012C3.99506 1.23359 4.16479 1.46041 4.16253 1.66697C4.1622 1.75121 4.13742 1.83377 4.07063 1.91981C4.02907 1.97309 3.9731 2.00519 3.90507 2.03143C3.8375 2.05767 3.75956 2.07625 3.68252 2.10508C3.51629 2.16782 3.40017 2.2542 3.32674 2.35849C3.2532 2.46256 3.22459 2.58194 3.22481 2.70301C3.22515 2.89831 3.29611 3.10103 3.37517 3.28799C3.45457 3.47439 3.54343 3.64625 3.58319 3.76733L3.63668 3.74964" transform="translate(25.164185 5.3989334)" id="path76" fill="#372614" fill-rule="evenodd" stroke="none" />
                <path d="M2.86171 8.74156C2.64806 8.74156 2.37088 8.64943 2.02524 8.49063L2.02512 8.49051C1.97129 8.46596 1.93423 8.43352 1.9098 8.39647C1.88547 8.35919 1.8733 8.31673 1.8733 8.26886C1.8733 8.24105 1.87758 8.21142 1.88637 8.1809C2.1971 7.11941 2.43519 6.01781 2.4353 4.92196C2.43542 3.89741 2.2265 2.87758 1.67395 1.90517C1.33619 1.31028 0.924429 1.07433 0.601983 0.87848C0.440589 0.780382 0.302623 0.691744 0.202612 0.575852C0.102712 0.459735 0.0362645 0.316476 0.0175703 0.0934761L0.0171192 0.0882947L0.0158792 0.0834536C0.00878514 0.0570982 0.00348776 0.0292786 0 0C0.109244 0.20768 0.281903 0.400835 0.516163 0.549161C1.29024 1.03492 2.01904 1.39757 2.42832 2.25206C2.85022 3.12908 3.00959 4.26513 2.9339 5.38598C2.85754 6.51123 2.36998 7.64965 3.35737 7.64965C3.43689 7.64965 3.5262 7.64233 3.62587 7.6269C3.60357 7.7277 3.57992 7.82895 3.55492 7.93042C3.48115 8.23158 3.38767 8.4369 3.27527 8.5627C3.16242 8.68806 3.03402 8.74054 2.86373 8.74155C2.86306 8.74155 2.86238 8.74155 2.86171 8.74155" transform="translate(25.281555 6.197006)" id="path78" fill="#452913" fill-rule="evenodd" stroke="none" />
                <path d="M2.92451 8.92705C2.69498 8.92705 2.41207 8.83109 2.06259 8.67083C1.90176 8.59773 1.84792 8.4503 1.89309 8.29432C2.49304 6.24532 2.81797 4.05475 1.68575 2.06218C1.02216 0.896161 0.0979486 1.15599 0.0222644 0.227166C0.00435648 0.159365 -0.00375327 0.0830051 0.00165237 0C0.0186607 0.0433637 0.0383679 0.0866089 0.0607819 0.12907C0.0642722 0.158354 0.069567 0.186171 0.0766611 0.212524L0.077901 0.217365L0.0783521 0.222546C0.0970463 0.445547 0.163497 0.588805 0.263394 0.704925C0.363405 0.820815 0.501371 0.90945 0.662765 1.00755C0.985211 1.2034 1.39697 1.43936 1.73474 2.03425C2.28728 3.00666 2.4962 4.02648 2.49609 5.05104C2.49597 6.14688 2.25788 7.24848 1.94715 8.30997C1.93836 8.34049 1.93409 8.37012 1.93409 8.39793C1.93409 8.4458 1.94625 8.48826 1.97058 8.52554C1.99501 8.56259 2.03207 8.59503 2.0859 8.61958L2.08602 8.61969C2.43166 8.7785 2.70884 8.87063 2.92249 8.87063C2.92317 8.87063 2.92384 8.87063 2.92451 8.87063C3.09481 8.86961 3.2232 8.81713 3.33605 8.69178C3.44845 8.56597 3.54193 8.36066 3.6157 8.0595C3.6407 7.95802 3.66435 7.85677 3.68666 7.75597C3.70479 7.75316 3.72326 7.75012 3.74218 7.74674C3.71886 7.85576 3.69769 7.96399 3.67032 8.07301C3.52019 8.68457 3.28976 8.92705 2.92452 8.92705" transform="translate(25.220764 6.067932)" id="path80" fill="#2C1E13" fill-rule="evenodd" stroke="none" />
                <path d="M2.66461 1.67215C2.47754 1.67215 2.29982 1.65267 2.14428 1.60796C1.64467 1.46312 0.613585 0.765516 0.448813 0.728236C0.122425 0.653902 0.0207229 0.432142 0 0.188084L0.0090094 0.184253L0.0165546 0.177046C0.071405 0.124227 0.15069 0.0869465 0.226374 0.07422L0.226037 0.0743334C0.513683 0.0271442 0.822052 0 1.13425 0C1.13425 0 1.13436 0 1.13448 0C1.13515 0 1.13605 0 1.13684 0C2.00406 0 2.89684 0.210836 3.4718 0.768106C3.44544 0.784999 3.42179 0.804935 3.40118 0.827123C3.33755 0.895599 3.30308 0.985925 3.3032 1.08019L3.3032 1.08199L3.3032 1.08199C3.3041 1.25667 3.31637 1.43 3.33698 1.6021C3.11331 1.64568 2.88254 1.67215 2.66461 1.67215" transform="translate(25.380188 5.5115623)" id="path82" fill="#442713" fill-rule="evenodd" stroke="none" />
                <path d="M3.47551 0.82442C2.90056 0.26715 2.00777 0.0563145 1.14056 0.0563145C1.13977 0.0563145 1.13887 0.0563145 1.13819 0.0563145C1.13808 0.0563145 1.13797 0.0563145 1.13797 0.0563145C0.825769 0.0563145 0.517398 0.0834562 0.229754 0.130648L0.230092 0.130534C0.154408 0.143261 0.0751196 0.180541 0.0202718 0.23336L0.0127266 0.240568L0.00371718 0.244398C0.0019153 0.222662 0.000675383 0.20081 0 0.17885C0.0638572 0.126928 0.142245 0.0885241 0.220634 0.0750087C0.511322 0.0273685 0.822619 0 1.1382 0C2.02051 0 2.93626 0.213991 3.52721 0.79649C3.50908 0.804711 3.49174 0.813947 3.47552 0.82442" transform="translate(25.376465 5.4552536)" id="path84" fill="#2C1C12" fill-rule="evenodd" stroke="none" />
                <path d="M5.59337 1.46883C3.52782 2.10798 1.58581 1.75918 0.153327 0.0298058C0.0956595 -0.0405836 -0.0345322 0.0250781 0.00860211 0.108756C0.575334 1.19785 1.59257 1.93859 2.79913 2.27612C3.73651 2.53719 5.19355 2.55713 5.74226 1.65421C5.80545 1.55262 5.71771 1.43098 5.59337 1.46883" transform="translate(25.091492 13.11586)" id="path86" fill="#4C0E15" fill-rule="evenodd" stroke="none" />
                <path d="M1.79636 0.00115872C1.20507 -0.0221549 0.579213 0.310768 0.100778 0.606973C-0.14103 0.756652 0.0968363 1.10264 0.346639 1.01693C0.621108 0.921987 0.892086 0.824338 1.15507 0.702818C1.40296 0.587714 1.68069 0.492095 1.88409 0.309304C1.98501 0.218978 1.96845 0.00769086 1.79636 0.00115872" transform="translate(18.088257 12.211746)" id="path88" fill="#FFFFFF" fill-rule="evenodd" stroke="none" />
                <path d="M7.31856 0.00200424C5.30267 0.403965 3.26032 2.33538 2.06311 3.86022C0.634677 5.67992 -0.108653 8.07501 0.0128697 10.3653C0.0221033 10.55 0.313804 10.5407 0.337006 10.368C0.659905 8.17345 1.28385 6.07794 2.592 4.24687C3.81185 2.54408 5.66882 1.34867 7.40021 0.189526C7.48592 0.13299 7.42555 -0.0191698 7.31856 0.00200682" transform="translate(10.492554 13.567478)" id="path90" fill="#FFFFFF" fill-rule="evenodd" stroke="none" />
                <path d="M20.4965 1.19528C20.2258 1.20834 19.7704 1.17185 19.2409 1.13525C18.5059 1.08457 17.6278 1.03377 16.9007 1.11565C17.0144 0.974758 17.1393 0.837918 17.2887 0.710312C17.471 0.55286 17.3565 0.299004 17.1619 0.206765C16.406 -0.153415 15.4869 0.0413166 14.6838 0.162839C13.3079 0.370182 12.0209 0.544193 10.6966 0.968112C8.87356 1.55208 7.28238 2.48496 6.17617 3.83827C5.96883 3.44689 5.75619 3.0589 5.53308 2.67698C5.4646 2.55737 5.24927 2.53812 5.13506 2.60986C3.5485 3.61178 2.51933 5.19034 2.02772 6.84796C1.5619 6.43801 0.995839 6.16771 0.31288 6.21613C0.116235 6.23077 -0.000783651 6.37494 5.1556e-06 6.537C0.00529737 7.75832 0.57935 8.92624 0.651095 10.1335C0.611789 10.4351 0.524164 10.7374 0.35793 11.0436C0.257695 11.2298 0.347456 11.494 0.578564 11.5718C0.889526 11.6754 1.17796 11.7173 1.50941 11.7525C2.11613 11.817 2.61698 12.1505 3.15319 12.3757C4.14508 12.7916 5.19205 12.9876 6.28046 13.0868C8.46101 13.2859 10.5751 12.9205 12.4792 11.9743C14.3648 11.0391 15.7002 9.40524 16.924 7.89583C17.5572 7.11567 18.009 6.22672 18.4947 5.37515C19.1603 4.21241 19.5795 2.65367 20.7244 1.75751C20.9735 1.56063 20.8805 1.17681 20.4965 1.19528" transform="translate(28.739685 0.05633545)" id="path92" fill="#84CE2A" fill-rule="evenodd" stroke="none" />
                <path d="M20.5528 1.25161L20.5501 1.19541C20.5129 1.19721 20.4716 1.198 20.4268 1.198C19.8828 1.19822 18.8317 1.07253 17.8389 1.07242C17.5323 1.07242 17.231 1.08447 16.9507 1.11601L16.957 1.17199L17.0009 1.20735C17.113 1.06825 17.2356 0.93423 17.3816 0.809439L17.3819 0.809217C17.4577 0.744453 17.4935 0.658859 17.4929 0.575627C17.4914 0.422233 17.3857 0.281114 17.2423 0.212184C16.9085 0.0531593 16.546 0 16.1789 0C15.689 0.000108268 15.1895 0.0942701 14.7317 0.163535C13.3564 0.370765 12.066 0.545106 10.7358 0.970835C8.90531 1.55717 7.304 2.49477 6.18878 3.85889L6.23248 3.8946L6.28215 3.86824C6.07458 3.47642 5.8616 3.08774 5.63793 2.70482L5.63827 2.70526C5.60966 2.65549 5.56427 2.62125 5.51461 2.59963C5.4646 2.578 5.40941 2.56809 5.35479 2.56798C5.28597 2.5682 5.21761 2.58352 5.16141 2.61855C3.56134 3.62913 2.52484 5.21975 2.02997 6.8883L2.08403 6.90429L2.1212 6.86206C1.68488 6.47767 1.15599 6.21029 0.526301 6.21052C0.473255 6.21052 0.419531 6.21232 0.365132 6.21626C0.254194 6.22437 0.161504 6.2701 0.0979847 6.33869C0.0343517 6.40716 -0.000110845 6.49749 0 6.59176L0 6.59434L0.0563146 6.59333L0 6.59356C0.00698583 7.83233 0.581938 9.00127 0.651203 10.1931L0.707404 10.1898L0.651541 10.1825C0.613023 10.4782 0.527428 10.7731 0.364797 11.0731C0.332585 11.1328 0.31727 11.1989 0.31727 11.2647C0.317157 11.4389 0.424489 11.6164 0.616968 11.6815L0.617081 11.6815C0.933784 11.7871 1.22717 11.8295 1.55976 11.8648C2.1489 11.9266 2.64491 12.255 3.18765 12.484C4.18698 12.9029 5.23991 13.0998 6.33171 13.1992C6.717 13.2343 7.10038 13.2519 7.48094 13.2519C9.2629 13.252 10.9835 12.8647 12.5606 12.0811C14.4602 11.1385 15.8 9.49682 17.0242 7.98753C17.6622 7.20129 18.115 6.30929 18.5999 5.45931C18.9353 4.87309 19.2066 4.19227 19.5363 3.54827C19.8658 2.90417 20.253 2.29824 20.8155 1.8581L20.8156 1.85799C20.9216 1.77442 20.9758 1.65796 20.9756 1.54488C20.9757 1.45411 20.9405 1.36502 20.8717 1.2997C20.8031 1.23427 20.7025 1.19439 20.5793 1.19462L20.5498 1.19541L20.5473 1.19552L20.5501 1.19541L20.5528 1.25161L20.5559 1.30792L20.5793 1.30725C20.6791 1.30747 20.7485 1.3381 20.7941 1.38135C20.8396 1.42472 20.8629 1.4826 20.863 1.54488C20.8629 1.62226 20.8265 1.70572 20.7458 1.76958L20.746 1.76946C20.1636 2.22548 19.7687 2.84695 19.436 3.49702C19.1035 4.14721 18.8323 4.82702 18.5022 5.40344C18.0156 6.25681 17.565 7.14272 16.9367 7.91657C15.7131 9.42632 14.382 11.0523 12.5105 11.9802C10.9494 12.7559 9.24669 13.1392 7.48094 13.1392C7.10387 13.1392 6.72398 13.1218 6.34196 13.087C5.25681 12.9882 4.21592 12.7929 3.23124 12.3802C2.70167 12.1586 2.19587 11.8201 1.5717 11.7528C1.24125 11.7177 0.957886 11.6764 0.65267 11.5748L0.652894 11.5748C0.509409 11.5267 0.430121 11.3942 0.429894 11.2647C0.430008 11.2162 0.441157 11.1687 0.463795 11.1267C0.633522 10.8141 0.723286 10.5045 0.763268 10.197L0.763946 10.1917L0.763606 10.1864C0.689386 8.96399 0.116346 7.79696 0.112629 6.5931L0.112629 6.59232L0.112629 6.59175C0.112629 6.52463 0.136729 6.46246 0.18043 6.41538C0.224467 6.3683 0.288102 6.33508 0.373358 6.32855C0.42494 6.32494 0.475959 6.32314 0.526304 6.32314C1.12311 6.32326 1.62384 6.57463 2.04675 6.94653L2.11286 7.00475L2.13798 6.92028C2.62632 5.27358 3.6484 3.70707 5.22145 2.71383C5.25343 2.69333 5.30355 2.68038 5.35479 2.6806C5.39545 2.68049 5.43656 2.68837 5.46956 2.7029C5.5029 2.71743 5.52711 2.73759 5.54051 2.76124L5.54074 2.76169C5.7634 3.14282 5.97559 3.53014 6.18271 3.92095L6.22235 3.99584L6.27607 3.93018C7.37327 2.58768 8.95431 1.65965 10.7702 1.07805C12.0883 0.656039 13.3719 0.48226 14.7485 0.274912C15.209 0.205084 15.7034 0.112505 16.1789 0.112619C16.5354 0.112619 16.8802 0.164319 17.194 0.313883C17.3028 0.364454 17.3819 0.478434 17.3803 0.575627C17.3797 0.62856 17.3609 0.67778 17.3083 0.723954L17.3085 0.72384C17.1557 0.854262 17.0283 0.993916 16.9132 1.13673L16.8273 1.24327L16.9634 1.22795C17.2379 1.19698 17.5354 1.18504 17.8389 1.18504C18.8238 1.18493 19.8693 1.31039 20.4268 1.31061C20.473 1.31061 20.516 1.30983 20.5555 1.30791L20.5559 1.30791L20.5528 1.2516" transform="translate(28.68341 0)" id="path94" fill="#56A034" fill-rule="evenodd" stroke="none" />
                <path d="M0.0844688 0.0844698C0.0563126 0.0562595 0.0281563 0.0282103 0 0C0.0281563 0.0282103 0.0563126 0.0562595 0.0844688 0.0844698" transform="translate(30.224121 11.806099)" id="path96" fill="#4A9034" fill-rule="evenodd" stroke="none" />
                <path d="M1.6706 6.75652C1.20016 6.75652 0.758893 6.64593 0.381934 6.37472C-1.18773 5.24509 2.50166 3.6333 3.84472 3.08008C3.88246 3.06871 3.91996 3.05734 3.95769 3.04607C5.27991 2.65143 6.79732 2.42686 8.01976 1.8242C8.09589 1.78703 8.08069 1.694 8.02122 1.65368C8.75014 1.47292 9.46587 1.26715 10.1645 0.994484C10.7397 0.770133 11.1626 0.376054 11.6056 0C11.6446 0.0131725 11.6757 0.0326607 11.7 0.0557475C11.7455 0.0991112 11.7688 0.156998 11.769 0.219278C11.7688 0.296653 11.7325 0.380112 11.6517 0.443969L11.6519 0.443856C11.5648 0.512105 11.4816 0.584186 11.4025 0.659421C10.3784 1.1847 9.54663 2.03435 8.70948 2.74165C7.81185 3.50063 6.93089 4.28315 5.94744 4.9588C5.03405 5.58691 3.19949 6.75652 1.6706 6.75652" transform="translate(37.777466 1.3256073)" id="path98" fill="#6EB92E" fill-rule="evenodd" stroke="none" />
                <path d="M0 0.69749C0.0791749 0.622255 0.162294 0.550174 0.249465 0.481924L0.249238 0.482038C0.329991 0.418181 0.366369 0.334722 0.366487 0.257347C0.366374 0.195067 0.34306 0.13718 0.297557 0.0938164C0.273227 0.0707296 0.242144 0.0512415 0.203178 0.0380689C0.218155 0.0253398 0.233245 0.0126157 0.248228 0C0.460866 0.0957343 0.483504 0.368739 0.284152 0.526299C0.250367 0.552654 0.217139 0.579798 0.184597 0.607391C0.122317 0.636221 0.0608157 0.666294 0 0.69749" transform="translate(49.17993 1.2875366)" id="path100" fill="#4A9034" fill-rule="evenodd" stroke="none" />
                <path d="M16.0307 0.000969896C12.619 0.432893 9.43459 1.3981 6.46408 2.93498C4.11606 4.15145 0.827391 5.98117 0.008151 8.40623C-0.0542446 8.59285 0.257955 8.69793 0.387587 8.56165C1.3841 7.5166 2.20987 6.49745 3.42308 5.613C4.62299 4.73812 5.97303 3.9833 7.31711 3.28897C8.81402 2.51703 10.4006 1.90378 12.0449 1.4115C13.3671 1.01685 14.8845 0.792282 16.107 0.189621C16.2102 0.139163 16.1456 -0.0135586 16.0307 0.000969896" transform="translate(29.690247 2.9601822)" id="path102" fill="#3C7C32" fill-rule="evenodd" stroke="none" />
                <path d="M5.91521 11.3101C5.53646 11.3101 5.15477 11.2925 4.77105 11.2575C3.68263 11.1584 2.63566 10.9623 1.64377 10.5465C1.10756 10.3212 0.606713 9.98776 0 9.92323L0 9.92323L0 9.92323C0.606716 9.98776 1.10756 10.3212 1.64377 10.5465C2.63567 10.9623 3.68263 11.1584 4.77105 11.2575C5.15477 11.2925 5.53645 11.3101 5.91521 11.3101C7.68907 11.3101 9.40075 10.9248 10.9697 10.1451C12.8554 9.20986 14.1908 7.576 15.4146 6.06658C16.0478 5.28643 16.4996 4.39747 16.9853 3.54591C17.6312 2.41751 18.0451 0.916211 19.1154 0.00934709C19.1222 0.00619703 19.129 0.0030418 19.1358 0C18.0542 0.906184 17.6344 2.41233 16.9853 3.54591C16.4996 4.39747 16.0478 5.28643 15.4146 6.06658C14.1908 7.576 12.8554 9.20986 10.9697 10.1451C9.40075 10.9248 7.68907 11.3101 5.91521 11.3101" transform="translate(30.249146 1.8855743)" id="path104" fill="#4A9034" fill-rule="evenodd" stroke="none" />
                <path d="M0.737361 8.4922C0.67215 8.4752 0.6066 8.45594 0.540041 8.43375L0.540265 8.43375L0.540265 8.43375C0.39678 8.38566 0.317492 8.25321 0.317265 8.12369C0.317378 8.07515 0.328527 8.02773 0.351166 7.98572C0.520893 7.67308 0.610657 7.36347 0.650639 7.056L0.651317 7.05071L0.650976 7.04541C0.576756 5.82297 0.00371718 4.65595 0 3.45209L0 3.4513L0 3.45074C0 3.38361 0.0240998 3.32144 0.0678012 3.27436C0.111838 3.22729 0.175473 3.19406 0.260729 3.18753C0.31231 3.18393 0.36333 3.18213 0.413675 3.18213C1.01048 3.18224 1.51121 3.43362 1.93412 3.80551L2.00023 3.86374L2.02535 3.77927C2.44848 2.35241 3.27245 0.985701 4.50829 0C4.17537 0.810228 3.933 1.65841 4.11399 2.40276C4.17695 2.65842 4.36819 2.74581 4.58567 2.74581C4.74177 2.74581 4.91138 2.70076 5.05678 2.64051C6.20297 2.16872 6.87591 1.11758 8.01005 0.62203L8.0087 0.626761C7.81802 0.953489 7.74831 1.30375 8.03652 1.55479C8.15162 1.65526 8.32743 1.69569 8.53759 1.69569C9.29916 1.69569 10.5119 1.16489 10.9255 1.03458C12.1572 0.644666 13.4019 0.376054 14.6706 0.190223C12.1001 0.712132 9.66463 1.56088 7.35828 2.75414C7.17662 2.84819 6.98955 2.94595 6.79831 3.04731C6.29645 3.2934 5.80968 3.54084 5.379 3.81441C5.22943 3.90957 5.08156 4.00621 4.93571 4.1043C3.16399 5.19801 1.46042 6.57351 0.902355 8.22539C0.894473 8.24904 0.892557 8.27134 0.895596 8.29206C0.844015 8.35964 0.791307 8.42642 0.737358 8.4922" transform="translate(28.79602 3.141014)" id="path106" fill="#6EB92E" fill-rule="evenodd" stroke="none" />
                <path d="M1.48441 8.76656C1.16332 8.73198 0.881751 8.68964 0.578564 8.58861C0.347456 8.51079 0.257695 8.24656 0.35793 8.0604C0.524164 7.75417 0.611789 7.45188 0.651095 7.15027C0.57935 5.94303 0.00529738 4.7751 5.1556e-06 3.55379C-0.000783651 3.39172 0.116236 3.24756 0.31288 3.23292C0.365926 3.22909 0.418297 3.22729 0.469992 3.22729C1.08324 3.22729 1.59805 3.48666 2.02772 3.86475C2.46223 2.39983 3.31864 0.997976 4.60685 0C4.59266 0.0337898 4.57858 0.067577 4.56461 0.101478C3.32877 1.08718 2.5048 2.45389 2.08167 3.88075L2.05655 3.96521L1.99044 3.90699C1.56753 3.5351 1.0668 3.28372 0.469992 3.2836C0.419648 3.2836 0.368628 3.28541 0.317046 3.28901C0.231785 3.29554 0.168155 3.32877 0.124118 3.37584C0.0804196 3.42292 0.0563172 3.48509 0.0563172 3.55222L0.0563172 3.55278L0.0563172 3.55357C0.0600343 4.75742 0.633074 5.92445 0.707294 7.14689L0.707634 7.15219L0.706956 7.15748C0.666974 7.46495 0.57721 7.77455 0.407483 8.0872C0.384845 8.12921 0.373696 8.17663 0.373582 8.22517C0.373809 8.35469 0.453097 8.48714 0.596582 8.53523L0.596358 8.53523C0.662917 8.55742 0.728468 8.57667 0.793678 8.59368C0.782527 8.60731 0.771264 8.62093 0.760002 8.63445C0.996066 8.69808 1.22909 8.73874 1.48441 8.76656" transform="translate(28.739685 3.0395432)" id="path108" fill="#4A9034" fill-rule="evenodd" stroke="none" />
                <path d="M6.63095 11.1542C6.25388 11.1542 5.87399 11.1368 5.49197 11.102C4.40682 11.0032 3.36593 10.8079 2.38125 10.3951C1.85168 10.1736 1.34588 9.83504 0.721706 9.76781C0.463344 9.74033 0.233811 9.70913 0 9.6482C0.0539482 9.58242 0.106656 9.51564 0.158238 9.44806C0.171302 9.53929 0.279199 9.59875 0.384845 9.59875C0.444536 9.59875 0.503552 9.57972 0.544434 9.53681C1.54095 8.49176 2.36672 7.47261 3.57992 6.58815C4.77984 5.71328 6.12988 4.95846 7.47395 4.26412C8.93651 3.50998 10.4848 2.9071 12.0888 2.42067C10.7457 2.97388 7.05634 4.58567 8.626 5.7153C9.00296 5.98651 9.44423 6.09711 9.91467 6.09711C11.4436 6.09711 13.2781 4.92749 14.1915 4.29938C15.175 3.62373 16.0559 2.84121 16.9536 2.08223C17.7907 1.37494 18.6224 0.525288 19.6465 0C19.1967 0.427301 18.8689 0.959343 18.5861 1.512C18.2535 2.16219 17.9823 2.842 17.6522 3.41841C17.1656 4.27178 16.715 5.15769 16.0867 5.93154C14.8631 7.44129 13.532 9.06727 11.6605 9.99519C10.0994 10.7708 8.3967 11.1542 6.63095 11.1542" transform="translate(29.533386 1.9850235)" id="path110" fill="#5EA632" fill-rule="evenodd" stroke="none" />
                <path d="M6.66463 11.3007C6.28587 11.3007 5.90418 11.2832 5.52046 11.2482C4.43205 11.149 3.38508 10.953 2.39318 10.5371C1.85697 10.3119 1.35613 9.97841 0.749412 9.91387L0.749412 9.91387C0.741078 9.91297 0.732744 9.91207 0.72441 9.91117C0.46909 9.88335 0.236064 9.8427 0 9.77906C0.0112624 9.76555 0.0225248 9.75192 0.0336764 9.73829C0.267488 9.79922 0.497018 9.83042 0.755382 9.8579C1.37955 9.92514 1.88536 10.2637 2.41492 10.4852C3.39961 10.898 4.4405 11.0933 5.52564 11.1921C5.90767 11.2269 6.28756 11.2443 6.66463 11.2443C8.43037 11.2443 10.133 10.8609 11.6942 10.0853C13.5657 9.15737 14.8968 7.53139 16.1203 6.02164C16.7487 5.24779 17.1993 4.36188 17.6858 3.50851C18.0159 2.9321 18.2872 2.25229 18.6197 1.6021C18.9025 1.04945 19.2304 0.5174 19.6802 0.0900992C19.741 0.0589027 19.8025 0.0288301 19.8648 0C18.7945 0.906859 18.3806 2.40816 17.7347 3.53656C17.249 4.38812 16.7972 5.27707 16.164 6.05723C14.9402 7.56664 13.6048 9.2005 11.7192 10.1357C10.1502 10.9155 8.43848 11.3007 6.66463 11.3007" transform="translate(29.499695 1.894928)" id="path112" fill="#3F8132" fill-rule="evenodd" stroke="none" />
                <path d="M0 1.05699C0.145849 0.958897 0.293727 0.862263 0.443296 0.767096C0.873977 0.493527 1.36074 0.246089 1.86261 0C1.26535 0.316592 0.628225 0.669222 0 1.05699" transform="translate(33.73169 6.1883316)" id="path114" fill="#5EA632" fill-rule="evenodd" stroke="none" />
                <path d="M0.227975 8.42057C0.122335 8.42057 0.0144382 8.3611 0.00137139 8.26988C-0.00166784 8.24915 0.000244891 8.22685 0.00813037 8.2032C0.566193 6.55132 2.26977 5.17582 4.04148 4.08212C4.66971 3.69435 5.30683 3.34172 5.90408 3.02512C6.09532 2.92376 6.2824 2.826 6.46406 2.73196C8.77041 1.53869 11.2058 0.689942 13.7764 0.168036C14.2261 0.102148 14.6789 0.0467381 15.135 0C14.1769 0.35139 13.2342 0.708866 12.2886 1.09686C12.2079 1.13008 12.0851 1.17941 11.9319 1.24248C10.3279 1.72891 8.77964 2.3318 7.31709 3.08594C5.97301 3.78028 4.62297 4.53509 3.42306 5.40997C2.20985 6.29442 1.38408 7.31357 0.387567 8.35863C0.346685 8.40154 0.287667 8.42057 0.227975 8.42057" transform="translate(29.690247 3.163208)" id="path116" fill="#336E2F" fill-rule="evenodd" stroke="none" />
              </g>
            </g>
          </g>
        </g>
      </g>
    </g>
  </g>
</svg>