<?xml version="1.0" encoding="utf-8"?>
<svg width="65px" height="65px" viewBox="0 0 65 65" version="1.1" xmlns:xlink="http://www.w3.org/1999/xlink" xmlns="http://www.w3.org/2000/svg">
  <g id="map" transform="translate(0.5 0.5)">
    <g id="map">
      <path d="M0 0L64 0L64 64L0 64L0 0Z" id="Rectangle-3" fill="#FFFFFF" fill-opacity="0" fill-rule="evenodd" stroke="none" />
      <g id="Group-46" transform="translate(7.5000305 19)">
        <g id="Group">
          <path d="M24.9412 39.6229L13.49 41.9514L0 39.4152L0 2.53621L13.49 0L24.9412 2.32851L36.3925 0L49.8825 2.53621L49.8825 39.4152L36.3925 41.9514L24.9412 39.6229Z" id="Polygon" fill="#EFE5D5" fill-rule="evenodd" stroke="none" />
          <path d="M0 37.3927L12.3859 39.7212L12.3859 0L0 2.32851L0 37.3927Z" transform="translate(1.0932007 1.1150513)" id="Polygon" fill="#D2C6B3" fill-rule="evenodd" stroke="none" />
          <path d="M11.4622 37.3927L0 39.7212L0 0L11.4622 2.32851L11.4622 37.3927Z" transform="translate(13.479095 1.1150513)" id="Polygon" fill="#C1B5A3" fill-rule="evenodd" stroke="none" />
          <path d="M0 0L6.23668 1.16972L6.23668 9.16098L0 7.95846L0 0Z" transform="translate(1.0932007 26.570099)" id="Polygon" fill="#8DC63F" fill-rule="evenodd" stroke="none" />
          <path d="M12.3859 37.3927L0 39.7212L0 0L12.3859 2.32851L12.3859 37.3927Z" transform="translate(36.40338 1.1150513)" id="Polygon" fill="#C1B5A3" fill-rule="evenodd" stroke="none" />
          <path d="M0 37.3927L11.4622 39.7212L11.4622 0L0 2.32851L0 37.3927Z" transform="translate(24.941254 1.1150513)" id="Polygon" fill="#D2C6B3" fill-rule="evenodd" stroke="none" />
          <path d="M0 2.32851L0 3.9519L12.3859 1.6234L12.3859 0L0 2.32851Z" transform="translate(36.40338 31.850235)" id="Polygon" fill="#F1F2F2" fill-rule="evenodd" stroke="none" />
          <path d="M3.13747 0L0 0.590324L0 1.35556L3.13747 0.765236L3.13747 0Z" transform="translate(4.361847 14.626968)" id="Polygon" fill="#F1F2F2" fill-rule="evenodd" stroke="none" />
          <path d="M1.0932 0L0 0.218639L0 8.76743L1.0932 8.54879L1.0932 0Z" transform="translate(24.941254 3.2249146)" id="Polygon" fill="#FBF43F" fill-rule="evenodd" stroke="none" />
          <path d="M2.75485 0L2.75485 2.46515L0 2.98442L0 0.519267L2.75485 0Z" transform="translate(4.744446 15.392197)" id="Polygon" fill="#C49A6C" fill-rule="evenodd" stroke="none" />
          <path d="M0 0L0 15.108L1.94042 14.7745L1.94042 0.360755L0 0Z" transform="translate(40.005463 13.14566)" id="Polygon" fill="#FBF43F" fill-rule="evenodd" stroke="none" />
          <path d="M3.65127 10.0957L12.3859 8.45586L12.3859 5.65182L6.40612 6.77235L6.40612 0L5.13802 0.256901L5.13802 7.01285L0 7.98032L0 10.7844L2.38316 10.3362L2.38316 16.5236L3.65127 16.2667L3.65127 15.1244L6.23668 14.6379L6.23668 21.0167L7.50478 21.1424L7.50478 15.906L12.3859 15.4031L12.3859 14.3919L7.50478 14.9003L7.50478 13.6267L6.35693 13.8562L3.65127 14.3646L3.65127 10.0957Z" transform="translate(1.0932007 4.0120087)" id="Polygon" fill="#F1F2F2" fill-rule="evenodd" stroke="none" />
          <path d="M11.4622 5.13802L11.4622 2.33397L0 0L0 2.80405L4.83192 3.78792L4.83192 16.5236L0 17.1796L0 18.4039L4.83192 17.748L4.83192 24.0667L0 25.0506L0 27.8546L11.4622 25.5152L11.4622 22.7111L7.35721 23.5529L7.35721 9.92075L11.4622 10.7024L11.4622 8.30828L7.35721 7.52118L7.35721 4.30172L11.4622 5.13802Z" transform="translate(13.479095 9.658371)" id="Polygon" fill="#E5E5E5" fill-rule="evenodd" stroke="none" />
          <path d="M0 7.15496L0 0.284231L1.65072 0L1.65072 7.46652L0 7.15496Z" transform="translate(9.997284 27.122162)" id="Polygon" fill="#FBF43F" fill-rule="evenodd" stroke="none" />
          <path d="M9.52173 0.677781L9.52173 6.41159L6.63023 7.00192L6.63023 7.00192L6.02351 7.12763L0 8.35201L0 11.1561L5.72834 9.99181L5.72834 13.49L0 14.3263L0 18.2236L6.63023 17.3381L6.63023 13.3588L6.63023 9.80596L11.4622 8.82209L11.4622 6.08363L11.4622 6.01804L11.4622 0L9.52173 0.677781Z" transform="translate(24.941254 3.6403503)" id="Polygon" fill="#E5E5E5" fill-rule="evenodd" stroke="none" />
          <path d="M4.11041 0L4.11041 1.32277L4.11041 2.80405L4.11041 5.80487L0 4.96311L0 7.76716L4.11041 8.60345L4.11041 8.60345L6.66849 9.12818L6.66849 6.32414L6.66849 3.32331L9.52173 3.90271L9.52173 8.00219L11.4622 8.39574L11.4622 4.29626L11.4622 1.49221L4.11041 0Z" transform="translate(24.941254 27.406418)" id="Polygon" fill="#E5E5E5" fill-rule="evenodd" stroke="none" />
          <path d="M0 2.32851L12.3859 0L12.3859 2.47609L0 4.80459L0 2.32851Z" transform="translate(36.40338 29.374146)" id="Polygon" fill="#8DC63F" fill-rule="evenodd" stroke="none" />
          <path d="M10.8008 9.00246L10.8008 0.453675L8.37934 0L8.37934 8.54879L0 6.97459L0 9.77863L12.3859 12.1071L12.3859 9.30309L10.8008 9.00246Z" transform="translate(36.40338 2.6892548)" id="Polygon" fill="#F1F2F2" fill-rule="evenodd" stroke="none" />
          <path d="M3.36158 0L3.36158 0L3.36158 0C1.50314 0 0 1.50314 0 3.36158L0 3.36158C0 4.0011 0.087456 4.64061 0.273299 5.2528C0.634054 6.46625 1.45942 8.30282 3.36704 10.0246C5.2692 8.30282 6.10003 6.46625 6.46078 5.25281C6.64116 4.64062 6.73408 4.0011 6.73408 3.36158L6.73408 3.36158C6.72862 1.50314 5.22001 0 3.36158 0L3.36158 0ZM3.36159 4.60782C2.51983 4.60782 1.83658 3.92457 1.83658 3.08281C1.83658 2.24105 2.51983 1.5578 3.36159 1.5578C4.20335 1.5578 4.88659 2.24105 4.88659 3.08281C4.89206 3.92457 4.20881 4.60782 3.36159 4.60782L3.36159 4.60782Z" transform="translate(10.117523 8.641693)" id="Shape" fill="#F7941E" fill-rule="evenodd" stroke="none" />
          <path d="M0.858156 0L0 0.765237L0.185841 0.765237L0.185841 1.60153L1.52501 1.60153L1.52501 0.765237L1.71631 0.765237L0.858156 0Z" transform="translate(26.766907 9.04071)" id="Polygon" fill="#58595B" fill-rule="evenodd" stroke="none" />
          <path d="M0.858158 0L0 0.765236L0.185841 0.765236L0.185841 1.59606L1.525 1.59606L1.525 0.765236L1.71631 0.765236L0.858158 0Z" transform="translate(37.63324 14.796402)" id="Polygon" fill="#58595B" fill-rule="evenodd" stroke="none" />
          <path d="M0.858158 0L0 0.770704L0.191309 0.770704L0.191309 1.60153L1.52501 1.60153L1.52501 0.770704L1.71632 0.770704L0.858158 0Z" transform="translate(30.259644 21.557816)" id="Polygon" fill="#58595B" fill-rule="evenodd" stroke="none" />
          <path d="M0.858159 0L0 0.765237L0.185841 0.765237L0.185841 1.60153L1.52501 1.60153L1.52501 0.765237L1.71632 0.765237L0.858159 0Z" transform="translate(15.987976 24.077637)" id="Polygon" fill="#58595B" fill-rule="evenodd" stroke="none" />
          <path d="M0.858159 0L0 0.765237L0.191309 0.765237L0.191309 1.59607L1.53047 1.59607L1.53047 0.765237L1.71632 0.765237L0.858159 0Z" transform="translate(4.361847 24.881119)" id="Polygon" fill="#58595B" fill-rule="evenodd" stroke="none" />
          <path d="M0.858159 0L0 0.765236L0.191309 0.765236L0.191309 1.60153L1.52501 1.60153L1.52501 0.765236L1.71631 0.765236L0.858159 0Z" transform="translate(21.262634 30.89917)" id="Polygon" fill="#58595B" fill-rule="evenodd" stroke="none" />
          <path d="M12.3859 2.80405L0 5.13256L0 2.32851L12.3859 0L12.3859 2.80405Z" transform="translate(36.40338 26.570099)" id="Polygon" fill="#F1F2F2" fill-rule="evenodd" stroke="none" />
          <path d="M3.36157 0L3.36157 0L3.36157 0C1.50314 0 0 1.50314 0 3.36158L0 3.36158C0 4.0011 0.0874543 4.64062 0.273299 5.2528C0.634052 6.46625 1.45942 8.30282 3.36704 10.0246C5.2692 8.30282 6.10003 6.46625 6.46078 5.2528C6.64116 4.64061 6.73408 4.00109 6.73408 3.36158L6.73408 3.36158C6.72315 1.50314 5.21454 0 3.36157 0L3.36157 0ZM3.36159 4.60782C2.51982 4.60782 1.83658 3.92457 1.83658 3.08281C1.83658 2.24105 2.51982 1.5578 3.36159 1.5578C4.20335 1.5578 4.88659 2.24105 4.88659 3.08281C4.88659 3.92457 4.20335 4.60782 3.36159 4.60782L3.36159 4.60782Z" transform="translate(33.402557 22.361298)" id="Shape" fill="#F7941E" fill-rule="evenodd" stroke="none" />
          <path d="M0 2.80404L12.3859 5.13255L12.3859 2.3285L0 0L0 2.80404Z" transform="translate(1.0932007 32.37497)" id="Polygon" fill="#F1F2F2" fill-rule="evenodd" stroke="none" />
        </g>
      </g>
    </g>
    <path d="M0 16C0 7.16344 7.16344 0 16 0C24.8366 0 32 7.16344 32 16C32 24.8366 16 43 16 43C16 43 0 24.8366 0 16Z" transform="translate(17 0)" id="Ellipse" fill="#E32B2B" fill-rule="evenodd" stroke="#FFFFFF" stroke-width="1" />
    <path d="M0 8.5C0 3.80558 3.80558 0 8.5 0C13.1944 0 17 3.80558 17 8.5C17 13.1944 13.1944 17 8.5 17C3.80558 17 0 13.1944 0 8.5Z" transform="translate(25 7)" id="Ellipse-2" fill="#FFFFFF" fill-rule="evenodd" stroke="#DBDBDB" stroke-width="1" />
  </g>
</svg>