<?xml version="1.0" encoding="utf-8"?>
<svg width="64px" height="64px" viewBox="0 0 64 64" version="1.1" xmlns:xlink="http://www.w3.org/1999/xlink" xmlns="http://www.w3.org/2000/svg">
  <g id="waffle">
    <path d="M0 0L64 0L64 64L0 64L0 0Z" id="Rectangle" fill="#FFFFFF" fill-opacity="0" fill-rule="evenodd" stroke="none" />
    <g id="Group-15" transform="translate(6.716919 17.038788)">
      <g id="Group">
        <path d="M51.9787 0L51.9787 2.84753C51.9787 13.0173 31.1646 15.0964 25.9894 15.0964C20.8141 15.0964 0 13.0173 0 2.84753L0 0C15.8196 0 36.3851 0 51.9787 0L51.9787 0L51.9787 0Z" transform="translate(0 15.864807)" id="Shape" fill="#FFB530" fill-rule="evenodd" stroke="none" />
        <path d="M51.9787 0L51.9787 2.91533C51.9787 13.0851 31.1646 15.1642 25.9894 15.1642C20.8141 15.1642 0 13.0851 0 2.91533L0 0C12.2037 0 36.3851 0 51.9787 0L51.9787 0L51.9787 0Z" transform="translate(0 13.604862)" id="Shape" fill="#BA7911" fill-rule="evenodd" stroke="none" />
        <path d="M25.899 0C40.2044 0 51.7979 5.67246 51.7979 12.6783C51.7979 19.6841 40.2044 25.3566 25.899 25.3566C11.5935 25.3566 0 19.6841 0 12.6783C0 5.67246 11.5935 0 25.899 0L25.899 0L25.899 0Z" transform="translate(0.20343018 0)" id="Shape" fill="#DF9621" fill-rule="evenodd" stroke="none" />
        <path d="M24.0232 0C37.2891 0 48.0464 4.85888 48.0464 10.8477C48.0464 16.8366 37.2891 21.6955 24.0232 21.6955C10.7573 21.6955 0 16.8366 0 10.8477C0 4.85888 10.7573 0 24.0232 0L24.0232 0L24.0232 0Z" transform="translate(2.0791626 0.65538216)" id="Shape" fill="#FFB530" fill-rule="evenodd" stroke="none" />
        <path d="M3.5933 0L1.74015 0L0 2.71193L2.44074 2.71193L3.5933 0Z" transform="translate(11.842102 4.5650883)" id="Polygon" fill="#BA7911" fill-rule="evenodd" stroke="none" />
        <path d="M3.50291 0L1.15258 0L0 2.71193L2.93793 2.71193L3.50291 0Z" transform="translate(16.565369 4.5650883)" id="Polygon" fill="#BA7911" fill-rule="evenodd" stroke="none" />
        <path d="M2.35033 0L0 0L0.542378 2.71193L3.50291 2.71193L2.35033 0Z" transform="translate(32.136353 4.5650883)" id="Polygon" fill="#BA7911" fill-rule="evenodd" stroke="none" />
        <path d="M1.85316 0L0 0L1.15257 2.71193L3.5933 2.71193L1.85316 0Z" transform="translate(36.769287 4.5650883)" id="Polygon" fill="#BA7911" fill-rule="evenodd" stroke="none" />
        <path d="M1.58196 0L0 0L1.71755 2.71193L4.00009 2.71193L1.58196 0Z" transform="translate(41.1084 4.5650883)" id="Polygon" fill="#BA7911" fill-rule="evenodd" stroke="none" />
        <path d="M3.18652 2.71193L3.18652 0L0.542378 0L0 2.71193L3.18652 2.71193Z" transform="translate(21.672913 4.5650883)" id="Polygon" fill="#BA7911" fill-rule="evenodd" stroke="none" />
        <path d="M0 0L0 2.71193L3.41251 2.71193L2.84752 0L0 0Z" transform="translate(27.119385 4.5650883)" id="Polygon" fill="#BA7911" fill-rule="evenodd" stroke="none" />
        <path d="M3.38992 0L0 0L0.632782 3.16392L4.70068 3.16392L3.38992 0Z" transform="translate(33.085632 9.3109665)" id="Polygon" fill="#BA7911" fill-rule="evenodd" stroke="none" />
        <path d="M2.87013 0L0 0L1.28817 3.16392L4.81369 3.16392L2.87013 0Z" transform="translate(38.78058 9.3109665)" id="Polygon" fill="#BA7911" fill-rule="evenodd" stroke="none" />
        <path d="M4.20349 3.16392L4.20349 0L0.610174 0L0 3.16392L4.20349 3.16392Z" transform="translate(20.655945 9.3109665)" id="Polygon" fill="#BA7911" fill-rule="evenodd" stroke="none" />
        <path d="M0 0L0 3.16392L4.42948 3.16392L3.81931 0L0 0Z" transform="translate(27.119385 9.3109665)" id="Polygon" fill="#BA7911" fill-rule="evenodd" stroke="none" />
        <path d="M0 3.16392L2.48594 0L5.24307 0L3.27692 3.16392L0 3.16392Z" transform="translate(2.8475342 9.3109665)" id="Polygon" fill="#BA7911" fill-rule="evenodd" stroke="none" />
        <path d="M5.24307 3.16392L2.77973 0L0 0L1.96615 3.16392L5.24307 3.16392Z" transform="translate(44.114136 9.3109665)" id="Polygon" fill="#BA7911" fill-rule="evenodd" stroke="none" />
        <path d="M4.81369 0L1.96615 0L0 3.16392L3.52552 3.16392L4.81369 0Z" transform="translate(8.610413 9.3109665)" id="Polygon" fill="#BA7911" fill-rule="evenodd" stroke="none" />
        <path d="M4.70068 0L1.28817 0L0 3.16392L4.0679 3.16392L4.70068 0Z" transform="translate(14.418457 9.3109665)" id="Polygon" fill="#BA7911" fill-rule="evenodd" stroke="none" />
        <path d="M0.474596 0.180796C1.01699 0.112997 1.58197 0.067799 2.16955 0L1.89836 1.33337L0 1.33337L0.474596 0.180796L0.474596 0.180796Z" transform="translate(18.5542 1.875742)" id="Shape" fill="#BA7911" fill-rule="evenodd" stroke="none" />
        <path d="M0.29379 0.271193C0.768372 0.158195 1.24297 0.0903964 1.74016 0L1.42376 0.76838L0 0.76838L0.29379 0.271193L0.29379 0.271193Z" transform="translate(14.847839 2.4407387)" id="Shape" fill="#BA7911" fill-rule="evenodd" stroke="none" />
        <path d="M0 0C0.49719 0.0903964 0.971772 0.203394 1.44637 0.293793L1.74016 0.79098L0.316397 0.79098L0 0L0 0Z" transform="translate(35.594055 2.4181328)" id="Shape" fill="#BA7911" fill-rule="evenodd" stroke="none" />
        <path d="M0 0C0.564986 0.0451982 1.12997 0.135598 1.69496 0.203394L2.16954 1.35597L0.271182 1.35597L0 0L0 0Z" transform="translate(31.481018 1.8531551)" id="Shape" fill="#BA7911" fill-rule="evenodd" stroke="none" />
        <path d="M0 0C0.903978 0.0226008 1.44637 0.067799 2.14695 0.112997L2.46334 1.62716L0 1.62716L0 0L0 0Z" transform="translate(27.119385 1.5819607)" id="Shape" fill="#BA7911" fill-rule="evenodd" stroke="none" />
        <path d="M0.203401 0.112997C0.903978 0.067799 1.78536 0.0226008 2.23735 0L2.23735 1.62716L0 1.62716L0.203401 0.112997L0.203401 0.112997Z" transform="translate(22.62201 1.5819607)" id="Shape" fill="#BA7911" fill-rule="evenodd" stroke="none" />
        <path d="M0 2.93793L5.22046 2.93793L5.83065 0L1.31076 0L0 2.93793Z" transform="translate(12.24884 14.9608345)" id="Polygon" fill="#BA7911" fill-rule="evenodd" stroke="none" />
        <path d="M5.24307 2.93793L5.24307 0L0.632782 0L0 2.93793L5.24307 2.93793Z" transform="translate(19.616333 14.9608345)" id="Polygon" fill="#BA7911" fill-rule="evenodd" stroke="none" />
        <path d="M0 0L0 2.93793L5.46907 2.93793L4.83629 0L0 0Z" transform="translate(27.119385 14.9608345)" id="Polygon" fill="#BA7911" fill-rule="evenodd" stroke="none" />
        <path d="M3.45771 2.55374C2.14695 2.05655 0.994367 1.51416 0 0.926579L0.58758 0L4.54248 0L3.45771 2.55374L3.45771 2.55374Z" transform="translate(6.757263 14.9608345)" id="Shape" fill="#BA7911" fill-rule="evenodd" stroke="none" />
        <path d="M4.5425 0.926575C3.54811 1.53676 2.37295 2.10174 1.06218 2.57633L0 0L3.9549 0L4.5425 0.926575L4.5425 0.926575Z" transform="translate(40.927612 14.938232)" id="Shape" fill="#BA7911" fill-rule="evenodd" stroke="none" />
        <path d="M0.610187 2.93793L5.80806 2.93793L4.51989 0L0 0L0.610187 2.93793Z" transform="translate(34.125183 14.9608345)" id="Polygon" fill="#BA7911" fill-rule="evenodd" stroke="none" />
        <path d="M4.00009 0L2.39553 0L0 2.71193L2.25994 2.71193L4.00009 0Z" transform="translate(7.0962524 4.5650883)" id="Polygon" fill="#BA7911" fill-rule="evenodd" stroke="none" />
        <path d="M2.46333 0L0.858776 0L0 1.12997L1.83055 1.12997L2.46333 0L2.46333 0ZM34.9161 1.12997L33.0856 1.12997L32.4754 0L34.0574 0L34.9161 1.12997L34.9161 1.12997ZM30.6222 1.12997L28.5657 1.12997L28.1589 0L30.012 0L30.6222 1.12997L30.6222 1.12997ZM26.2606 1.12997L23.7068 1.12997L23.5034 0L25.8538 0L26.2606 1.12997L26.2606 1.12997ZM21.5373 1.12997L18.4863 1.12997L18.4863 0L21.3339 0L21.5373 1.12997L21.5373 1.12997ZM16.2264 1.12997L13.4015 1.12997L13.6049 0L16.2264 0L16.2264 1.12997L16.2264 1.12997ZM11.2319 1.12997L8.67816 1.12997L9.08495 0L11.4353 0L11.2319 1.12997L11.2319 1.12997ZM6.39565 1.12997L4.33911 1.12997L4.9493 0L6.80246 0L6.39565 1.12997L6.39565 1.12997Z" transform="translate(8.632935 4.5650883)" id="Shape" fill="#9E6202" fill-rule="evenodd" stroke="none" />
        <path d="M32.4528 1.35597L31.8652 0L27.3453 0L27.6165 1.35597L32.4528 1.35597L32.4528 1.35597ZM37.8541 1.35597L34.758 1.35597L34.1704 0L38.1253 0L38.7129 0.903978C38.4191 1.06217 38.1479 1.35597 37.8541 1.35597L37.8541 1.35597L37.8541 1.35597ZM25.4696 1.35597L20.3621 1.35597L20.3621 0L25.1984 0L25.4696 1.35597L25.4696 1.35597ZM18.1022 1.35597L13.1981 1.35597L13.4919 0L18.1022 0L18.1022 1.35597L18.1022 1.35597ZM11.0512 1.35597L6.23749 1.35597L6.82507 0L11.345 0L11.0512 1.35597L11.0512 1.35597ZM3.93231 1.35597L0.836182 1.35597C0.542392 1.35597 0.248602 1.06217 0 0.903978L0.58758 0L4.54248 0L3.93231 1.35597L3.93231 1.35597Z" transform="translate(6.757202 14.9608345)" id="Shape" fill="#9E6202" fill-rule="evenodd" stroke="none" />
        <path d="M7.95499 0.067799C8.65557 0.0226008 9.53695 0 9.98894 0L9.98894 0.542385C9.53695 0.564986 8.54257 0.587583 7.8194 0.655382L7.95499 0.067799L7.95499 0.067799ZM0.79098 1.62716C0.994381 1.62716 1.24297 1.51417 1.46896 1.46897L1.74016 0.813585C1.24297 0.903982 0.768386 1.01698 0.29379 1.12998L0 1.62716L0.79098 1.62716L0.79098 1.62716ZM3.90973 1.06217C4.49731 0.994373 5.1075 0.903976 5.74028 0.836177L5.85328 0.24859C5.28829 0.293789 4.7233 0.361588 4.15832 0.429387L3.90973 1.06217L3.90973 1.06217ZM12.2488 0.564986C13.1528 0.587587 13.7856 0.632785 14.5088 0.677983L14.3732 0.067799C13.6726 0.0226008 13.1528 0 12.2488 0L12.2488 0.564986L12.2488 0.564986ZM16.7236 0.881375C17.3564 0.949174 17.9892 1.03957 18.5768 1.10737L18.283 0.429387C17.7406 0.361588 17.1756 0.293789 16.588 0.24859L16.7236 0.881375L16.7236 0.881375ZM21.0175 1.51416C21.1757 1.53676 21.3339 1.62715 21.4921 1.62715L22.4864 1.62715L22.1926 1.12997C21.7181 1.01697 21.2435 0.926572 20.7463 0.836172L21.0175 1.51416L21.0175 1.51416Z" transform="translate(14.870361 1.5819607)" id="Shape" fill="#9E6202" fill-rule="evenodd" stroke="none" />
        <path d="M0.949166 0L3.7063 0L2.96052 1.12997L0 1.12997L0.949166 0L0.949166 0ZM6.19225 0L9.06238 0L8.56519 1.12997L5.44647 1.12997L6.19225 0L6.19225 0ZM11.3224 0L14.7123 0L14.4863 1.12997L10.8478 1.12997L11.3224 0L11.3224 0ZM16.8818 0L20.4751 0L20.4751 1.12997L16.6558 1.12997L16.8818 0L16.8818 0ZM22.735 0L26.5543 0L26.7803 1.12997L22.735 1.12997L22.735 0L22.735 0ZM28.7013 0L32.0912 0L32.5884 1.12997L28.9499 1.12997L28.7013 0L28.7013 0ZM34.3963 0L37.2664 0L38.0122 1.12997L34.8935 1.12997L34.3963 0L34.3963 0ZM39.7297 0L42.4869 0L43.4134 1.12997L40.4529 1.12997L39.7297 0L39.7297 0Z" transform="translate(4.3842773 9.3109665)" id="Shape" fill="#9E6202" fill-rule="evenodd" stroke="none" />
        <path d="M0.542377 1.53676L0.745777 0C0.587579 0 0.42938 0.0226008 0.293789 0.0451982L0 1.53676L0.542377 1.53676L0.542377 1.53676Z" transform="translate(22.62201 1.6723633)" id="Shape" fill="#9E6202" fill-rule="evenodd" stroke="none" />
        <path d="M0.790981 2.71193L1.19777 0L0.542379 0L0 2.71193L0.790981 2.71193Z" transform="translate(21.672913 4.5650883)" id="Polygon" fill="#9E6202" fill-rule="evenodd" stroke="none" />
        <path d="M1.06216 3.16392L1.51415 0L0.610174 0L0 3.16392L1.06216 3.16392Z" transform="translate(20.655945 9.3109665)" id="Polygon" fill="#9E6202" fill-rule="evenodd" stroke="none" />
        <path d="M1.35597 2.93793L1.80795 0L0.632781 0L0 2.93793L1.35597 2.93793Z" transform="translate(19.616333 14.9608345)" id="Polygon" fill="#9E6202" fill-rule="evenodd" stroke="none" />
        <path d="M1.19777 7.9098L3.05092 4.74588L1.96615 4.74588L0 7.9098L1.19777 7.9098L1.19777 7.9098ZM4.24872 2.71193L5.87589 0L4.97191 0L3.23175 2.71193L4.24872 2.71193L4.24872 2.71193Z" transform="translate(8.610474 4.5650883)" id="Shape" fill="#9E6202" fill-rule="evenodd" stroke="none" />
        <path d="M0.519798 1.22037L0.971786 0C0.903991 0 0.836195 0 0.768386 0L0.451989 0.0903964L0 1.22037L0.519798 1.22037L0.519798 1.22037Z" transform="translate(18.576782 1.9887543)" id="Shape" fill="#9E6202" fill-rule="evenodd" stroke="none" />
        <path d="M0.745779 2.71193L1.76275 0L1.15258 0L0 2.71193L0.745779 2.71193Z" transform="translate(16.565369 4.5650883)" id="Polygon" fill="#9E6202" fill-rule="evenodd" stroke="none" />
        <path d="M0.94918 3.16392L2.12435 0L1.28817 0L0 3.16392L0.94918 3.16392Z" transform="translate(14.418457 9.3109665)" id="Polygon" fill="#9E6202" fill-rule="evenodd" stroke="none" />
        <path d="M1.19777 2.93793L2.37294 0L1.31076 0L0 2.93793L1.19777 2.93793Z" transform="translate(12.24884 14.9608345)" id="Polygon" fill="#9E6202" fill-rule="evenodd" stroke="none" />
        <path d="M1.22036 7.9098L3.68371 4.74588L2.48594 4.74588L0 7.9098L1.22036 7.9098L1.22036 7.9098ZM5.28823 2.71193L7.45777 0L6.64419 0L4.24866 2.71193L5.28823 2.71193L5.28823 2.71193Z" transform="translate(2.8475342 4.5650883)" id="Shape" fill="#9E6202" fill-rule="evenodd" stroke="none" />
        <path d="M0.2034 1.53676L0 0C0.158198 0 0.316397 0.0226008 0.451988 0.0451982L0.745777 1.53676L0.2034 1.53676L0.2034 1.53676Z" transform="translate(28.836853 1.6723633)" id="Shape" fill="#9E6202" fill-rule="evenodd" stroke="none" />
        <path d="M0.406788 2.71193L0 0L0.632782 0L1.19777 2.71193L0.406788 2.71193Z" transform="translate(29.334045 4.5650883)" id="Polygon" fill="#9E6202" fill-rule="evenodd" stroke="none" />
        <path d="M0.451989 3.16392L0 0L0.903978 0L1.51415 3.16392L0.451989 3.16392Z" transform="translate(30.034668 9.3109665)" id="Polygon" fill="#9E6202" fill-rule="evenodd" stroke="none" />
        <path d="M0.451989 2.93793L0 0L1.17517 0L1.80795 2.93793L0.451989 2.93793Z" transform="translate(30.780396 14.9608345)" id="Polygon" fill="#9E6202" fill-rule="evenodd" stroke="none" />
        <path d="M4.67811 7.9098L2.82495 4.74588L3.90972 4.74588L5.85327 7.9098L4.67811 7.9098L4.67811 7.9098ZM1.62716 2.71193L0 0L0.903978 0L2.64414 2.71193L1.62716 2.71193L1.62716 2.71193Z" transform="translate(37.718445 4.5650883)" id="Shape" fill="#9E6202" fill-rule="evenodd" stroke="none" />
        <path d="M0.451989 1.22037L0 0C0.0677955 0 0.135591 0 0.2034 0L0.519798 0.0903964L0.971786 1.22037L0.451989 1.22037L0.451989 1.22037Z" transform="translate(32.65619 1.9887543)" id="Shape" fill="#9E6202" fill-rule="evenodd" stroke="none" />
        <path d="M1.01697 2.71193L0 0L0.610174 0L1.76275 2.71193L1.01697 2.71193Z" transform="translate(33.876587 4.5650883)" id="Polygon" fill="#9E6202" fill-rule="evenodd" stroke="none" />
        <path d="M1.15258 3.16392L0 0L0.813588 0L2.12435 3.16392L1.15258 3.16392Z" transform="translate(35.661865 9.3109665)" id="Polygon" fill="#9E6202" fill-rule="evenodd" stroke="none" />
        <path d="M1.17517 2.93793L0 0L1.06218 0L2.35035 2.93793L1.17517 2.93793Z" transform="translate(37.582886 14.9608345)" id="Polygon" fill="#9E6202" fill-rule="evenodd" stroke="none" />
        <path d="M6.23745 7.9098L3.77411 4.74588L4.99448 4.74588L7.48042 7.9098L6.23745 7.9098L6.23745 7.9098ZM2.16954 2.71193L0 0L0.813574 0L3.20911 2.71193L2.16954 2.71193L2.16954 2.71193Z" transform="translate(41.899353 4.5650883)" id="Shape" fill="#9E6202" fill-rule="evenodd" stroke="none" />
      </g>
    </g>
  </g>
</svg>