<?xml version="1.0" encoding="utf-8"?>
<svg width="64px" height="64px" viewBox="0 0 64 64" version="1.1" xmlns:xlink="http://www.w3.org/1999/xlink" xmlns="http://www.w3.org/2000/svg">
  <defs>
    <linearGradient x1="0.68459606" y1="0.40378523" x2="0.2937622" y2="0.60560465" id="gradient_1">
      <stop offset="0" stop-color="#ED1D32" />
      <stop offset="1" stop-color="#A72024" />
    </linearGradient>
    <linearGradient x1="0.9243343" y1="0.3845005" x2="-0.0022923946" y2="0.75800323" id="gradient_2">
      <stop offset="0" stop-color="#25BECA" />
      <stop offset="0.4385" stop-color="#94D6DA" />
      <stop offset="0.9465" stop-color="#0099A8" />
    </linearGradient>
    <linearGradient x1="1.5062685" y1="-0.32904243" x2="0.2052021" y2="0.88175106" id="gradient_3">
      <stop offset="0" stop-color="#0099A8" />
      <stop offset="0.1128" stop-color="#009AA9" />
      <stop offset="0.2253" stop-color="#009EAD" />
      <stop offset="0.3379" stop-color="#00A4B2" />
      <stop offset="0.4505" stop-color="#0BAEBB" />
      <stop offset="0.5632" stop-color="#5ABCC6" />
      <stop offset="0.6743999" stop-color="#8BD0D6" />
      <stop offset="0.6952" stop-color="#94D6DA" />
      <stop offset="1" stop-color="#25BECA" />
    </linearGradient>
    <linearGradient x1="1.0544243" y1="-3.5805502" x2="0.5784807" y2="-0.24047756" id="gradient_4">
      <stop offset="0" stop-color="#25BECA" />
      <stop offset="0.30479997" stop-color="#94D6DA" />
      <stop offset="0.3256" stop-color="#8BD0D6" />
      <stop offset="0.4368" stop-color="#5ABCC6" />
      <stop offset="0.5494999" stop-color="#0BAEBB" />
      <stop offset="0.66209996" stop-color="#00A4B2" />
      <stop offset="0.7747" stop-color="#009EAD" />
      <stop offset="0.8872" stop-color="#009AA9" />
      <stop offset="1" stop-color="#0099A8" />
    </linearGradient>
    <linearGradient x1="-0.3993218" y1="0.34663367" x2="0.94443965" y2="0.54183364" id="gradient_5">
      <stop offset="0" stop-color="#0099A8" />
      <stop offset="0.1128" stop-color="#009AA9" />
      <stop offset="0.2253" stop-color="#009EAD" />
      <stop offset="0.3379" stop-color="#00A4B2" />
      <stop offset="0.4505" stop-color="#0BAEBB" />
      <stop offset="0.5632" stop-color="#5ABCC6" />
      <stop offset="0.6743999" stop-color="#8BD0D6" />
      <stop offset="0.6952" stop-color="#94D6DA" />
      <stop offset="1" stop-color="#25BECA" />
    </linearGradient>
    <linearGradient x1="-3.4444141" y1="0.3739618" x2="-0.1627295" y2="0.48150527" id="gradient_6">
      <stop offset="0" stop-color="#25BECA" />
      <stop offset="0.30479997" stop-color="#94D6DA" />
      <stop offset="0.3256" stop-color="#8BD0D6" />
      <stop offset="0.4368" stop-color="#5ABCC6" />
      <stop offset="0.5494999" stop-color="#0BAEBB" />
      <stop offset="0.66209996" stop-color="#00A4B2" />
      <stop offset="0.7747" stop-color="#009EAD" />
      <stop offset="0.8872" stop-color="#009AA9" />
      <stop offset="1" stop-color="#0099A8" />
    </linearGradient>
    <linearGradient x1="0.9640784" y1="0.43948746" x2="0.0637331" y2="0.7292175" id="gradient_7">
      <stop offset="0" stop-color="#ED7B94" />
      <stop offset="0.2523" stop-color="#DD616B" />
      <stop offset="0.5044" stop-color="#D1494C" />
      <stop offset="0.7204" stop-color="#C93837" />
      <stop offset="0.8908" stop-color="#C42C2B" />
      <stop offset="0.9947" stop-color="#C22728" />
    </linearGradient>
    <linearGradient x1="0.511775" y1="0.063578606" x2="0.46600628" y2="0.92838955" id="gradient_8">
      <stop offset="0.0053475937" stop-color="#C22728" />
      <stop offset="0.1092" stop-color="#C42C2B" />
      <stop offset="0.2796" stop-color="#C93837" />
      <stop offset="0.49559996" stop-color="#D1494C" />
      <stop offset="0.7477" stop-color="#DD616B" />
      <stop offset="1" stop-color="#ED7B94" />
    </linearGradient>
    <linearGradient x1="0.8991356" y1="0.12713623" x2="0.16842747" y2="0.9196024" id="gradient_9">
      <stop offset="0.0053475937" stop-color="#C22728" />
      <stop offset="0.1092" stop-color="#C42C2B" />
      <stop offset="0.2796" stop-color="#C93837" />
      <stop offset="0.49559996" stop-color="#D1494C" />
      <stop offset="0.7477" stop-color="#DD616B" />
      <stop offset="1" stop-color="#ED7B94" />
    </linearGradient>
    <linearGradient x1="1.0195503" y1="0.8555832" x2="0.022323608" y2="0.077293396" id="gradient_10">
      <stop offset="0" stop-color="#ED7B94" />
      <stop offset="0.2523" stop-color="#DD616B" />
      <stop offset="0.5044" stop-color="#D1494C" />
      <stop offset="0.7204" stop-color="#C93837" />
      <stop offset="0.8908" stop-color="#C42C2B" />
      <stop offset="0.9947" stop-color="#C22728" />
    </linearGradient>
    <linearGradient x1="0.8670845" y1="0.015224457" x2="0.0040893555" y2="0.73575974" id="gradient_11">
      <stop offset="0.0053475937" stop-color="#C22728" />
      <stop offset="0.1092" stop-color="#C42C2B" />
      <stop offset="0.2796" stop-color="#C93837" />
      <stop offset="0.49559996" stop-color="#D1494C" />
      <stop offset="0.7477" stop-color="#DD616B" />
      <stop offset="1" stop-color="#ED7B94" />
    </linearGradient>
    <linearGradient x1="0.96673393" y1="0.39130402" x2="0.031669617" y2="0.7645569" id="gradient_12">
      <stop offset="0.0053475937" stop-color="#C22728" />
      <stop offset="0.1092" stop-color="#C42C2B" />
      <stop offset="0.2796" stop-color="#C93837" />
      <stop offset="0.49559996" stop-color="#D1494C" />
      <stop offset="0.7477" stop-color="#DD616B" />
      <stop offset="1" stop-color="#ED7B94" />
    </linearGradient>
    <linearGradient x1="0.9213139" y1="0.8618505" x2="0.07133806" y2="0.007288456" id="gradient_13">
      <stop offset="0" stop-color="#FFE200" />
      <stop offset="0.4459" stop-color="#FCCF10" />
      <stop offset="1" stop-color="#F7B41F" />
    </linearGradient>
    <linearGradient x1="0.22047067" y1="0.9063479" x2="0.6360687" y2="0.031116009" id="gradient_14">
      <stop offset="0" stop-color="#FFE200" />
      <stop offset="0.3833" stop-color="#FBCC13" />
      <stop offset="0.7664" stop-color="#F8BA1D" />
      <stop offset="1" stop-color="#F7B41F" />
    </linearGradient>
    <linearGradient x1="0.67399824" y1="0.91042244" x2="0.3191182" y2="0.05551162" id="gradient_15">
      <stop offset="0" stop-color="#F7B41F" />
      <stop offset="0.2336" stop-color="#F8BA1D" />
      <stop offset="0.6167" stop-color="#FBCC13" />
      <stop offset="1" stop-color="#FFE200" />
    </linearGradient>
    <linearGradient x1="0.86522293" y1="0.09987545" x2="0.18012524" y2="0.9558096" id="gradient_16">
      <stop offset="0" stop-color="#1A5FAC" />
      <stop offset="0.08482248" stop-color="#0069B4" />
      <stop offset="0.2891" stop-color="#0081C6" />
      <stop offset="0.4681" stop-color="#0092D5" />
      <stop offset="0.61309993" stop-color="#009DDE" />
      <stop offset="0.7059" stop-color="#00A1E1" />
    </linearGradient>
    <linearGradient x1="0.95228004" y1="0.36034393" x2="0.004966736" y2="0.71749115" id="gradient_17">
      <stop offset="0.2941" stop-color="#F68A3B" />
      <stop offset="0.4139" stop-color="#F5843A" />
      <stop offset="0.6004" stop-color="#F37439" />
      <stop offset="0.7861" stop-color="#F15D37" />
    </linearGradient>
    <linearGradient x1="0.9022598" y1="0.25450993" x2="0.066854" y2="0.7650089" id="gradient_18">
      <stop offset="0.2941" stop-color="#F68A3B" />
      <stop offset="0.4139" stop-color="#F5843A" />
      <stop offset="0.6004" stop-color="#F37439" />
      <stop offset="0.7861" stop-color="#F15D37" />
    </linearGradient>
    <linearGradient x1="1.013237" y1="0.6125641" x2="-0.056236267" y2="0.3617096" id="gradient_19">
      <stop offset="0" stop-color="#ED7B94" />
      <stop offset="0.21649998" stop-color="#E26977" />
      <stop offset="0.5903" stop-color="#D34D51" />
      <stop offset="0.8615" stop-color="#CA3B3A" />
      <stop offset="1" stop-color="#C73432" />
    </linearGradient>
    <linearGradient x1="1.0093365" y1="0.6178627" x2="-0.05630493" y2="0.36763" id="gradient_20">
      <stop offset="0" stop-color="#ED7B94" />
      <stop offset="0.21649998" stop-color="#E26977" />
      <stop offset="0.5903" stop-color="#D34D51" />
      <stop offset="0.8615" stop-color="#CA3B3A" />
      <stop offset="1" stop-color="#C73432" />
    </linearGradient>
    <linearGradient x1="1.0102777" y1="0.6167908" x2="-0.05586815" y2="0.36701202" id="gradient_21">
      <stop offset="0" stop-color="#ED7B94" />
      <stop offset="0.21649998" stop-color="#E26977" />
      <stop offset="0.5903" stop-color="#D34D51" />
      <stop offset="0.8615" stop-color="#CA3B3A" />
      <stop offset="1" stop-color="#C73432" />
    </linearGradient>
    <linearGradient x1="0.9919014" y1="0.5444641" x2="-0.02578926" y2="0.45095062" id="gradient_22">
      <stop offset="0" stop-color="#FFE200" />
      <stop offset="0.3833" stop-color="#FBCC13" />
      <stop offset="0.7664" stop-color="#F8BA1D" />
      <stop offset="1" stop-color="#F7B41F" />
    </linearGradient>
    <linearGradient x1="0.9227724" y1="0.32339" x2="0.042001724" y2="0.6826782" id="gradient_23">
      <stop offset="0" stop-color="#1A5FAC" />
      <stop offset="0.08482248" stop-color="#0069B4" />
      <stop offset="0.2891" stop-color="#0081C6" />
      <stop offset="0.4681" stop-color="#0092D5" />
      <stop offset="0.61309993" stop-color="#009DDE" />
      <stop offset="0.7059" stop-color="#00A1E1" />
    </linearGradient>
    <linearGradient x1="0.9219961" y1="0.3238907" x2="0.039494514" y2="0.6836977" id="gradient_24">
      <stop offset="0" stop-color="#1A5FAC" />
      <stop offset="0.08482248" stop-color="#0069B4" />
      <stop offset="0.2891" stop-color="#0081C6" />
      <stop offset="0.4681" stop-color="#0092D5" />
      <stop offset="0.61309993" stop-color="#009DDE" />
      <stop offset="0.7059" stop-color="#00A1E1" />
    </linearGradient>
    <linearGradient x1="0.98565674" y1="0.5194893" x2="-0.020183563" y2="0.47987747" id="gradient_25">
      <stop offset="0.2941" stop-color="#F68A3B" />
      <stop offset="0.4139" stop-color="#F5843A" />
      <stop offset="0.6004" stop-color="#F37439" />
      <stop offset="0.7861" stop-color="#F15D37" />
    </linearGradient>
    <linearGradient x1="0.983181" y1="0.5194397" x2="-0.016880035" y2="0.47957993" id="gradient_26">
      <stop offset="0.2941" stop-color="#F68A3B" />
      <stop offset="0.4139" stop-color="#F5843A" />
      <stop offset="0.6004" stop-color="#F37439" />
      <stop offset="0.7861" stop-color="#F15D37" />
    </linearGradient>
    <linearGradient x1="0.98373795" y1="0.5196762" x2="-0.016328812" y2="0.48005676" id="gradient_27">
      <stop offset="0.2941" stop-color="#F68A3B" />
      <stop offset="0.4139" stop-color="#F5843A" />
      <stop offset="0.6004" stop-color="#F37439" />
      <stop offset="0.7861" stop-color="#F15D37" />
    </linearGradient>
    <linearGradient x1="0.9126377" y1="0.28895378" x2="0.05467415" y2="0.72605515" id="gradient_28">
      <stop offset="0" stop-color="#94D6DA" />
      <stop offset="1" stop-color="#00A1AF" />
    </linearGradient>
    <linearGradient x1="0.91406965" y1="0.2866516" x2="0.056103706" y2="0.7237487" id="gradient_29">
      <stop offset="0" stop-color="#94D6DA" />
      <stop offset="1" stop-color="#00A1AF" />
    </linearGradient>
    <linearGradient x1="0.9846115" y1="0.52602386" x2="-0.020681381" y2="0.47109985" id="gradient_30">
      <stop offset="0.2941" stop-color="#00A1E1" />
      <stop offset="0.3869" stop-color="#009DDE" />
      <stop offset="0.5319" stop-color="#0092D5" />
      <stop offset="0.7109" stop-color="#0081C6" />
      <stop offset="0.91519994" stop-color="#0069B4" />
      <stop offset="1" stop-color="#1A5FAC" />
    </linearGradient>
    <linearGradient x1="0.2845564" y1="0.06430721" x2="0.90508366" y2="0.87932014" id="gradient_31">
      <stop offset="0.2941" stop-color="#00A1E1" />
      <stop offset="0.3869" stop-color="#009DDE" />
      <stop offset="0.5319" stop-color="#0092D5" />
      <stop offset="0.7109" stop-color="#0081C6" />
      <stop offset="0.91519994" stop-color="#0069B4" />
      <stop offset="1" stop-color="#1A5FAC" />
    </linearGradient>
    <linearGradient x1="0.2854643" y1="0.06518555" x2="0.9059925" y2="0.87748337" id="gradient_32">
      <stop offset="0.2941" stop-color="#00A1E1" />
      <stop offset="0.3869" stop-color="#009DDE" />
      <stop offset="0.5319" stop-color="#0092D5" />
      <stop offset="0.7109" stop-color="#0081C6" />
      <stop offset="0.91519994" stop-color="#0069B4" />
      <stop offset="1" stop-color="#1A5FAC" />
    </linearGradient>
    <linearGradient x1="0.2846985" y1="0.06509018" x2="0.90308666" y2="0.877388" id="gradient_33">
      <stop offset="0" stop-color="#25BECA" />
      <stop offset="0.30479997" stop-color="#94D6DA" />
      <stop offset="0.3256" stop-color="#8BD0D6" />
      <stop offset="0.4368" stop-color="#5ABCC6" />
      <stop offset="0.5494999" stop-color="#0BAEBB" />
      <stop offset="0.66209996" stop-color="#00A4B2" />
      <stop offset="0.7747" stop-color="#009EAD" />
      <stop offset="0.8872" stop-color="#009AA9" />
      <stop offset="1" stop-color="#0099A8" />
    </linearGradient>
    <linearGradient x1="0.42617893" y1="0.023010254" x2="0.6424885" y2="1.0248375" id="gradient_34">
      <stop offset="0" stop-color="#FFE200" />
      <stop offset="0.3833" stop-color="#FBCC13" />
      <stop offset="0.7664" stop-color="#F8BA1D" />
      <stop offset="1" stop-color="#F7B41F" />
    </linearGradient>
    <linearGradient x1="0.12318933" y1="0.295475" x2="0.63995755" y2="1.0774148" id="gradient_35">
      <stop offset="0" stop-color="#ED1D32" />
      <stop offset="0.1604" stop-color="#F48584" />
      <stop offset="0.4973" stop-color="#D2232A" />
      <stop offset="0.9037" stop-color="#F27697" />
      <stop offset="1" stop-color="#ED1D32" />
    </linearGradient>
    <linearGradient x1="0.004555702" y1="0.08736777" x2="0.8618214" y2="1.0318964" id="gradient_36">
      <stop offset="0" stop-color="#FCCD0D" />
      <stop offset="0.076139316" stop-color="#FCD318" />
      <stop offset="0.1604" stop-color="#FEDE2E" />
      <stop offset="0.2699" stop-color="#FBCD27" />
      <stop offset="0.4115" stop-color="#F8BA21" />
      <stop offset="0.4973" stop-color="#F7B41F" />
      <stop offset="0.5802" stop-color="#F8BA20" />
      <stop offset="0.71599996" stop-color="#FBCC23" />
      <stop offset="0.877" stop-color="#FFE729" />
      <stop offset="0.9438" stop-color="#FEDA1A" />
      <stop offset="1" stop-color="#FCCD0D" />
    </linearGradient>
    <linearGradient x1="0.022848606" y1="0.08504629" x2="0.8709836" y2="1.0232401" id="gradient_37">
      <stop offset="0" stop-color="#FCCD0D" />
      <stop offset="0.076139316" stop-color="#FCD318" />
      <stop offset="0.1604" stop-color="#FEDE2E" />
      <stop offset="0.2699" stop-color="#FBCD27" />
      <stop offset="0.4115" stop-color="#F8BA21" />
      <stop offset="0.4973" stop-color="#F7B41F" />
      <stop offset="0.5802" stop-color="#F8BA20" />
      <stop offset="0.71599996" stop-color="#FBCC23" />
      <stop offset="0.877" stop-color="#FFE729" />
      <stop offset="0.9438" stop-color="#FEDA1A" />
      <stop offset="1" stop-color="#FCCD0D" />
    </linearGradient>
    <linearGradient x1="0.049040794" y1="0.11205244" x2="0.83197117" y2="1.0233188" id="gradient_38">
      <stop offset="0" stop-color="#FCCD0D" />
      <stop offset="0.076139316" stop-color="#FCD318" />
      <stop offset="0.1604" stop-color="#FEDE2E" />
      <stop offset="0.2699" stop-color="#FBCD27" />
      <stop offset="0.4115" stop-color="#F8BA21" />
      <stop offset="0.4973" stop-color="#F7B41F" />
      <stop offset="0.5802" stop-color="#F8BA20" />
      <stop offset="0.71599996" stop-color="#FBCC23" />
      <stop offset="0.877" stop-color="#FFE729" />
      <stop offset="0.9438" stop-color="#FEDA1A" />
      <stop offset="1" stop-color="#FCCD0D" />
    </linearGradient>
    <linearGradient x1="0.036174774" y1="0.20692825" x2="0.7183113" y2="1.0848789" id="gradient_39">
      <stop offset="0" stop-color="#FCCD0D" />
      <stop offset="0.076139316" stop-color="#FCD318" />
      <stop offset="0.1604" stop-color="#FEDE2E" />
      <stop offset="0.2699" stop-color="#FBCD27" />
      <stop offset="0.4115" stop-color="#F8BA21" />
      <stop offset="0.4973" stop-color="#F7B41F" />
      <stop offset="0.5802" stop-color="#F8BA20" />
      <stop offset="0.71599996" stop-color="#FBCC23" />
      <stop offset="0.877" stop-color="#FFE729" />
      <stop offset="0.9438" stop-color="#FEDA1A" />
      <stop offset="1" stop-color="#FCCD0D" />
    </linearGradient>
  </defs>
  <g id="10mil">
    <path d="M0 0L64 0L64 64L0 64L0 0Z" id="Rectangle-5" fill="#FFFFFF" fill-opacity="0" fill-rule="evenodd" stroke="none" />
    <g id="Group-47" transform="translate(1 3)">
      <g id="Group" transform="translate(12.006714 31.098389)">
        <path d="M9.03254 7.401C5.49783 2.48135 1.62206 -0.763964 0.38181 0.155889C0.340469 0.186894 0.299127 0.228238 0.257786 0.279915C-0.713741 1.43748 1.1363 6.00573 4.53664 10.7393C7.93699 15.4833 11.6577 18.6666 13.0323 18.0775C13.084 18.0568 13.1357 18.0258 13.1874 17.9948C14.4276 17.0646 12.5672 12.3207 9.03254 7.401L9.03254 7.401Z" id="Shape" fill="url(#gradient_1)" fill-rule="evenodd" stroke="none" />
        <path d="M6.88741 9.53011C6.54634 9.77817 4.74798 7.85578 2.8566 5.23059C0.975558 2.60539 -0.285359 0.269595 0.055708 0.0215426C0.396775 -0.22651 2.19514 1.69588 4.08652 4.32107C5.9779 6.94626 7.22848 9.28207 6.88741 9.53011L6.88741 9.53011Z" transform="translate(4.460266 3.1212769)" id="Shape" fill="#FFFFFF" fill-opacity="0.35" fill-rule="evenodd" stroke="none" />
      </g>
      <g id="Group" transform="translate(13.143005 24.424194)">
        <path d="M10.4698 3.01629L12.5162 0.938873C6.75935 -0.508084 2.45983 -0.373725 0.620124 1.98275C0.361739 2.31348 0.155031 2.66488 0 3.01629C4.36154 1.03189 10.4698 3.01629 10.4698 3.01629L10.4698 3.01629Z" transform="translate(8.991791 0)" id="Shape" fill="url(#gradient_2)" fill-rule="evenodd" stroke="none" />
        <path d="M2.76288 0C2.37013 0.186036 1.97739 0.392744 1.61565 0.651129C-2.59086 3.58639 2.7112 10.2941 3.01093 10.6765C3.05227 10.6145 3.09361 10.5524 3.13495 10.4801C4.29252 8.51637 1.08854 3.72075 2.76288 0L2.76288 0Z" transform="translate(6.2289124 3.0162811)" id="Shape" fill="url(#gradient_3)" fill-rule="evenodd" stroke="none" />
        <path d="M9.26052 0.888849C9.26052 0.888849 9.25019 0.878516 9.25019 0.868177C6.9764 4.24786 1.64333 0 1.64333 0L0 1.4883C6.74902 7.16244 9.26052 0.888849 9.26052 0.888849L9.26052 0.888849Z" transform="translate(0 12.824585)" id="Shape" fill="url(#gradient_4)" fill-rule="evenodd" stroke="none" />
      </g>
      <g id="Group" transform="translate(45.213745 42.961548)">
        <path d="M0 1.05689C0.155031 1.23259 0.330734 1.38762 0.51677 1.54265C2.6872 3.28934 4.92999 0.271399 5.05401 0.0956959C5.01267 0.085363 4.98167 0.064691 4.94033 0.0543518C3.79309 -0.338393 2.07741 1.54265 0 1.05689L0 1.05689Z" id="Shape" fill="url(#gradient_5)" fill-rule="evenodd" stroke="none" />
        <path d="M0 0C0 0 0 0 0 0C2.02574 0.806161 0.97153 3.6484 0.97153 3.6484L1.9844 4.29953C3.46236 0.682141 0 0 0 0L0 0Z" transform="translate(5.0643463 0.08534241)" id="Shape" fill="url(#gradient_6)" fill-rule="evenodd" stroke="none" />
      </g>
      <g id="Group" transform="translate(30.673462 32.360107)">
        <path d="M7.12109 1.4773C5.42609 -1.72668 0.206708 1.26026 0 1.38428C0.041341 1.41528 0.082682 1.45663 0.134359 1.48763C1.44696 2.40748 5.01267 0.795158 7.45182 2.30413C7.36914 2.02507 7.26579 1.75636 7.12109 1.4773L7.12109 1.4773Z" transform="translate(3.1196594 6.8530273)" id="Shape" fill="url(#gradient_7)" fill-rule="evenodd" stroke="none" />
        <path d="M3.5434 1.27125L2.65456 0C-2.76119 3.87578 1.528 8.39235 3.11965 8.24765C3.11965 8.24765 3.11965 8.24765 3.12999 8.24765C0.556474 6.27358 1.8484 2.03607 3.5434 1.27125L3.5434 1.27125Z" id="Shape" fill="url(#gradient_8)" fill-rule="evenodd" stroke="none" />
        <path d="M2.95593 0.547775C2.73888 0.330734 2.50117 0.144692 2.26345 0C3.07995 3.03861 0 6.21157 0 6.21157L1.13689 7.65853C3.328 5.27105 4.43389 2.03607 2.95593 0.547775L2.95593 0.547775Z" transform="translate(8.308014 9.167496)" id="Shape" fill="url(#gradient_9)" fill-rule="evenodd" stroke="none" />
      </g>
      <g id="Group" transform="translate(34.227234 7.7126465)">
        <path d="M2.4805 3.55538C3.5037 1.62266 0.134359 0.062013 0 0C0 0.0310049 0 0.062013 0 0.103354C0 1.07488 2.07742 2.28412 2.18077 4.01014C2.28412 3.86544 2.38748 3.72075 2.4805 3.55538L2.4805 3.55538Z" transform="translate(2.108429 3.3564987)" id="Shape" fill="url(#gradient_10)" fill-rule="evenodd" stroke="none" />
        <path d="M3.88678 1.17572L4.21751 0.297212C0.3314 -1.05673 -0.433419 2.61234 0.197041 3.34616C0.197041 3.34616 0.197041 3.34616 0.197041 3.34616C0.290055 1.41344 2.90491 0.596941 3.88678 1.17572L3.88678 1.17572Z" transform="translate(1.901062 0)" id="Shape" fill="url(#gradient_11)" fill-rule="evenodd" stroke="none" />
        <path d="M4.24785 0.537442C4.27886 0.351406 4.28919 0.175703 4.27886 0C3.02827 1.44696 0.330734 1.00254 0.330734 1.00254L0 2.05675C1.9844 2.3358 4.01014 1.77769 4.24785 0.537442L4.24785 0.537442Z" transform="translate(0 7.3562927)" id="Shape" fill="url(#gradient_12)" fill-rule="evenodd" stroke="none" />
      </g>
      <g id="Group" transform="translate(41.27649 22.43811)">
        <path d="M5.8085 1.68425C3.74142 3.89602 0.144698 0.257962 0 0.113264C0.0413441 0.0925922 0.082682 0.0822593 0.134359 0.0615872C1.40561 -0.382834 3.94812 1.74626 6.25292 1.08479C6.1289 1.30184 5.9842 1.49821 5.8085 1.68425L5.8085 1.68425Z" transform="translate(3.513504 5.3851776)" id="Shape" fill="url(#gradient_13)" fill-rule="evenodd" stroke="none" />
        <path d="M2.35595 5.82378L1.35341 6.65061C-2.2123 2.24774 2.2526 -0.429136 3.51352 0.056629C3.51352 0.056629 3.51352 0.056629 3.51352 0.056629C1.01235 1.0695 1.13637 4.81091 2.35595 5.82378L2.35595 5.82378Z" transform="translate(0 5.441818)" id="Shape" fill="url(#gradient_14)" fill-rule="evenodd" stroke="none" />
        <path d="M1.17823 6.19091C0.950852 6.31493 0.723472 6.40795 0.496098 6.4803C1.81903 4.19618 0 0.909514 0 0.909514L1.24025 0C2.50116 2.42883 2.70787 5.3124 1.17823 6.19091L1.17823 6.19091Z" transform="translate(9.27034 0)" id="Shape" fill="url(#gradient_15)" fill-rule="evenodd" stroke="none" />
      </g>
      <path d="M2.41848 0C2.41848 0 2.5115 2.94559 0 6.18057L1.67434 6.93505C1.67434 6.93505 4.45456 3.56571 4.11349 0.795821L2.41848 0L2.41848 0Z" transform="translate(38.55774 15.534058)" id="Shape" fill="url(#gradient_16)" fill-rule="evenodd" stroke="none" />
      <path d="M4.04114 1.30646C4.04114 1.30646 2.39781 0.748345 0.134359 1.55451L0 0.510639C0 0.510639 2.37714 -0.429881 3.88611 0.241921L4.04114 1.30646L4.04114 1.30646Z" transform="translate(45.24475 38.154053)" id="Shape" fill="url(#gradient_17)" fill-rule="evenodd" stroke="none" />
      <path d="M1.65367 2.59418L0 1.62266L0.961192 0L2.61486 0.971523L1.65367 2.59418Z" transform="translate(33.33838 19.316833)" id="Polygon" fill="url(#gradient_18)" fill-rule="evenodd" stroke="none" />
      <path d="M0.237713 1.08522L0 0.227381L0.868171 0L1.10588 0.857846L0.237713 1.08522Z" transform="translate(61.275024 41.734375)" id="Polygon" fill="url(#gradient_19)" fill-rule="evenodd" stroke="none" />
      <path d="M0.34107 1.53998L0 0.320401L1.22992 0L1.57098 1.21958L0.34107 1.53998Z" transform="translate(20.28479 14.67627)" id="Polygon" fill="url(#gradient_20)" fill-rule="evenodd" stroke="none" />
      <path d="M0.506434 2.31513L0 0.485765L1.8397 0L2.35647 1.82937L0.506434 2.31513Z" transform="translate(30.382446 46.684998)" id="Polygon" fill="url(#gradient_21)" fill-rule="evenodd" stroke="none" />
      <path d="M0.764819 2.47016L0 0.723479L1.75702 0L2.52184 1.74668L0.764819 2.47016Z" transform="translate(27.08545 30.169006)" id="Polygon" fill="url(#gradient_22)" fill-rule="evenodd" stroke="none" />
      <path d="M1.47796 2.66653L0 1.43662L1.21958 0L2.69754 1.21958L1.47796 2.66653Z" transform="translate(23.943512 42.90222)" id="Polygon" fill="url(#gradient_23)" fill-rule="evenodd" stroke="none" />
      <path d="M1.0232 1.86037L0 1.00253L0.847504 0L1.88104 0.857836L1.0232 1.86037Z" transform="translate(26.661743 19.606262)" id="Polygon" fill="url(#gradient_24)" fill-rule="evenodd" stroke="none" />
      <path d="M0.58912 1.76736L0 0.568447L1.19891 0L1.78803 1.19891L0.58912 1.76736Z" transform="translate(36.78009 29.073486)" id="Polygon" fill="url(#gradient_25)" fill-rule="evenodd" stroke="none" />
      <path d="M0.589119 1.75702L0 0.568449L1.19891 0L1.79836 1.18857L0.589119 1.75702Z" transform="translate(27.94336 39.357178)" id="Polygon" fill="url(#gradient_26)" fill-rule="evenodd" stroke="none" />
      <path d="M0.599452 1.76736L0 0.568447L1.1989 0L1.79836 1.19891L0.599452 1.76736Z" transform="translate(19.137543 24.133179)" id="Polygon" fill="url(#gradient_27)" fill-rule="evenodd" stroke="none" />
      <path d="M1.09556 1.8397L0 1.07488L0.764822 0L1.86037 0.764822L1.09556 1.8397Z" transform="translate(46.619385 20.381409)" id="Polygon" fill="url(#gradient_28)" fill-rule="evenodd" stroke="none" />
      <path d="M1.09555 1.8397L0 1.07488L0.764817 0L1.86037 0.764822L1.09555 1.8397Z" transform="translate(42.340515 0)" id="Polygon" fill="url(#gradient_29)" fill-rule="evenodd" stroke="none" />
      <path d="M0.57878 1.74668L0 0.547776L1.20924 0L1.78802 1.19891L0.57878 1.74668Z" transform="translate(47.280884 33.34204)" id="Polygon" fill="url(#gradient_30)" fill-rule="evenodd" stroke="none" />
      <path d="M2.96626 0.589119L2.47016 1.53998L2.98693 2.50117L1.91205 2.31513L1.15757 3.09029L0.981863 2.02574L0 1.53998L0.971531 1.06455L1.11622 0L1.89138 0.775155L2.96626 0.589119Z" transform="translate(44.645325 7.079712)" id="Polygon" fill="url(#gradient_31)" fill-rule="evenodd" stroke="none" />
      <path d="M2.96626 0.589118L2.47016 1.55031L2.98693 2.50117L1.91205 2.32546L1.15756 3.10062L0.981863 2.02574L0 1.55031L0.971527 1.07488L1.11622 0L1.89138 0.775154L2.96626 0.589118Z" transform="translate(34.74402 44.318176)" id="Polygon" fill="url(#gradient_32)" fill-rule="evenodd" stroke="none" />
      <path d="M2.96626 0.589119L2.47017 1.55031L2.99727 2.50117L1.91205 2.32547L1.15757 3.10062L0.992197 2.02574L0 1.55031L0.981864 1.07488L1.11622 0L1.89138 0.775155L2.96626 0.589119Z" transform="translate(58.546448 19.606262)" id="Polygon" fill="url(#gradient_33)" fill-rule="evenodd" stroke="none" />
      <path d="M3.48303 1.42629L2.53217 2.17044L2.63553 3.37968L1.61232 2.70788L0.485765 3.16263L0.795826 1.99473L0 1.07489L1.21958 1.02321L1.85003 0L2.29446 1.12656L3.48303 1.42629Z" transform="translate(53.812866 36.91803)" id="Polygon" fill="url(#gradient_34)" fill-rule="evenodd" stroke="none" />
      <g id="Group" transform="translate(0 31.336914)">
        <path d="M25.0391 17.8182C23.6645 18.4074 19.9437 15.2241 16.5434 10.4801C13.143 5.73615 11.293 1.16791 12.2645 0.0206721L12.2542 0L0.192758 20.5881C-0.406695 21.6113 0.48215 22.8722 1.61904 22.6449L25.0494 17.8389L25.0391 17.8182L25.0391 17.8182Z" transform="translate(0 0.0103302)" id="Shape" fill="url(#gradient_35)" fill-rule="evenodd" stroke="none" />
        <path d="M15.0794 17.8286C14.6556 18.0043 14.0251 17.8389 13.25 17.3841C11.4723 16.3403 8.95046 13.7978 6.58365 10.4904C4.21685 7.19344 2.59419 3.9688 2.1601 1.93272C1.97406 1.04388 2.00507 0.372078 2.30479 0.0206721L2.29446 0L1.38494 1.55031L0.0723475 3.79309L0 3.92745C0.527106 5.97386 2.09809 9.0228 4.34087 12.1544C6.52164 15.193 8.82643 17.5908 10.5731 18.7691L10.8418 18.7174L13.374 18.2006L15.1 17.8492L15.0794 17.8286L15.0794 17.8286Z" transform="translate(9.959717 0)" id="Shape" fill="url(#gradient_36)" fill-rule="evenodd" stroke="none" />
        <path d="M5.63279 6.80069C3.86544 4.34087 2.5115 1.92238 1.76735 0L0.847503 1.57098L0 3.00761C0.785491 4.6716 1.92239 6.57332 3.30733 8.51637C4.59925 10.3147 5.93252 11.8857 7.17277 13.1156L8.95046 12.7539L10.5938 12.4128C9.07448 11.1105 7.31746 9.14682 5.63279 6.80069L5.63279 6.80069Z" transform="translate(6.3423157 7.090088)" id="Shape" fill="url(#gradient_37)" fill-rule="evenodd" stroke="none" />
        <path d="M4.37188 4.30986C3.30733 2.82156 2.38748 1.35394 1.67434 0L1.14723 0.909514L0 2.87324C0.599454 3.89645 1.29193 4.96099 2.05674 6.03587C2.69754 6.92471 3.34867 7.76188 3.9998 8.53704L6.34594 8.06161L7.25545 7.87558C6.29426 6.83171 5.3124 5.63279 4.37188 4.30986L4.37188 4.30986Z" transform="translate(2.9626465 13.032944)" id="Shape" fill="url(#gradient_38)" fill-rule="evenodd" stroke="none" />
        <path d="M2.52856 1.99473C2.0428 1.32293 1.59837 0.661462 1.18496 0L0.192758 1.68467C-0.406695 2.70788 0.48215 3.96879 1.61904 3.74142L3.54143 3.34867C3.2107 2.91458 2.86963 2.47016 2.52856 1.99473L2.52856 1.99473Z" transform="translate(0 18.903442)" id="Shape" fill="url(#gradient_39)" fill-rule="evenodd" stroke="none" />
        <path d="M11.1002 0L0 18.6967L12.4438 3.14196L11.1002 0Z" transform="translate(0.47180176 2.439148)" id="Polygon" fill="#FFFFFF" fill-opacity="0.47" fill-rule="evenodd" stroke="none" />
        <path d="M21.0946 2.3668L0 6.5113L18.6451 0L21.0946 2.3668Z" transform="translate(1.4330139 15.647797)" id="Polygon" fill="#FFFFFF" fill-opacity="0.47" fill-rule="evenodd" stroke="none" />
      </g>
    </g>
  </g>
</svg>