<?xml version="1.0" encoding="utf-8"?>
<svg width="200px" height="300px" viewBox="0 0 200 300" version="1.1" xmlns:xlink="http://www.w3.org/1999/xlink" xmlns="http://www.w3.org/2000/svg">
  <defs>
    <filter id="filter_1">
      <feColorMatrix in="SourceGraphic" type="matrix" values="0 0 0 0 1 0 0 0 0 1 0 0 0 0 1 0 0 0 1 0" />
    </filter>
    <filter id="filter_2">
      <feColorMatrix in="SourceGraphic" type="matrix" values="0 0 0 0 0.827451 0 0 0 0 0.827451 0 0 0 0 0.827451 0 0 0 1 0" />
    </filter>
  </defs>
  <g id="background">
    <g id="background">
      <g id="Group-46" filter="url(#filter_1)">
        <path d="M0 0L200 0L200 300L0 300L0 0Z" id="Rectangle" fill="#FFAB19" fill-rule="evenodd" stroke="none" />
      </g>
      <g id="Group-47" transform="translate(15 18)">
        <path d="M0 0L64 0L64 64L0 64L0 0Z" id="Rectangle" fill="#FFFFFF" fill-opacity="0" fill-rule="evenodd" stroke="none" />
      </g>
    </g>
    <g id="Group-44" transform="translate(69 22)">
      <g id="Group-41">
        <g id="Group-40">
          <g id="Group-39">
            <path d="M30.999 0L31.001 0Q31.762 0 32.522 0.0373396Q33.2821 0.0746793 34.0394 0.149269Q34.7967 0.223858 35.5495 0.335517Q36.3022 0.447177 37.0486 0.595637Q37.795 0.744097 38.5331 0.929001Q39.2713 1.1139 39.9995 1.33481Q40.7277 1.55571 41.4442 1.81208Q42.1607 2.06844 42.8638 2.35966Q43.5668 2.65087 44.2548 2.97624Q44.9427 3.3016 45.6138 3.66032Q46.2849 4.01905 46.9377 4.41027Q47.5904 4.80149 48.2231 5.22427Q48.8558 5.64705 49.4671 6.10037Q50.0783 6.55369 50.6666 7.03645Q51.2548 7.51921 51.8186 8.03026Q52.3825 8.5413 52.9206 9.0794Q53.4587 9.61749 53.9697 10.1813Q54.4808 10.7452 54.9635 11.3334Q55.4463 11.9217 55.8996 12.5329Q56.3529 13.1441 56.7757 13.7769Q57.1985 14.4096 57.5897 15.0623Q57.9809 15.715 58.3397 16.3862Q58.6984 17.0573 59.0238 17.7452Q59.3491 18.4331 59.6403 19.1362Q59.9316 19.8392 60.1879 20.5557Q60.4443 21.2722 60.6652 22.0005Q60.8861 22.7287 61.071 23.4669Q61.2559 24.205 61.4044 24.9514Q61.5528 25.6978 61.6645 26.4505Q61.7761 27.2032 61.8507 27.9606Q61.9253 28.7179 61.9627 29.478Q62 30.238 62 30.999L62 31.001Q62 31.762 61.9627 32.522Q61.9253 33.2821 61.8507 34.0394Q61.7761 34.7967 61.6645 35.5495Q61.5528 36.3022 61.4044 37.0486Q61.2559 37.795 61.071 38.5331Q60.8861 39.2713 60.6652 39.9995Q60.4443 40.7277 60.1879 41.4442Q59.9316 42.1607 59.6403 42.8638Q59.3491 43.5668 59.0238 44.2548Q58.6984 44.9427 58.3397 45.6138Q57.981 46.2849 57.5897 46.9377Q57.1985 47.5904 56.7757 48.2231Q56.3529 48.8558 55.8996 49.4671Q55.4463 50.0783 54.9636 50.6666Q54.4808 51.2548 53.9697 51.8186Q53.4587 52.3825 52.9206 52.9206Q52.3825 53.4587 51.8187 53.9697Q51.2548 54.4808 50.6666 54.9635Q50.0783 55.4463 49.4671 55.8996Q48.8559 56.3529 48.2231 56.7757Q47.5904 57.1985 46.9377 57.5897Q46.2849 57.9809 45.6138 58.3397Q44.9427 58.6984 44.2548 59.0238Q43.5668 59.3491 42.8638 59.6403Q42.1607 59.9316 41.4442 60.1879Q40.7277 60.4443 39.9995 60.6652Q39.2713 60.8861 38.5331 61.071Q37.795 61.2559 37.0486 61.4044Q36.3022 61.5528 35.5495 61.6645Q34.7967 61.7761 34.0394 61.8507Q33.2821 61.9253 32.522 61.9627Q31.762 62 31.001 62L30.999 62Q30.238 62 29.478 61.9627Q28.7179 61.9253 27.9606 61.8507Q27.2032 61.7761 26.4505 61.6645Q25.6978 61.5528 24.9514 61.4044Q24.205 61.2559 23.4669 61.071Q22.7287 60.8861 22.0005 60.6652Q21.2722 60.4443 20.5557 60.1879Q19.8393 59.9316 19.1362 59.6403Q18.4331 59.3491 17.7452 59.0238Q17.0573 58.6984 16.3862 58.3397Q15.715 57.981 15.0623 57.5897Q14.4096 57.1985 13.7769 56.7757Q13.1441 56.3529 12.5329 55.8996Q11.9217 55.4463 11.3334 54.9636Q10.7452 54.4808 10.1813 53.9697Q9.61749 53.4587 9.0794 52.9206Q8.5413 52.3825 8.03026 51.8187Q7.51921 51.2548 7.03645 50.6666Q6.55369 50.0783 6.10037 49.4671Q5.64705 48.8559 5.22427 48.2231Q4.80149 47.5904 4.41027 46.9377Q4.01905 46.2849 3.66032 45.6138Q3.3016 44.9427 2.97624 44.2548Q2.65087 43.5668 2.35966 42.8638Q2.06844 42.1607 1.81208 41.4442Q1.55571 40.7277 1.33481 39.9995Q1.1139 39.2713 0.929001 38.5331Q0.744097 37.795 0.595637 37.0486Q0.447177 36.3022 0.335517 35.5495Q0.223858 34.7967 0.149269 34.0394Q0.0746793 33.2821 0.0373396 32.522Q0 31.762 0 31.001L0 30.999Q0 30.238 0.0373396 29.478Q0.0746793 28.7179 0.149269 27.9606Q0.223858 27.2032 0.335517 26.4505Q0.447177 25.6978 0.595637 24.9514Q0.744097 24.205 0.929001 23.4669Q1.1139 22.7287 1.33481 22.0005Q1.55571 21.2722 1.81208 20.5557Q2.06844 19.8393 2.35966 19.1362Q2.65087 18.4331 2.97624 17.7452Q3.3016 17.0573 3.66032 16.3862Q4.01905 15.715 4.41027 15.0623Q4.80149 14.4096 5.22427 13.7769Q5.64705 13.1441 6.10037 12.5329Q6.55369 11.9217 7.03645 11.3334Q7.51921 10.7452 8.03026 10.1813Q8.5413 9.61749 9.0794 9.0794Q9.61749 8.5413 10.1813 8.03026Q10.7452 7.51921 11.3334 7.03645Q11.9217 6.55369 12.5329 6.10037Q13.1441 5.64705 13.7769 5.22427Q14.4096 4.80149 15.0623 4.41027Q15.715 4.01905 16.3862 3.66032Q17.0573 3.3016 17.7452 2.97624Q18.4331 2.65087 19.1362 2.35966Q19.8392 2.06844 20.5557 1.81208Q21.2722 1.55571 22.0005 1.33481Q22.7287 1.1139 23.4669 0.929001Q24.205 0.744097 24.9514 0.595637Q25.6978 0.447177 26.4505 0.335517Q27.2032 0.223858 27.9606 0.149269Q28.7179 0.0746793 29.478 0.0373396Q30.238 0 30.999 0Z" id="Rectangle" fill="#FFAB19" fill-rule="evenodd" stroke="none" />
            <g id="Group-35" transform="translate(11.189987 11.877655)" filter="url(#filter_1)">
              <g id="Group-12">
                <g id="Group">
                  <path d="M27.6952 0.0659915C27.8932 -0.0659956 28.2231 6.05594e-06 28.2891 0.26398L30.005 7.32538C30.005 7.32538 34.2286 10.4271 35.4825 12.6049C37.5943 16.2346 37.6603 19.2043 37.6603 19.2043C37.6603 19.2043 42.3459 20.5902 43.1378 24.3519C43.9298 28.1136 41.026 35.2409 28.6191 37.6827C16.2122 40.1245 6.24705 36.7588 1.56145 29.2355C-3.12415 21.7121 4.26722 12.7369 3.87125 13.2648L2.48537 1.45188C2.41939 1.18791 2.74936 0.989934 3.01332 1.12192L10.9986 6.33545C10.9986 6.33545 13.9684 5.21355 17.0701 5.08157C18.9179 4.94958 20.5018 5.08157 22.0197 5.34554L27.6952 0.0659915Z" id="Shape" fill="#FFAB19" fill-rule="evenodd" stroke="none" />
                  <path d="M29.688 0.234952C29.688 0.234952 34.2416 1.42285 35.0335 5.18453C35.8254 8.9462 32.6577 15.7436 20.3828 18.1194C4.41217 21.4191 -3.17718 11.916 1.24444 4.92055C5.66605 -2.14083 13.2554 3.86464 18.7989 3.46868C23.5505 3.1387 24.0785 -1.01893 29.688 0.234952L29.688 0.234952Z" transform="translate(7.774338 19.233368)" id="Shape" fill="#FFFFFF" fill-rule="evenodd" stroke="none" />
                  <path d="M3.0375 0C4.42337 0 5.87527 0.131987 5.94125 0.59395C6.00724 1.51788 5.01732 3.36571 3.96143 3.43171C2.77353 3.5637 0.00178045 1.91385 0.00178045 0.857941C-0.0642051 0.0660016 1.71763 1.61492e-05 3.03752 1.61492e-05L3.0375 0Z" transform="translate(23.271774 20.986206)" id="Shape" fill="#262626" fill-rule="evenodd" stroke="none" />
                  <path d="M8.209 3.61956C10.1228 6.58929 10.1888 9.95501 8.34099 11.1429C6.49315 12.3308 3.4574 10.9449 1.47759 7.97518C-0.436229 5.00545 -0.502231 1.63974 1.3456 0.451835C3.19344 -0.80205 6.29518 0.649824 8.209 3.61956L8.209 3.61956Z" transform="translate(25.88765 9.645325)" id="Shape" fill="#FFFFFF" fill-rule="evenodd" stroke="none" />
                  <path d="M2.3758 1.31989C2.3758 2.04582 1.84784 2.63977 1.1879 2.63977C0.527949 2.63977 0 2.04582 0 1.31989C0 0.59395 0.527949 0 1.1879 0C1.84785 0 2.3758 0.59395 2.3758 1.31989" transform="translate(31.456833 15.7066345)" id="Shape" fill="#001026" fill-rule="evenodd" stroke="none" />
                  <path d="M8.59734 3.55615C10.5772 6.4599 10.4452 10.0236 8.66333 11.2775C6.48552 12.5314 3.58177 11.6074 1.60194 8.7037C-0.443864 5.79995 -0.575851 2.03828 1.46996 0.586402C3.51577 -0.931458 6.61752 0.652404 8.59734 3.55615L8.59734 3.55615Z" transform="translate(9.132675 11.556519)" id="Shape" fill="#FFFFFF" fill-rule="evenodd" stroke="none" />
                  <path d="M2.3758 1.31989C2.3758 2.04582 1.84785 2.63977 1.1879 2.63977C0.527949 2.63977 0 2.04582 0 1.31989C0 0.59395 0.527949 0 1.1879 0C1.84785 0.0659855 2.3758 0.59395 2.3758 1.31989" transform="translate(14.958267 17.620483)" id="Shape" fill="#001026" fill-rule="evenodd" stroke="none" />
                </g>
                <g id="Group" transform="translate(15.211868 26.329193)" filter="url(#filter_2)">
                  <path d="M11.3318 1.85C7.98875 3.27809 8.44314 7.43253 10.2932 7.85447C9.12473 9.28256 5.32731 8.95799 3.60711 8.30886C-2.657 5.97199 1.14042 0 1.14042 0C1.14042 0 5.81416 3.66759 14.9344 1.13598" id="Shape" fill="#B74E6C" fill-rule="evenodd" stroke="none" />
                  <path d="M0 0.820628C0 0.820628 1.72019 -0.217973 3.76495 0.0416729C5.45269 0.268876 7.56236 2.15135 7.56236 2.15135C7.56236 2.15135 3.24566 3.18997 0 0.820628L0 0.820628Z" transform="translate(1.6597443 6.417145)" id="Shape" fill="#FF6680" fill-rule="evenodd" stroke="none" />
                </g>
              </g>
            </g>
          </g>
        </g>
      </g>
      <g id="Group-42" transform="translate(14.421265 14.421234)">
        <path d="M0 0L33.1575 0L33.1575 33.1575L0 33.1575L0 0Z" id="Rectangle" fill="#FFFFFF" fill-opacity="0" fill-rule="evenodd" stroke="none" />
        <g id="Group-16" transform="translate(3.5001526 8.136353)">
          <g id="Group">
            <path d="M1.44256 12.9347C-1.71126 12.9347 0.197903 -0.192627 8.24144 0.00214532C16.4346 0.200736 19.4093 12.9347 19.4093 12.9347L1.44256 12.9347Z" transform="translate(0.5344391 3.5116577)" id="Shape" fill="#EFAB00" fill-rule="evenodd" stroke="none" />
            <path d="M25.1616 11.1773C25.1616 11.1773 8.79187 15.5361 5.85366 15.9691C1.91903 16.5489 0.615013 15.2837 0.140066 13.235C-0.645609 9.84615 2.09262 9.73436 2.93177 7.88283C3.77057 6.03096 1.79717 3.01845 5.72347 2.86291C9.00747 2.73271 9.05747 0.209385 10.6719 0.0239962C13.1758 -0.263467 13.7226 2.11369 15.5751 2.77611C17.3249 3.40174 18.2457 1.80088 20.2041 2.58794C21.8821 3.26252 21.9578 6.84788 24.1679 7.59328C27.7699 8.80842 25.1616 11.1773 25.1616 11.1773" transform="translate(0.72328186 0)" id="Shape" fill="#59C059" fill-rule="evenodd" stroke="none" />
            <path d="M0.481935 2.04691C0.124684 1.93859 -0.0794564 1.55703 0.0292108 1.19978L0.246893 0.481808C0.355212 0.124557 0.736425 -0.0792355 1.09402 0.0290838L3.00561 0.608531C3.36321 0.717198 3.56701 1.09841 3.45834 1.456L3.24066 2.17363C3.13234 2.53123 2.75112 2.73467 2.39352 2.62635L0.481935 2.0469" transform="translate(4.1328278 8.091827)" id="Shape" fill="#E8511C" fill-rule="evenodd" stroke="none" />
            <path d="M3.33386 0.0154985C3.72965 0.116181 4.29556 0.546684 4.75731 0.661256C3.563 3.75466 3.34775 6.7196 1.86874 6.82376L1.8618 6.82376C0.726511 6.73002 -0.499043 5.66764 0.209207 4.57401C0.629298 3.92477 -0.0234004 3.11931 0.153656 2.37287C0.407102 1.2966 1.50767 1.06399 1.88957 0.956363C2.30619 0.841791 2.74711 -0.133794 3.33386 0.0154985" transform="translate(0 9.616364)" id="Shape" fill="#C18500" fill-rule="evenodd" stroke="none" />
            <path d="M1.52065 0.183658C1.16999 0.819004 0.881836 1.47171 0.638809 2.11747L0.31246 2.01679L0 1.92339C0.253446 1.27728 0.552024 0.62805 0.913093 0L1.52065 0.183658Z" transform="translate(4.788498 8.26767)" id="Shape" fill="#C6431A" fill-rule="evenodd" stroke="none" />
            <path d="M3.55863 0.107632C2.40945 3.13507 2.17685 6.00975 0.749919 6.15903C0.583274 6.15903 0.499951 6.15903 0.222204 6.16944L0.152763 6.16944C0.100683 6.16944 0.0520806 6.16597 0 6.1625C1.479 6.05835 1.69425 3.0934 2.88857 0C3.01356 0.031242 3.12812 0.0381908 3.23228 0.00694091L3.55863 0.107632Z" transform="translate(1.8686676 10.277649)" id="Shape" fill="#A06B00" fill-rule="evenodd" stroke="none" />
            <path d="M1.03438 1.86749C0.697608 2.02893 0.289668 1.8852 0.128572 1.54808L0.06608 1.41823C-0.0950156 1.08112 0.0487198 0.673872 0.385489 0.512429L1.31767 0.0662974C1.65479 -0.095146 2.06238 0.0485893 2.22348 0.385358L2.28597 0.515551C2.44707 0.85232 2.30333 1.26026 1.96656 1.42136L1.03438 1.86749" transform="translate(5.02153 4.299347)" id="Shape" fill="#E8511C" fill-rule="evenodd" stroke="none" />
            <path d="M9.81486 0.00579957C9.56141 0.00927003 9.30103 0.0231598 9.0337 0.0439904C4.37451 0.40159 1.99629 2.63398 0.607567 5.15452L0 4.97052C1.40262 2.52288 3.77735 0.394649 8.32198 0.0439904C8.84275 0.00232912 9.33923 -0.00809015 9.81487 0.00579957" transform="translate(5.7015686 3.2969666)" id="Shape" fill="#4BA04B" fill-rule="evenodd" stroke="none" />
            <path d="M0.0904809 1.20939C-0.0963072 0.885817 0.0154906 0.468153 0.339405 0.281373L0.669929 0.0904186C0.993511 -0.0963694 1.41117 0.0157761 1.59796 0.339003L2.30378 1.56178C2.49057 1.88536 2.37877 2.30267 2.05486 2.4898L1.72433 2.68041C1.40075 2.86719 0.983092 2.7554 0.796304 2.43182L0.0904809 1.20939" transform="translate(23.467117 7.3344727)" id="Shape" fill="#E8511C" fill-rule="evenodd" stroke="none" />
            <path d="M1.0324 2.1501C0.680006 2.2744 0.290121 2.08831 0.165825 1.73592L0.0387541 1.37589C-0.0858899 1.0235 0.100203 0.633617 0.4526 0.508973L1.7837 0.0385406C2.13609 -0.0857555 2.52597 0.100685 2.65027 0.452727L2.77769 0.812753C2.90233 1.16514 2.71589 1.55538 2.3635 1.67967L1.0324 2.1501" transform="translate(14.517975 1.7084961)" id="Shape" fill="#E8511C" fill-rule="evenodd" stroke="none" />
            <path d="M0 13.1507C3.12465 13.1507 0.771785 0.924613 12.2382 0.0445003C21.3663 -0.656113 23.6258 7.08815 24.1004 11.1551C24.2244 12.2164 23.4061 13.1507 22.3381 13.1507L0 13.1507Z" transform="translate(2.4977112 3.2957458)" id="Shape" fill="#FFBF00" fill-rule="evenodd" stroke="none" />
            <path d="M0.347403 2.17851C0.246721 2.17851 0.146734 2.13476 0.0779884 2.0504C-0.0431771 1.90181 -0.0206152 1.68308 0.127982 1.56225L1.95069 0.0776979C2.09963 -0.042772 2.31835 -0.0209057 2.43918 0.127691C2.56035 0.276281 2.53778 0.495006 2.38919 0.61618L0.566477 2.10039C0.501906 2.15282 0.424481 2.17851 0.347403 2.17851" transform="translate(10.477997 0.8123169)" id="Shape" fill="#FFBF00" fill-rule="evenodd" stroke="none" />
            <path d="M2.65748 1.13219C2.63595 1.13219 2.61443 1.13045 2.59256 1.12594L0.282757 0.68884C0.0942379 0.653432 -0.0293625 0.471506 0.00605354 0.283326C0.0418095 0.0948071 0.223736 -0.0308724 0.411567 0.00662272L2.72172 0.444074C2.91025 0.479482 3.03384 0.661408 2.99808 0.849588C2.96684 1.01623 2.82101 1.1322 2.6575 1.1322" transform="translate(20.003677 2.9452515)" id="Shape" fill="#FFBF00" fill-rule="evenodd" stroke="none" />
            <path d="M2.16879 2.18035C2.09172 2.18035 2.01395 2.155 1.94937 2.10189L0.127708 0.615947C-0.0208815 0.495129 -0.0431035 0.276403 0.0784099 0.127806C0.199575 -0.0204354 0.417953 -0.043353 0.566898 0.0781603L2.38856 1.56445C2.53715 1.68527 2.55937 1.90399 2.43786 2.05259C2.36947 2.13661 2.26948 2.18036 2.16879 2.18036" transform="translate(0.7614441 9.024353)" id="Shape" fill="#FFBF00" fill-rule="evenodd" stroke="none" />
            <path d="M0.425088 0.880113C-0.141174 0.880113 -0.142218 0 0.425088 0C0.991697 0 0.992393 0.880113 0.425088 0.880113" transform="translate(22.093002 9.332916)" id="Shape" fill="#EFAB00" fill-rule="evenodd" stroke="none" />
            <path d="M0.425085 0.880113C-0.141176 0.880113 -0.142211 0 0.425085 0C0.991685 0 0.992381 0.880113 0.425085 0.880113" transform="translate(17.585754 10.120148)" id="Shape" fill="#EFAB00" fill-rule="evenodd" stroke="none" />
            <path d="M0.425085 0.880113C-0.141176 0.880113 -0.142212 0 0.425085 0C0.991687 0 0.99273 0.880113 0.425085 0.880113" transform="translate(17.040878 13.743866)" id="Shape" fill="#EFAB00" fill-rule="evenodd" stroke="none" />
            <path d="M0.425085 0.880113C-0.141177 0.880113 -0.142213 0 0.425085 0C0.991346 0 0.992382 0.880113 0.425085 0.880113" transform="translate(9.586304 14.18396)" id="Shape" fill="#EFAB00" fill-rule="evenodd" stroke="none" />
            <path d="M0.425085 0.880112C-0.141177 0.880112 -0.142213 0 0.425085 0C0.991346 0 0.992382 0.880112 0.425085 0.880112" transform="translate(10.458496 6.5316772)" id="Shape" fill="#EFAB00" fill-rule="evenodd" stroke="none" />
            <path d="M0.425086 0.880452C-0.141176 0.880452 -0.142212 0 0.425086 0C0.991347 0 0.992383 0.880452 0.425086 0.880452" transform="translate(15.124222 4.5371094)" id="Shape" fill="#EFAB00" fill-rule="evenodd" stroke="none" />
            <path d="M0.425084 0.880113C-0.141177 0.880113 -0.142213 0 0.425084 0C0.991345 0 0.992381 0.880113 0.425084 0.880113" transform="translate(12.837021 10.653137)" id="Shape" fill="#EFAB00" fill-rule="evenodd" stroke="none" />
            <path d="M0.425085 0.880113C-0.141177 0.880113 -0.142213 0 0.425085 0C0.991346 0 0.992382 0.880113 0.425085 0.880113" transform="translate(7.9651337 11.000336)" id="Shape" fill="#EFAB00" fill-rule="evenodd" stroke="none" />
            <path d="M0.425088 0.880113C-0.141174 0.880113 -0.142218 0 0.425088 0C0.99135 0 0.992394 0.880113 0.425088 0.880113" transform="translate(22.9525 12.90744)" id="Shape" fill="#EFAB00" fill-rule="evenodd" stroke="none" />
            <path d="M0.425342 0.880113C-0.141259 0.880113 -0.142303 0 0.425342 0C0.991604 0 0.992639 0.880113 0.425342 0.880113" transform="translate(19.518356 6.091614)" id="Shape" fill="#EFAB00" fill-rule="evenodd" stroke="none" />
            <path d="M0.047115 0L0.518086 0.426579C0.361096 0.567213 0.1884 0.537172 0 0.394991C0.0156931 0.268604 0.0313981 0.142181 0.0470911 0" transform="translate(4.757263 10.1909485)" id="Shape" fill="#4BA04B" fill-rule="evenodd" stroke="none" />
          </g>
        </g>
      </g>
    </g>
  </g>
</svg>