<?xml version="1.0" encoding="utf-8"?>
<svg width="64px" height="64px" viewBox="0 0 64 64" version="1.1" xmlns:xlink="http://www.w3.org/1999/xlink" xmlns="http://www.w3.org/2000/svg">
  <defs>
    <path d="M0 0L60 0L60 60L0 60L0 0Z" id="path_1" />
    <clipPath id="mask_1">
      <use xlink:href="#path_1" />
    </clipPath>
  </defs>
  <g id="broccoli">
    <path d="M0 0L64 0L64 64L0 64L0 0Z" id="Rectangle-4" fill="#FFFFFF" fill-opacity="0" fill-rule="evenodd" stroke="none" />
    <g id="2393_U1RVRElPIFNNIDE5OTYtMDM" transform="translate(2.3334656 3)">
      <path d="M0 0L60 0L60 60L0 60L0 0Z" id="Background" fill="none" fill-rule="evenodd" stroke="none" />
      <g clip-path="url(#mask_1)">
        <g id="g10" transform="translate(7.7736206 5.9078674)">
          <g id="g12">
            <g id="g14" transform="translate(6.1035156E-05 0.070007324)">
              <path d="M24.2753 7.01341C23.8955 5.97971 22.8884 5.35934 21.8427 5.42301C22.1402 4.84032 22.2052 4.14162 21.9621 3.47893C21.4989 2.21721 20.1003 1.56951 18.8383 2.03253C18.5094 2.1532 18.2234 2.33888 17.9868 2.56756C18.0045 2.24654 17.9592 1.91686 17.8413 1.59585C17.3782 0.334126 15.9794 -0.31357 14.7175 0.149782C13.7964 0.4878 13.2052 1.3245 13.1315 2.24221C12.525 1.31717 11.3429 0.894486 10.2595 1.29217C9.26829 1.65618 8.65903 2.59722 8.66633 3.59593C8.02594 2.82957 6.95249 2.50622 5.96128 2.87023C4.69926 3.33325 4.0516 4.73198 4.51482 5.99403C4.53372 6.04503 4.55635 6.09371 4.57822 6.1427C4.00566 5.86669 3.32693 5.81269 2.683 6.04904C1.42102 6.51239 0.773287 7.91078 1.23654 9.17284C1.36708 9.52852 1.57376 9.8332 1.82877 10.0799C1.75093 10.0999 1.67326 10.1239 1.59616 10.1522C0.334168 10.6156 -0.313526 12.0143 0.149728 13.276C0.557378 14.3867 1.68949 15.0208 2.81544 14.8411C2.57907 15.3924 2.54253 16.0305 2.76551 16.6378C3.22873 17.8999 4.62749 18.5472 5.88961 18.0842C6.28236 17.9399 6.61537 17.7049 6.87425 17.4119C6.89645 17.5059 6.92275 17.5995 6.95689 17.6922C7.42011 18.9543 8.81874 19.602 10.0809 19.1386C10.7257 18.9019 11.2084 18.4206 11.4663 17.8385C11.9923 18.9789 13.3135 19.5433 14.513 19.1029C15.3837 18.7832 15.9615 18.0182 16.0842 17.1602C16.733 17.7352 17.6685 17.9445 18.5393 17.6252C19.8012 17.1618 20.4487 15.7631 19.9854 14.5011C19.9769 14.4777 19.9659 14.4561 19.9565 14.4331C20.5828 14.8567 21.3954 14.9851 22.1594 14.7051C23.4214 14.2417 24.0689 12.843 23.6057 11.5809C23.3838 10.9766 22.9464 10.5156 22.4134 10.2475C22.5525 10.2229 22.6916 10.1879 22.8287 10.1372C24.0906 9.67419 24.7384 8.27546 24.2753 7.01341" id="path16" fill="#437529" fill-rule="evenodd" stroke="none" />
            </g>
            <g id="g18" transform="translate(0 2.7920532)">
              <path d="M22.4132 7.52579C22.5523 7.50091 22.6914 7.46626 22.8285 7.41555C24.0905 6.95255 24.7381 5.55379 24.2751 4.29172C24.0376 3.64509 23.5547 3.16036 22.9705 2.90366C23.061 3.55407 23.0616 4.22778 22.9173 4.83283C22.8221 5.23252 22.6346 5.68922 22.2365 5.87474C21.7976 6.07883 21.3223 5.96293 20.8954 5.78119C21.1578 6.59034 21.0023 7.52107 20.3703 8.12863C19.7181 8.75541 18.8471 8.88486 18.0222 8.57305C17.9902 10.265 15.6804 12.186 14.4198 10.5309C13.9524 13.043 10.2406 12.5678 9.54734 10.3797C8.66033 11.1249 7.37867 11.1444 6.49626 10.3472C5.81723 9.7337 5.65023 8.84234 6.28609 8.23414C5.84406 8.30879 5.37684 8.25934 5.03303 7.94028C4.6722 7.60547 4.51006 7.09932 4.52773 6.61396C4.56738 5.52417 5.35861 4.72038 6.43784 4.89487C5.93351 3.97643 5.67474 2.84728 5.94677 1.81923C6.15808 1.0208 6.65598 0.424878 7.33193 0.0604597C6.89092 -0.0393854 6.41761 -0.0192248 5.96126 0.148335C4.69926 0.61165 4.05159 2.0101 4.51481 3.27217C4.53371 3.32351 4.55632 3.37201 4.57821 3.42115C4.00564 3.14524 3.32692 3.09074 2.68297 3.32729C1.42099 3.7906 0.773297 5.18905 1.23655 6.45112C1.36707 6.80672 1.57375 7.11129 1.82875 7.35822C1.75092 7.37838 1.67325 7.40232 1.59615 7.43066C0.334171 7.89366 -0.313525 9.29243 0.149727 10.5545C0.557387 11.6651 1.6895 12.2988 2.81541 12.1196C2.57906 12.6708 2.54249 13.3086 2.76549 13.9158C3.22871 15.1779 4.62744 15.8258 5.88957 15.3625C6.28231 15.2182 6.61535 14.9832 6.87422 14.69C6.89643 14.7839 6.92272 14.8777 6.95684 14.9706C7.42009 16.2324 8.81866 16.88 10.0808 16.417C10.7256 16.1801 11.2084 15.6988 11.4663 15.1168C11.9923 16.2573 13.3134 16.8214 14.5129 16.3811C15.3836 16.0617 15.9614 15.2963 16.0841 14.4383C16.7329 15.0135 17.6684 15.2229 18.5391 14.9032C19.8011 14.4399 20.4486 13.0415 19.9853 11.7794C19.9767 11.7558 19.9657 11.7344 19.9563 11.7114C20.5826 12.135 21.3953 12.2635 22.1593 11.9832C23.4212 11.5199 24.0688 10.1211 23.6056 8.85935C23.3836 8.25493 22.9462 7.79382 22.4132 7.52578" id="path20" fill="#365E20" fill-rule="evenodd" stroke="none" />
            </g>
            <path d="M0.537638 0.653371C0.153039 0.896256 -0.223586 0.299932 0.160899 0.0570466C0.545357 -0.185838 0.922094 0.410486 0.537638 0.653371" transform="translate(14.822845 10.764954)" id="path22" fill="#599D32" fill-rule="evenodd" stroke="none" />
            <g id="g24" transform="translate(9.723236 2.0811615)">
              <path d="M0.537702 0.653566C0.153143 0.896295 -0.223603 0.300036 0.16086 0.0569857C0.545451 -0.185744 0.922194 0.410516 0.537702 0.653566" id="path26" fill="#599D32" fill-rule="evenodd" stroke="none" />
            </g>
            <path d="M0.537522 0.653371C0.153063 0.896256 -0.223589 0.299932 0.160896 0.0570466C0.545381 -0.185838 0.922121 0.410486 0.537522 0.653371" transform="translate(14.263947 12.043564)" id="path28" fill="#599D32" fill-rule="evenodd" stroke="none" />
            <g id="g30" transform="translate(9.02475 3.6718903)">
              <path d="M0.537582 0.653222C0.153099 0.896319 -0.223652 0.299915 0.160953 0.0571287C0.545436 -0.185968 0.922188 0.410436 0.537582 0.653222" id="path32" fill="#599D32" fill-rule="evenodd" stroke="none" />
            </g>
            <path d="M0.537635 0.653369C0.153063 0.896256 -0.223592 0.300209 0.160894 0.0570453C0.545382 -0.185839 0.92212 0.410487 0.537635 0.653369" transform="translate(16.094757 10.167221)" id="path34" fill="#599D32" fill-rule="evenodd" stroke="none" />
            <g id="g36" transform="translate(11.376801 6.992874)">
              <path d="M0.537582 0.653436C0.153093 0.896243 -0.22365 0.300103 0.160955 0.0570064C0.545386 -0.1858 0.922072 0.410629 0.537582 0.653436" id="path38" fill="#599D32" fill-rule="evenodd" stroke="none" />
            </g>
            <path d="M0.5376 0.653371C0.153141 0.896256 -0.223597 0.299932 0.16086 0.0570466C0.545459 -0.185838 0.922086 0.410486 0.5376 0.653371" transform="translate(12.868774 10.764954)" id="path40" fill="#599D32" fill-rule="evenodd" stroke="none" />
            <path d="M0.537639 0.653371C0.153038 0.896256 -0.223587 0.299932 0.160899 0.0570466C0.545357 -0.185838 0.922095 0.410486 0.537639 0.653371" transform="translate(11.891602 12.043564)" id="path42" fill="#599D32" fill-rule="evenodd" stroke="none" />
            <path d="M0.537574 0.653371C0.153115 0.896256 -0.223652 0.299932 0.160947 0.0570466C0.545434 -0.185838 0.922061 0.410486 0.537574 0.653371" transform="translate(10.469055 12.043564)" id="path44" fill="#599D32" fill-rule="evenodd" stroke="none" />
            <path d="M0.537573 0.653371C0.153113 0.896256 -0.223653 0.299932 0.160947 0.0570466C0.545432 -0.185838 0.922171 0.410486 0.537573 0.653371" transform="translate(8.86795 11.284943)" id="path46" fill="#599D32" fill-rule="evenodd" stroke="none" />
            <path d="M0.537599 0.653371C0.153141 0.896256 -0.223598 0.299932 0.16086 0.0570466C0.54546 -0.185838 0.922197 0.410486 0.537599 0.653371" transform="translate(9.970551 10.409546)" id="path48" fill="#599D32" fill-rule="evenodd" stroke="none" />
            <path d="M0.537579 0.653272C0.153093 0.896157 -0.223647 0.29983 0.160952 0.0569482C0.545411 -0.185652 0.922065 0.410388 0.537579 0.653272" transform="translate(11.3767395 10.522461)" id="path50" fill="#599D32" fill-rule="evenodd" stroke="none" />
            <path d="M0.537573 0.653556C0.153113 0.896441 -0.223653 0.300114 0.160947 0.0569495C0.545432 -0.185656 0.922171 0.410386 0.537573 0.653556" transform="translate(8.86795 9.005768)" id="path52" fill="#599D32" fill-rule="evenodd" stroke="none" />
            <path d="M0.537529 0.653369C0.153042 0.896257 -0.223584 0.29993 0.160901 0.0570479C0.545361 -0.185842 0.922128 0.410484 0.537529 0.653369" transform="translate(6.661682 10.477127)" id="path54" fill="#599D32" fill-rule="evenodd" stroke="none" />
            <g id="g56" transform="translate(9.2812195 7.3483276)">
              <path d="M0.537641 0.653366C0.153163 0.896365 -0.223599 0.299811 0.16085 0.057097C0.545472 -0.185902 0.92209 0.410368 0.537641 0.653366" id="path58" fill="#599D32" fill-rule="evenodd" stroke="none" />
            </g>
            <path d="M0.537671 0.653372C0.153101 0.896257 -0.223639 0.299935 0.160931 0.0570453C0.545418 -0.18584 0.922157 0.410487 0.537671 0.653372" transform="translate(5.908264 8.51001)" id="path60" fill="#599D32" fill-rule="evenodd" stroke="none" />
            <path d="M0.537618 0.653372C0.153132 0.896257 -0.223609 0.299935 0.160878 0.0570453C0.54545 -0.18584 0.922219 0.410487 0.537618 0.653372" transform="translate(7.737152 8.51001)" id="path62" fill="#599D32" fill-rule="evenodd" stroke="none" />
            <g id="g64" transform="translate(7.737152 4.382553)">
              <path d="M0.537688 0.653417C0.153094 0.896156 -0.223663 0.299861 0.160962 0.0571158C0.545402 -0.185935 0.922159 0.410366 0.537688 0.653417" id="path66" fill="#599D32" fill-rule="evenodd" stroke="none" />
            </g>
            <g id="g68" transform="translate(6.513672 6.992874)">
              <path d="M0.537578 0.653436C0.15309 0.896243 -0.223624 0.300103 0.160924 0.0570064C0.545411 -0.1858 0.922155 0.410629 0.537578 0.653436" id="path70" fill="#599D32" fill-rule="evenodd" stroke="none" />
            </g>
            <g id="g72" transform="translate(7.955139 6.4270782)">
              <path d="M0.537621 0.653338C0.153139 0.896115 -0.223621 0.299886 0.16089 0.05711C0.545431 -0.185961 0.922102 0.410562 0.537621 0.653338" id="path74" fill="#599D32" fill-rule="evenodd" stroke="none" />
            </g>
            <path d="M0.537589 0.653372C0.153102 0.896257 -0.223637 0.29993 0.160934 0.0570453C0.545421 -0.18584 0.922161 0.410487 0.537589 0.653372" transform="translate(12.434845 8.780899)" id="path76" fill="#599D32" fill-rule="evenodd" stroke="none" />
            <path d="M0.537651 0.653275C0.153191 0.89616 -0.22366 0.300113 0.160911 0.0569482C0.545397 -0.185652 0.922138 0.41039 0.537651 0.653275" transform="translate(10.468994 8.425568)" id="path78" fill="#599D32" fill-rule="evenodd" stroke="none" />
            <g id="g80" transform="translate(9.217316 5.092682)">
              <path d="M0.537575 0.653319C0.153085 0.896224 -0.223651 0.29997 0.16096 0.0570595C0.545421 -0.185846 0.922156 0.410408 0.537575 0.653319" id="path82" fill="#599D32" fill-rule="evenodd" stroke="none" />
            </g>
            <g id="g84" transform="translate(12.310791 2.0122375)">
              <path d="M1.84151 2.0264C1.63399 1.5825 1.02931 1.85958 0.756259 2.04987C0.227984 2.41823 -0.182582 3.1736 0.0831792 3.80553C0.28475 4.28479 0.880075 4.62294 1.39578 4.57794C1.66514 4.55447 2.02081 4.378 2.18933 4.16007C1.36981 4.62101 2.03482 6.00638 2.78932 6.25099C3.33646 6.42842 3.73896 6.32267 4.17139 6.03788C4.71226 5.68142 4.5967 5.29633 4.80049 4.79715C4.61249 5.25744 5.05883 5.62645 5.41604 5.80998C5.89272 6.05492 6.39814 6.07709 6.84844 5.75116C7.20652 5.49177 7.45849 5.16133 7.50741 4.71326C7.54119 4.40372 7.55298 3.64128 7.10018 3.61299C7.66732 3.95532 8.17991 3.30088 8.25097 2.80749C8.31941 2.33209 8.15596 1.90522 7.79345 1.56225C7.42743 1.21607 6.96274 1.01774 6.45854 1.0576C5.90121 1.10132 5.44355 1.66672 5.11926 2.05951C5.48627 1.61529 5.03366 0.680885 4.79737 0.445274C4.03616 -0.313626 2.26564 -0.0776945 1.83769 0.964386C1.64361 1.4369 1.73274 1.79368 1.84151 2.0264" id="path86" fill="#5AA02C" fill-rule="evenodd" stroke="none" />
            </g>
            <g id="g88" transform="translate(19.661072 0)">
              <path d="M23.5265 13.8292C23.7966 12.7616 23.3152 11.681 22.4159 11.1439C22.9901 10.8304 23.4379 10.2903 23.6112 9.60614C23.941 8.30282 23.1515 6.97916 21.8485 6.64941C21.5084 6.56339 21.1676 6.55506 20.8435 6.61074C21.0393 6.35567 21.1876 6.05793 21.2717 5.72618C21.6011 4.4232 20.8119 3.0992 19.5086 2.76979C18.5573 2.52906 17.5971 2.88648 17.0183 3.60266C17.0399 2.49639 16.3021 1.48047 15.1835 1.1974C14.1596 0.938672 13.1253 1.37211 12.5682 2.20065C12.4718 1.20674 11.768 0.333855 10.7444 0.0747906C9.44106 -0.254623 8.11707 0.534907 7.78766 1.83789C7.77432 1.89091 7.76565 1.94392 7.75598 1.9966C7.4389 1.44579 6.90911 1.01802 6.24428 0.849979C4.94092 0.520229 3.61679 1.30943 3.28741 2.61275C3.19439 2.97984 3.19325 3.34793 3.26451 3.69568C3.18872 3.66868 3.11127 3.64433 3.03178 3.62433C1.72829 3.29458 0.404403 4.08377 0.0748178 5.3871C-0.215222 6.53405 0.361889 7.69633 1.39268 8.18346C0.886551 8.5052 0.496189 9.01132 0.337716 9.63848C0.00800159 10.9418 0.797397 12.2658 2.10068 12.5952C2.50645 12.6979 2.91415 12.6919 3.29308 12.5959C3.25857 12.6859 3.22716 12.7783 3.20316 12.874C2.87344 14.1773 3.6629 15.5013 4.96609 15.8307C5.63199 15.9994 6.30229 15.8744 6.84376 15.5393C6.63437 16.7776 7.4069 17.9889 8.64553 18.3023C9.54476 18.5297 10.4533 18.2239 11.0388 17.5848C11.2498 18.4257 11.9043 19.1265 12.8036 19.3539C14.1065 19.6833 15.4305 18.8941 15.7603 17.5908C15.7663 17.5664 15.7693 17.5424 15.7746 17.5184C16.0524 18.2213 16.6512 18.7861 17.44 18.9855C18.743 19.3152 20.067 18.5257 20.3968 17.2224C20.5545 16.5982 20.4531 15.9707 20.1647 15.4489C20.2937 15.5069 20.4281 15.5566 20.5698 15.5923C21.8728 15.922 23.1968 15.1325 23.5265 13.8292" id="path90" fill="#437529" fill-rule="evenodd" stroke="none" />
            </g>
            <g id="g92" transform="translate(19.661072 1.5258789E-05)">
              <path d="M23.6112 9.60614C23.8139 8.80461 23.5922 7.99607 23.0891 7.41493C23.1851 7.91672 23.2165 8.42652 23.1034 8.90763C22.8854 9.83786 22.1219 10.227 21.231 10.2926C21.6051 11.9147 20.1707 14.3106 18.3866 13.2644C18.3246 14.2893 17.6811 15.2205 16.6722 15.5279C15.6299 15.845 14.609 15.4456 13.9925 14.5757C13.3894 15.3069 12.4328 15.8147 11.4739 15.5043C10.557 15.2072 10.0719 14.385 9.98953 13.4728C9.73114 13.8725 9.35938 14.2129 8.86292 14.2536C8.35813 14.2953 7.86901 14.0726 7.49291 13.7465C6.87343 13.2087 6.29495 12.1921 6.7524 11.4123C6.19626 11.607 5.58731 11.6523 5.08542 11.2832C4.63187 10.9501 4.41445 10.3613 4.35987 9.81953C4.25838 8.81328 4.68392 7.34392 5.88899 7.33358C5.02407 5.49513 7.23785 2.58908 9.0593 4.16947C9.24968 3.13088 9.61744 2.01994 10.398 1.27709C10.7857 0.908333 11.2292 0.678609 11.704 0.565582C11.4332 0.339193 11.1101 0.167481 10.7444 0.0747906C9.44106 -0.254623 8.11707 0.534907 7.78766 1.83789C7.77432 1.89091 7.76565 1.94392 7.75598 1.9966C7.43891 1.44579 6.90911 1.01803 6.24428 0.849979C4.94092 0.520234 3.61679 1.30943 3.28741 2.61275C3.19439 2.97984 3.19326 3.34793 3.26451 3.69568C3.18872 3.66868 3.11127 3.64434 3.03178 3.62433C1.72829 3.29458 0.4044 4.08377 0.0748178 5.3871C-0.21522 6.53405 0.361889 7.69633 1.39268 8.18346C0.886553 8.5052 0.496189 9.01133 0.337716 9.63849C0.00800159 10.9418 0.797397 12.2658 2.10068 12.5952C2.50645 12.6979 2.91415 12.6919 3.29308 12.5959C3.25857 12.6859 3.22716 12.7783 3.20316 12.874C2.87344 14.1773 3.6629 15.5013 4.96609 15.8307C5.63199 15.9994 6.30229 15.8744 6.84376 15.5393C6.63437 16.7776 7.4069 17.9889 8.64553 18.3023C9.54476 18.5297 10.4533 18.2239 11.0388 17.5848C11.2498 18.4257 11.9043 19.1265 12.8036 19.3539C14.1065 19.6833 15.4305 18.8941 15.7603 17.5908C15.7663 17.5664 15.7693 17.5424 15.7746 17.5184C16.0524 18.2213 16.6512 18.7861 17.44 18.9855C18.743 19.3152 20.067 18.5257 20.3968 17.2224C20.5545 16.5982 20.4531 15.9707 20.1647 15.4489C20.2937 15.5069 20.4281 15.5566 20.5698 15.5923C21.8728 15.922 23.1968 15.1325 23.5265 13.8292C23.7966 12.7616 23.3152 11.681 22.4159 11.1439C22.9901 10.8304 23.4379 10.2903 23.6112 9.60614" id="path94" fill="#37611D" fill-rule="evenodd" stroke="none" />
            </g>
            <path d="M0.537658 0.653371C0.153117 0.896259 -0.223508 0.299932 0.160754 0.0570466C0.545295 -0.185838 0.922202 0.410486 0.537658 0.653371" transform="translate(34.265533 11.506348)" id="path96" fill="#599D32" fill-rule="evenodd" stroke="none" />
            <g id="g98" transform="translate(29.515198 3.1782074)">
              <path d="M0.537903 0.653351C0.153242 0.896308 -0.223581 0.299728 0.160767 0.0570815C0.545428 -0.185881 0.92225 0.410389 0.537903 0.653351" id="path100" fill="#599D32" fill-rule="evenodd" stroke="none" />
            </g>
            <path d="M0.537565 0.653373C0.153022 0.89654 -0.223605 0.299931 0.160938 0.0570465C0.5452 -0.185838 0.922109 0.410486 0.537565 0.653373" transform="translate(33.706635 12.784943)" id="path102" fill="#599D32" fill-rule="evenodd" stroke="none" />
            <g id="g104" transform="translate(28.467468 4.41333)">
              <path d="M0.537879 0.653292C0.15334 0.896193 -0.223552 0.299959 0.160681 0.0570589C0.545526 -0.185841 0.922418 0.410397 0.537879 0.653292" id="path106" fill="#599D32" fill-rule="evenodd" stroke="none" />
            </g>
            <path d="M0.537569 0.653372C0.153025 0.896257 -0.223605 0.29993 0.160941 0.0570453C0.545206 -0.18584 0.922113 0.410487 0.537569 0.653372" transform="translate(35.537445 10.9088745)" id="path108" fill="#599D32" fill-rule="evenodd" stroke="none" />
            <g id="g110" transform="translate(30.81955 7.734543)">
              <path d="M0.537617 0.653312C0.15299 0.896305 -0.223638 0.299807 0.160987 0.0570984C0.545324 -0.185895 0.921957 0.410318 0.537617 0.653312" id="path112" fill="#599D32" fill-rule="evenodd" stroke="none" />
            </g>
            <path d="M0.537937 0.653371C0.153112 0.896259 -0.223514 0.299932 0.160744 0.0570466C0.545289 -0.185838 0.922197 0.410486 0.537937 0.653371" transform="translate(32.31143 11.506348)" id="path114" fill="#599D32" fill-rule="evenodd" stroke="none" />
            <path d="M0.537563 0.653373C0.153021 0.89654 -0.223604 0.299931 0.160937 0.0570465C0.545199 -0.185838 0.922106 0.410486 0.537563 0.653373" transform="translate(31.33435 12.784943)" id="path116" fill="#599D32" fill-rule="evenodd" stroke="none" />
            <path d="M0.537567 0.653373C0.153022 0.89654 -0.223605 0.299931 0.160938 0.0570465C0.545201 -0.185838 0.921825 0.410486 0.537567 0.653373" transform="translate(29.911804 12.784943)" id="path118" fill="#599D32" fill-rule="evenodd" stroke="none" />
            <path d="M0.537659 0.653372C0.153119 0.896257 -0.223505 0.29993 0.160753 0.0570453C0.545293 -0.18584 0.921917 0.410487 0.537659 0.653372" transform="translate(28.31076 12.026321)" id="path120" fill="#599D32" fill-rule="evenodd" stroke="none" />
            <path d="M0.537661 0.653371C0.15312 0.896256 -0.223506 0.299932 0.160754 0.0570466C0.545578 -0.185838 0.922203 0.410486 0.537661 0.653371" transform="translate(29.413239 11.151199)" id="path122" fill="#599D32" fill-rule="evenodd" stroke="none" />
            <path d="M0.537564 0.653088C0.153022 0.896255 -0.223604 0.29993 0.160938 0.0570479C0.54548 -0.18584 0.922106 0.410487 0.537564 0.653088" transform="translate(30.819458 11.264023)" id="path124" fill="#599D32" fill-rule="evenodd" stroke="none" />
            <path d="M0.537659 0.653372C0.153119 0.896257 -0.223505 0.29993 0.160753 0.0570453C0.545293 -0.18584 0.921917 0.410487 0.537659 0.653372" transform="translate(28.31076 9.74733)" id="path126" fill="#599D32" fill-rule="evenodd" stroke="none" />
            <path d="M0.537385 0.653371C0.153124 0.896538 -0.223497 0.300212 0.160761 0.0570452C0.545301 -0.185839 0.921926 0.410487 0.537385 0.653371" transform="translate(26.104431 11.218491)" id="path128" fill="#599D32" fill-rule="evenodd" stroke="none" />
            <g id="g130" transform="translate(28.723694 8.089798)">
              <path d="M0.537622 0.65323C0.153097 0.896358 -0.223491 0.300161 0.160749 0.0570376C0.545556 -0.185806 0.922147 0.410392 0.537622 0.65323" id="path132" fill="#599D32" fill-rule="evenodd" stroke="none" />
            </g>
            <path d="M0.537691 0.653372C0.153146 0.896257 -0.223763 0.29993 0.161062 0.0570453C0.545608 -0.18584 0.922234 0.410487 0.537691 0.653372" transform="translate(25.350891 9.251663)" id="path134" fill="#599D32" fill-rule="evenodd" stroke="none" />
            <path d="M0.537512 0.653372C0.153252 0.896257 -0.223656 0.29993 0.160886 0.0570453C0.545431 -0.18584 0.922057 0.410487 0.537512 0.653372" transform="translate(27.179901 9.251663)" id="path136" fill="#599D32" fill-rule="evenodd" stroke="none" />
            <g id="g138" transform="translate(26.654999 5.092682)">
              <path d="M0.537887 0.653319C0.153156 0.896224 -0.223731 0.29997 0.161 0.0570595C0.545431 -0.185846 0.922013 0.410408 0.537887 0.653319" id="path140" fill="#599D32" fill-rule="evenodd" stroke="none" />
            </g>
            <g id="g142" transform="translate(25.956482 7.734543)">
              <path d="M0.537622 0.653312C0.152994 0.896305 -0.223636 0.299807 0.160987 0.0570984C0.545329 -0.185895 0.921961 0.410318 0.537622 0.653312" id="path144" fill="#599D32" fill-rule="evenodd" stroke="none" />
            </g>
            <g id="g146" transform="translate(27.397736 7.168442)">
              <path d="M0.537618 0.653535C0.152939 0.896307 -0.223652 0.300067 0.161032 0.0570065C0.545423 -0.18577 0.922012 0.410469 0.537618 0.653535" id="path148" fill="#599D32" fill-rule="evenodd" stroke="none" />
            </g>
            <path d="M0.537564 0.653372C0.153021 0.896257 -0.223604 0.29993 0.160937 0.0570453C0.54548 -0.18584 0.922105 0.410487 0.537564 0.653372" transform="translate(31.877502 9.522263)" id="path150" fill="#599D32" fill-rule="evenodd" stroke="none" />
            <path d="M0.537789 0.653369C0.153242 0.896254 -0.223668 0.299933 0.160879 0.0570479C0.545423 -0.185842 0.922051 0.410484 0.537789 0.653369" transform="translate(29.91159 9.1671295)" id="path152" fill="#599D32" fill-rule="evenodd" stroke="none" />
            <g id="g154" transform="translate(28.659943 5.834198)">
              <path d="M0.537605 0.653509C0.153324 0.896322 -0.223824 0.29984 0.161052 0.0570272C0.545332 -0.18579 0.92218 0.410397 0.537605 0.653509" id="path156" fill="#599D32" fill-rule="evenodd" stroke="none" />
            </g>
            <g id="g158" transform="translate(31.508362 3.4493256)">
              <path d="M1.84145 2.02656C1.63419 1.58234 1.02928 1.85963 0.756048 2.05001C0.228039 2.41827 -0.182737 3.17355 0.0832983 3.80535C0.284625 4.28459 0.879843 4.62284 1.39566 4.57783C1.66514 4.55438 2.02089 4.37775 2.18939 4.16017C1.37003 4.62097 2.03465 6.00648 2.78931 6.25095C3.33639 6.4282 3.73904 6.32254 4.17107 6.03774C4.71221 5.68136 4.59685 5.29622 4.80068 4.79728C4.61248 5.25746 5.05859 5.62634 5.41591 5.80985C5.89296 6.05494 6.39815 6.07713 6.84832 5.75107C7.20626 5.49161 7.45855 5.16117 7.50731 4.71319C7.54108 4.4037 7.55295 3.64092 7.09998 3.61278C7.66737 3.9551 8.17975 3.30079 8.25103 2.80717C8.3195 2.33199 8.15599 1.90496 7.79336 1.56202C7.42728 1.21595 6.96274 1.01775 6.45849 1.05745C5.9014 1.10122 5.44342 1.66674 5.11924 2.05939C5.48625 1.61516 5.03358 0.68106 4.79724 0.445351C4.03602 -0.313679 2.26567 -0.0776537 1.8377 0.964292C1.64357 1.43666 1.73266 1.79367 1.84145 2.02656" id="path160" fill="#5AA02C" fill-rule="evenodd" stroke="none" />
            </g>
            <path d="M2.92942 9.6331C6.75023 12.7733 6.68251 17.2841 6.76942 21.425C6.79937 22.8478 6.55693 24.3371 6.4498 25.7602C6.35137 27.067 6.02765 28.7505 6.90263 29.9002C7.81495 31.0988 9.80129 31.049 11.3561 31.049C13.0698 31.049 14.7819 31.3499 16.3693 30.7671C20.0179 29.4272 18.2753 26.2083 17.9637 23.7701C17.6086 20.991 17.3979 17.9879 18.1826 15.2709C18.5657 13.9445 19.0195 12.4654 19.8095 11.283C20.5458 10.1805 21.767 9.20869 22.8469 8.31067C23.3202 7.91707 24.1402 7.4446 24.1611 6.85364C24.178 6.36957 23.4714 5.8445 23.2845 5.39973C22.7244 5.40793 21.9689 6.19031 21.5154 6.5118C20.7731 7.03828 19.9164 7.5543 19.2469 8.15855C18.6842 8.66637 18.2083 9.21264 17.6521 9.71736C16.6727 10.6058 16.7999 9.84459 17.0329 9.04526C17.3957 7.80199 17.8775 6.49964 17.9747 5.21538C18.078 3.8511 18.3013 2.26882 17.6493 1.04478C17.56 0.877394 17.489 0.722729 17.4174 0.543746C16.5177 0.439409 15.6763 0.0551517 14.7695 0.00679786C13.5726 -0.057101 13.583 0.330268 13.3585 1.13611C12.929 2.68022 12.5295 4.10869 12.5295 5.73111C12.5295 6.36448 12.5589 9.60849 11.6465 9.70463C10.7058 9.80359 9.91063 6.71368 9.67318 6.16486C9.19227 5.05364 8.624 4.08719 7.94273 3.04327C7.5796 2.48682 7.52966 2.15967 6.88165 2.09407C6.36818 2.04205 5.32872 2.19304 4.98292 2.54534C4.19364 3.34949 5.33081 5.1478 5.7058 5.99322C6.1454 6.98455 7.89481 9.15185 7.63083 10.2314C5.94371 10.3666 4.25483 5.97117 3.27037 5.2199C3.16103 5.79219 1.45646 5.55496 1.07132 6.0461C0.887195 6.28078 -0.769873 7.74092 0.436573 7.53648L2.92943 9.63309" transform="translate(9.475189 17.0383)" id="path162" fill="#9BC661" fill-rule="evenodd" stroke="none" />
            <path d="M11.6442 23.3457C10.3997 22.509 9.10646 21.5822 8.60014 20.1011C8.30381 19.2339 8.27873 18.3252 8.29697 17.417C8.31916 16.3038 8.41779 15.1951 8.50041 14.0856C8.64688 12.1176 8.72817 10.0917 7.85803 8.26116C6.99377 6.4425 5.33811 5.23204 4.13014 3.66192C3.576 2.94175 3.07818 2.16305 3.01932 1.2294C2.99327 0.816587 3.04428 0.407444 3.11443 0C2.66268 0.301976 1.3966 0.19736 1.07132 0.612156C0.887195 0.84684 -0.769874 2.30697 0.436572 2.10254L2.92943 4.19915C6.75023 7.33939 6.68251 11.8501 6.76943 15.991C6.79937 17.4138 6.55694 18.9031 6.44981 20.3262C6.35138 21.6331 6.02766 23.3166 6.90263 24.4663C7.81496 25.6648 9.80129 25.6151 11.3561 25.6151C12.6223 25.6151 13.8873 25.7785 15.102 25.6292C13.9354 24.8909 12.7919 24.1173 11.6442 23.3457" transform="translate(9.475189 22.472244)" id="path164" fill="#80B544" fill-rule="evenodd" stroke="none" />
            <path d="M1.61974 6.11113C2.06519 7.08069 2.54366 8.04091 3.11126 8.94544C3.57119 9.67833 4.09351 10.4528 4.79972 10.9725C5.56501 11.5357 6.45597 11.5363 7.05229 10.7098C7.91016 9.52169 7.88302 7.83903 7.94381 6.43799C8.0029 5.0658 8.11713 3.63988 8.93118 2.47918C9.49499 1.6756 10.2677 1.07051 11.0792 0.525366C10.2251 0.40265 9.41836 0.0528866 8.55229 0.00679786C7.3554 -0.0571036 7.36586 0.330266 7.14136 1.13611C6.71186 2.68022 6.31233 4.10868 6.31233 5.73111C6.31233 6.36448 6.34174 9.60849 5.42929 9.70463C4.48858 9.80359 3.69345 6.71368 3.45599 6.16485C2.97509 5.05364 2.40681 4.08719 1.72555 3.04327C1.36241 2.48681 1.31248 2.15967 0.664469 2.09407C0.488511 2.07626 0.250405 2.08276 0 2.11273C0.500556 3.46118 1.01878 4.80255 1.61975 6.11113" transform="translate(15.692383 17.038315)" id="path166" fill="#87BF4F" fill-rule="evenodd" stroke="none" />
            <path d="M1.99341 7.41631C1.01395 8.30472 1.14119 7.54355 1.37418 6.74421C1.73695 5.50094 2.21876 4.19859 2.31603 2.91433C2.38643 1.98351 2.51226 0.950895 2.37823 0C2.19077 0.963903 1.97927 1.92328 1.70924 2.86796C1.29586 4.31451 0.441664 5.60047 0.121023 7.08436C0.00594359 7.61763 -0.17304 8.61829 0.389357 8.98756C0.838932 9.28247 1.42932 8.94034 1.81499 8.68445C2.86768 7.98605 3.70123 7.01366 4.64053 6.17927C5.69039 5.24562 6.75185 4.32469 7.8099 3.40009C7.73272 3.29661 7.66655 3.19566 7.62583 3.09868C7.0657 3.10688 6.31019 3.88925 5.85665 4.21074C5.11443 4.73723 4.25769 5.25325 3.58813 5.85749C3.02546 6.36532 2.54958 6.91159 1.99341 7.4163" transform="translate(25.133911 19.33934)" id="path168" fill="#87BF4F" fill-rule="evenodd" stroke="none" />
            <path d="M2.59108 1.98661C2.77685 1.34307 2.98014 0.664184 3.22953 0C3.17524 0.0588121 3.12039 0.117342 3.0661 0.176439C1.99023 1.34844 0.890605 2.60924 0.35564 4.13468C-0.263869 5.90188 0.00389595 7.70896 0.563746 9.45608C1.15696 11.3067 2.02784 13.1432 1.74169 15.1374C1.63113 15.9099 1.39815 16.6431 1.10097 17.3533C4.31983 15.9444 2.67421 12.8488 2.37223 10.4859C2.01709 7.70669 1.80644 4.70358 2.59108 1.98661" transform="translate(25.06668 30.32257)" id="path170" fill="#80B544" fill-rule="evenodd" stroke="none" />
            <g id="g172" transform="translate(24.424774 10.391663)">
              <path d="M16.7075 15.4518C17.4256 15.6342 18.2179 15.4349 18.7643 14.86C19.5692 14.0126 19.5351 12.6735 18.6881 11.8685C18.5932 11.7784 18.4916 11.7005 18.3858 11.6312C18.7842 11.5595 19.1649 11.3667 19.4656 11.0506C20.2168 10.2599 20.185 9.00999 19.3942 8.25849C18.7363 7.63305 17.7607 7.55233 17.0185 7.99802C17.4256 7.23398 17.2954 6.26414 16.6374 5.6387C16.168 5.19268 15.5374 5.02483 14.9447 5.12548C15.3 4.37559 15.1557 3.45173 14.5209 2.84879C13.9038 2.26226 13.0073 2.15518 12.286 2.51179C12.3304 1.93909 12.1268 1.35223 11.6779 0.925512C10.8875 0.174335 9.63728 0.206171 8.88611 0.996899C8.85877 1.0252 8.83498 1.05575 8.80957 1.08565C8.71021 0.888532 8.57805 0.703952 8.4089 0.54317C7.61817 -0.208006 6.36825 -0.176176 5.61675 0.614558C5.23473 1.01619 5.05626 1.53713 5.07588 2.05099C4.28386 1.34258 3.06738 1.386 2.33003 2.16161C1.70876 2.81535 1.62484 3.78295 2.06056 4.52319C1.51004 4.49939 0.952764 4.70327 0.543412 5.13384C-0.208088 5.92457 -0.176154 7.1745 0.614476 7.926C0.969808 8.26364 1.41775 8.44179 1.87116 8.46526C1.73899 8.54951 1.61358 8.64952 1.50071 8.76818C0.749211 9.55891 0.781368 10.8088 1.57178 11.5603C2.09335 12.056 2.81495 12.2087 3.46129 12.0294C3.3153 12.684 3.50438 13.3968 4.02596 13.8925C4.76749 14.5971 5.91259 14.6129 6.6718 13.9603C6.74833 14.3471 6.93966 14.7153 7.2474 15.0076C7.91369 15.6407 8.90475 15.7157 9.65046 15.2514C9.52634 15.891 9.71895 16.5783 10.2267 17.0607C11.0171 17.812 12.2674 17.78 13.0189 16.9895C13.0391 16.9677 13.0568 16.9445 13.0764 16.9221C13.1713 17.0915 13.2925 17.2496 13.4408 17.3904C14.2312 18.1417 15.4811 18.11 16.2326 17.3192C16.723 16.8034 16.8773 16.0928 16.7075 15.4519" id="path174" fill="#4D8730" fill-rule="evenodd" stroke="none" />
            </g>
            <g id="g176" transform="translate(24.424774 10.391663)">
              <path d="M19.3942 8.25849C18.7363 7.63304 17.7607 7.55233 17.0185 7.99802C17.4256 7.23398 17.2954 6.26414 16.6374 5.63869C16.168 5.19268 15.5374 5.02482 14.9447 5.12547C15.2891 4.39874 15.1627 3.50961 14.5772 2.90667C14.5952 3.78969 13.9295 4.96148 13.2475 5.44607C14.162 5.64577 15.0782 6.00882 15.2936 7.04168C15.4148 7.62565 15.2611 8.19032 14.8618 8.54211C15.6406 8.50223 16.341 9.03378 16.5628 9.87789C16.6879 10.3541 16.668 10.9143 16.3586 11.3211C16.0268 11.7569 15.5235 11.9262 14.9984 11.9607C15.403 12.3619 15.6792 12.8986 15.5538 13.4839C15.4374 14.0254 15.0566 14.4956 14.5778 14.7667C14.1386 15.0155 13.5736 15.1476 13.096 14.92C12.5491 14.6593 12.3272 14.0876 12.2439 13.5207C11.8625 14.1054 11.2387 14.512 10.575 14.0129C10.001 13.5814 9.61574 12.859 9.54918 12.1399C8.84141 12.8749 7.75323 12.8491 7.03614 12.0786C6.51617 11.5201 6.37082 10.7329 6.96283 10.2998C5.45758 10.2014 5.19711 7.0613 6.77985 6.76353C6.10425 6.42781 6.08238 5.54962 6.38465 4.8261C6.74737 3.95884 7.56415 3.19608 8.52885 3.2067C7.44485 2.27126 9.01345 0.724211 10.156 0.39107C9.68905 0.429338 9.23372 0.630636 8.8861 0.996899C8.85877 1.0252 8.83498 1.05575 8.80957 1.08565C8.71021 0.888532 8.57805 0.703952 8.4089 0.54317C7.61817 -0.208006 6.36825 -0.176176 5.61675 0.614558C5.23473 1.01619 5.05626 1.53713 5.07588 2.05099C4.28386 1.34258 3.06738 1.386 2.33003 2.16161C1.70876 2.81535 1.62483 3.78295 2.06056 4.52319C1.51004 4.49939 0.952764 4.70327 0.543412 5.13384C-0.208088 5.92457 -0.176154 7.1745 0.614476 7.926C0.969807 8.26364 1.41775 8.44179 1.87115 8.46526C1.73899 8.54951 1.61358 8.64952 1.50071 8.76818C0.749211 9.55891 0.781368 10.8088 1.57177 11.5603C2.09335 12.056 2.81495 12.2087 3.46129 12.0294C3.3153 12.684 3.50438 13.3968 4.02596 13.8925C4.76749 14.5971 5.91259 14.6129 6.6718 13.9603C6.74833 14.3471 6.93966 14.7153 7.2474 15.0076C7.91369 15.6407 8.90475 15.7157 9.65046 15.2514C9.52634 15.891 9.71895 16.5783 10.2267 17.0607C11.0171 17.812 12.2674 17.78 13.0189 16.9895C13.0391 16.9677 13.0568 16.9445 13.0764 16.9221C13.1713 17.0915 13.2925 17.2496 13.4408 17.3904C14.2312 18.1417 15.4811 18.11 16.2326 17.3192C16.723 16.8034 16.8773 16.0928 16.7075 15.4519C17.4256 15.6342 18.2179 15.4349 18.7643 14.86C19.5691 14.0126 19.5351 12.6735 18.6881 11.8686C18.5932 11.7784 18.4916 11.7005 18.3858 11.6312C18.7842 11.5595 19.1649 11.3668 19.4656 11.0507C20.2168 10.2599 20.1849 9.01 19.3942 8.2585" id="path178" fill="#417228" fill-rule="evenodd" stroke="none" />
            </g>
            <path d="M0 1.69397C0.238925 1.31819 0.380299 0.874552 0.380299 0.396419C0.380299 0.26098 0.366444 0.129216 0.345238 0C0.346931 0.59293 0.248536 1.19406 0 1.69397" transform="translate(34.30612 9.985336)" id="path180" fill="#53912E" fill-rule="evenodd" stroke="none" />
            <path d="M19.2465 6.44653C19.8173 5.9749 20.1241 5.21769 19.9824 4.43701C19.7737 3.28734 18.6724 2.52448 17.5226 2.73315C17.3939 2.75634 17.2709 2.79252 17.1527 2.83692C17.3299 2.47273 17.399 2.052 17.3211 1.6225C17.1263 0.549455 16.0984 -0.162516 15.0252 0.032018C14.132 0.194317 13.491 0.933997 13.4127 1.79611C13.0365 1.01656 12.1766 0.549173 11.2832 0.711187C10.6462 0.826836 10.1383 1.23739 9.86993 1.77518C9.47419 1.04568 8.64315 0.617032 7.78197 0.773393C6.94421 0.925514 6.32868 1.58574 6.19073 2.37858C5.75478 2.00478 5.16078 1.8224 4.55153 1.93296C3.4784 2.12778 2.76635 3.15558 2.96105 4.22891C2.96812 4.26765 2.97852 4.30497 2.9878 4.34286C2.76999 4.30695 2.543 4.30469 2.31338 4.34653C1.24014 4.54135 0.528053 5.56915 0.722897 6.64248C0.82186 7.18791 1.13687 7.63946 1.56321 7.92674C0.523755 8.14814 -0.159035 9.15558 0.0320484 10.2086C0.193076 11.0961 0.924358 11.7348 1.77934 11.82C1.43529 12.2503 1.27062 12.8206 1.37676 13.4053C1.57161 14.4784 2.59944 15.1906 3.67257 14.9958C4.15469 14.9085 4.56281 14.6517 4.84964 14.2994C4.83982 14.4561 4.84621 14.6161 4.87559 14.7775C5.07032 15.8506 6.09819 16.5626 7.17143 16.368C7.87952 16.2394 8.42834 15.7474 8.66526 15.1197C9.1076 15.6238 9.79438 15.8919 10.5026 15.7632C11.5089 15.5808 12.1977 14.6656 12.1189 13.6675C12.4765 13.834 12.8866 13.8971 13.3042 13.8213C14.2084 13.6573 14.8539 12.9012 14.919 12.0255C15.3622 12.5031 16.031 12.753 16.7197 12.6278C17.7928 12.4332 18.5049 11.4054 18.3102 10.3321C18.3048 10.3027 18.2965 10.2747 18.2899 10.2456C18.4825 10.2693 18.6819 10.2645 18.8829 10.2281C19.956 10.0335 20.6681 9.00544 20.4734 7.93239C20.3463 7.2323 19.8639 6.688 19.2465 6.44653" transform="translate(9.1552734E-05 11.158417)" id="path182" fill="#4D8730" fill-rule="evenodd" stroke="none" />
            <path d="M20.4734 6.03089C20.3463 5.3308 19.8639 4.7865 19.2465 4.54503C19.8173 4.0734 20.1241 3.31619 19.9824 2.53551C19.9252 2.22024 19.7989 1.93551 19.6248 1.69036C19.5321 2.66585 18.8666 3.56981 17.7877 3.54493C18.4357 4.91147 17.0942 6.64107 15.6002 6.29356C15.9216 7.91656 14.1851 8.91581 12.7565 8.36953C13.262 10.2877 11.0947 11.1348 10.0059 9.93541C9.83648 10.8922 9.00853 11.4354 8.02387 11.1787C7.17694 10.9581 6.45923 10.2371 6.65317 9.3405C5.82372 9.72561 4.89482 9.4143 4.43159 8.59545C4.02646 7.87924 4.06279 7.03409 4.62069 6.4799C1.76521 6.05577 2.91047 2.76312 4.51961 2.92062C3.74868 2.14333 4.25509 0.47962 5.23964 0.0291963C5.01787 -0.00925839 4.78602 -0.0109566 4.55153 0.0314562C3.4784 0.226275 2.76635 1.25408 2.96105 2.3274C2.96812 2.36614 2.97852 2.40346 2.9878 2.44135C2.76999 2.40544 2.543 2.40318 2.31338 2.44503C1.24014 2.63984 0.528053 3.66765 0.722897 4.74097C0.82186 5.2864 1.13687 5.73796 1.56321 6.02523C0.523755 6.24663 -0.159036 7.25407 0.0320484 8.30704C0.193076 9.1946 0.924358 9.83334 1.77934 9.91845C1.43529 10.3488 1.27062 10.9191 1.37676 11.5038C1.57161 12.5769 2.59944 13.2891 3.67257 13.0943C4.15469 13.0069 4.56281 12.7502 4.84964 12.3979C4.83982 12.5545 4.84621 12.7146 4.87559 12.876C5.07032 13.9491 6.09819 14.661 7.17143 14.4665C7.87952 14.3379 8.42834 13.8459 8.66526 13.2182C9.1076 13.7223 9.79438 13.9904 10.5026 13.8617C11.5089 13.6793 12.1977 12.7641 12.1189 11.7659C12.4764 11.9325 12.8866 11.9955 13.3042 11.9198C14.2084 11.7558 14.8539 10.9997 14.919 10.124C15.3622 10.6016 16.031 10.8515 16.7197 10.7263C17.7928 10.5317 18.5049 9.50393 18.3102 8.4306C18.3048 8.4012 18.2965 8.37321 18.2899 8.34408C18.4825 8.36784 18.6819 8.36303 18.8829 8.32655C19.956 8.13202 20.6681 7.10393 20.4734 6.03089" transform="translate(9.1552734E-05 13.059921)" id="path184" fill="#417228" fill-rule="evenodd" stroke="none" />
            <path d="M0.537617 0.653374C0.153132 0.896259 -0.223608 0.299932 0.160878 0.0570466C0.545449 -0.185838 0.922104 0.410489 0.537617 0.653374" transform="translate(11.863129 20.8479)" id="path186" fill="#599D32" fill-rule="evenodd" stroke="none" />
            <path d="M0.537638 0.653371C0.153038 0.896539 -0.223588 0.300214 0.160899 0.0570466C0.545357 -0.185841 0.922124 0.410486 0.537638 0.653371" transform="translate(7.1601562 13.033752)" id="path188" fill="#599D32" fill-rule="evenodd" stroke="none" />
            <path d="M0.537599 0.653374C0.153141 0.896259 -0.223598 0.299934 0.16086 0.0570466C0.545345 -0.185838 0.922085 0.410489 0.537599 0.653374" transform="translate(11.30426 22.12651)" id="path190" fill="#599D32" fill-rule="evenodd" stroke="none" />
            <path d="M0.5376 0.653372C0.153141 0.896257 -0.223597 0.299933 0.16086 0.0570453C0.545347 -0.18584 0.922086 0.410487 0.5376 0.653372" transform="translate(6.065033 13.755066)" id="path192" fill="#599D32" fill-rule="evenodd" stroke="none" />
            <path d="M0.537522 0.653273C0.153064 0.896158 -0.22359 0.299833 0.160896 0.0569483C0.545382 -0.185655 0.922009 0.410388 0.537522 0.653273" transform="translate(13.135162 20.250244)" id="path194" fill="#599D32" fill-rule="evenodd" stroke="none" />
            <path d="M0.537688 0.65337C0.153088 0.896255 -0.22365 0.299931 0.160948 0.0570465C0.545406 -0.185841 0.922145 0.410486 0.537688 0.65337" transform="translate(8.19458 23.561768)" id="path196" fill="#599D32" fill-rule="evenodd" stroke="none" />
            <path d="M0.537647 0.653374C0.153049 0.896259 -0.223577 0.299932 0.160881 0.0570466C0.545367 -0.185838 0.922106 0.410489 0.537647 0.653374" transform="translate(9.909119 20.8479)" id="path198" fill="#599D32" fill-rule="evenodd" stroke="none" />
            <path d="M0.537578 0.653374C0.153091 0.896259 -0.223647 0.299934 0.160952 0.0570466C0.54541 -0.185838 0.922177 0.410489 0.537578 0.653374" transform="translate(8.931915 22.12651)" id="path200" fill="#599D32" fill-rule="evenodd" stroke="none" />
            <path d="M0.537671 0.653374C0.153101 0.896259 -0.223639 0.299934 0.160931 0.0570466C0.545418 -0.185838 0.922156 0.410489 0.537671 0.653374" transform="translate(7.5093384 22.12651)" id="path202" fill="#599D32" fill-rule="evenodd" stroke="none" />
            <path d="M0.5376 0.653391C0.153141 0.896276 -0.223597 0.299952 0.16086 0.0570647C0.545347 -0.18582 0.922086 0.410224 0.5376 0.653391" transform="translate(5.908325 21.367859)" id="path204" fill="#599D32" fill-rule="evenodd" stroke="none" />
            <path d="M0.537627 0.653373C0.153141 0.896258 -0.223599 0.300213 0.16086 0.0570466C0.545459 -0.185838 0.922084 0.410486 0.537627 0.653373" transform="translate(7.010956 20.492493)" id="path206" fill="#599D32" fill-rule="evenodd" stroke="none" />
            <path d="M0.537639 0.653372C0.153039 0.896539 -0.223588 0.300214 0.160899 0.0570467C0.545357 -0.185839 0.922125 0.410487 0.537639 0.653372" transform="translate(8.417084 20.605316)" id="path208" fill="#599D32" fill-rule="evenodd" stroke="none" />
            <path d="M0.537528 0.653374C0.153041 0.896259 -0.223585 0.299932 0.160902 0.0570466C0.54536 -0.185838 0.922127 0.410489 0.537528 0.653374" transform="translate(6.257538 19.299835)" id="path210" fill="#599D32" fill-rule="evenodd" stroke="none" />
            <path d="M0.537522 0.65337C0.153064 0.896255 -0.22359 0.299931 0.160896 0.0570465C0.545383 -0.185838 0.922121 0.410486 0.537522 0.65337" transform="translate(4.9955444 20.137344)" id="path212" fill="#599D32" fill-rule="evenodd" stroke="none" />
            <path d="M0.537617 0.653368C0.153132 0.896534 -0.223608 0.29993 0.160878 0.0570464C0.545449 -0.18584 0.922103 0.410484 0.537617 0.653368" transform="translate(6.414276 17.699173)" id="path214" fill="#599D32" fill-rule="evenodd" stroke="none" />
            <path d="M0.537697 0.653374C0.153097 0.896259 -0.223641 0.299932 0.16093 0.0570466C0.545415 -0.185838 0.922155 0.410489 0.537697 0.653374" transform="translate(4.4495544 18.022644)" id="path216" fill="#599D32" fill-rule="evenodd" stroke="none" />
            <path d="M0.537612 0.65337C0.153154 0.896255 -0.223614 0.299931 0.160873 0.0570465C0.54536 -0.185841 0.922099 0.410486 0.537612 0.65337" transform="translate(5.23114 18.86383)" id="path218" fill="#599D32" fill-rule="evenodd" stroke="none" />
            <path d="M0.537573 0.653183C0.153115 0.89607 -0.223652 0.299744 0.160947 0.0571437C0.545433 -0.186023 0.922059 0.410583 0.537573 0.653183" transform="translate(4.777588 14.46553)" id="path220" fill="#599D32" fill-rule="evenodd" stroke="none" />
            <path d="M0.537599 0.653372C0.153 0.896257 -0.223626 0.299932 0.160974 0.0570467C0.545432 -0.185841 0.922058 0.410487 0.537599 0.653372" transform="translate(3.5539856 17.075989)" id="path222" fill="#599D32" fill-rule="evenodd" stroke="none" />
            <path d="M0.537522 0.653087C0.153064 0.896254 -0.22359 0.299647 0.160896 0.0570467C0.545383 -0.185838 0.922009 0.410486 0.537522 0.653087" transform="translate(4.9955444 16.509918)" id="path224" fill="#599D32" fill-rule="evenodd" stroke="none" />
            <path d="M0.53765 0.653187C0.153191 0.896354 -0.22366 0.300027 0.160911 0.057145C0.545398 -0.186022 0.922137 0.410587 0.53765 0.653187" transform="translate(9.125916 19.655151)" id="path226" fill="#599D32" fill-rule="evenodd" stroke="none" />
            <path d="M0.537589 0.653469C0.153102 0.896354 -0.223638 0.300027 0.160934 0.0571424C0.545421 -0.186025 0.922047 0.410584 0.537589 0.653469" transform="translate(7.5093384 18.50859)" id="path228" fill="#599D32" fill-rule="evenodd" stroke="none" />
            <path d="M0.537528 0.653372C0.153041 0.896257 -0.223585 0.299933 0.160902 0.0570453C0.54536 -0.18584 0.922127 0.410487 0.537528 0.653372" transform="translate(6.257538 15.175888)" id="path230" fill="#599D32" fill-rule="evenodd" stroke="none" />
            <path d="M0.373323 2.29695C0.532144 2.7027 0.879279 2.77225 1.19118 3.00467C0.564377 2.99478 0.304049 3.2125 0.0911084 3.8026C-0.0943209 4.31636 -0.000673055 4.85331 0.408553 5.2616C0.803727 5.65604 1.51581 5.72221 2.00964 5.52824C2.37699 5.38432 3.06962 4.8502 2.99463 4.37998C2.9225 4.85925 3.43621 5.23559 3.841 5.35322C4.30434 5.48809 4.76446 5.28337 5.0976 4.96415C5.65923 4.42607 6.03753 3.48903 5.15084 3.02221C5.58789 3.38159 6.06569 3.10251 6.38158 2.71995C6.74243 2.2831 6.77587 1.57735 6.50825 1.08479C5.9907 0.13305 4.49862 -0.423408 3.71907 1.84341C3.82078 0.8945 3.01881 -0.2891 1.74786 0.0637719C0.78761 0.330408 0.00407587 1.3534 0.373322 2.29695" transform="translate(10.114532 12.822037)" id="path232" fill="#5AA02C" fill-rule="evenodd" stroke="none" />
            <path d="M0.420386 0.00997417C0.864026 0.109786 0.708796 0.798006 0.264874 0.697909C-0.178484 0.597534 -0.0232541 -0.0904043 0.420386 0.00997417" transform="translate(32.89383 21.763596)" id="path234" fill="#599D32" fill-rule="evenodd" stroke="none" />
            <path d="M0.420125 0.0099224C0.864046 0.110016 0.708531 0.797955 0.264893 0.697858C-0.17846 0.597762 -0.0232333 -0.090174 0.420125 0.0099224" transform="translate(33.96347 20.9301)" id="path236" fill="#599D32" fill-rule="evenodd" stroke="none" />
            <path d="M0.420242 0.00997157C0.86416 0.110068 0.708929 0.798002 0.265011 0.697909C-0.178622 0.597813 -0.0231115 -0.0904042 0.420242 0.00997157" transform="translate(37.016235 16.157745)" id="path238" fill="#599D32" fill-rule="evenodd" stroke="none" />
            <path d="M0.420328 0.00991981C0.863965 0.110016 0.709016 0.798234 0.265097 0.69814C-0.17854 0.597764 -0.0233083 -0.0901714 0.420328 0.00991981" transform="translate(31.50415 21.382782)" id="path240" fill="#599D32" fill-rule="evenodd" stroke="none" />
            <g id="g242" transform="translate(38.380188 16.6082)">
              <path d="M0.420569 0.00991982C0.863919 0.110014 0.709018 0.797976 0.265094 0.697882C-0.178545 0.597788 -0.0233601 -0.090174 0.420569 0.00991982" id="path244" fill="#599D32" fill-rule="evenodd" stroke="none" />
            </g>
            <g id="g246" transform="translate(39.79001 21.029037)">
              <path d="M0.420381 0.00992498C0.863956 0.110047 0.708868 0.798135 0.264998 0.69801C-0.178577 0.597888 -0.0231946 -0.0901998 0.420381 0.00992498" id="path248" fill="#599D32" fill-rule="evenodd" stroke="none" />
            </g>
            <g id="g250" transform="translate(38.273712 17.824951)">
              <path d="M0.420166 0.00993013C0.863955 0.110083 0.708831 0.798213 0.265041 0.698055C-0.178464 0.597902 -0.0233397 -0.0902254 0.420166 0.00993013" id="path252" fill="#599D32" fill-rule="evenodd" stroke="none" />
            </g>
            <path d="M0.420125 0.0099198C0.864046 0.110016 0.708531 0.797951 0.264893 0.697857C-0.17846 0.597761 -0.0232333 -0.0901739 0.420125 0.0099198" transform="translate(33.96347 19.501617)" id="path254" fill="#599D32" fill-rule="evenodd" stroke="none" />
            <g id="g256" transform="translate(37.962585 19.201492)">
              <path d="M0.420563 0.00996639C0.863983 0.110029 0.70903 0.798168 0.26504 0.697818C-0.178666 0.597756 -0.0231428 -0.0903835 0.420563 0.00996639" id="path258" fill="#599D32" fill-rule="evenodd" stroke="none" />
            </g>
            <g id="g260" transform="translate(39.44748 19.501572)">
              <path d="M0.42005 0.00995602C0.864024 0.109962 0.708859 0.7979 0.265174 0.697898C-0.17851 0.597892 -0.0233396 -0.0903446 0.42005 0.00995602" id="path262" fill="#599D32" fill-rule="evenodd" stroke="none" />
            </g>
            <path d="M0.420272 0.0099224C0.864193 0.110016 0.708676 0.797955 0.265324 0.697858C-0.178598 0.597762 -0.0233654 -0.090174 0.420272 0.0099224" transform="translate(35.84305 21.409637)" id="path264" fill="#599D32" fill-rule="evenodd" stroke="none" />
            <g id="g266" transform="translate(38.338226 21.38298)">
              <path d="M0.42014 0.00995863C0.863966 0.109962 0.708623 0.797886 0.265092 0.69788C-0.178444 0.59759 -0.0233914 -0.0903317 0.42014 0.00995863" id="path268" fill="#599D32" fill-rule="evenodd" stroke="none" />
            </g>
            <g id="g270" transform="translate(38.380188 20.235443)">
              <path d="M0.420569 0.00997157C0.863919 0.110065 0.709018 0.798023 0.265094 0.69793C-0.178545 0.597836 -0.0233601 -0.0904094 0.420569 0.00997157" id="path272" fill="#599D32" fill-rule="evenodd" stroke="none" />
            </g>
            <path d="M0.420326 0.0099198C0.863965 0.110016 0.708733 0.797951 0.265099 0.69814C-0.17854 0.597764 -0.0233083 -0.0901713 0.420326 0.0099198" transform="translate(35.59079 23.666275)" id="path274" fill="#599D32" fill-rule="evenodd" stroke="none" />
            <g id="g276" transform="translate(38.302185 22.685486)">
              <path d="M0.420263 0.00993791C0.864026 0.109866 0.708816 0.798126 0.264757 0.697911C-0.178431 0.597983 -0.0232151 -0.0902747 0.420263 0.00993791" id="path278" fill="#599D32" fill-rule="evenodd" stroke="none" />
            </g>
            <path d="M0.420326 0.00992241C0.863965 0.110019 0.708733 0.798238 0.265094 0.697859C-0.17854 0.597765 -0.0233083 -0.0901741 0.420326 0.00992241" transform="translate(36.882385 22.066467)" id="path280" fill="#599D32" fill-rule="evenodd" stroke="none" />
            <path d="M0.420243 0.00991722C0.863882 0.110293 0.70893 0.798229 0.265011 0.698138C-0.178623 0.598041 -0.0231115 -0.0901765 0.420243 0.00991722" transform="translate(37.016235 19.881363)" id="path282" fill="#599D32" fill-rule="evenodd" stroke="none" />
            <path d="M0.42045 0.0099198C0.864087 0.110016 0.708855 0.797951 0.265218 0.697857C-0.1787 0.597761 -0.0231866 -0.0901739 0.42045 0.0099198" transform="translate(34.750885 22.481842)" id="path284" fill="#599D32" fill-rule="evenodd" stroke="none" />
            <g id="g286" transform="translate(10.833954 4.296158)">
              <path d="M24.8057 10.2005C24.8057 9.09922 24.074 8.1699 23.0704 7.86929C23.5504 7.4248 23.8525 6.79119 23.8525 6.08549C23.8525 4.741 22.7625 3.6513 21.4183 3.6513C21.0676 3.6513 20.7355 3.72676 20.4346 3.85995C20.562 3.56454 20.6329 3.23949 20.6329 2.89764C20.6329 1.55345 19.5429 0.46344 18.1987 0.46344C17.2177 0.46344 16.3743 1.04541 15.989 1.88156C15.7385 0.803767 14.7744 0 13.6199 0C12.5641 0 11.6679 0.673625 11.3309 1.61333C10.9935 0.673625 10.0975 0 9.04148 0C7.69708 0 6.60716 1.08971 6.60716 2.4342C6.60716 2.48888 6.61177 2.54204 6.61532 2.59581C6.17296 2.13939 5.55442 1.85468 4.86855 1.85468C3.52415 1.85468 2.43423 2.94438 2.43423 4.28887C2.43423 4.66738 2.52322 5.02482 2.67753 5.34436C2.59758 5.33642 2.51638 5.33214 2.43435 5.33214C1.08995 5.33214 0 6.42185 0 7.76634C0 8.94922 0.844393 9.93445 1.96306 10.1541C1.55125 10.59 1.29714 11.1763 1.29714 11.8233C1.29714 13.1675 2.38718 14.2575 3.73146 14.2575C4.14993 14.2575 4.54359 14.1518 4.88752 13.9658C4.87606 14.0614 4.86846 14.1586 4.86846 14.2575C4.86846 15.602 5.95837 16.6917 7.30275 16.6917C7.98953 16.6917 8.60871 16.4061 9.05141 15.9485C9.15213 17.2004 10.1979 18.1856 11.4756 18.1856C12.4034 18.1856 13.2093 17.6666 13.6199 16.9031C14.0308 17.6666 14.837 18.1856 15.7648 18.1856C17.109 18.1856 18.1987 17.0956 18.1987 15.7514C18.1987 15.7264 18.1959 15.7025 18.195 15.6778C18.6371 16.2909 19.3556 16.6917 20.1694 16.6917C21.5136 16.6917 22.6033 15.602 22.6033 14.2575C22.6033 13.6139 22.3516 13.0301 21.9438 12.5947C22.0828 12.6195 22.2254 12.6347 22.3715 12.6347C23.716 12.6347 24.8057 11.5447 24.8057 10.2005" id="path288" fill="#53912E" fill-rule="evenodd" stroke="none" />
            </g>
            <g id="g290" transform="translate(10.833954 4.296158)">
              <path d="M24.8057 10.2005C24.8057 9.12183 24.1033 8.20961 23.1312 7.89037C22.8578 8.19648 22.4915 8.42407 22.0104 8.52611C22.2209 9.86754 21.0261 11.5698 19.6577 10.6414C19.3981 12.5306 17.1774 13.2537 15.752 12.0448C15.1541 13.469 12.9096 14.0177 12.3115 12.3528C11.7182 13.0475 10.678 13.33 9.79862 13.111C8.89646 12.8859 8.44063 12.1765 8.62884 11.3031C7.72091 11.8154 6.6722 11.7537 6.09588 10.8797C5.62844 10.1709 5.5627 8.9648 6.29491 8.52306C3.59197 7.38294 5.42522 4.66799 6.93264 5.11982C6.51359 4.52197 6.58495 3.43318 7.15388 2.89947C7.48137 2.59245 8.30807 2.46934 8.76965 2.7064C8.41133 1.60294 9.05019 0.511102 10.074 0.231878C9.76047 0.0840128 9.41116 0 9.04148 0C7.69708 0 6.60716 1.08971 6.60716 2.4342C6.60716 2.48888 6.61177 2.54204 6.61532 2.59581C6.17296 2.13939 5.55442 1.85468 4.86855 1.85468C3.52415 1.85468 2.43423 2.94438 2.43423 4.28887C2.43423 4.66738 2.52322 5.02482 2.67753 5.34436C2.59758 5.33642 2.51638 5.33214 2.43435 5.33214C1.08995 5.33214 0 6.42185 0 7.76634C0 8.94922 0.844393 9.93445 1.96306 10.1541C1.55125 10.59 1.29714 11.1763 1.29714 11.8233C1.29714 13.1675 2.38718 14.2575 3.73146 14.2575C4.14993 14.2575 4.54359 14.1518 4.88752 13.9658C4.87606 14.0614 4.86846 14.1586 4.86846 14.2575C4.86846 15.602 5.95837 16.6917 7.30275 16.6917C7.98953 16.6917 8.60871 16.4061 9.05141 15.9485C9.15213 17.2004 10.1979 18.1856 11.4756 18.1856C12.4034 18.1856 13.2093 17.6666 13.6199 16.9031C14.0308 17.6666 14.837 18.1856 15.7648 18.1856C17.109 18.1856 18.1987 17.0956 18.1987 15.7514C18.1987 15.7264 18.1959 15.7025 18.195 15.6778C18.6371 16.2909 19.3556 16.6917 20.1694 16.6917C21.5136 16.6917 22.6033 15.602 22.6033 14.2575C22.6033 13.6139 22.3516 13.0301 21.9438 12.5947C22.0828 12.6195 22.2254 12.6347 22.3715 12.6347C23.716 12.6347 24.8057 11.5447 24.8057 10.2005" id="path292" fill="#37611D" fill-rule="evenodd" stroke="none" />
            </g>
            <path d="M0.39269 0.702211C-0.0571685 0.768092 -0.159245 0.0699795 0.290898 0.00438003C0.741042 -0.061499 0.842834 0.636614 0.39269 0.702211" transform="translate(23.945862 15.266449)" id="path294" fill="#599D32" fill-rule="evenodd" stroke="none" />
            <g id="g296" transform="translate(22.823914 6.2156982)">
              <path d="M0.392849 0.702528C-0.057409 0.76811 -0.15917 0.0699291 0.291094 0.0043425C0.741062 -0.0612389 0.843113 0.636647 0.392849 0.702528" id="path298" fill="#599D32" fill-rule="evenodd" stroke="none" />
            </g>
            <g id="g300" transform="translate(20.553833 5.1809387)">
              <path d="M0.39284 0.702263C-0.057316 0.768062 -0.159108 0.0701246 0.290779 0.00433085C0.740906 -0.0611626 0.842996 0.636764 0.39284 0.702263" id="path302" fill="#599D32" fill-rule="evenodd" stroke="none" />
            </g>
            <path d="M0.392828 0.702209C-0.0573131 0.76809 -0.159102 0.0699793 0.290756 0.00438002C0.740612 -0.0614989 0.842689 0.636612 0.392828 0.702209" transform="translate(22.91565 16.207733)" id="path304" fill="#599D32" fill-rule="evenodd" stroke="none" />
            <g id="g306" transform="translate(21.530243 6.42955)">
              <path d="M0.392956 0.702343C-0.0572304 0.768219 -0.159323 0.0702191 0.291068 0.0043425C0.741078 -0.0612442 0.842673 0.636756 0.392956 0.702343" id="path308" fill="#599D32" fill-rule="evenodd" stroke="none" />
            </g>
            <path d="M0.392569 0.702176C-0.0572872 0.768057 -0.159076 0.0702268 0.29078 0.00434508C0.740921 -0.0612544 0.842713 0.636576 0.392569 0.702176" transform="translate(25.350952 15.23735)" id="path310" fill="#599D32" fill-rule="evenodd" stroke="none" />
            <path d="M0.392666 0.702462C-0.0574764 0.768061 -0.158984 0.070228 0.290877 0.00434638C0.740734 -0.0612531 0.842524 0.636577 0.392666 0.702462" transform="translate(24.424835 16.511719)" id="path312" fill="#599D32" fill-rule="evenodd" stroke="none" />
            <path d="M0.392772 0.702212C-0.0573132 0.767811 -0.159162 0.0699797 0.290925 0.00438004C0.740813 -0.0615017 0.842885 0.636612 0.392772 0.702212" transform="translate(19.775482 16.255524)" id="path314" fill="#599D32" fill-rule="evenodd" stroke="none" />
            <path d="M0.392781 0.702212C-0.0573597 0.767811 -0.159151 0.0699771 0.29099 0.00438004C0.740846 -0.0615017 0.842638 0.636612 0.392781 0.702212" transform="translate(21.283936 16.402832)" id="path316" fill="#599D32" fill-rule="evenodd" stroke="none" />
            <path d="M0.392779 0.702462C-0.0573624 0.768062 -0.159152 0.0702295 0.29099 0.00434509C0.740847 -0.0612546 0.842636 0.636578 0.392779 0.702462" transform="translate(22.160461 14.472229)" id="path318" fill="#599D32" fill-rule="evenodd" stroke="none" />
            <path d="M0.392946 0.702176C-0.0571969 0.768058 -0.159269 0.0699446 0.290875 0.00434509C0.741018 -0.0612545 0.842807 0.636579 0.392946 0.702176" transform="translate(20.747925 15.243576)" id="path320" fill="#599D32" fill-rule="evenodd" stroke="none" />
            <path d="M0.392735 0.702211C-0.0572355 0.767811 -0.159196 0.069977 0.290889 0.00438003C0.740974 -0.0615017 0.842822 0.636612 0.392735 0.702211" transform="translate(19.44815 14.665604)" id="path322" fill="#599D32" fill-rule="evenodd" stroke="none" />
            <path d="M0.392792 0.702214C-0.0572924 0.767811 -0.159141 0.0699796 0.290832 0.00438004C0.740916 -0.0614991 0.842876 0.636614 0.392792 0.702214" transform="translate(18.29358 13.321671)" id="path324" fill="#599D32" fill-rule="evenodd" stroke="none" />
            <path d="M0.392792 0.702176C-0.0572925 0.768058 -0.159141 0.0699446 0.290832 0.00434509C0.740917 -0.0612545 0.842766 0.636577 0.392792 0.702176" transform="translate(19.656738 12.969971)" id="path326" fill="#599D32" fill-rule="evenodd" stroke="none" />
            <path d="M0.392783 0.702176C-0.05736 0.767775 -0.159152 0.069942 0.290991 0.00434509C0.74085 -0.0612544 0.842927 0.636576 0.392783 0.702176" transform="translate(20.895721 13.644623)" id="path328" fill="#599D32" fill-rule="evenodd" stroke="none" />
            <path d="M0.392735 0.70246C-0.0572355 0.76806 -0.159198 0.0702282 0.290889 0.0043438C0.74086 -0.0612558 0.84282 0.636861 0.392735 0.70246" transform="translate(19.453033 11.574036)" id="path330" fill="#599D32" fill-rule="evenodd" stroke="none" />
            <path d="M0.392739 0.70221C-0.0572332 0.76781 -0.159168 0.0699795 0.290807 0.00438003C0.740893 -0.061499 0.842828 0.636611 0.392739 0.70221" transform="translate(17.959595 11.826492)" id="path332" fill="#599D32" fill-rule="evenodd" stroke="none" />
            <path d="M0.392832 0.702175C-0.0572822 0.768054 -0.159129 0.069942 0.29076 0.00434508C0.740903 -0.061257 0.842694 0.636576 0.392832 0.702175" transform="translate(20.246735 10.175247)" id="path334" fill="#599D32" fill-rule="evenodd" stroke="none" />
            <path d="M0.392831 0.702456C-0.0573106 0.768058 -0.159102 0.0702254 0.29076 0.00434379C0.740901 -0.0612583 0.84269 0.636859 0.392831 0.702456" transform="translate(21.470795 9.360931)" id="path336" fill="#599D32" fill-rule="evenodd" stroke="none" />
            <path d="M0.392836 0.702175C-0.0572459 0.768054 -0.159208 0.069942 0.290879 0.00434508C0.740961 -0.061257 0.842809 0.636576 0.392836 0.702175" transform="translate(17.20282 10.175247)" id="path338" fill="#599D32" fill-rule="evenodd" stroke="none" />
            <path d="M0.39272 0.702175C-0.0572512 0.768057 -0.159186 0.0699446 0.2909 0.00434508C0.740872 -0.0612544 0.842806 0.636576 0.39272 0.702175" transform="translate(18.692444 10.758575)" id="path340" fill="#599D32" fill-rule="evenodd" stroke="none" />
            <path d="M0.392836 0.702177C-0.0572459 0.768059 -0.159208 0.0702269 0.290879 0.00434509C0.740849 -0.0612545 0.842809 0.63658 0.392836 0.702177" transform="translate(17.20282 14.312195)" id="path342" fill="#599D32" fill-rule="evenodd" stroke="none" />
            <g id="g344" transform="translate(20.065216 6.555481)">
              <path d="M0.392887 0.702268C-0.0573363 0.767968 -0.159161 0.0700572 0.290917 0.00435674C0.740788 -0.0613438 0.842875 0.636852 0.392887 0.702268" id="path346" fill="#599D32" fill-rule="evenodd" stroke="none" />
            </g>
            <path d="M0.39272 0.702179C-0.0572512 0.768056 -0.159186 0.0699421 0.290903 0.00434509C0.740872 -0.0612519 0.842809 0.636577 0.39272 0.702179" transform="translate(17.886505 8.44339)" id="path348" fill="#599D32" fill-rule="evenodd" stroke="none" />
            <path d="M0.392684 0.702462C-0.0572874 0.768059 -0.159136 0.0702255 0.290864 0.00434379C0.740949 -0.0612532 0.84277 0.63686 0.392684 0.702462" transform="translate(19.433716 8.511826)" id="path350" fill="#599D32" fill-rule="evenodd" stroke="none" />
            <path d="M0.39269 0.70221C-0.0571685 0.76781 -0.159245 0.0699795 0.290898 0.00438003C0.741042 -0.061499 0.842834 0.636613 0.39269 0.70221" transform="translate(21.929535 13.064362)" id="path352" fill="#599D32" fill-rule="evenodd" stroke="none" />
            <path d="M0.392783 0.702177C-0.05736 0.768059 -0.159152 0.0702269 0.290991 0.00434509C0.74085 -0.0612545 0.842927 0.63658 0.392783 0.702177" transform="translate(20.918335 11.359695)" id="path354" fill="#599D32" fill-rule="evenodd" stroke="none" />
            <g id="g356" transform="translate(21.128967 7.8060913)">
              <path d="M0.392502 0.702169C-0.0573261 0.767849 -0.159118 0.069792 0.290992 0.00439169C0.74082 -0.0615781 0.842897 0.636484 0.392502 0.702169" id="path358" fill="#599D32" fill-rule="evenodd" stroke="none" />
            </g>
            <g id="g360" transform="translate(24.826202 6.44545)">
              <path d="M1.69401 1.25766C1.46926 1.81719 1.45418 2.62631 1.84395 3.01432C0.282186 2.06708 -0.309577 4.14254 0.153244 5.01968C0.456078 5.59341 0.978635 5.80308 1.59051 5.91487C2.33871 6.0512 2.48067 5.72944 3.06237 5.31069C2.70129 5.5866 3.07272 6.35048 3.35012 6.6749C3.82389 7.22851 4.47243 7.4583 5.18751 7.38407C6.67446 7.22881 6.73065 5.80692 6.04455 4.77925C7.36352 5.62091 7.84556 4.19459 7.65955 3.36002C7.38156 2.11055 6.0339 1.97984 5.14197 2.6618C5.75177 1.61284 5.16385 0.962814 4.75752 0.453265C3.95076 -0.55785 2.07581 0.30599 1.69401 1.25766" id="path362" fill="#5AA02C" fill-rule="evenodd" stroke="none" />
            </g>
            <path d="M6.15894 7.92317C5.49306 8.921 4.50371 10.4965 3.79768 11.442C2.92737 12.6078 2.82699 14.0303 3.09023 15.4251C3.24659 16.2525 3.55309 17.0069 3.79711 17.8056C4.02614 18.5549 4.07505 19.3384 4.34423 20.0821C4.58966 20.7604 5.2219 23.3168 3.67213 23.0815C3.22284 23.0134 2.49645 22.3574 2.17553 22.0356C1.76469 21.6245 1.42397 21.1628 1.18787 20.6269C0.633115 19.3678 0.798808 17.9284 0.568646 16.6065C0.359409 15.4056 0.263555 14.1793 0.131228 12.9426C-0.00986544 11.6221 -0.215595 10.4368 0.604272 9.25522C1.35272 8.17708 2.37911 7.60564 2.75687 6.29311C3.2251 4.66502 3.55818 2.54692 3.78071 0.436178C3.83783 -0.105574 4.37618 -0.183897 4.707 0.436178C5.00955 1.00366 4.24923 1.98255 4.18222 2.87633C4.10785 3.86031 3.91756 5.03995 3.93311 6.04117C3.96026 7.79763 5.6644 6.4277 6.75385 6.04117L9.9662 2.78217C9.9662 2.78217 10.3411 3.06719 9.617 4.05173L6.15894 7.92317" transform="translate(20.644073 22.399399)" id="path364" fill="#A4D267" fill-rule="evenodd" stroke="none" />
            <path d="M0.765691 1.38121C0.859142 1.73069 1.14741 2.1158 0.860923 2.41806C0.612835 2.67932 0.0455762 2.67338 0.00194927 3.11985C-0.028333 3.42946 0.301045 3.80524 0.529676 3.96867C0.935907 4.25934 1.03023 4.42504 1.22683 4.9091C1.38367 5.29534 1.45866 5.70194 1.62523 6.08479C1.75532 6.38394 1.97901 6.98959 2.36567 6.83691C2.64975 6.72466 2.92677 6.08818 3.11697 5.84954C3.38073 5.51843 3.69206 5.26396 4.01157 5.00326C4.27255 4.79035 4.8177 4.52569 4.94126 4.19233C5.08688 3.7993 4.74729 3.80015 4.43598 3.73483C3.94541 3.6322 3.77377 3.57593 3.38977 3.26236C3.02231 2.96207 2.61938 2.73389 2.3659 2.32277C2.11241 1.91165 1.95458 1.4519 1.66312 1.05378C1.5162 0.853028 1.07903 -0.0786413 0.808552 0.00533785C0.338363 0.152087 0.694689 1.11599 0.765686 1.38121" transform="translate(16.950317 25.632889)" id="path366" fill="#A4D267" fill-rule="evenodd" stroke="none" />
            <path d="M2.00811 0.0367048C2.83431 -0.0741344 4.30434 0.0601737 4.40359 0.51993C4.64506 1.69137 2.95816 2.71267 2.3771 3.62823C1.6049 4.84462 1.50962 6.57648 1.6196 8.027C1.73242 9.51343 2.17606 10.8899 2.35589 12.3531C2.42177 12.8886 2.63808 14.1463 1.94873 14.3957C1.21838 14.6604 1.08181 13.0914 0.942979 12.5411C0.40886 10.4182 0 8.13105 0 5.86394C0 4.73916 0.155797 3.70485 0.475306 2.67167C0.706882 1.92266 0.82083 0.675442 1.51979 0.17808C1.60971 0.114181 1.7853 0.0666765 2.00811 0.0367048" transform="translate(22.104797 29.65419)" id="path368" fill="#FFFFFF" fill-rule="evenodd" stroke="none" />
          </g>
        </g>
      </g>
    </g>
  </g>
</svg>