<?xml version="1.0" encoding="utf-8"?>
<svg width="64px" height="64px" viewBox="0 0 64 64" version="1.1" xmlns:xlink="http://www.w3.org/1999/xlink" xmlns="http://www.w3.org/2000/svg">
  <defs>
    <linearGradient x1="-0.00037026405" y1="0.4998417" x2="0.9993515" y2="0.4998417" id="gradient_1">
      <stop offset="0" stop-color="#EDEDED" />
      <stop offset="0.2152" stop-color="#F1F1F1" />
      <stop offset="0.4172" stop-color="#FCFCFC" />
      <stop offset="0.454" stop-color="#FFFFFF" />
      <stop offset="0.5361" stop-color="#F7F7F7" />
      <stop offset="0.69" stop-color="#EFEFEF" />
      <stop offset="1" stop-color="#EDEDED" />
    </linearGradient>
    <linearGradient x1="4.5746565E-06" y1="0.50003" x2="0.99994564" y2="0.50003" id="gradient_2">
      <stop offset="0" stop-color="#000000" />
      <stop offset="0.16639999" stop-color="#1A1A1A" />
      <stop offset="0.2829" stop-color="#0F0F0F" />
      <stop offset="0.7729" stop-color="#000000" />
      <stop offset="0.908" stop-color="#1A1A1A" />
      <stop offset="1" stop-color="#000000" />
    </linearGradient>
    <linearGradient x1="4.1246414E-05" y1="0.50003195" x2="0.999926" y2="0.50003195" id="gradient_3">
      <stop offset="0" stop-color="#EDEDED" />
      <stop offset="0.454" stop-color="#FFFFFF" />
      <stop offset="1" stop-color="#EDEDED" />
    </linearGradient>
    <linearGradient x1="2.670288E-05" y1="0.4999938" x2="1.0000851" y2="0.4999938" id="gradient_4">
      <stop offset="0" stop-color="#EDEDED" />
      <stop offset="1" stop-color="#FFFFFF" />
    </linearGradient>
    <linearGradient x1="2.5629997E-05" y1="0.4999578" x2="1.0000242" y2="0.4999578" id="gradient_5">
      <stop offset="0" stop-color="#EDEDED" />
      <stop offset="1" stop-color="#FFFFFF" />
    </linearGradient>
    <linearGradient x1="0.00024676323" y1="0.49845266" x2="1.0002165" y2="0.49845266" id="gradient_6">
      <stop offset="0" stop-color="#FFFFFF" />
      <stop offset="0.36079997" stop-color="#FFFFFF" />
      <stop offset="1" stop-color="#FFFFFF" />
    </linearGradient>
    <linearGradient x1="-0.0006766319" y1="0.50006366" x2="0.99920106" y2="0.50006366" id="gradient_7">
      <stop offset="0" stop-color="#FFFFFF" />
      <stop offset="0.36079997" stop-color="#FFFFFF" />
      <stop offset="1" stop-color="#FFFFFF" />
    </linearGradient>
    <linearGradient x1="-0.010138273" y1="0.5012169" x2="1.0117315" y2="0.5012169" id="gradient_8">
      <stop offset="0" stop-color="#FFFFFF" />
      <stop offset="0.36079997" stop-color="#FFFFFF" />
      <stop offset="1" stop-color="#FFFFFF" />
    </linearGradient>
  </defs>
  <g id="camera">
    <path d="M0 0L64 0L64 64L0 64L0 0Z" id="Rectangle" fill="#FFFFFF" fill-opacity="0" fill-rule="evenodd" stroke="none" />
    <g id="Group" transform="translate(5.994873 11)">
      <g id="Group" transform="translate(12.966492 6.341812)">
        <path d="M8.32708 0.9725C7.80063 -0.128522 4.28644 0.00509717 4.28644 0.00509717C4.28644 0.00509717 0.793635 0.392593 0.435536 1.55775L0.0320069 2.80575C-0.0989405 3.20928 0.189678 3.63419 0.574501 3.6048L8.49812 3.01687C8.88294 2.98748 9.10475 2.52515 8.91501 2.14568L8.32708 0.9725L8.32708 0.9725Z" id="Shape" fill="#272928" fill-rule="evenodd" stroke="none" />
        <path d="M8.32441 0.128274C8.30303 0.0828432 8.27631 0.0427575 8.24691 0L7.52804 0.0534477L7.36235 0.0668096L3.35111 0.366117L2.92887 0.398186L1.95879 0.47034L1.94543 0.47034L0.595879 0.571891L0.569155 0.574562C0.558465 0.574562 0.545103 0.577234 0.534415 0.577234C0.521053 0.577234 0.507691 0.577234 0.497001 0.574562C0.470277 0.619993 0.448898 0.668096 0.435536 0.718872L0.0320069 1.96688C-0.0989405 2.3704 0.189678 2.79531 0.574501 2.76592L8.49812 2.17799C8.88294 2.1486 9.10475 1.68627 8.91501 1.3068L8.32441 0.128274L8.32441 0.128274Z" transform="translate(0.0026855469 0.844223)" id="Shape" fill="#333634" fill-rule="evenodd" stroke="none" />
        <g id="Group" transform="translate(0.0026855469 0.844223)" opacity="0.2">
          <path d="M8.32441 0.128274C8.30303 0.0828432 8.27631 0.0427575 8.24691 0L7.52804 0.0534477L7.36235 0.0668096L3.35111 0.366117L2.92887 0.398186L1.95879 0.47034L1.94543 0.47034L0.595879 0.571891L0.569155 0.574562C0.558465 0.574562 0.545103 0.577234 0.534415 0.577234C0.521053 0.577234 0.507691 0.577234 0.497001 0.574562C0.470277 0.619993 0.448898 0.668096 0.435536 0.718872L0.0320069 1.96688C-0.0989405 2.3704 0.189678 2.79531 0.574501 2.76592L8.49812 2.17799C8.88294 2.1486 9.10475 1.68627 8.91501 1.3068L8.32441 0.128274L8.32441 0.128274Z" id="Shape" fill="url(#gradient_1)" fill-rule="evenodd" stroke="none" />
        </g>
        <path d="M0.996738 2.80643L1.40027 1.55843C1.73432 0.470768 4.79152 0.0618935 5.20574 0.0111175C4.67126 -0.0102612 4.28644 0.00577244 4.28644 0.00577244C4.28644 0.00577244 0.793635 0.393268 0.435536 1.55843L0.0320069 2.80643C-0.0989405 3.20996 0.189678 3.63487 0.5745 3.60547L1.28268 3.55203C1.0395 3.4291 0.89786 3.11108 0.996738 2.80643L0.996738 2.80643Z" transform="translate(0 0.0019989014)" id="Shape" fill="#000000" fill-opacity="0.1" fill-rule="evenodd" stroke="none" />
        <path d="M0.546067 1.87647L0.423138 0.222263C0.412448 0.0913151 0.310899 -0.00756175 0.193314 0.000455075C0.0757283 0.0084719 -0.00978655 0.120712 0.000903625 0.25166L0.123833 1.90587L0.546067 1.87647L0.546067 1.87647Z" transform="translate(6.984619 1.2152405)" id="Shape" fill="#141515" fill-rule="evenodd" stroke="none" />
        <path d="M0.546067 1.87647L0.423138 0.222263C0.412448 0.0913151 0.310899 -0.00756175 0.193314 0.000455075C0.0757284 0.0084719 -0.00978656 0.120712 0.000903626 0.25166L0.123833 1.90587L0.546067 1.87647L0.546067 1.87647Z" transform="translate(5.592346 1.3167877)" id="Shape" fill="#141515" fill-rule="evenodd" stroke="none" />
        <path d="M0.546067 1.87647L0.423138 0.222263C0.412448 0.0913151 0.310899 -0.00756175 0.193314 0.000455075C0.0757284 0.0084719 -0.00978656 0.120712 0.000903626 0.25166L0.123833 1.90587L0.546067 1.87647L0.546067 1.87647Z" transform="translate(4.200012 1.4210052)" id="Shape" fill="#141515" fill-rule="evenodd" stroke="none" />
        <path d="M0.546067 1.87647L0.423138 0.222263C0.412448 0.0913151 0.310898 -0.00756175 0.193314 0.000455075C0.0757284 0.0084719 -0.00978656 0.120712 0.000901994 0.25166L0.123831 1.90587L0.546067 1.87647L0.546067 1.87647Z" transform="translate(2.8077393 1.5252228)" id="Shape" fill="#141515" fill-rule="evenodd" stroke="none" />
        <path d="M0.546067 1.87647L0.423138 0.222263C0.412448 0.0913151 0.310898 -0.00756175 0.193314 0.000455075C0.0757284 0.0084719 -0.00978656 0.120712 0.000901994 0.25166L0.123831 1.90587L0.546067 1.87647L0.546067 1.87647Z" transform="translate(1.4127197 1.6294556)" id="Shape" fill="#141515" fill-rule="evenodd" stroke="none" />
      </g>
      <path d="M49.5139 9.60722L47.229 9.37472C45.81 9.23041 44.5754 8.34585 43.9794 7.04975L41.7907 2.2742C41.1547 0.889903 39.7704 0 38.2472 0L28.8965 0C27.2824 0 25.8339 0.994127 25.2567 2.50135L23.6426 6.7157C23.0814 8.18017 21.7211 9.18231 20.1578 9.28654L13.4154 9.73817C12.8649 8.89637 10.5399 8.4287 7.80336 8.59973C4.73547 8.78947 3.14807 9.5511 2.54411 10.4838C2.49601 10.5586 2.23144 10.7537 2.15127 10.7938C1.6355 11.0476 0 12.2662 0 14.9921L0 36.8174C0 38.7095 1.53395 40.2461 3.42867 40.2461L50.2729 40.2461C52.1649 40.2461 53.7016 38.7122 53.7016 36.8174L53.7016 14.2385C53.6989 11.8493 51.8897 9.84773 49.5139 9.60722L49.5139 9.60722Z" id="Shape" fill="url(#gradient_2)" fill-rule="evenodd" stroke="none" />
      <path d="M11.8852 0L11.8344 3.8028C11.8344 5.28598 10.6318 6.48855 9.14866 6.48855L0.335137 6.48855C0.0331577 6.48855 -0.116496 6.11174 0.107984 5.91399C0.276344 5.76433 0.59703 5.64408 1.18763 5.64408C2.17106 5.64408 4.79535 5.64408 6.60989 5.64408C7.6548 5.64408 8.52065 4.83434 8.59013 3.79211L8.76116 1.21326L11.8852 0L11.8852 0Z" transform="translate(1.6477661 10.074875)" id="Shape" fill="#000000" fill-opacity="0.3" fill-rule="evenodd" stroke="none" />
      <path d="M0.0017991 2.39288C-0.0764706 1.32721 2.40883 0.276108 5.55288 0.0451927C8.69693 -0.185723 11.3091 0.490987 11.3874 1.55667C11.4657 2.62235 8.98036 3.67344 5.83632 3.90436C2.69227 4.13527 0.080068 3.45856 0.0017991 2.39288Z" transform="translate(2.151184 8.508606)" id="Ellipse" fill="#313332" fill-rule="evenodd" stroke="none" />
      <g id="Group" transform="translate(2.1495361 8.511215)" opacity="0.2">
        <path d="M11.3915 1.55567C11.469 2.62195 8.98365 3.67219 5.83825 3.90202C2.69285 4.13184 0.0819355 3.45573 0.00176403 2.39212C-0.0757349 1.32584 2.40958 0.275593 5.55498 0.0457685C8.70037 -0.186729 11.3113 0.489385 11.3915 1.55567L11.3915 1.55567Z" id="Shape" fill="url(#gradient_3)" fill-rule="evenodd" stroke="none" />
      </g>
      <path d="M1.6542 4.36935L0 4.36935L0 0L1.65153 0C2.49333 0 3.17747 0.68413 3.17747 1.52593L3.17747 2.84342C3.17746 3.68789 2.496 4.36935 1.6542 4.36935L1.6542 4.36935Z" transform="translate(48.33539 22.431992)" id="Shape" fill="#1F2020" fill-rule="evenodd" stroke="none" />
      <path d="M1.06628 2.81669L0 2.81669L0 0L1.06628 0C1.60878 0 2.04972 0.440943 2.04972 0.983438L2.04972 1.83326C2.04972 2.37575 1.60878 2.81669 1.06628 2.81669L1.06628 2.81669Z" transform="translate(48.899292 23.209656)" id="Shape" fill="#181919" fill-rule="evenodd" stroke="none" />
      <path d="M0.00104879 1.39854C-0.0446806 0.775909 1.40979 0.161623 3.24971 0.026489C5.08962 -0.108644 6.61824 0.286547 6.66397 0.909175C6.7097 1.5318 5.25522 2.14609 3.41531 2.28122C1.57539 2.41636 0.0467781 2.02116 0.00104879 1.39854Z" transform="translate(4.5134277 8.982117)" id="Ellipse" fill="#222021" fill-opacity="0.1" fill-rule="evenodd" stroke="none" />
      <path d="M0.000696477 0.925406C-0.0295734 0.513266 0.931501 0.10677 2.14732 0.0174739C3.36313 -0.071822 4.37328 0.189895 4.40355 0.602035C4.43383 1.01418 3.47275 1.42067 2.25693 1.50997C1.04112 1.59926 0.0309679 1.33755 0.000696477 0.925406Z" transform="translate(5.643738 9.00882)" id="Ellipse" fill="#BEBFC2" fill-rule="evenodd" stroke="none" />
      <path d="M2.83086 0.662753C1.61493 0.750941 0.604765 0.491719 0.575368 0.0774998C0.572697 0.050776 0.575368 0.0267238 0.580713 0C0.209251 0.163015 -0.0152279 0.360772 0.00080576 0.563873C0.0302013 0.97542 1.04036 1.23731 2.2563 1.14913C3.39741 1.06628 4.31403 0.702837 4.39688 0.318014C4.00938 0.489048 3.45353 0.617322 2.83086 0.662753L2.83086 0.662753Z" transform="translate(5.6432495 9.369385)" id="Shape" fill="#000000" fill-opacity="0.1" fill-rule="evenodd" stroke="none" />
      <path d="M13.2016 1.75041C12.8087 0.697491 11.8039 0 10.6815 0L3.9578 0C2.8354 0 1.83059 0.697491 1.43774 1.75041L0 5.612L14.6367 5.612L13.2016 1.75041L13.2016 1.75041Z" transform="translate(26.216064 2.4398804)" id="Shape" fill="#383B3B" fill-rule="evenodd" stroke="none" />
      <path d="M24.6394 17.9718C24.6394 5.95674 20.7698 1.6836 20.7698 1.6836C20.1337 0.355427 12.3197 0 12.3197 0C12.3197 0 4.50564 0.352755 3.86961 1.6836C3.86961 1.6836 0 5.95674 0 17.9718C0 27.5015 2.43454 32.1595 3.44203 33.6801L21.1973 33.6801C22.2048 32.1621 24.6394 27.5015 24.6394 17.9718L24.6394 17.9718Z" transform="translate(21.216003 6.5633698)" id="Shape" fill="#232424" fill-rule="evenodd" stroke="none" />
      <path d="M0 16.0797C0 7.19914 7.19914 0 16.0797 0C24.9603 0 32.1595 7.19914 32.1595 16.0797C32.1595 24.9603 24.9603 32.1595 16.0797 32.1595C7.19914 32.1595 0 24.9603 0 16.0797Z" transform="translate(17.455994 9.949295)" id="Circle" fill="#5E5E5E" fill-rule="evenodd" stroke="none" />
      <path d="M0 14.5859C0 6.53031 6.53032 0 14.5859 0C22.6414 0 29.1717 6.53031 29.1717 14.5859C29.1717 22.6414 22.6414 29.1717 14.5859 29.1717C6.53032 29.1717 0 22.6414 0 14.5859Z" transform="translate(18.94983 11.443146)" id="Circle" fill="#222021" fill-rule="evenodd" stroke="none" />
      <path d="M0 12.921C0 5.78492 5.78492 0 12.921 0C20.057 0 25.842 5.78492 25.842 12.921C25.842 20.057 20.057 25.842 12.921 25.842C5.78492 25.842 0 20.057 0 12.921Z" transform="translate(20.614807 13.108032)" id="Circle" fill="#171616" fill-rule="evenodd" stroke="none" />
      <path d="M0 12.162C0 5.44512 5.44512 0 12.162 0C18.8789 0 24.324 5.44512 24.324 12.162C24.324 18.8789 18.8789 24.324 12.162 24.324C5.44512 24.324 0 18.8789 0 12.162Z" transform="translate(21.373718 13.866989)" id="Circle" fill="#333333" fill-rule="evenodd" stroke="none" />
      <path d="M0 8.77076C0 3.9268 3.9268 0 8.77076 0C13.6147 0 17.5415 3.9268 17.5415 8.77076C17.5415 13.6147 13.6147 17.5415 8.77076 17.5415C3.9268 17.5415 0 13.6147 0 8.77076Z" transform="translate(24.764954 17.258255)" id="Circle" fill="#272521" fill-rule="evenodd" stroke="none" />
      <path d="M1.77833 10.3649C-0.592775 7.99376 -0.592775 4.14943 1.77833 1.77833C4.14944 -0.592779 7.99376 -0.592779 10.3649 1.77833C12.736 4.14944 12.736 7.99375 10.3649 10.3649C7.99376 12.736 4.14944 12.736 1.77833 10.3649Z" transform="translate(27.462952 19.9572)" id="Ellipse" fill="#131313" fill-rule="evenodd" stroke="none" />
      <g id="Group" transform="translate(20.080322 12.576233)" opacity="0.1">
        <path d="M19.0942 0L0 19.0942C0.750939 20.882 1.84662 22.4854 3.20152 23.827L23.827 3.20152C22.4881 1.84394 20.882 0.748267 19.0942 0L19.0942 0Z" id="Shape" fill="url(#gradient_4)" fill-rule="evenodd" stroke="none" />
        <path d="M22.0739 2.3998C21.6303 1.54731 21.1038 0.742924 20.5052 0L0 20.5052C0.742924 21.1038 1.54731 21.6303 2.3998 22.0739L22.0739 2.3998L22.0739 2.3998Z" transform="translate(4.321289 4.3212433)" id="Shape" fill="url(#gradient_5)" fill-rule="evenodd" stroke="none" />
      </g>
      <path d="M0 2.00162C0 0.896154 0.896153 0 2.00161 0C3.10708 0 4.00323 0.896154 4.00323 2.00162C4.00323 3.10708 3.10708 4.00323 2.00161 4.00323C0.896153 4.00323 0 3.10708 0 2.00162Z" transform="translate(29.006042 21.96164)" id="Circle" fill="#FFFFFF" fill-opacity="0.6" fill-rule="evenodd" stroke="none" />
      <path d="M0 0.903267C0 0.404406 0.404406 0 0.903265 0C1.40212 0 1.80653 0.404406 1.80653 0.903267C1.80653 1.40213 1.40212 1.80653 0.903265 1.80653C0.404406 1.80653 0 1.40213 0 0.903267Z" transform="translate(32.83557 25.294098)" id="Circle" fill="#FFFFFF" fill-opacity="0.6" fill-rule="evenodd" stroke="none" />
      <path d="M0 2.51204C0 1.12468 1.12468 0 2.51204 0C3.8994 0 5.02408 1.12468 5.02408 2.51204C5.02408 3.8994 3.8994 5.02408 2.51204 5.02408C1.12468 5.02408 0 3.8994 0 2.51204Z" transform="translate(14.756897 11.159882)" id="Circle" fill="#272928" fill-rule="evenodd" stroke="none" />
      <path d="M0.555728 3.23902C-0.185243 2.49805 -0.185243 1.2967 0.555728 0.555727C1.2967 -0.185243 2.49805 -0.185243 3.23902 0.555727C3.97999 1.2967 3.97999 2.49805 3.23902 3.23902C2.49805 3.97999 1.2967 3.97999 0.555728 3.23902Z" transform="translate(15.371094 11.77449)" id="Ellipse" fill="#5E5E5E" fill-rule="evenodd" stroke="none" />
      <path d="M2.40247 3.04117C1.3549 3.04117 0.505081 2.19135 0.505081 1.14378C0.505081 0.713528 0.646717 0.318014 0.887232 0C0.355427 0.33672 0 0.929991 0 1.6061C0 2.65367 0.849818 3.50349 1.89739 3.50349C2.51471 3.50349 3.06522 3.20686 3.40996 2.74988C3.11867 2.93428 2.77394 3.04117 2.40247 3.04117L2.40247 3.04117Z" transform="translate(15.371521 12.065811)" id="Shape" fill="#000000" fill-opacity="0.1" fill-rule="evenodd" stroke="none" />
      <path d="M0.330831 0L6.54412 0C7.25765 0 7.83489 0.577234 7.83489 1.29076L7.83489 21.8254L6.92093 21.8254L6.81136 1.87067C6.7686 1.19189 6.20473 0.662756 5.52327 0.662756L0.330831 0.662756C0.285401 0.662756 0.23997 0.652065 0.197212 0.636032L0.197212 0.636032C-0.128817 0.491719 -0.027267 0 0.330831 0L0.330831 0Z" transform="translate(4.687866 18.420746)" id="Shape" fill="#000000" fill-opacity="0.3" fill-rule="evenodd" stroke="none" />
      <path d="M0 0.448961C0 0.201007 0.201007 0 0.448961 0C0.696916 0 0.897923 0.201007 0.897923 0.448961C0.897923 0.696915 0.696916 0.897922 0.448961 0.897922C0.201007 0.897922 0 0.696915 0 0.448961Z" transform="translate(17.578918 12.266251)" id="Circle" fill="#FFFFFF" fill-opacity="0.5" fill-rule="evenodd" stroke="none" />
      <path d="M0 0.165688C0 0.0741811 0.0741808 0 0.165688 0C0.257194 0 0.331375 0.0741811 0.331375 0.165688C0.331375 0.257195 0.257194 0.331376 0.165688 0.331376C0.0741808 0.331376 0 0.257195 0 0.165688Z" transform="translate(18.257751 13.102707)" id="Circle" fill="#FFFFFF" fill-opacity="0.5" fill-rule="evenodd" stroke="none" />
      <path d="M1.54597 3.84511C0.495621 3.62568 -0.177977 2.59632 0.0414494 1.54597C0.260877 0.495617 1.29024 -0.177978 2.34058 0.0414493C3.39094 0.260874 4.06453 1.29023 3.84511 2.34058C3.62568 3.39093 2.59632 4.06453 1.54597 3.84511Z" transform="translate(14.511536 33.791946)" id="Ellipse" fill="#1F2020" fill-rule="evenodd" stroke="none" />
      <path d="M1.82257 1.49854L1.82257 0.539155L1.63817 0.0501072C1.55533 -0.0167024 1.38429 -0.0167024 1.30145 0.0501072L1.11706 0.539155L1.11706 1.49854C0.475684 1.65621 0 2.23612 0 2.92559C0 3.738 0.657406 4.3954 1.46981 4.3954C2.28222 4.3954 2.93962 3.738 2.93962 2.92559C2.93962 2.23612 2.46394 1.65888 1.82257 1.49854L1.82257 1.49854Z" transform="translate(14.98407 32.809525)" id="Shape" fill="#2B2D2D" fill-rule="evenodd" stroke="none" />
      <path d="M0.432925 0.0962052C0.432925 0.149653 0.33672 0.19241 0.216463 0.19241C0.0962052 0.19241 0 0.149653 0 0.0962052C0 0.0427575 0.0962052 0 0.216463 0C0.33672 0 0.432925 0.0454293 0.432925 0.0962052L0.432925 0.0962052Z" transform="translate(8.361938 9.094116)" id="Shape" fill="#FFFFFF" fill-opacity="0.5" fill-rule="evenodd" stroke="none" />
      <path d="M0.261895 0.0587926C0.261895 0.0908614 0.203102 0.117585 0.130948 0.117585C0.0587928 0.117585 0 0.0908614 0 0.0587926C0 0.0267238 0.0587928 0 0.130948 0C0.203102 1.63109e-06 0.261895 0.0267254 0.261895 0.0587926L0.261895 0.0587926Z" transform="translate(8.74939 9.254456)" id="Shape" fill="#FFFFFF" fill-opacity="0.5" fill-rule="evenodd" stroke="none" />
      <path d="M0.379487 2.70712C0.497072 2.49066 0.603968 2.27152 0.708191 2.04972L0.785691 1.88403L0.804397 1.84127L0.823102 1.80119L0.855169 1.72369C0.900598 1.62214 0.954046 1.52326 1.01284 1.42972C1.13043 1.24266 1.27206 1.06895 1.43508 0.919299C1.59809 0.769646 1.77714 0.641371 1.97223 0.537149C2.16731 0.435598 2.37576 0.358099 2.58955 0.312668C2.69644 0.288616 2.80601 0.272582 2.91558 0.264565C2.96902 0.25922 3.02514 0.256548 3.08126 0.256548L3.12135 0.256548L3.16678 0.256548L3.25764 0.256548L3.62375 0.256548L3.98987 0.253877C4.96529 0.243186 5.94071 0.221808 6.91613 0.181722C7.40518 0.160343 7.89155 0.138964 8.3806 0.106895C8.84292 0.0774998 9.30524 0.0454309 9.76756 0L3.09997 0C1.97757 0 0.972751 0.697492 0.579909 1.75041L0.0106902 3.28169C0.00801846 3.30574 0.00267173 3.32712 0 3.35117C0.0694813 3.24695 0.133619 3.14005 0.197757 3.03315C0.261901 2.92359 0.320696 2.81402 0.379487 2.70712L0.379487 2.70712Z" transform="translate(27.071228 2.445221)" id="Shape" fill="url(#gradient_6)" fill-opacity="0.3" fill-rule="evenodd" stroke="none" />
      <path d="M2.12454 2.34902C2.15661 2.30359 2.18601 2.25816 2.22075 2.21273L2.31962 2.08178C2.35437 2.03903 2.38643 1.99627 2.42118 1.95351L2.47195 1.89204L2.496 1.86265L2.50937 1.84929L2.52006 1.8386L2.54144 1.81454L2.55747 1.78248C2.57885 1.73972 2.62161 1.69161 2.67506 1.64618L2.69376 1.62748C2.70178 1.62213 2.70979 1.61679 2.71514 1.61144C2.73117 1.60075 2.74454 1.59007 2.76057 1.5767C2.79264 1.55532 2.82471 1.53395 2.86212 1.51524C2.88083 1.50455 2.89686 1.49386 2.91557 1.48584L2.97169 1.45645C3.0091 1.43774 3.04652 1.42171 3.0866 1.403C3.12402 1.38429 3.1641 1.36826 3.20419 1.35222L3.32445 1.30412C3.48746 1.24266 3.65582 1.18921 3.82686 1.14111C3.99789 1.09033 4.16892 1.04757 4.3453 1.00482C4.69538 0.921972 5.04814 0.847144 5.40356 0.783008C5.75899 0.716199 6.11709 0.657406 6.47519 0.598613C7.19139 0.486373 7.91293 0.384822 8.63447 0.288617C9.35602 0.192412 10.0802 0.0988785 10.8044 0C10.8018 0 2.9904 0.352755 2.35437 1.6836C2.35437 1.6836 1.08499 3.08393 0 6.53932C0.0908617 6.33088 0.176377 6.12243 0.261895 5.91399L0.398186 5.60399L0.464995 5.44899L0.497063 5.37149L0.531805 5.29399L0.670768 4.98667C0.69482 4.93589 0.716197 4.88511 0.740249 4.83434L0.812402 4.68202L0.956711 4.37736L1.10904 4.07806C1.13576 4.02728 1.15981 3.97651 1.18654 3.9284L1.26671 3.78142C1.32016 3.68254 1.37093 3.58367 1.42705 3.48746C1.48317 3.39126 1.53662 3.29238 1.59274 3.19617L1.76377 2.91023C1.82256 2.81669 1.88136 2.72049 1.94282 2.62962C1.99894 2.53342 2.06041 2.43988 2.12454 2.34902L2.12454 2.34902Z" transform="translate(22.739319 6.5633698)" id="Shape" fill="url(#gradient_7)" fill-opacity="0.3" fill-rule="evenodd" stroke="none" />
      <path d="M4.33995 0.769648C5.7964 0.662752 7.11121 0.37948 8.09732 0C7.92629 0.0320673 7.75793 0.0694813 7.58957 0.0988769C7.50673 0.114911 7.42121 0.130944 7.33837 0.144306C7.25552 0.16034 7.17001 0.173702 7.08716 0.187064C6.75044 0.243183 6.41639 0.291287 6.07967 0.334045C5.4089 0.41956 4.73546 0.478354 4.06202 0.51844C3.38858 0.555854 2.71247 0.574559 2.03903 0.561197C1.36292 0.550507 0.689475 0.50775 0 0.41956C1.06895 0.750942 2.62695 0.895252 4.33995 0.769648L4.33995 0.769648Z" transform="translate(3.6478271 11.643585)" id="Shape" fill="url(#gradient_8)" fill-rule="evenodd" stroke="none" />
    </g>
  </g>
</svg>