<?xml version="1.0" encoding="utf-8"?>
<svg width="75px" height="32px" viewBox="0 0 75 32" version="1.1" xmlns:xlink="http://www.w3.org/1999/xlink" xmlns="http://www.w3.org/2000/svg">
  <g id="exit">
    <g id="Group-33">
      <g id="Group-32">
        <g id="Group-31">
          <g id="Group-31">
            <path d="M5.999 0L69.001 0Q69.1483 0 69.2953 0.00722606Q69.4424 0.0144521 69.589 0.0288868Q69.7356 0.0433215 69.8812 0.0649301Q70.0269 0.0865387 70.1713 0.115269Q70.3158 0.143999 70.4586 0.179782Q70.6015 0.215565 70.7424 0.258315Q70.8833 0.301064 71.022 0.350677Q71.1606 0.40029 71.2967 0.456647Q71.4328 0.513003 71.5659 0.575968Q71.699 0.638933 71.8289 0.708354Q71.9588 0.777776 72.0851 0.853486Q72.2114 0.929196 72.3339 1.01101Q72.4563 1.09283 72.5746 1.18056Q72.6929 1.26828 72.8067 1.36171Q72.9205 1.45514 73.0297 1.55403Q73.1388 1.65293 73.2429 1.75707Q73.3471 1.8612 73.446 1.97032Q73.5449 2.07944 73.6383 2.19327Q73.7317 2.30711 73.8194 2.4254Q73.9072 2.54369 73.989 2.66613Q74.0708 2.78858 74.1465 2.9149Q74.2222 3.04121 74.2916 3.17109Q74.3611 3.30097 74.424 3.4341Q74.487 3.56722 74.5433 3.70328Q74.5997 3.83934 74.6493 3.978Q74.6989 4.11666 74.7417 4.25758Q74.7844 4.39851 74.8202 4.54136Q74.856 4.68422 74.8847 4.82865Q74.9134 4.97309 74.9351 5.11876Q74.9567 5.26444 74.9711 5.411Q74.9855 5.55755 74.9928 5.70464Q75 5.85173 75 5.999L75 26.001Q75 26.1483 74.9928 26.2954Q74.9855 26.4424 74.9711 26.589Q74.9567 26.7356 74.9351 26.8812Q74.9134 27.0269 74.8847 27.1713Q74.856 27.3158 74.8202 27.4586Q74.7844 27.6015 74.7417 27.7424Q74.6989 27.8833 74.6493 28.022Q74.5997 28.1607 74.5433 28.2967Q74.487 28.4328 74.424 28.5659Q74.3611 28.699 74.2916 28.8289Q74.2222 28.9588 74.1465 29.0851Q74.0708 29.2114 73.989 29.3339Q73.9072 29.4563 73.8194 29.5746Q73.7317 29.6929 73.6383 29.8067Q73.5449 29.9206 73.446 30.0297Q73.3471 30.1388 73.2429 30.2429Q73.1388 30.3471 73.0297 30.446Q72.9205 30.5449 72.8067 30.6383Q72.6929 30.7317 72.5746 30.8194Q72.4563 30.9072 72.3339 30.989Q72.2114 31.0708 72.0851 31.1465Q71.9588 31.2222 71.8289 31.2916Q71.699 31.3611 71.5659 31.424Q71.4328 31.487 71.2967 31.5433Q71.1606 31.5997 71.022 31.6493Q70.8833 31.6989 70.7424 31.7417Q70.6015 31.7844 70.4586 31.8202Q70.3158 31.856 70.1713 31.8847Q70.0269 31.9135 69.8812 31.9351Q69.7356 31.9567 69.589 31.9711Q69.4424 31.9855 69.2953 31.9928Q69.1483 32 69.001 32L5.999 32Q5.85173 32 5.70464 31.9928Q5.55755 31.9855 5.411 31.9711Q5.26444 31.9567 5.11876 31.9351Q4.97309 31.9135 4.82865 31.8847Q4.68422 31.856 4.54136 31.8202Q4.39851 31.7844 4.25758 31.7417Q4.11666 31.6989 3.978 31.6493Q3.83934 31.5997 3.70328 31.5434Q3.56722 31.487 3.4341 31.424Q3.30097 31.3611 3.17109 31.2916Q3.04121 31.2222 2.9149 31.1465Q2.78858 31.0708 2.66613 30.989Q2.54369 30.9072 2.4254 30.8194Q2.30711 30.7317 2.19327 30.6383Q2.07944 30.5449 1.97032 30.446Q1.8612 30.3471 1.75707 30.2429Q1.65293 30.1388 1.55403 30.0297Q1.45514 29.9206 1.36171 29.8067Q1.26829 29.6929 1.18056 29.5746Q1.09283 29.4563 1.01101 29.3339Q0.929196 29.2114 0.853486 29.0851Q0.777776 28.9588 0.708354 28.8289Q0.638933 28.699 0.575968 28.5659Q0.513003 28.4328 0.456647 28.2967Q0.40029 28.1607 0.350677 28.022Q0.301064 27.8833 0.258315 27.7424Q0.215565 27.6015 0.179782 27.4586Q0.143999 27.3158 0.115269 27.1713Q0.0865387 27.0269 0.0649301 26.8812Q0.0433215 26.7356 0.0288868 26.589Q0.0144521 26.4424 0.00722606 26.2954Q0 26.1483 0 26.001L0 5.999Q0 5.85173 0.00722606 5.70464Q0.0144521 5.55755 0.0288868 5.411Q0.0433215 5.26444 0.0649301 5.11876Q0.0865387 4.97309 0.115269 4.82865Q0.143999 4.68422 0.179782 4.54136Q0.215565 4.39851 0.258315 4.25758Q0.301064 4.11666 0.350677 3.978Q0.40029 3.83934 0.456647 3.70328Q0.513003 3.56722 0.575968 3.4341Q0.638933 3.30097 0.708354 3.17109Q0.777776 3.04121 0.853486 2.9149Q0.929196 2.78858 1.01101 2.66613Q1.09283 2.54369 1.18056 2.4254Q1.26828 2.30711 1.36171 2.19327Q1.45514 2.07944 1.55403 1.97032Q1.65293 1.8612 1.75707 1.75707Q1.8612 1.65293 1.97032 1.55403Q2.07944 1.45514 2.19327 1.36171Q2.30711 1.26829 2.4254 1.18056Q2.54369 1.09283 2.66613 1.01101Q2.78858 0.929196 2.9149 0.853486Q3.04121 0.777776 3.17109 0.708354Q3.30097 0.638933 3.4341 0.575968Q3.56722 0.513003 3.70328 0.456647Q3.83934 0.40029 3.978 0.350677Q4.11666 0.301064 4.25758 0.258315Q4.39851 0.215565 4.54136 0.179782Q4.68422 0.143999 4.82865 0.115269Q4.97309 0.0865387 5.11876 0.0649301Q5.26444 0.0433215 5.411 0.0288868Q5.55755 0.0144521 5.70464 0.00722606Q5.85173 0 5.999 0Z" id="Rectangle" fill="#94CF00" fill-rule="evenodd" stroke="none" />
            <g id="EXIT" fill="#FFFFFF" transform="translate(1.9998779 4.4000015)">
              <path d="M24.083 10.8135L24.4609 5.25L15.2236 5.25Q15.4961 9.49512 15.5664 11.8594L15.8213 18.75L23.6875 18.75Q23.8633 17.9326 23.9863 17.3965Q24.2412 16.3594 24.3115 16.0869Q23.5469 16.2715 23.2129 16.2979Q21.4463 16.4033 20.7871 16.4121L20.875 14.4521Q21.8066 14.4434 22.2813 14.4697Q23.3008 14.5664 23.5557 14.6279Q23.6523 13.9248 23.7754 13.3887Q23.9863 12.501 24.083 12.1758Q21.8945 12.2461 20.9277 12.2197L21.0596 10.541Q21.9385 10.5586 22.6768 10.6289Q23.7578 10.7607 24.083 10.8135ZM36.1943 8.47559Q37.627 5.91797 37.9785 5.25L33.4082 5.25Q33.0391 6.15527 32.7578 6.72656Q32.2744 7.64063 32.0547 8.01855Q31.7119 7.30664 31.4834 6.69141Q31.1055 5.61914 30.9912 5.25L24.9443 5.25Q26.0254 7.31543 27.4316 9.83789Q28.7236 12.0791 29.3037 13.0283Q28.5303 14.3818 27.915 15.4365Q26.333 18.0469 25.8672 18.75L29.4619 18.75Q30.1035 17.6689 31.1934 15.999L32.8633 18.75L36.9502 18.75L33.751 12.5186Q35.377 9.89063 36.1943 8.47559ZM44.5264 5.25L44.1836 12.4307Q44.0869 14.751 43.9551 18.75L39.0244 18.75L38.4268 5.25L44.5264 5.25ZM55.7236 10.7783L55.9785 5.25L45.0449 5.25L45.2646 10.7783L46.5215 10.6465L47.9102 10.5938Q48.0068 11.8506 48.0947 13.1689Q48.2881 16.9746 48.3584 18.75L52.6123 18.75Q52.832 15.0234 52.9287 13.0986Q53.0605 11.1123 53.1133 10.5938Q54.1592 10.6201 54.625 10.6465Q55.3809 10.7256 55.7236 10.7783Z" />
            </g>
          </g>
        </g>
      </g>
    </g>
  </g>
</svg>