<?xml version="1.0" encoding="iso-8859-1"?>
<!-- Generator: Adobe Illustrator 19.0.0, SVG Export Plug-In . SVG Version: 6.00 Build 0)  -->
<svg version="1.1" id="Layer_1" xmlns="http://www.w3.org/2000/svg" xmlns:xlink="http://www.w3.org/1999/xlink" x="0px" y="0px"
	 viewBox="0 0 512 512" style="enable-background:new 0 0 512 512;" xml:space="preserve">
<path style="fill:#F4CD7D;" d="M445.217,100.174v178.087v89.043v89.043c0,30.736-24.917,55.652-55.652,55.652h-267.13
	c-30.736,0-55.652-24.917-55.652-55.652v-89.043v-89.043V100.174H445.217z"/>
<path style="fill:#E28759;" d="M300.522,278.261h144.696c12.295,0,22.261,9.966,22.261,22.261v44.522
	c0,12.295-9.966,22.261-22.261,22.261H300.522h-89.043H66.783c-12.295,0-22.261-9.966-22.261-22.261v-44.522
	c0-12.295,9.966-22.261,22.261-22.261h144.696H300.522z"/>
<path style="fill:#D6774D;" d="M322.783,367.304H189.217l11.13-89.043h111.304L322.783,367.304z"/>
<path style="fill:#FF9B57;" d="M512,33.427v122.399c0,18.442-14.949,33.391-33.391,33.391l-178.087-55.652V512h-89.043V133.565
	L33.391,189.217C14.949,189.217,0,174.268,0,155.826V33.427C0,9.545,24.34-6.615,46.349,2.652l165.129,75.261
	c0-12.295,9.966-22.261,22.261-22.261h44.522c12.295,0,22.261,9.966,22.261,22.261L465.651,2.652C487.66-6.615,512,9.545,512,33.427
	z"/>
<path style="fill:#FC765B;" d="M512,33.427v122.399c0,18.442-14.949,33.391-33.391,33.391l-178.087-55.652h-89.043V77.913
	c0-12.295,9.966-22.261,22.261-22.261h44.522c12.295,0,22.261,9.966,22.261,22.261L465.651,2.652C487.66-6.615,512,9.545,512,33.427
	z"/>
<path style="fill:#C65842;" d="M384,100.174c0,6.147-4.983,11.13-11.13,11.13H139.13c-6.147,0-11.13-4.983-11.13-11.13
	c0-6.147,4.983-11.13,11.13-11.13H372.87C379.017,89.043,384,94.026,384,100.174z"/>
<path style="fill:#DB5E49;" d="M300.522,77.913v55.652h-89.043V77.913c0-12.295,9.966-22.261,22.261-22.261h44.522
	C290.556,55.652,300.522,65.618,300.522,77.913z"/>
<g>
</g>
<g>
</g>
<g>
</g>
<g>
</g>
<g>
</g>
<g>
</g>
<g>
</g>
<g>
</g>
<g>
</g>
<g>
</g>
<g>
</g>
<g>
</g>
<g>
</g>
<g>
</g>
<g>
</g>
</svg>
