<?xml version="1.0" encoding="utf-8"?>
<svg width="250px" height="250px" viewBox="0 0 250 250" version="1.1" xmlns:xlink="http://www.w3.org/1999/xlink" xmlns="http://www.w3.org/2000/svg">
  <g id="Group-44">
    <path d="M0 0L250 0L250 250L0 250L0 0Z" id="Rectangle" fill="#FFFFFF" fill-rule="evenodd" stroke="none" />
    <path d="M96.5578 0C43.24 0 0 43.2343 0 96.5699C0 139.229 27.6667 175.426 66.0397 188.201C70.8712 189.085 72.6318 186.103 72.6318 183.542C72.6318 181.247 72.5488 175.177 72.5014 167.121C45.6409 172.954 39.9736 154.174 39.9736 154.174C35.5808 143.017 29.2496 140.047 29.2496 140.047C20.4818 134.059 29.9135 134.178 29.9135 134.178C39.6061 134.86 44.7043 144.131 44.7043 144.131C53.3179 158.887 67.3083 154.624 72.8097 152.152C73.6871 145.916 76.1828 141.659 78.9394 139.247C57.4972 136.804 34.9525 128.523 34.9525 91.5189C34.9525 80.9726 38.7168 72.3593 44.894 65.6071C43.898 63.1645 40.5843 53.3475 45.8425 40.0509C45.8425 40.0509 53.9463 37.4544 72.3948 49.9448C80.0954 47.805 88.3593 46.7377 96.5698 46.6962C104.774 46.7377 113.032 47.805 120.745 49.9448C139.181 37.4544 147.273 40.0509 147.273 40.0509C152.543 53.3477 149.23 63.1648 148.24 65.6071C154.429 72.3593 158.163 80.9726 158.163 91.5189C158.163 128.618 135.583 136.781 114.076 139.169C117.538 142.151 120.626 148.044 120.626 157.055C120.626 169.96 120.508 180.376 120.508 183.542C120.508 186.126 122.251 189.132 127.147 188.189C165.491 175.391 193.134 139.223 193.134 96.5699C193.134 43.2341 149.894 0 96.558 0" transform="translate(28.56128 31.633423)" id="path16" fill="#1B1817" fill-rule="evenodd" stroke="none" />
  </g>
</svg>