<?xml version="1.0" encoding="utf-8"?>
<svg width="265px" height="265px" viewBox="0 0 265 265" version="1.1" xmlns:xlink="http://www.w3.org/1999/xlink" xmlns="http://www.w3.org/2000/svg">
  <defs>
    <filter id="filter_1">
      <feColorMatrix in="SourceGraphic" type="matrix" values="0 0 0 0 1 0 0 0 0 1 0 0 0 0 1 0 0 0 1 0" />
    </filter>
  </defs>
  <g id="help-svgrepo-com" transform="translate(6.5 6.5)" filter="url(#filter_1)">
    <path d="M125.563 0C56.2163 0 0.000111192 56.2161 0 125.562C-0.000102639 194.908 56.2159 251.125 125.562 251.125C194.908 251.125 251.125 194.909 251.125 125.563C251.125 56.216 194.908 -0.000342131 125.562 0L125.563 0ZM125.563 233.188C66.1229 233.188 17.9376 185.002 17.9375 125.563C17.9374 66.1231 66.1226 17.9377 125.562 17.9375C185.002 17.9373 233.187 66.1224 233.188 125.562C233.188 185.002 185.002 233.188 125.562 233.188L125.563 233.188Z" id="Shape" fill="#000000" fill-rule="evenodd" stroke="#000000" stroke-width="11" />
    <path d="M0 13.4531C0 6.02317 6.02317 0 13.4531 0C20.8831 0 26.9063 6.02317 26.9063 13.4531C26.9063 20.8831 20.8831 26.9063 13.4531 26.9063C6.02317 26.9063 0 20.8831 0 13.4531Z" transform="translate(112.109375 179.375)" id="Circle" fill="#000000" fill-rule="evenodd" stroke="#000000" stroke-width="13" />
    <path d="M53.8126 9.83626e-05L40.3595 9.83626e-05C29.6482 -0.0237866 19.3688 4.22067 11.7947 11.7947C4.22068 19.3687 -0.0237781 29.6482 0.000102639 40.3595L0.000102639 44.8438L17.9376 44.8438L17.9376 40.3595C17.9376 27.9762 27.9762 17.9376 40.3595 17.9376L53.8126 17.9376C61.8232 17.9376 69.2252 22.2112 73.2305 29.1485C77.2358 36.0859 77.2358 44.6331 73.2305 51.5704C69.2252 58.5078 61.8232 62.7813 53.8126 62.7813L35.8751 62.7813L35.8751 103.141L53.8126 103.141L53.8126 80.7188C76.1024 80.7188 94.1719 62.6494 94.172 40.3596C94.1721 18.0697 76.1026 0.000218108 53.8128 9.83626e-05L53.8126 9.83626e-05Z" transform="translate(80.71863 53.8125)" id="Shape" fill="#000000" fill-rule="evenodd" stroke="#000000" stroke-width="12" />
  </g>
</svg>