<?xml version="1.0" encoding="utf-8"?>
<svg width="64px" height="64px" viewBox="0 0 64 64" version="1.1" xmlns:xlink="http://www.w3.org/1999/xlink" xmlns="http://www.w3.org/2000/svg">
  <g id="map">
    <path d="M0 0L64 0L64 64L0 64L0 0Z" id="Rectangle-3" fill="#FFFFFF" fill-opacity="0" fill-rule="evenodd" stroke="none" />
    <g id="Group-46" transform="translate(2.5000305 8)">
      <g id="Group">
        <path d="M29.4412 46.7718L15.924 49.5204L0 46.5266L0 2.99381L15.924 0L29.4412 2.74862L42.9585 0L58.8825 2.99381L58.8825 46.5266L42.9585 49.5204L29.4412 46.7718Z" id="Polygon" fill="#EFE5D5" fill-rule="evenodd" stroke="none" />
        <path d="M0 44.1393L14.6206 46.8879L14.6206 0L0 2.74862L0 44.1393Z" transform="translate(1.2904358 1.3162384)" id="Polygon" fill="#D2C6B3" fill-rule="evenodd" stroke="none" />
        <path d="M13.5302 44.1393L0 46.8879L0 0L13.5302 2.74862L13.5302 44.1393Z" transform="translate(15.911041 1.3162384)" id="Polygon" fill="#C1B5A3" fill-rule="evenodd" stroke="none" />
        <path d="M0 0L7.36192 1.38077L7.36192 10.8138L0 9.39436L0 0Z" transform="translate(1.2904358 31.363983)" id="Polygon" fill="#8DC63F" fill-rule="evenodd" stroke="none" />
        <path d="M14.6206 44.1393L0 46.8879L0 0L14.6206 2.74862L14.6206 44.1393Z" transform="translate(42.971436 1.3162384)" id="Polygon" fill="#C1B5A3" fill-rule="evenodd" stroke="none" />
        <path d="M0 44.1393L13.5302 46.8879L13.5302 0L0 2.74862L0 44.1393Z" transform="translate(29.441254 1.3162384)" id="Polygon" fill="#D2C6B3" fill-rule="evenodd" stroke="none" />
        <path d="M0 2.74863L0 4.66492L14.6206 1.91629L14.6206 0L0 2.74863Z" transform="translate(42.971436 37.59677)" id="Polygon" fill="#F1F2F2" fill-rule="evenodd" stroke="none" />
        <path d="M3.70354 0L0 0.696833L0 1.60014L3.70354 0.903303L3.70354 0Z" transform="translate(5.148834 17.266022)" id="Polygon" fill="#F1F2F2" fill-rule="evenodd" stroke="none" />
        <path d="M1.29044 0L0 0.258087L0 10.3493L1.29044 10.0912L1.29044 0Z" transform="translate(29.441254 3.8067627)" id="Polygon" fill="#FBF43F" fill-rule="evenodd" stroke="none" />
        <path d="M3.25189 0L3.25189 2.90993L0 3.52288L0 0.612956L3.25189 0Z" transform="translate(5.600464 18.169312)" id="Polygon" fill="#C49A6C" fill-rule="evenodd" stroke="none" />
        <path d="M0 0L0 17.8338L2.29052 17.4402L2.29052 0.425844L0 0Z" transform="translate(47.22342 15.517456)" id="Polygon" fill="#FBF43F" fill-rule="evenodd" stroke="none" />
        <path d="M4.31005 11.9172L14.6206 9.9815L14.6206 6.67154L7.56194 7.99424L7.56194 0L6.06504 0.303252L6.06504 8.27813L0 9.42017L0 12.7301L2.81314 12.2011L2.81314 19.5049L4.31005 19.2017L4.31005 17.8532L7.36192 17.2789L7.36192 24.8086L8.85883 24.957L8.85883 18.7758L14.6206 18.1822L14.6206 16.9886L8.85883 17.5886L8.85883 16.0853L7.50387 16.3562L4.31005 16.9563L4.31005 11.9172Z" transform="translate(1.2904358 4.7358704)" id="Polygon" fill="#F1F2F2" fill-rule="evenodd" stroke="none" />
        <path d="M13.5302 6.06504L13.5302 2.75507L0 0L0 3.30996L5.70372 4.47135L5.70372 19.5049L0 20.2792L0 21.7245L5.70372 20.9502L5.70372 28.4089L0 29.5703L0 32.8803L13.5302 30.1187L13.5302 26.8088L8.68462 27.8024L8.68462 11.7107L13.5302 12.6333L13.5302 9.8073L8.68462 8.87819L8.68462 5.07786L13.5302 6.06504Z" transform="translate(15.911041 11.40097)" id="Polygon" fill="#E5E5E5" fill-rule="evenodd" stroke="none" />
        <path d="M0 8.44589L0 0.335514L1.94855 0L1.94855 8.81366L0 8.44589Z" transform="translate(11.801025 32.015656)" id="Polygon" fill="#FBF43F" fill-rule="evenodd" stroke="none" />
        <path d="M11.2397 0.800069L11.2397 7.56839L7.82648 8.26523L7.82648 8.26523L7.11029 8.41363L0 9.85891L0 13.1689L6.76187 11.7946L6.76187 15.924L0 16.9111L0 21.5115L7.82648 20.4663L7.82648 15.7691L7.82648 11.5752L13.5302 10.4138L13.5302 7.18126L13.5302 7.10384L13.5302 0L11.2397 0.800069Z" transform="translate(29.441254 4.2971497)" id="Polygon" fill="#E5E5E5" fill-rule="evenodd" stroke="none" />
        <path d="M4.85203 0L4.85203 1.56143L4.85203 3.30996L4.85203 6.85221L0 5.85857L0 9.16854L4.85203 10.1557L4.85203 10.1557L7.87165 10.7751L7.87165 7.46516L7.87165 3.92292L11.2397 4.60685L11.2397 9.44598L13.5302 9.91053L13.5302 5.07141L13.5302 1.76144L4.85203 0Z" transform="translate(29.441254 32.351196)" id="Polygon" fill="#E5E5E5" fill-rule="evenodd" stroke="none" />
        <path d="M0 2.74863L14.6206 0L14.6206 2.92283L0 5.67146L0 2.74863Z" transform="translate(42.971436 34.67395)" id="Polygon" fill="#8DC63F" fill-rule="evenodd" stroke="none" />
        <path d="M12.7495 10.6267L12.7495 0.535529L9.89117 0L9.89117 10.0912L0 8.23297L0 11.5429L14.6206 14.2916L14.6206 10.9816L12.7495 10.6267Z" transform="translate(42.971436 3.174469)" id="Polygon" fill="#F1F2F2" fill-rule="evenodd" stroke="none" />
        <path d="M3.96808 0L3.96808 0L3.96808 0C1.77435 0 0 1.77435 0 3.96808L0 3.96808C0 4.72299 0.103235 5.47789 0.322608 6.20054C0.748452 7.63292 1.72273 9.80085 3.97454 11.8333C6.21989 9.80085 7.20062 7.63292 7.62646 6.20054C7.83939 5.47789 7.94907 4.72299 7.94907 3.96809L7.94907 3.96809C7.94262 1.77435 6.16182 0 3.96808 0L3.96808 0ZM3.96809 5.43918C2.97446 5.43918 2.16794 4.63266 2.16794 3.63902C2.16794 2.64539 2.97446 1.83887 3.96809 1.83887C4.96173 1.83887 5.76825 2.64539 5.76825 3.63902C5.7747 4.63266 4.96818 5.43918 3.96809 5.43918L3.96809 5.43918Z" transform="translate(11.942963 10.200867)" id="Shape" fill="#F7941E" fill-rule="evenodd" stroke="none" />
        <path d="M1.01299 0L0 0.903304L0.219371 0.903304L0.219371 1.89049L1.80015 1.89049L1.80015 0.903304L2.02598 0.903304L1.01299 0Z" transform="translate(31.596283 10.671875)" id="Polygon" fill="#58595B" fill-rule="evenodd" stroke="none" />
        <path d="M1.01299 0L0 0.903303L0.219371 0.903303L0.219371 1.88403L1.80015 1.88403L1.80015 0.903303L2.02598 0.903303L1.01299 0Z" transform="translate(44.423187 17.466034)" id="Polygon" fill="#58595B" fill-rule="evenodd" stroke="none" />
        <path d="M1.01299 0L0 0.909757L0.225826 0.909757L0.225826 1.89049L1.80016 1.89049L1.80016 0.909757L2.02598 0.909757L1.01299 0Z" transform="translate(35.719208 25.447357)" id="Polygon" fill="#58595B" fill-rule="evenodd" stroke="none" />
        <path d="M1.01299 0L0 0.903304L0.219372 0.903304L0.219372 1.89049L1.80015 1.89049L1.80015 0.903304L2.02598 0.903304L1.01299 0Z" transform="translate(18.87259 28.421814)" id="Polygon" fill="#58595B" fill-rule="evenodd" stroke="none" />
        <path d="M1.01299 0L0 0.903303L0.225826 0.903303L0.225826 1.88403L1.80661 1.88403L1.80661 0.903303L2.02598 0.903303L1.01299 0Z" transform="translate(5.148834 29.37027)" id="Polygon" fill="#58595B" fill-rule="evenodd" stroke="none" />
        <path d="M1.01299 0L0 0.903303L0.225826 0.903303L0.225826 1.89048L1.80015 1.89048L1.80015 0.903303L2.02598 0.903303L1.01299 0Z" transform="translate(25.098938 36.47412)" id="Polygon" fill="#58595B" fill-rule="evenodd" stroke="none" />
        <path d="M14.6206 3.30996L0 6.05859L0 2.74862L14.6206 0L14.6206 3.30996Z" transform="translate(42.971436 31.363983)" id="Polygon" fill="#F1F2F2" fill-rule="evenodd" stroke="none" />
        <path d="M3.96808 0L3.96808 0L3.96808 0C1.77435 0 0 1.77435 0 3.96809L0 3.96809C0 4.72299 0.103233 5.4779 0.322608 6.20054C0.74845 7.63292 1.72273 9.80085 3.97453 11.8333C6.21989 9.80085 7.20062 7.63292 7.62646 6.20054C7.83938 5.47789 7.94907 4.72299 7.94907 3.96809L7.94907 3.96809C7.93616 1.77435 6.15537 0 3.96808 0L3.96808 0ZM3.96809 5.43918C2.97446 5.43918 2.16794 4.63266 2.16794 3.63902C2.16794 2.64539 2.97446 1.83887 3.96809 1.83887C4.96173 1.83887 5.76825 2.64539 5.76825 3.63902C5.76825 4.63266 4.96173 5.43918 3.96809 5.43918L3.96809 5.43918Z" transform="translate(39.4292 26.395813)" id="Shape" fill="#F7941E" fill-rule="evenodd" stroke="none" />
        <path d="M0 3.30996L14.6206 6.05858L14.6206 2.74862L0 0L0 3.30996Z" transform="translate(1.2904358 38.216187)" id="Polygon" fill="#F1F2F2" fill-rule="evenodd" stroke="none" />
      </g>
    </g>
  </g>
</svg>