<?xml version="1.0" encoding="utf-8"?>
<svg width="80px" height="35px" viewBox="0 0 80 35" version="1.1" xmlns:xlink="http://www.w3.org/1999/xlink" xmlns="http://www.w3.org/2000/svg">
  <defs>
    <filter id="filter_1">
      <feColorMatrix in="SourceGraphic" type="matrix" values="0 0 0 0 1 0 0 0 0 1 0 0 0 0 1 0 0 0 1 0" />
    </filter>
    <path d="M0 0L23.8679 0L23.8679 23.8679L0 23.8679L0 0Z" id="path_1" />
    <clipPath id="mask_1">
      <use xlink:href="#path_1" />
    </clipPath>
  </defs>
  <g id="undo">
    <g id="Group-45" transform="translate(0 -3.0517578E-05)">
      <g id="Group-44" transform="translate(0 2.6679153)">
        <g id="Group-33">
          <g id="Group-32">
            <g id="Group-31">
              <g id="Group-31">
                <path d="M11 0L69 0L79.5 15.9238L69 32L11 32L0 15.9238L11 0Z" id="Rectangle" fill="#38A9FF" fill-rule="evenodd" stroke="none" />
                <g id="Undo" fill="#FFFFFF" transform="translate(19 12)">
                  <path d="M42.3698 13.9063Q43.7917 12 43.7917 9.24219Q43.7917 6.3125 42.2682 4.625Q40.8307 3.03906 38.5495 3.03906Q36.2292 3.03906 34.7917 4.61719Q33.2682 6.29688 33.2682 9.24219Q33.2682 12 34.6667 13.8906Q36.151 15.8984 38.5495 15.8984Q40.8776 15.8984 42.3698 13.9063ZM32.7214 9.59375Q32.7214 12.4141 30.9714 14.0313Q29.1667 15.7109 25.8854 15.7109Q23.776 15.7109 22.6276 15.5L22.4167 9.69531Q22.3151 7.46094 22.0495 3.53125Q23.7448 3.28906 25.5885 3.28906Q28.8776 3.28906 30.737 4.82031Q32.7214 6.46094 32.7214 9.59375ZM10.987 8.55469L11.1667 3.5L7.30729 3.5Q7.51823 6.625 7.59636 8.38281Q7.69011 11.8906 7.69011 13.5Q7.35417 13.6563 7.08073 13.6563Q6.11979 13.6563 5.79948 12.9844Q5.49479 12.3516 5.48698 10.5391Q5.44792 8.15625 5.47136 6.85938Q5.52604 4.53125 5.56511 3.5L0.526043 3.5Q0.58073 5.64063 0.815105 8.23438Q1.05729 11.0391 1.33073 12.0938Q1.79948 13.9297 2.93229 14.7969Q4.26823 15.8203 6.83073 15.8203Q8.90885 15.8203 10.9089 15.1016Q10.9089 10.7188 10.987 8.55469ZM21.1042 9.00781Q21.2995 5.07813 21.4089 3.5L18.5104 3.5Q18.5807 4.28906 18.6042 4.76563Q18.6354 5.30469 18.6354 6.25L15.7292 3.5L11.8073 3.5Q12.0104 5.95313 12.2057 9.51563Q12.4323 13.9141 12.4948 15.5L15.0104 15.5L15.0885 11.3594Q16.8854 12.625 17.7917 13.2578Q19.8854 14.8516 20.9089 15.6563Q20.987 11.8984 21.1042 9.00781ZM29.5182 10.5547Q29.5182 9.40625 28.776 8.85938Q28.1589 8.40625 27.1979 8.44531L27.0885 13.3438Q28.0885 13.2813 28.7214 12.6953Q29.5182 11.9688 29.5182 10.5547ZM38.5651 8.44531Q40.0339 8.44531 40.0339 10.6172Q40.0339 11.4609 39.612 12.25Q39.151 13.1172 38.5495 13.1172Q37.9323 13.1172 37.5104 12.2656Q37.1354 11.5078 37.1354 10.6328Q37.1354 8.44531 38.5651 8.44531Z" />
                </g>
              </g>
            </g>
          </g>
        </g>
      </g>
      <g id="undo-svgrepo-com" transform="translate(27.13208 0)" filter="url(#filter_1)">
        <path d="M0 0L23.8679 0L23.8679 23.8679L0 23.8679L0 0Z" id="Background" fill="none" fill-rule="evenodd" stroke="none" />
        <g clip-path="url(#mask_1)">
          <g id="Group">
            <g id="Group">
              <path d="M1.0433e-06 23.8679L0 1.89685e-06L23.8679 0L23.8679 23.8679L1.0433e-06 23.8679Z" id="Rectangle" fill="#000000" fill-opacity="0" fill-rule="evenodd" stroke="none" />
              <path d="M17.6214 16.9119C17.1533 16.9255 16.7391 16.6107 16.6269 16.1561C15.7094 12.5205 12.6028 9.85601 8.86987 9.50289L8.86987 10.6167C8.86944 11.3292 8.44222 11.9718 7.78564 12.2478C7.0744 12.5746 6.23758 12.4539 5.6477 11.9394L0.615542 7.55368C0.225005 7.22112 2.37107e-07 6.734 0 6.22105C0 5.70811 0.225005 5.22098 0.615542 4.88843L5.6477 0.492748C6.24579 -0.0310605 7.09835 -0.148386 7.8157 0.194399C8.47223 0.470486 8.89937 1.11315 8.8997 1.82537L8.8997 2.98894C14.4994 3.42188 18.8389 8.06368 18.8944 13.6798C18.893 14.5146 18.7895 15.3462 18.5861 16.156C18.474 16.6107 18.0598 16.9255 17.5916 16.9119L17.6214 16.9119Z" transform="translate(2.4872437 3.972536)" id="Shape" fill="#000000" fill-rule="evenodd" stroke="none" />
            </g>
          </g>
        </g>
      </g>
    </g>
  </g>
</svg>