<?xml version="1.0" encoding="utf-8"?>
<svg width="43px" height="39px" viewBox="0 0 43 39" version="1.1" xmlns:xlink="http://www.w3.org/1999/xlink" xmlns="http://www.w3.org/2000/svg">
  <defs>
    <filter id="filter_1">
      <feColorMatrix in="SourceGraphic" type="matrix" values="0 0 0 0 1 0 0 0 0 1 0 0 0 0 1 0 0 0 1 0" />
    </filter>
  </defs>
  <g id="whiteCat" transform="translate(1 1)" filter="url(#filter_1)">
    <g id="Group">
      <path d="M26.1682 0.0623531C26.3553 -0.0623569 26.6671 5.72205e-06 26.7294 0.249426L28.3506 6.9215C28.3506 6.9215 32.3414 9.85221 33.5262 11.9099C35.5216 15.3395 35.5839 18.1455 35.5839 18.1455C35.5839 18.1455 40.0112 19.455 40.7594 23.0093C41.5077 26.5635 38.7641 33.298 27.0412 35.6051C15.3183 37.9123 5.90262 34.7321 1.47536 27.6236C-2.95191 20.515 4.03195 12.0347 3.65781 12.5335L2.34834 1.37183C2.28599 1.12241 2.59778 0.935354 2.84718 1.06006L10.3922 5.98615C10.3922 5.98615 13.1982 4.92611 16.129 4.8014C17.8749 4.67669 19.3714 4.8014 20.8056 5.05082L26.1682 0.0623531Z" id="Shape" fill="#FFAB19" fill-rule="evenodd" stroke="#FF9D00" stroke-width="2" />
      <path d="M28.0512 0.221998C28.0512 0.221998 32.3537 1.3444 33.1019 4.89868C33.8502 8.45296 30.8571 14.8756 19.259 17.1204C4.1689 20.2382 -3.00201 11.259 1.17583 4.64926C5.35366 -2.0228 12.5246 3.65156 17.7624 3.27743C22.252 2.96565 22.7509 -0.962755 28.0511 0.221998L28.0512 0.221998Z" transform="translate(7.345703 18.172935)" id="Shape" fill="#FFFFFF" fill-rule="evenodd" stroke="none" />
      <path d="M2.87003 0C4.17949 0 5.55133 0.12471 5.61368 0.561203C5.67603 1.43419 4.7407 3.18015 3.74302 3.24251C2.62061 3.36722 0.00168228 1.80833 0.00168228 0.810638C-0.0606651 0.0623627 1.62293 1.52588e-05 2.87004 1.52588e-05L2.87003 0Z" transform="translate(21.988708 19.829123)" id="Shape" fill="#262626" fill-rule="evenodd" stroke="none" />
      <path d="M7.7564 3.42C9.5647 6.226 9.62707 9.40614 7.88111 10.5285C6.13515 11.651 3.26678 10.3415 1.39613 7.53547C-0.412178 4.72948 -0.474541 1.54933 1.27142 0.426924C3.01737 -0.75783 5.9481 0.613997 7.7564 3.42L7.7564 3.42Z" transform="translate(24.460327 9.113518)" id="Shape" fill="#FFFFFF" fill-rule="evenodd" stroke="none" />
      <path d="M2.24481 1.24712C2.24481 1.93303 1.74596 2.49423 1.12241 2.49423C0.49884 2.49423 0 1.93303 0 1.24712C0 0.561203 0.49884 0 1.12241 0C1.74597 0 2.24481 0.561203 2.24481 1.24712" transform="translate(29.722473 14.840658)" id="Shape" fill="#001026" fill-rule="evenodd" stroke="none" />
      <path d="M8.12333 3.36009C9.994 6.10374 9.86929 9.47094 8.18568 10.6557C6.12794 11.8404 3.38429 10.9675 1.51362 8.22383C-0.419392 5.48017 -0.544102 1.9259 1.38891 0.554071C3.32193 -0.880102 6.25267 0.616434 8.12333 3.36009L8.12333 3.36009Z" transform="translate(8.62915 10.919384)" id="Shape" fill="#FFFFFF" fill-rule="evenodd" stroke="none" />
      <path d="M2.24481 1.24712C2.24481 1.93303 1.74597 2.49423 1.12241 2.49423C0.49884 2.49423 0 1.93303 0 1.24712C0 0.561203 0.49884 0 1.12241 0C1.74597 0.0623474 2.24481 0.561203 2.24481 1.24712" transform="translate(14.133545 16.648977)" id="Shape" fill="#001026" fill-rule="evenodd" stroke="none" />
    </g>
    <g id="Group" transform="translate(14.373169 24.877533)">
      <path d="M10.707 1.748C7.5483 3.09735 7.97763 7.02274 9.72565 7.42142C8.62164 8.77077 5.03359 8.4641 3.40824 7.85075C-2.51051 5.64273 1.07755 0 1.07755 0C1.07755 0 5.49359 3.46538 14.111 1.07335" id="Shape" fill="#B74E6C" fill-rule="evenodd" stroke="none" />
      <path d="M0 0.775383C0 0.775383 1.62535 -0.205956 3.55737 0.0393753C5.15205 0.254051 7.14542 2.03274 7.14542 2.03274C7.14542 2.03274 3.06671 3.01409 0 0.775383L0 0.775383Z" transform="translate(1.5682373 6.063347)" id="Shape" fill="#FF6680" fill-rule="evenodd" stroke="none" />
    </g>
  </g>
</svg>