<?xml version="1.0" encoding="utf-8"?>
<svg width="64px" height="64px" viewBox="0 0 64 64" version="1.1" xmlns:xlink="http://www.w3.org/1999/xlink" xmlns="http://www.w3.org/2000/svg">
  <g id="sushi">
    <path d="M0 0L64 0L64 64L0 64L0 0Z" id="Rectangle" fill="#FFFFFF" fill-opacity="0" fill-rule="evenodd" stroke="none" />
    <g id="Group-17" transform="translate(10 9.085114)">
      <g id="Group">
        <g id="Group">
          <path d="M0 0L0 30.3716C0 34.13 10.2542 37.1932 22.8764 37.1932C35.5204 37.1932 45.7528 34.1517 45.7528 30.3716L45.7528 0L0 0L0 0Z" transform="translate(0 6.8216515)" id="Shape" fill="#0D1607" fill-rule="evenodd" stroke="none" />
          <path d="M22.8764 6.82166C10.2325 6.82166 0 3.78016 0 0L0 5.08366C0 8.84208 10.2542 11.9053 22.8764 11.9053C35.5204 11.9053 45.7529 8.86381 45.7529 5.08366L45.7529 0C45.7746 3.75842 35.5204 6.82166 22.8764 6.82166L22.8764 6.82166Z" transform="translate(0 32.109547)" id="Shape" fill="#091203" fill-rule="evenodd" stroke="none" />
          <path d="M0 6.82165C0 3.05416 10.2421 0 22.8764 0C35.5107 0 45.7528 3.05416 45.7528 6.82165C45.7528 10.5891 35.5107 13.6433 22.8764 13.6433C10.2421 13.6433 0 10.5891 0 6.82165Z" id="Ellipse" fill="#D1D3D4" fill-rule="evenodd" stroke="none" />
          <path d="M0 6.03955C0 2.704 9.09438 0 20.3129 0C31.5314 0 40.6257 2.704 40.6257 6.03955C40.6257 9.3751 31.5314 12.0791 20.3129 12.0791C9.09438 12.0791 0 9.3751 0 6.03955Z" transform="translate(2.5635986 0.7821045)" id="Ellipse" fill="#FFFFFF" fill-rule="evenodd" stroke="none" />
          <g id="Group" transform="translate(2.4765625 0.73862076)">
            <path d="M0.695189 0.108612C0.695189 0.434487 0.412754 0.69519 0 0.868987C0.4345 1.02106 0.782094 1.23831 0.890719 1.49902C1.21659 1.54247 1.56419 1.58592 1.97697 1.58592C2.95459 1.58592 3.73669 1.39039 4.14947 1.15142C3.21528 0.716923 2.12903 0.347595 0.890719 0C0.825534 0.0217197 0.760375 0.0217197 0.695189 0.0434527C0.695189 0.0651591 0.695189 0.0868921 0.695189 0.108612L0.695189 0.108612Z" transform="translate(33.326233 1.6511383)" id="Shape" fill="#FFFFFF" fill-rule="evenodd" stroke="none" />
            <path d="M0.521392 0.825561C0.521392 0.999358 0.434486 1.15144 0.282422 1.30351C0.369327 1.30351 0.434486 1.30351 0.521392 1.30351C0.999331 1.30351 1.45558 1.34697 1.89008 1.43386C2.45492 1.26006 2.80252 1.02108 2.80252 0.803828C2.80252 0.716923 2.73733 0.608298 2.65045 0.521405C1.89008 0.325875 1.06452 0.152078 0.21725 0C0.152078 0.0434527 0.0869052 0.0869053 0 0.130345C0.304142 0.325888 0.521392 0.543138 0.521392 0.825561L0.521392 0.825561Z" transform="translate(30.958252 0.9559059)" id="Shape" fill="#FFFFFF" fill-rule="evenodd" stroke="none" />
            <path d="M0.825534 0.825534C0.825534 1.02106 0.716909 1.19486 0.521379 1.34694C0.803814 1.30349 1.10794 1.28177 1.39038 1.28177C1.45556 1.28177 1.499 1.28177 1.56419 1.28177C1.82488 1.06452 2.25938 0.91244 2.73734 0.825547C2.71562 0.4345 1.67281 0 0.21725 0C0.152064 0 0.0651856 0 0 0C0.499659 0.195504 0.825534 0.477926 0.825534 0.825534L0.825534 0.825534Z" transform="translate(31.218872 2.5418663)" id="Shape" fill="#FFFFFF" fill-rule="evenodd" stroke="none" />
            <path d="M0 0.37137C0.369328 0.523448 0.63003 0.697245 0.738655 0.936215C1.10797 1.06656 1.41212 1.24037 1.56422 1.45762C1.86837 1.39245 2.21597 1.349 2.56356 1.32728C2.75909 1.2621 2.97634 1.21865 3.19359 1.1752C2.4984 0.979667 1.977 0.675525 1.977 0.241025C1.977 0.15412 1.99872 0.0672276 2.04218 0.00205528C1.12969 -0.0196777 0.41278 0.1324 0 0.37137L0 0.37137Z" transform="translate(30.523682 4.169174)" id="Shape" fill="#FFFFFF" fill-rule="evenodd" stroke="none" />
            <path d="M2.52009 0C1.04278 0 0 0.4345 0 0.847281C0 1.23833 1.04281 1.69456 2.52009 1.69456C2.6939 1.69456 2.86769 1.69456 3.0415 1.67284C3.10668 1.45559 3.30219 1.28179 3.5629 1.15144C3.23703 0.977638 3.01978 0.738656 3.01978 0.456233C3.01978 0.304155 3.08496 0.173811 3.19359 0.0434527C2.97631 0 2.75906 0 2.52009 0L2.52009 0Z" transform="translate(32.78302 3.5412025)" id="Shape" fill="#FFFFFF" fill-rule="evenodd" stroke="none" />
            <path d="M0 0.825548C0 0.999345 0.21725 1.19488 0.608311 1.36867C1.12972 1.17314 1.84663 1.08625 2.52012 1.08625C2.95462 1.08625 3.3674 1.1297 3.78018 1.19488C3.3674 0.782095 2.80256 0.391047 2.10737 0C0.84728 0.0868921 0 0.47794 0 0.825548L0 0.825548Z" transform="translate(36.085266 3.1501503)" id="Shape" fill="#FFFFFF" fill-rule="evenodd" stroke="none" />
            <path d="M0.477939 0C0.304129 0 0.152064 0 0 0.0217197C1.02106 0.152064 1.86834 0.521392 1.86834 1.08625C1.86834 1.26005 1.78144 1.43384 1.62937 1.5642C1.67281 1.5642 1.71628 1.5642 1.75972 1.54248C1.8249 1.52076 1.91178 1.52076 1.97697 1.49903C1.97697 1.47731 1.97697 1.45558 1.97697 1.41213C1.97697 1.15142 2.1725 0.912453 2.47665 0.738655C1.95525 0.586578 1.56422 0.347608 1.43384 0.0434527C1.12969 0.021733 0.803814 0 0.477939 0L0.477939 0Z" transform="translate(34.434143 5.5181694)" id="Shape" fill="#FFFFFF" fill-rule="evenodd" stroke="none" />
            <path d="M2.52009 0C1.04278 0 0 0.4345 0 0.847281C0 1.10798 0.477939 1.41213 1.23831 1.5642C1.75972 1.39041 2.43319 1.28178 3.10666 1.28178C3.54116 1.28178 3.97566 1.32523 4.36672 1.39041C4.45362 1.34695 4.54053 1.32523 4.62741 1.28178C4.56222 0.912453 4.38844 0.543125 4.12772 0.19553C3.69325 0.0868921 3.15012 0 2.52009 0L2.52009 0Z" transform="translate(36.085266 4.5188293)" id="Shape" fill="#FFFFFF" fill-rule="evenodd" stroke="none" />
            <path d="M2.52009 0C1.04278 0 0 0.4345 0 0.847281C0 0.890733 0 0.912453 0.0217197 0.955906C0.0434394 0.955906 0.0869053 0.955906 0.108625 0.955906C1.19487 0.955906 2.34631 1.21661 2.75906 1.69456C2.93287 1.69456 3.10666 1.67284 3.28047 1.65111C3.71497 1.19489 3.97566 0.695203 4.04084 0.19553C3.62806 0.0651724 3.10666 0 2.52009 0L2.52009 0Z" transform="translate(36.671814 6.1047516)" id="Shape" fill="#FFFFFF" fill-rule="evenodd" stroke="none" />
            <path d="M39.9523 7.73412C39.7785 7.75584 39.6264 7.75584 39.4309 7.77758C39.0181 7.29962 37.8667 7.03892 36.7805 7.03892C36.7588 7.03892 36.7153 7.03892 36.6936 7.03892C36.6718 6.99547 36.6718 6.97375 36.6718 6.93029C36.6718 6.53925 37.7147 6.08301 39.1919 6.08301C39.7785 6.08301 40.2999 6.14819 40.7127 6.25681C40.7127 6.19164 40.7344 6.12647 40.7344 6.06128C40.7344 5.97438 40.7344 5.88748 40.7127 5.77886C40.6475 5.82231 40.5606 5.84403 40.452 5.88748C40.0609 5.82231 39.6264 5.77886 39.1919 5.77886C38.5402 5.77886 37.8667 5.86576 37.3236 6.06128C36.5632 5.9092 36.0853 5.60506 36.0853 5.34436C36.0853 4.95331 37.1281 4.49708 38.6054 4.49708C39.2354 4.49708 39.7785 4.58398 40.1913 4.69261C40.0827 4.56226 39.9741 4.43191 39.8437 4.30156C39.4527 4.23639 39.0182 4.19294 38.5837 4.19294C37.9102 4.19294 37.215 4.30156 36.6718 4.47536C36.2808 4.32328 36.0635 4.12776 36.0635 3.93223C36.0635 3.58464 36.9108 3.17186 38.1491 3.10669C37.9319 2.99806 37.6929 2.86772 37.4539 2.75909C37.0412 2.99806 36.2591 3.19359 35.2814 3.19359C34.8904 3.19359 34.5211 3.17187 34.1952 3.10669C34.0648 2.84598 33.739 2.62873 33.3045 2.47666C33.739 2.28113 33.9997 2.04216 33.9997 1.71628C33.9997 1.69456 33.9997 1.67283 33.9997 1.65111C34.0648 1.62939 34.13 1.62939 34.1952 1.60766C33.9779 1.54248 33.7824 1.49903 33.5652 1.43386C33.6738 1.52076 33.7172 1.62939 33.7172 1.71628C33.7172 1.93353 33.3696 2.19423 32.8048 2.34631C32.3703 2.25941 31.9141 2.21597 31.4361 2.21597C31.3709 2.21597 31.284 2.21597 31.1971 2.21597C31.3492 2.08562 31.4361 1.91181 31.4361 1.73801C31.4361 1.45559 31.2189 1.21661 30.893 1.04281C30.9799 0.999358 31.0451 0.955906 31.1102 0.912466C30.9582 0.890746 30.8278 0.869013 30.6757 0.825561C30.6323 0.847281 30.5888 0.869013 30.5237 0.890733C30.0022 0.695203 29.2853 0.608311 28.6119 0.608311C27.9384 0.608311 27.2432 0.716936 26.7001 0.890733C26.309 0.738655 26.0918 0.543138 26.0918 0.347608C26.0918 0.304155 26.1135 0.260703 26.1135 0.238983C26.0049 0.238983 25.9179 0.217263 25.8093 0.217263C25.7876 0.260716 25.7876 0.304169 25.7876 0.347608C25.7876 0.63003 26.0049 0.869013 26.3307 1.04281C26.07 1.19489 25.8745 1.36869 25.8093 1.56422C25.6355 1.58594 25.4617 1.58594 25.2879 1.58594C23.8106 1.58594 22.7678 1.15144 22.7678 0.738655C22.7678 0.499686 23.1589 0.238983 23.8106 0.0651856C23.5499 0.0434659 23.3109 0.0434659 23.0502 0.021733C22.9633 0.0651856 22.8764 0.130358 22.7895 0.19553C22.7244 0.19553 22.6809 0.19553 22.6157 0.19553C21.8771 0.19553 21.1167 0.304155 20.5736 0.543125C19.8784 0.45622 19.357 0.260703 19.0963 0.0434527C19.0963 0.021733 19.0746 0.021733 19.0746 0C18.9225 0 18.7922 0 18.6401 0C18.8139 0.108625 18.9225 0.23897 18.9225 0.369328C18.9225 0.760375 17.8797 1.21661 16.4024 1.21661C16.0114 1.21661 15.642 1.19489 15.3162 1.1297C15.1858 0.869 14.8599 0.65175 14.4254 0.499672C14.621 0.412767 14.773 0.325875 14.8817 0.21725C14.6644 0.23897 14.4254 0.260703 14.2082 0.282422C14.1213 0.325875 14.0344 0.347595 13.9258 0.369328C13.8389 0.347608 13.7737 0.347608 13.6868 0.325875C12.4702 0.45622 11.297 0.608297 10.2108 0.803828C10.6236 0.955906 10.8408 1.15142 10.8408 1.34695C10.8408 1.5642 10.4932 1.82491 9.92837 1.97698C9.49387 1.89008 9.03765 1.84664 8.5597 1.84664C8.53798 1.84664 8.51624 1.84664 8.47279 1.84664C7.97312 1.69456 7.36482 1.62939 6.75651 1.62939C6.64788 1.62939 6.56098 1.62939 6.45235 1.62939C5.99613 1.75973 5.58335 1.89009 5.17057 2.02044C5.19229 2.04216 5.19229 2.08561 5.19229 2.10734C5.19229 2.32459 4.8447 2.58529 4.27984 2.73737C4.04087 2.69392 3.80189 2.65047 3.54119 2.62875C3.34566 2.71565 3.15014 2.80254 2.95461 2.88945C4.38845 2.88945 5.38781 3.32395 5.43126 3.715C5.43126 3.715 5.40954 3.715 5.40954 3.715C5.0185 3.64982 4.60572 3.60637 4.19295 3.60637C3.715 3.60637 3.23704 3.64982 2.80254 3.75845C2.6722 3.58465 2.45495 3.43257 2.17251 3.32395C2.06389 3.38912 1.95526 3.45429 1.84664 3.51948C2.32459 3.67156 2.60701 3.91053 2.60701 4.10606C2.60701 4.32331 2.25942 4.58401 1.69456 4.73609C1.34697 4.67092 0.955905 4.60574 0.564858 4.60574C0.477953 4.69265 0.41278 4.80127 0.347608 4.88817C1.80319 4.88817 2.80253 5.32267 2.84598 5.71371C2.36803 5.82234 1.93353 5.97442 1.67283 6.16993C1.60766 6.16993 1.5642 6.16993 1.49903 6.16993C0.977625 6.16993 0.456233 6.23511 0 6.34373C0.0217197 6.43064 0.0434527 6.53926 0.0651723 6.62615C0.4345 6.53925 0.89072 6.47408 1.39039 6.47408C1.34694 6.56098 1.32522 6.62615 1.32522 6.71305C1.32522 7.14755 1.84662 7.47342 2.54181 7.64722C1.99869 7.73412 1.54247 7.90792 1.23831 8.12517C1.23831 8.12517 1.21659 8.12517 1.21659 8.12517C1.3035 8.19034 1.39039 8.25552 1.4773 8.3207C1.86834 8.06 2.69389 7.84275 3.7367 7.84275C4.0843 7.84275 4.38845 7.86447 4.67088 7.90792C4.69259 7.92964 4.69259 7.97309 4.71433 7.99483C4.36673 8.16862 4.12775 8.40761 4.12775 8.71175C4.12775 9.0159 4.38845 9.25487 4.75778 9.4504C4.45362 9.49386 4.10603 9.53731 3.71498 9.53731C3.69326 9.53731 3.69326 9.53731 3.67153 9.53731C3.88878 9.62421 4.10603 9.71111 4.345 9.79801C4.67088 9.77629 4.97503 9.71111 5.27917 9.64593C5.30089 9.64593 5.32262 9.64593 5.32262 9.66765C5.36608 9.73283 5.43125 9.77628 5.49642 9.84145C5.40952 9.92836 5.32262 10.037 5.30089 10.1456C5.3878 10.1673 5.49642 10.2108 5.58331 10.2325C5.69194 9.86318 6.64784 9.49386 7.99478 9.47214C7.95133 9.55904 7.92961 9.62421 7.92961 9.71111C7.92961 10.1456 8.45102 10.4715 9.14621 10.6453C8.79861 10.7105 8.49446 10.7974 8.23375 10.906C8.40755 10.9494 8.60308 10.9929 8.77688 11.0146C9.18966 10.906 9.73278 10.8191 10.3411 10.8191C10.6887 10.8191 10.9928 10.8408 11.2753 10.8842C11.4056 11.1884 11.7967 11.4274 12.3181 11.5795C12.3181 11.5795 12.3181 11.5795 12.2963 11.5795C12.4919 11.6012 12.6874 11.6229 12.8829 11.6446C13.3174 11.4925 13.904 11.4057 14.5992 11.4057C14.5557 11.4926 14.534 11.5577 14.534 11.6446C14.534 11.7098 14.5557 11.7532 14.5557 11.8184C14.6644 11.8184 14.7947 11.8401 14.9033 11.8401C14.8599 11.775 14.8164 11.7098 14.8164 11.6446C14.8164 11.2536 15.8592 10.7973 17.3365 10.7973C17.6841 10.7973 17.9883 10.819 18.2707 10.8625C18.401 11.1667 18.7921 11.4056 19.3135 11.5577C19.0745 11.6881 18.9224 11.8401 18.8355 12.0357C18.9442 12.0357 19.0528 12.0357 19.1614 12.0357C19.4221 11.7098 20.3563 11.3839 21.5946 11.3839C22.7026 11.3839 23.5716 11.6446 23.9409 11.927C24.0713 11.927 24.2016 11.9053 24.3102 11.9053C24.1364 11.6446 23.7888 11.4491 23.3109 11.3187C23.5933 11.1667 23.7671 10.9711 23.8106 10.7322C24.1582 10.667 24.5709 10.6235 25.0272 10.6235C25.3748 10.6235 25.6789 10.6453 25.9613 10.6887C26.0917 10.9929 26.4827 11.2318 27.0041 11.3839C26.8303 11.4925 26.7 11.6012 26.6131 11.7315C26.7652 11.7098 26.939 11.7098 27.091 11.6881C27.5038 11.4273 28.3076 11.2318 29.307 11.2318C29.5894 11.2318 29.8501 11.2536 30.1108 11.2753C30.4584 11.2101 30.8277 11.1449 31.1753 11.0798C31.1753 11.0798 31.1753 11.0798 31.1753 11.0798C31.4143 10.906 31.5664 10.7104 31.5664 10.4932C31.5664 10.2542 31.3926 10.037 31.1319 9.86314C31.5664 9.71107 32.153 9.62418 32.8482 9.62418C33.1958 9.62418 33.4999 9.64589 33.7824 9.68935C33.891 9.92832 34.1517 10.1238 34.5427 10.2759C34.7165 10.2325 34.8686 10.1673 35.0207 10.1238C34.4124 9.95005 34.043 9.71107 34.043 9.4721C34.043 9.08105 35.0859 8.62482 36.5631 8.62482C37.1932 8.62482 37.7146 8.71172 38.1491 8.82035C38.2794 8.73344 38.4315 8.66827 38.5619 8.58138C38.5401 8.58138 38.5184 8.6031 38.475 8.6031C37.9535 8.40757 37.2366 8.32067 36.5631 8.32067C35.8897 8.32067 35.1945 8.4293 34.6513 8.6031C34.2603 8.45102 34.043 8.2555 34.043 8.05997C34.043 7.66892 35.0858 7.21269 36.5631 7.21269C38.0404 7.21269 39.0832 7.64719 39.0832 8.05997C39.0832 8.12514 39.0615 8.19032 38.9963 8.2555C39.1267 8.1686 39.257 8.05997 39.3656 7.97308C39.3656 7.97308 39.3656 7.95136 39.3656 7.95136C39.3656 7.95136 39.3873 7.95136 39.3873 7.95136C39.7351 7.95137 39.8437 7.84275 39.9523 7.73412L39.9523 7.73412ZM34.5211 8.86383C34.2604 9.0159 34.0649 9.1897 33.9997 9.38523C33.8259 9.40695 33.6521 9.40695 33.4783 9.40695C32.8048 9.40695 32.24 9.32005 31.8055 9.1897C31.8055 8.84211 31.5013 8.5814 31.0234 8.38587C31.2841 8.03828 32.2183 7.73412 33.4783 7.73412C33.7173 7.73412 33.9345 7.75584 34.1518 7.75584C34.0432 7.88619 33.978 8.01655 33.978 8.16862C33.978 8.45105 34.1735 8.69003 34.5211 8.86383L34.5211 8.86383ZM31.5012 10.5801C31.5012 10.7756 31.2405 10.9711 30.8278 11.1449C30.4367 11.0798 30.0022 11.0363 29.5677 11.0363C28.916 11.0363 28.2425 11.1232 27.6994 11.3187C26.939 11.1667 26.4611 10.8625 26.4611 10.6018C26.4611 10.2108 27.5039 9.75453 28.9812 9.75453C30.4802 9.73282 31.5012 10.1673 31.5012 10.5801L31.5012 10.5801ZM23.0938 11.297C22.7027 11.2319 22.2682 11.1884 21.8337 11.1884C21.182 11.1884 20.5085 11.2753 19.9654 11.4708C19.205 11.3187 18.7271 11.0146 18.7271 10.7539C18.7271 10.3629 19.7698 9.90662 21.2471 9.90662C22.7244 9.90662 23.7672 10.3411 23.7672 10.7539C23.789 10.9494 23.5283 11.145 23.0938 11.297L23.0938 11.297ZM11.7098 10.7539C11.7098 10.5367 12.014 10.3194 12.5137 10.1456C12.4919 10.2108 12.4702 10.276 12.4702 10.3411C12.4702 10.7756 12.9699 11.0798 13.6651 11.2753C13.4044 11.3188 13.1654 11.3839 12.9482 11.4491C12.1878 11.297 11.7098 11.0146 11.7098 10.7539L11.7098 10.7539ZM8.40765 9.75454C8.40765 9.36349 9.45045 8.90726 10.9277 8.90726C11.0581 8.90726 11.1885 8.90726 11.3188 8.92898C11.3405 9.01589 11.384 9.10278 11.4491 9.16795C11.4274 9.23312 11.4057 9.2983 11.4057 9.36348C11.4057 9.6459 11.6229 9.88489 11.9488 10.0587C11.6881 10.2108 11.4926 10.3846 11.4274 10.5801C11.2536 10.6018 11.0798 10.6018 10.906 10.6018C9.45045 10.6018 8.40765 10.1456 8.40765 9.75454L8.40765 9.75454ZM6.21341 9.55903C5.21407 9.42869 4.56232 9.08108 4.56232 8.77694C4.56232 8.38589 5.60511 7.92966 7.08241 7.92966C8.53799 7.92966 9.55907 8.36416 9.60251 8.7552C9.12455 8.86383 8.69005 9.01591 8.42935 9.21142C8.36418 9.21142 8.32073 9.21142 8.25555 9.21142C7.51691 9.21142 6.75654 9.34178 6.21341 9.55903L6.21341 9.55903ZM1.75977 6.77822C1.75977 6.38717 2.80256 5.93094 4.27986 5.93094C4.51883 5.93094 4.73608 5.95266 4.95333 5.95266C4.8447 6.06129 4.77953 6.19163 4.77953 6.34371C4.32331 6.53924 4.04088 6.79993 4.04088 7.1258C4.04088 7.2996 4.12778 7.45168 4.27985 7.60376C2.78084 7.60378 1.75977 7.16928 1.75977 6.77822L1.75977 6.77822ZM2.30286 4.93159C2.73736 4.73606 2.99806 4.49709 2.99806 4.17122C2.99806 4.1495 2.99806 4.12776 2.99806 4.10605C3.36739 4.01914 3.80189 3.9757 4.27984 3.9757C5.75714 3.9757 6.79993 4.4102 6.79993 4.82298C6.79993 5.23576 5.75714 5.67026 4.27984 5.67026C3.88879 5.67026 3.51946 5.64854 3.19359 5.58336C3.06323 5.2792 2.73736 5.06195 2.30286 4.93159L2.30286 4.93159ZM11.2101 1.39042C11.2101 1.3687 11.2101 1.34697 11.2101 1.32525C11.5795 1.23834 12.014 1.1949 12.4919 1.1949C13.9692 1.1949 15.012 1.6294 15.012 2.04218C15.012 2.43323 13.9692 2.88947 12.4919 2.88947C12.1009 2.88947 11.7315 2.86775 11.4057 2.80256C11.2753 2.54186 10.9495 2.32461 10.515 2.17253C10.9277 1.977 11.2101 1.7163 11.2101 1.39042L11.2101 1.39042ZM22.594 0.543148C22.5506 0.630053 22.5289 0.695226 22.5289 0.782118C22.5289 1.21662 23.0503 1.54249 23.7455 1.71629C23.2675 1.8032 22.8548 1.93354 22.5506 2.12907C22.5723 2.08562 22.5723 2.04217 22.5723 1.97699C22.5723 1.39042 21.6599 1.02109 20.6171 0.890743C21.0516 0.716945 21.7468 0.564868 22.594 0.543148L22.594 0.543148ZM28.6553 0.934204C30.1326 0.934204 31.1754 1.3687 31.1754 1.78148C31.1754 1.97702 30.9147 2.17253 30.5019 2.34633C30.1109 2.28116 29.6764 2.2377 29.2419 2.2377C28.5901 2.2377 27.9166 2.32461 27.3735 2.52013C26.6131 2.36805 26.1352 2.06391 26.1352 1.8032C26.1352 1.39042 27.178 0.934204 28.6553 0.934204L28.6553 0.934204ZM33.978 3.36741C33.5 3.47603 33.0655 3.62811 32.8048 3.82363C32.7396 3.82363 32.6962 3.82363 32.631 3.82363C32.3268 3.82363 32.0444 3.84535 31.762 3.8888C31.9358 3.73672 32.0662 3.56292 32.0662 3.36739C32.0662 3.0198 31.7403 2.73736 31.2623 2.56356C31.3275 2.56356 31.4144 2.56356 31.4796 2.56356C32.9352 2.54184 33.9562 2.97635 33.978 3.36741L33.978 3.36741ZM36.3459 4.6709C36.0852 4.82298 35.8897 4.99678 35.8245 5.19231C35.6507 5.21403 35.4769 5.21403 35.3031 5.21403C33.8258 5.21403 32.783 4.77953 32.783 4.36674C32.783 3.9757 33.8258 3.51946 35.3031 3.51946C35.5421 3.51946 35.7593 3.54118 35.9766 3.54118C35.868 3.67153 35.8028 3.80189 35.8028 3.95396C35.8028 4.25812 35.9983 4.49709 36.3459 4.6709L36.3459 4.6709ZM36.8891 6.27855C36.585 6.45234 36.3894 6.66959 36.3894 6.95202C36.3894 6.97374 36.3894 6.99547 36.3894 7.03892C36.3243 7.06064 36.2591 7.08237 36.1722 7.08237C36.1288 7.08237 36.0853 7.08237 36.0419 7.10409C36.1939 6.97375 36.2808 6.79994 36.2808 6.62614C36.2808 6.0613 35.4335 5.69197 34.4125 5.56161C34.5645 5.56161 34.7166 5.53989 34.8904 5.53989C35.238 5.53989 35.5422 5.56161 35.8246 5.60506C35.9767 5.8875 36.3677 6.12647 36.8891 6.27855L36.8891 6.27855ZM9.27667 2.21597C10.3846 2.32459 11.1233 2.67219 11.145 2.99806C10.8409 3.06323 10.5802 3.15014 10.3412 3.23703C10.276 3.23703 10.2108 3.23703 10.1457 3.23703C9.90669 3.23703 9.64599 3.25875 9.407 3.28048C9.55908 3.15014 9.64597 2.97633 9.64597 2.80253C9.646 2.56357 9.51564 2.36804 9.27667 2.21597L9.27667 2.21597ZM16.4676 1.56421C16.7066 1.56421 16.9238 1.58593 17.1411 1.58593C17.0325 1.71628 16.9673 1.84664 16.9673 1.99871C16.9673 2.28114 17.1845 2.52012 17.5104 2.69392C17.5104 2.69392 17.5104 2.69392 17.5104 2.69392C17.0107 2.54184 16.4024 2.47667 15.7941 2.47667C15.5552 2.47667 15.2945 2.49839 15.0555 2.52012C15.2076 2.38977 15.2945 2.21596 15.2945 2.04217C15.2945 1.91182 15.251 1.8032 15.1858 1.69457C15.5334 1.60767 15.9679 1.56421 16.4676 1.56421L16.4676 1.56421ZM31.5012 9.1897C31.5012 9.36349 31.284 9.55902 30.8929 9.73282C30.3715 9.53729 29.6546 9.4504 28.9812 9.4504C28.3077 9.4504 27.6125 9.55902 27.0694 9.73282C26.6783 9.58074 26.4611 9.38523 26.4611 9.1897C26.4611 8.79865 27.5039 8.34242 28.9812 8.34242C30.4802 8.34242 31.5012 8.79865 31.5012 9.1897L31.5012 9.1897ZM25.679 10.428C24.7448 10.428 24.0062 10.2542 23.5717 10.037C23.8758 9.86318 24.0713 9.64594 24.0713 9.36351C24.0713 9.23317 24.0279 9.10281 23.941 8.99418C24.3755 8.84211 24.9838 8.75521 25.679 8.75521C25.918 8.75521 26.1352 8.77693 26.3525 8.77693C26.2438 8.90728 26.1787 9.03764 26.1787 9.18972C26.1787 9.47214 26.3959 9.71112 26.7218 9.88492C26.4611 10.037 26.2656 10.2108 26.2004 10.4063C26.0483 10.428 25.8745 10.428 25.679 10.428L25.679 10.428ZM21.2688 9.60247C20.5953 9.60247 19.9001 9.71109 19.357 9.88489C18.966 9.73281 18.7487 9.53729 18.7487 9.34176C18.7487 8.95072 19.7915 8.49448 21.2688 8.49448C22.7461 8.49448 23.7889 8.92898 23.7889 9.34176C23.7889 9.51556 23.5717 9.71109 23.1806 9.88489C22.6375 9.71109 21.9423 9.60247 21.2688 9.60247L21.2688 9.60247ZM17.9449 10.6018C16.4676 10.6018 15.4248 10.1673 15.4248 9.75454C15.4248 9.36349 16.4676 8.90726 17.9449 8.90726C18.1839 8.90726 18.4011 8.92898 18.6184 8.92898C18.5097 9.05933 18.4446 9.18968 18.4446 9.34176C18.4446 9.62418 18.6618 9.86317 18.9877 10.037C18.727 10.189 18.5315 10.3628 18.4663 10.5584C18.3142 10.5801 18.1404 10.6018 17.9449 10.6018L17.9449 10.6018ZM15.2944 9.21142C14.5558 9.21142 13.7954 9.32005 13.2523 9.55902C12.2529 9.42867 11.6012 9.08106 11.6012 8.77692C11.6012 8.38587 12.644 7.92964 14.1213 7.92964C15.5769 7.92964 16.5979 8.36414 16.6414 8.75519C16.1634 8.86381 15.7289 9.01589 15.4682 9.21141C15.4031 9.21142 15.3379 9.21142 15.2944 9.21142L15.2944 9.21142ZM12.3398 9.90662C11.9705 9.75454 11.7532 9.58074 11.7315 9.40694C11.9922 9.58074 12.3615 9.7111 12.7743 9.79799C12.6005 9.79799 12.4702 9.84144 12.3398 9.90662L12.3398 9.90662ZM9.84146 8.53795C9.71112 8.27725 9.38524 8.06 8.95074 7.90792C9.38524 7.71239 9.64595 7.47342 9.64595 7.14755C9.64595 7.12583 9.64595 7.10409 9.64595 7.08238C10.0153 6.99547 10.4498 6.95203 10.9277 6.95203C10.9929 6.95203 11.0364 6.95203 11.1015 6.95203C11.0798 7.0172 11.0581 7.08238 11.0581 7.14756C11.0581 7.53861 11.4491 7.82103 12.014 8.01656C11.6664 8.16864 11.4057 8.38589 11.3405 8.62486C11.2102 8.62486 11.0798 8.64658 10.9495 8.64658C10.5367 8.62484 10.1673 8.58141 9.84146 8.53795L9.84146 8.53795ZM7.08237 7.6255C6.51753 7.6255 5.95267 7.69067 5.453 7.82103C4.73607 7.66895 4.30157 7.38653 4.30157 7.12583C4.30157 6.73478 5.34437 6.27855 6.82167 6.27855C8.29897 6.27855 9.34176 6.71305 9.34176 7.12583C9.34176 7.34308 8.99417 7.60378 8.42931 7.75586C8.03828 7.69067 7.56032 7.6255 7.08237 7.6255L7.08237 7.6255ZM7.58208 5.53991C9.05937 5.53991 10.1022 5.97441 10.1022 6.38719C10.1022 6.51753 10.0153 6.62616 9.84147 6.75652C9.73284 6.77824 9.64594 6.79997 9.53731 6.82169C9.16798 6.30028 7.97311 6.03959 6.84341 6.03959C6.23511 6.03959 5.60508 6.1265 5.10541 6.27856C5.30095 5.8875 6.27858 5.53991 7.58208 5.53991L7.58208 5.53991ZM7.08238 4.80125C7.08238 4.43192 6.73478 4.1495 6.21338 3.9757C6.40891 3.95398 6.62616 3.95398 6.84341 3.95398C7.08238 3.95398 7.29963 3.9757 7.51688 3.9757C7.40825 4.10604 7.34308 4.2364 7.34308 4.38848C7.34308 4.6709 7.56033 4.90988 7.88621 5.08368C7.77758 5.12713 7.69068 5.19231 7.6255 5.25748C7.60378 5.25748 7.60378 5.25748 7.58205 5.25748C7.34308 5.25748 7.08238 5.2792 6.8434 5.30093C6.99549 5.14884 7.08238 4.97504 7.08238 4.80125L7.08238 4.80125ZM19.7698 1.17317C21.2471 1.17317 22.2899 1.60767 22.2899 2.02045C22.2899 2.19425 22.0726 2.38978 21.6816 2.56357C21.1602 2.36804 20.4433 2.28115 19.7698 2.28115C19.0963 2.28115 18.4011 2.38978 17.858 2.56357C17.4669 2.4115 17.2497 2.21598 17.2497 2.02045C17.2497 1.60767 18.2925 1.17317 19.7698 1.17317L19.7698 1.17317ZM26.939 2.69392C26.6348 2.86771 26.4393 3.08496 26.4393 3.36739C26.4393 3.38911 26.4393 3.41084 26.4393 3.45429C26.0265 3.56292 25.5268 3.62809 24.962 3.62809C23.4847 3.62809 22.4419 3.19359 22.4419 2.78081C22.4419 2.38976 23.4847 1.93353 24.962 1.93353C25.3096 1.93353 25.6137 1.95525 25.8962 1.9987C26.0048 2.30287 26.4176 2.54184 26.939 2.69392L26.939 2.69392ZM31.762 3.3674C31.762 3.75844 30.7192 4.21468 29.2419 4.21468C27.7646 4.21468 26.7218 3.78018 26.7218 3.3674C26.7218 2.97635 27.7646 2.52011 29.2419 2.52011C30.7192 2.52011 31.762 2.97633 31.762 3.3674L31.762 3.3674ZM32.4789 4.36674C32.4789 4.80124 33.0003 5.12712 33.6955 5.30092C33.4783 5.34437 33.261 5.38782 33.0655 5.45299C32.7179 5.47471 32.3703 5.51817 32.0662 5.58334C31.9141 5.36609 31.6099 5.19229 31.2406 5.06193C31.132 4.82296 30.8496 4.64915 30.502 4.49709C30.9147 4.27984 31.6317 4.10604 32.5441 4.08431C32.5007 4.21467 32.4789 4.27984 32.4789 4.36674L32.4789 4.36674ZM15.7724 2.78083C17.2497 2.78083 18.2924 3.21533 18.2924 3.62811C18.2924 3.8019 18.0752 3.99743 17.6842 4.17123C17.1627 3.9757 16.4458 3.88881 15.7724 3.88881C15.0989 3.88881 14.4037 3.99743 13.8606 4.17123C13.4695 4.01915 13.2523 3.82364 13.2523 3.62811C13.2523 3.21533 14.2951 2.78083 15.7724 2.78083L15.7724 2.78083ZM31.9141 5.95267C31.9141 6.16992 31.5665 6.43062 31.0017 6.5827C30.5672 6.4958 30.111 6.45236 29.633 6.45236C29.0682 6.45236 28.5033 6.51753 28.0036 6.64789C27.9819 6.64789 27.9819 6.64789 27.9602 6.64789C27.9167 6.58271 27.8515 6.51754 27.7864 6.45236C28.0253 6.47408 28.2643 6.49581 28.4816 6.49581C29.7851 6.49581 31.1755 6.12648 31.2841 5.45301C31.6969 5.58334 31.9141 5.77887 31.9141 5.95267L31.9141 5.95267ZM27.7646 6.95203C27.7646 7.34308 26.7218 7.79931 25.2445 7.79931C23.7672 7.79931 22.7244 7.36481 22.7244 6.95203C22.7244 6.53925 23.7672 6.10475 25.2445 6.10475C26.7435 6.10475 27.7646 6.53925 27.7646 6.95203L27.7646 6.95203ZM25.679 8.45104C25.288 8.45104 24.9187 8.42932 24.5928 8.36414C24.5276 8.23379 24.419 8.12517 24.2669 8.01654C24.5711 8.06 24.8969 8.08171 25.2228 8.08171C26.3742 8.08171 27.5691 7.79929 27.9384 7.27789C28.0905 7.38651 28.1774 7.49514 28.1774 7.62548C28.1991 8.01654 27.178 8.45104 25.679 8.45104L25.679 8.45104ZM23.7021 8.77692C23.1807 8.42933 22.203 8.23379 21.2689 8.23379C21.0299 8.23379 20.7692 8.25551 20.5302 8.27725C20.6606 8.1469 20.7475 8.01654 20.7692 7.86447C21.0951 7.79929 21.4644 7.77756 21.8554 7.77756C23.311 7.77756 24.3321 8.21206 24.3755 8.60311C24.1149 8.62484 23.8976 8.69003 23.7021 8.77692L23.7021 8.77692ZM16.8803 8.53795C16.75 8.27725 16.4241 8.06 15.9896 7.90792C16.4241 7.71239 16.6848 7.47342 16.6848 7.14755C16.6848 7.12583 16.6848 7.10409 16.6848 7.08238C17.0542 6.99547 17.4887 6.95203 17.9666 6.95203C19.4439 6.95203 20.4867 7.38653 20.4867 7.79931C20.4867 8.19036 19.4439 8.64659 17.9666 8.64659C17.5538 8.62485 17.1845 8.58141 16.8803 8.53795L16.8803 8.53795ZM12.4919 7.84275C11.775 7.69067 11.3405 7.40825 11.3405 7.14754C11.3405 6.7565 12.3833 6.30026 13.8606 6.30026C15.3379 6.30026 16.3807 6.73476 16.3807 7.14754C16.3807 7.36479 16.0331 7.6255 15.4683 7.77757C15.0338 7.69067 14.5775 7.64723 14.0996 7.64723C13.5565 7.6255 12.9699 7.7124 12.4919 7.84275L12.4919 7.84275ZM8.14691 5.25747C8.58141 5.06194 9.29833 4.90988 10.1456 4.90988C11.6229 4.90988 12.6657 5.34438 12.6657 5.75716C12.6657 5.90924 12.5136 6.06131 12.2529 6.19166C12.1443 6.21338 12.0357 6.25683 11.9271 6.30028C11.5577 6.23511 11.145 6.19166 10.7322 6.19166C10.6018 6.19166 10.4932 6.19166 10.3629 6.19166C10.2108 5.67025 9.21144 5.34438 8.14691 5.25747L8.14691 5.25747ZM15.7724 4.14949C17.2497 4.14949 18.2924 4.58399 18.2924 4.99677C18.2924 5.19231 18.0535 5.38782 17.619 5.56162C17.2279 5.49645 16.7934 5.45299 16.3589 5.45299C15.7072 5.45299 15.0337 5.5399 14.4906 5.73542C13.7302 5.58334 13.2523 5.2792 13.2523 5.01849C13.2523 4.60571 14.2951 4.14949 15.7724 4.14949L15.7724 4.14949ZM27.1346 4.12778C27.0477 4.25812 26.8522 4.38848 26.5698 4.51883C26.0484 4.3233 25.3314 4.2364 24.658 4.2364C24.0497 4.2364 23.3979 4.32331 22.8982 4.47537C22.7245 4.3233 22.4637 4.19295 22.1813 4.10605C22.1596 4.08433 22.1596 4.04087 22.1596 4.01914C22.3769 3.8888 22.5072 3.73672 22.5724 3.54119C22.6158 3.51947 22.6593 3.49773 22.7245 3.47602C23.2676 3.75844 24.1366 3.91052 24.9839 3.91052C25.527 3.91052 26.0918 3.84534 26.5698 3.71498C26.6784 3.8888 26.8739 4.01915 27.1346 4.12778L27.1346 4.12778ZM31.0234 5.34437C31.0234 5.73542 29.9806 6.19165 28.5033 6.19165C27.9385 6.19165 27.417 6.12648 27.026 6.01786C27.3084 5.84406 27.4822 5.62681 27.4822 5.36611C27.4822 5.08368 27.2867 4.86643 26.9608 4.69264C27.3736 4.58401 27.895 4.49711 28.5033 4.49711C29.9806 4.49709 31.0234 4.93159 31.0234 5.34437L31.0234 5.34437ZM23.3979 6.08303C22.9851 5.99612 22.681 5.8875 22.4637 5.73543C22.8982 5.5399 23.1807 5.27921 23.1807 4.95334C23.1807 4.86643 23.1589 4.77954 23.1155 4.69264C23.5283 4.58401 24.0714 4.49711 24.6797 4.49711C26.157 4.49711 27.1998 4.93161 27.1998 5.34439C27.1998 5.53992 26.9608 5.73543 26.5263 5.90923C26.1353 5.84406 25.7008 5.80061 25.2663 5.80061C24.5928 5.80059 23.9193 5.90922 23.3979 6.08303L23.3979 6.08303ZM22.8113 7.5386C22.5072 7.49514 22.1813 7.47342 21.8554 7.47342C21.4644 7.47342 21.095 7.49514 20.7257 7.56033C20.704 7.53861 20.704 7.51688 20.6823 7.49516C20.7692 7.49516 20.8778 7.49516 20.9647 7.49516C21.5078 7.49516 22.0726 7.42998 22.5506 7.29963C22.6158 7.38653 22.7027 7.4517 22.8113 7.5386L22.8113 7.5386ZM20.9647 7.191C20.7474 7.191 20.5302 7.191 20.3346 7.16928C20.0305 6.97375 19.6177 6.84341 19.1398 6.7565C19.1615 6.69133 19.1832 6.64788 19.1832 6.5827C19.1832 6.34373 19.0311 6.12648 18.7704 5.97441C18.7922 5.95269 18.8139 5.95269 18.8356 5.93095C19.2918 6.03958 19.835 6.10475 20.3564 6.10475C20.9647 6.10475 21.6164 6.01785 22.1161 5.86578C22.3116 6.03958 22.594 6.16994 22.9416 6.27856C22.6375 6.45236 22.442 6.66961 22.442 6.95203C22.442 6.97375 22.442 6.99548 22.442 7.03894C22.0509 7.12583 21.5295 7.191 20.9647 7.191L20.9647 7.191ZM14.4689 6.03957C14.9251 5.86578 15.5768 5.73542 16.3589 5.73542C17.8362 5.73542 18.879 6.16992 18.879 6.5827C18.879 6.62615 18.8573 6.6696 18.8356 6.71304C18.5532 6.66959 18.249 6.64787 17.9449 6.64787C17.4669 6.64787 16.989 6.69132 16.5545 6.79995C16.2503 6.36545 15.4031 6.10475 14.4689 6.03957L14.4689 6.03957ZM13.8606 5.99613C13.513 5.99613 13.1871 6.01785 12.8612 6.0613C12.9264 5.95267 12.9698 5.86577 12.9698 5.73542C12.9698 5.49645 12.8178 5.30092 12.5788 5.12713C12.7309 5.12713 12.883 5.14885 13.0133 5.17058C13.1436 5.47473 13.5347 5.71371 14.0561 5.86578C13.9909 5.90924 13.9475 5.93095 13.904 5.97441C13.8823 5.99613 13.8823 5.99613 13.8606 5.99613L13.8606 5.99613ZM18.3142 5.67025C18.3142 5.67025 18.0969 5.67025 18.0969 5.67025C18.0969 5.67025 18.0969 5.67025 18.0969 5.67025C18.0968 5.67025 18.0968 5.67025 18.3142 5.67025L18.3142 5.67025ZM22.8764 4.97504C22.8764 5.36609 21.8336 5.82232 20.3563 5.82232C19.509 5.82232 18.8138 5.67024 18.3576 5.47473C18.5097 5.34438 18.5966 5.17057 18.5966 4.99677C18.5966 4.80124 18.488 4.62745 18.3359 4.4971C18.7704 4.30157 19.4873 4.12777 20.3563 4.12777C21.8336 4.12777 22.8764 4.56227 22.8764 4.97504L22.8764 4.97504ZM27.3735 4.45365C27.4045 4.38125 27.4045 4.3088 27.4355 4.2364C27.4976 4.3088 27.5286 4.3088 27.5907 4.38125C27.5286 4.3812 27.4355 4.3812 27.3735 4.45365L27.3735 4.45365ZM22.0292 2.73737C22.1016 2.70117 22.174 2.66495 22.2464 2.62875C22.2102 2.70117 22.2102 2.7736 22.2102 2.846C22.174 2.8098 22.1016 2.7736 22.0292 2.73737L22.0292 2.73737ZM10.7322 6.4958C10.9929 6.4958 11.2319 6.51993 11.4492 6.54408C11.384 6.59236 11.3405 6.64064 11.2971 6.68891C11.1667 6.68891 11.0581 6.68891 10.9278 6.68891C10.7105 6.68891 10.515 6.68891 10.2977 6.71305C10.3412 6.66476 10.3629 6.59235 10.3629 6.51993C10.4933 6.4958 10.6019 6.4958 10.7322 6.4958L10.7322 6.4958ZM19.7698 2.54184C21.2471 2.54184 22.2899 2.97634 22.2899 3.38912C22.2899 3.58465 22.0509 3.78017 21.6164 3.95397C21.2253 3.88879 20.7908 3.84534 20.3563 3.84534C19.7046 3.84534 19.0311 3.93225 18.488 4.12776C18.4445 4.12776 18.4011 4.10604 18.3577 4.10604C18.5097 3.9757 18.5749 3.82362 18.5749 3.64982C18.5749 3.32395 18.2925 3.06325 17.8797 2.88945C18.3359 2.6722 18.9877 2.54184 19.7698 2.54184L19.7698 2.54184ZM10.1456 3.5412C11.6229 3.5412 12.6657 3.9757 12.6657 4.38848C12.6657 4.56228 12.4484 4.75781 12.0574 4.93161C11.536 4.73608 10.8191 4.64919 10.1456 4.64919C9.47211 4.64919 8.77691 4.75781 8.23379 4.93161C7.84274 4.77953 7.62549 4.58401 7.62549 4.38848C7.62547 3.9757 8.66829 3.5412 10.1456 3.5412L10.1456 3.5412ZM13.1437 3.19359C13.0351 3.32394 12.9699 3.45429 12.9699 3.60637C12.9699 3.88879 13.1872 4.12778 13.513 4.30157C13.2523 4.45365 13.0568 4.62745 12.9916 4.82298C12.9047 4.82298 12.8178 4.8447 12.7309 4.8447C12.883 4.71435 12.9482 4.56228 12.9482 4.38848C12.9482 3.82363 12.1009 3.45431 11.1016 3.32395C11.4926 3.23704 11.9488 3.1936 12.4702 3.1936C12.7092 3.17187 12.9265 3.17187 13.1437 3.19359L13.1437 3.19359ZM30.806 8.03827C30.4584 8.03827 30.1326 8.05999 29.8067 8.10345C29.546 8.08173 29.2636 8.05999 29.0029 8.05999C28.7639 8.05999 28.5032 8.08171 28.2642 8.10345C28.4163 7.9731 28.5032 7.79929 28.5032 7.62549C28.5032 7.38652 28.3294 7.16927 28.0687 6.99546C28.0687 6.97374 28.0687 6.97374 28.0687 6.95201C28.0687 6.95201 28.0687 6.95201 28.0687 6.95201C28.4814 6.84339 29.0246 6.75648 29.6329 6.75648C31.0884 6.75648 32.1095 7.19098 32.153 7.58203C31.675 7.69065 31.2405 7.84273 30.9798 8.03825C30.9146 8.03827 30.8712 8.03827 30.806 8.03827L30.806 8.03827ZM32.3919 7.34308C32.2616 7.08238 31.9357 6.86513 31.5012 6.71305C31.9357 6.51752 32.1964 6.27855 32.1964 5.95267C32.1964 5.93095 32.1964 5.90922 32.1964 5.8875C32.5657 5.8006 33.0002 5.75716 33.4782 5.75716C34.9555 5.75716 35.9983 6.19166 35.9983 6.60444C35.9983 6.99548 34.9555 7.45172 33.4782 7.45172C33.0872 7.42997 32.7178 7.40825 32.3919 7.34308L32.3919 7.34308ZM24.0279 10.5149C24.1003 10.5149 24.1727 10.7322 24.2451 10.7322C24.1727 10.7322 24.1003 10.7322 24.0279 10.7322C24.0279 10.7323 24.0279 10.5149 24.0279 10.5149L24.0279 10.5149ZM31.7185 9.47213C31.7619 9.52642 31.8271 9.52642 31.8706 9.58075C31.8054 9.63505 31.7185 9.63505 31.6533 9.68938C31.6968 9.63505 31.7185 9.52642 31.7185 9.47213L31.7185 9.47213ZM19.7915 0.716954C19.5743 0.738673 19.357 0.803859 19.1398 0.847298C19.118 0.847298 19.118 0.847298 19.0963 0.847298C19.1832 0.738673 19.2484 0.630048 19.2701 0.521423C19.4222 0.586596 19.596 0.651781 19.7915 0.716954L19.7915 0.716954ZM15.0773 11.1884C13.7086 11.145 12.7744 10.7322 12.7744 10.3629C12.7744 9.97181 13.7738 9.53731 15.2076 9.51558C15.1642 9.60248 15.1424 9.66766 15.1424 9.75455C15.1424 10.189 15.6638 10.5149 16.359 10.6887C15.8376 10.7973 15.3597 10.9712 15.0773 11.1884L15.0773 11.1884ZM12.6222 0.564869C14.0778 0.564869 15.0989 0.999369 15.1423 1.39042C15.0772 1.41214 14.9902 1.41214 14.9251 1.43387C14.4037 1.06454 13.426 0.890744 12.4919 0.890744C12.0139 0.890744 11.536 0.934197 11.1015 1.04282C11.0363 0.955916 10.9711 0.890744 10.8842 0.825572C11.297 0.673494 11.9053 0.564869 12.6222 0.564869L12.6222 0.564869ZM6.84342 1.95527C8.32072 1.95527 9.36352 2.38977 9.36352 2.80255C9.36352 3.21533 8.32072 3.64983 6.84342 3.64983C6.45238 3.64983 6.08305 3.62811 5.75717 3.56293C5.62683 3.30223 5.30095 3.08498 4.86646 2.9329C5.30095 2.73737 5.56166 2.4984 5.56166 2.17252C5.56166 2.1508 5.56166 2.12907 5.56166 2.10735C5.93097 1.99871 6.36547 1.95527 6.84342 1.95527L6.84342 1.95527Z" id="Shape" fill="#D1D3D4" fill-rule="evenodd" stroke="none" />
            <path d="M4.49706 0.847281C4.49706 0.456233 3.45425 0 1.97697 0C1.49903 0 1.06453 0.0434527 0.695189 0.130345C0.695189 0.152064 0.695189 0.173797 0.695189 0.195517C0.695189 0.521392 0.412754 0.782095 0 0.955892C0.4345 1.10797 0.782095 1.32522 0.89072 1.58592C1.21659 1.62938 1.56419 1.67283 1.97697 1.67283C3.45428 1.67283 4.49706 1.23833 4.49706 0.847281L4.49706 0.847281Z" transform="translate(31.50122 5.757141)" id="Shape" fill="#FFFFFF" fill-rule="evenodd" stroke="none" />
            <path d="M3.49773 0C3.38911 0.67347 1.9987 1.0428 0.695203 1.0428C0.456233 1.0428 0.21725 1.02108 0 0.999345C0.0651724 1.06452 0.130345 1.12969 0.173797 1.19488C0.195517 1.19488 0.195517 1.19488 0.21725 1.19488C0.695203 1.06453 1.28178 0.999345 1.84663 0.999345C2.32458 0.999345 2.7808 1.0428 3.2153 1.12969C3.78014 0.955892 4.12774 0.716909 4.12774 0.499659C4.10604 0.347595 3.88879 0.152064 3.49773 0L3.49773 0Z" transform="translate(27.808044 5.431284)" id="Shape" fill="#FFFFFF" fill-rule="evenodd" stroke="none" />
            <path d="M4.0843 0.825547C4.06258 0.4345 3.01977 0 1.5642 0C0.955905 0 0.41278 0.0869053 0 0.19553C0 0.19553 0 0.19553 0 0.19553C0 0.21725 0 0.21725 0 0.238983C0.260703 0.41278 0.4345 0.60831 0.4345 0.869013C0.4345 1.04281 0.347595 1.21661 0.19553 1.34697C0.4345 1.32525 0.695202 1.30351 0.934185 1.30351C1.19489 1.30351 1.47731 1.32523 1.73801 1.34697C2.06389 1.30351 2.41148 1.28179 2.73736 1.28179C2.80253 1.28179 2.84598 1.28179 2.91115 1.28179C3.17184 1.08625 3.60636 0.934172 4.0843 0.825547L4.0843 0.825547Z" transform="translate(28.068787 6.734783)" id="Shape" fill="#FFFFFF" fill-rule="evenodd" stroke="none" />
            <path d="M0.0651853 0C0.0434657 0.0542959 0.0217461 0.162921 0 0.21725C0.0651853 0.162954 0.152064 0.162954 0.217249 0.108625C0.17381 0.0542959 0.130371 0.0542959 0.0651853 0L0.0651853 0Z" transform="translate(31.65332 9.472126)" id="Shape" fill="#FFFFFF" fill-rule="evenodd" stroke="none" />
            <path d="M2.45492 0C1.19486 0 0.260703 0.325875 0 0.65175C0.456233 0.84728 0.782108 1.10797 0.782108 1.45558C1.21661 1.58592 1.78145 1.67283 2.45492 1.67283C2.62873 1.67283 2.80252 1.67283 2.97633 1.65111C3.04151 1.43386 3.23702 1.26006 3.49773 1.1297C3.17186 0.955905 2.95461 0.716922 2.95461 0.4345C2.95461 0.282422 3.01979 0.152078 3.12842 0.0217197C2.91114 0.0217197 2.69389 0 2.45492 0L2.45492 0Z" transform="translate(31.023376 7.734123)" id="Shape" fill="#FFFFFF" fill-rule="evenodd" stroke="none" />
            <path d="M2.52009 0C1.04278 0 0 0.4345 0 0.847281C0 1.02108 0.21725 1.21661 0.608311 1.39041C1.12972 1.19488 1.84663 1.10798 2.52012 1.10798C3.19359 1.10798 3.88881 1.21661 4.43193 1.39041C4.45365 1.39041 4.47537 1.36869 4.51884 1.36869C4.6709 1.26006 4.82299 1.17316 4.97506 1.06453C5.0185 0.999358 5.06196 0.934186 5.06196 0.869C5.04019 0.4345 3.99738 0 2.52009 0L2.52009 0Z" transform="translate(34.260376 7.343075)" id="Shape" fill="#FFFFFF" fill-rule="evenodd" stroke="none" />
            <path d="M2.65047 0.0651724C2.36803 0.0217197 2.0639 0 1.71628 0C1.02109 0 0.4345 0.0869053 0 0.23897C0.260689 0.412767 0.4345 0.608297 0.4345 0.869C0.4345 1.10797 0.282436 1.3035 0.0434394 1.45558C0.0434394 1.45558 0.0434394 1.45558 0.0434394 1.45558C1.26003 1.21661 2.368 0.955905 3.3891 0.65175C3.01981 0.499672 2.73737 0.304142 2.65047 0.0651724L2.65047 0.0651724Z" transform="translate(31.37091 9.711113)" id="Shape" fill="#FFFFFF" fill-rule="evenodd" stroke="none" />
            <path d="M2.5201 0C1.04278 0 0 0.4345 0 0.84728C0 1.08625 0.369315 1.34695 0.977625 1.49903C2.19422 1.10798 3.23703 0.673483 4.08431 0.19553C3.69323 0.0869053 3.1501 0 2.5201 0L2.5201 0Z" transform="translate(34.260376 8.71175)" id="Shape" fill="#FFFFFF" fill-rule="evenodd" stroke="none" />
            <path d="M3.9105 0.347595C3.9105 0.23897 3.82359 0.108625 3.67153 0C3.32394 0.521406 2.10733 0.803828 0.955905 0.803828C0.63003 0.803828 0.304155 0.782108 0 0.738656C0.152078 0.847281 0.260703 0.955906 0.325875 1.08625C0.65175 1.1297 0.999345 1.17316 1.41212 1.17316C2.88942 1.19486 3.9105 0.760362 3.9105 0.347595L3.9105 0.347595Z" transform="translate(24.288574 7.2561893)" id="Shape" fill="#FFFFFF" fill-rule="evenodd" stroke="none" />
            <path d="M0 0.19553C0.0217197 0.21725 0.0217197 0.238983 0.0434527 0.260703C0.41278 0.19553 0.782108 0.173797 1.17316 0.173797C1.49903 0.173797 1.82491 0.195517 2.12906 0.23897C2.02044 0.173797 1.93353 0.086892 1.89009 0C1.41214 0.130345 0.847294 0.19553 0.304169 0.19553C0.195517 0.217263 0.086892 0.19553 0 0.19553L0 0.19553Z" transform="translate(20.682251 7.2778873)" id="Shape" fill="#FFFFFF" fill-rule="evenodd" stroke="none" />
            <path d="M3.84532 0.825548C3.8236 0.4345 2.78079 0 1.32522 0C0.934173 0 0.564845 0.0434527 0.23897 0.0869053C0.21725 0.238983 0.130345 0.391061 0 0.499686C0.23897 0.477966 0.499673 0.456233 0.738656 0.456233C1.67283 0.456233 2.65045 0.651763 3.17186 0.999358C3.3891 0.934173 3.60635 0.868987 3.84532 0.825548L3.84532 0.825548Z" transform="translate(20.508423 7.7558556)" id="Shape" fill="#FFFFFF" fill-rule="evenodd" stroke="none" />
            <path d="M0 0C0 0 0 0.21725 0.0543039 0.21725C0.108608 0.21725 0.162945 0.21725 0.217249 0.21725C0.108641 0 0.0543371 0 0 0L0 0Z" transform="translate(24.027893 10.514915)" id="Shape" fill="#FFFFFF" fill-rule="evenodd" stroke="none" />
            <path d="M3.15013 1.1297C2.82425 0.955905 2.607 0.716922 2.607 0.4345C2.607 0.282422 2.67217 0.152078 2.7808 0.0217197C2.56355 0 2.3463 0 2.10733 0C1.41213 0 0.803828 0.108625 0.369328 0.23897C0.456233 0.347595 0.499672 0.477939 0.499672 0.608297C0.499672 0.869 0.304142 1.10797 0 1.28177C0.4345 1.49902 1.17316 1.67281 2.10733 1.67281C2.28113 1.67281 2.45492 1.67281 2.62873 1.65109C2.69391 1.43384 2.88942 1.26005 3.15013 1.1297L3.15013 1.1297Z" transform="translate(23.571655 8.755199)" id="Shape" fill="#FFFFFF" fill-rule="evenodd" stroke="none" />
            <path d="M2.52009 0C1.0428 0 0 0.4345 0 0.847281C0 1.02108 0.21725 1.21661 0.608297 1.39041C1.1297 1.19488 1.84662 1.10798 2.52009 1.10798C3.19356 1.10798 3.88876 1.21661 4.43189 1.39041C4.82294 1.23833 5.04019 1.04281 5.04019 0.847281C5.04019 0.456233 4.01911 0 2.52009 0L2.52009 0Z" transform="translate(26.46106 8.342417)" id="Shape" fill="#FFFFFF" fill-rule="evenodd" stroke="none" />
            <path d="M3.69324 0.760375C3.17183 0.608297 2.78078 0.369328 2.65044 0.0651723C2.36802 0.0217197 2.06386 0 1.71627 0C1.26005 0 0.847267 0.0434527 0.499672 0.108625C0.45622 0.347595 0.282422 0.543125 0 0.695203C0.45622 0.825547 0.825548 1.0428 0.999345 1.28178C1.78144 1.23833 2.56355 1.17316 3.32392 1.08625C3.38908 0.955905 3.51944 0.84728 3.69324 0.760375L3.69324 0.760375Z" transform="translate(23.571655 10.732178)" id="Shape" fill="#FFFFFF" fill-rule="evenodd" stroke="none" />
            <path d="M2.52009 0C1.0428 0 0 0.4345 0 0.84728C0 1.10798 0.477952 1.41212 1.23833 1.5642C1.75973 1.39041 2.4332 1.28178 3.10667 1.28178C3.54117 1.28178 3.97567 1.32523 4.36672 1.39041C4.80122 1.23833 5.04019 1.02108 5.04019 0.82556C5.04019 0.4345 4.01911 0 2.52009 0L2.52009 0Z" transform="translate(26.46106 9.73283)" id="Shape" fill="#FFFFFF" fill-rule="evenodd" stroke="none" />
            <path d="M2.21595 0C1.21661 0 0.41278 0.19553 0 0.45622C1.0428 0.347595 2.04215 0.195517 3.01978 0.0434394C2.78081 0.0217197 2.49839 0 2.21595 0L2.21595 0Z" transform="translate(27.351807 11.318748)" id="Shape" fill="#FFFFFF" fill-rule="evenodd" stroke="none" />
            <path d="M0.0434526 0.347595C0.238983 0.282422 0.456232 0.23897 0.695202 0.21725C0.499672 0.152078 0.325875 0.0869053 0.173797 0C0.152077 0.108625 0.108625 0.21725 0 0.325875C0.0217329 0.347595 0.0434526 0.347595 0.0434526 0.347595L0.0434526 0.347595Z" transform="translate(19.096313 0.49970245)" id="Shape" fill="#FFFFFF" fill-rule="evenodd" stroke="none" />
            <path d="M0 0.21725C0.0724237 0.21725 0.144847 0.144848 0.217249 0.144848C0.144825 0.144848 0.108624 0.0724462 0.0362008 0C0.0724237 0.072402 0.0362008 0.144804 0 0.21725L0 0.21725Z" transform="translate(27.373474 4.236397)" id="Shape" fill="#FFFFFF" fill-rule="evenodd" stroke="none" />
            <path d="M1.54247 0C0.934172 0 0.412767 0.0651724 0 0.19553C0.325875 0.369328 0.521405 0.608311 0.521405 0.869C0.521405 1.1297 0.347608 1.34695 0.0651856 1.52075C0.477966 1.62938 0.977638 1.69455 1.54248 1.69455C3.01978 1.69455 4.06258 1.26005 4.06258 0.847267C4.06256 0.4345 3.01977 0 1.54247 0L1.54247 0Z" transform="translate(26.960815 4.4970894)" id="Shape" fill="#FFFFFF" fill-rule="evenodd" stroke="none" />
            <path d="M0.217251 0C0.144827 0.036201 0.0724022 0.0724241 0 0.108625C0.0724243 0.144826 0.108625 0.181049 0.18105 0.21725C0.18105 0.144848 0.18105 0.0724241 0.217251 0L0.217251 0Z" transform="translate(22.029175 2.6287498)" id="Shape" fill="#FFFFFF" fill-rule="evenodd" stroke="none" />
            <path d="M0.217251 0.217249C0.217251 0.217249 0 0.217249 0 0C0 0 0 0 0 0C-0.000132632 0.217249 -0.000132632 0.217249 0.217251 0.217249L0.217251 0.217249Z" transform="translate(18.096924 5.648533)" id="Shape" fill="#FFFFFF" fill-rule="evenodd" stroke="none" />
            <path d="M2.82426 0.4345C1.99872 0.4345 1.12972 0.282422 0.564858 0C0.521405 0.0217197 0.456233 0.0434527 0.41278 0.0651724C0.369328 0.23897 0.21725 0.412767 0 0.543125C0 0.564845 0.0217197 0.608297 0.0217197 0.63003C0.325875 0.738655 0.564845 0.84728 0.738642 0.999358C1.26005 0.84728 1.89006 0.760388 2.49836 0.760388C3.17183 0.760388 3.86703 0.869013 4.41016 1.04281C4.69258 0.934186 4.88811 0.803841 4.975 0.651763C4.7143 0.543138 4.51878 0.391061 4.38842 0.238983C3.93223 0.369314 3.36739 0.4345 2.82426 0.4345L2.82426 0.4345Z" transform="translate(22.137756 3.4760265)" id="Shape" fill="#FFFFFF" fill-rule="evenodd" stroke="none" />
            <path d="M4.17119 0.41278C3.82359 0.304155 3.54116 0.173811 3.34564 0C2.84597 0.152078 2.19422 0.23897 1.58592 0.23897C1.06452 0.23897 0.521392 0.173797 0.0651723 0.0651723C0.0434526 0.086892 0.0217197 0.086892 0 0.108625C0.260703 0.282422 0.41278 0.477953 0.41278 0.716922C0.41278 0.782095 0.391061 0.847267 0.369328 0.89072C0.84728 0.977625 1.26005 1.10797 1.5642 1.3035C1.75973 1.32522 1.97698 1.32522 2.19423 1.32522C2.75908 1.32522 3.28048 1.26005 3.67153 1.15142C3.67153 1.1297 3.67153 1.10797 3.67153 1.06452C3.67152 0.803828 3.86705 0.586578 4.17119 0.41278L4.17119 0.41278Z" transform="translate(18.770447 5.8657646)" id="Shape" fill="#FFFFFF" fill-rule="evenodd" stroke="none" />
            <path d="M4.06258 1.41213C4.49708 1.26005 4.73605 1.0428 4.73605 0.847281C4.73605 0.456233 3.69325 0 2.21595 0C1.60765 0 1.06453 0.0651724 0.65175 0.19553C0.695202 0.282436 0.716922 0.369328 0.716922 0.456233C0.716922 0.782108 0.4345 1.04281 0 1.23833C0.21725 1.36867 0.543125 1.49903 0.934172 1.58592C1.45558 1.41213 2.12905 1.3035 2.80252 1.3035C3.23703 1.28177 3.67153 1.32522 4.06258 1.41213L4.06258 1.41213Z" transform="translate(22.441895 4.5188293)" id="Shape" fill="#FFFFFF" fill-rule="evenodd" stroke="none" />
            <path d="M2.52009 0C1.0428 0 0 0.4345 0 0.847281C0 1.26006 1.0428 1.69456 2.52009 1.69456C3.99739 1.69456 5.04019 1.26006 5.04019 0.847281C5.04019 0.4345 4.01911 0 2.52009 0L2.52009 0Z" transform="translate(22.724365 6.1047516)" id="Shape" fill="#FFFFFF" fill-rule="evenodd" stroke="none" />
            <path d="M1.49903 0.586565C2.04216 0.369314 2.80253 0.23897 3.54119 0.23897C3.60636 0.23897 3.64981 0.23897 3.71498 0.23897C3.78015 0.173797 3.86706 0.130345 3.97569 0.0651724C3.08497 0.0217197 2.19423 0 1.28178 0C0.84728 0 0.4345 0 0 0.0217197C0.0217197 0.0434394 0.0217197 0.0434394 0.0217197 0.0651724C0.282436 0.304142 0.803828 0.499672 1.49903 0.586565L1.49903 0.586565Z" transform="translate(19.13977 2.670288E-05)" id="Shape" fill="#FFFFFF" fill-rule="evenodd" stroke="none" />
            <path d="M0 0.347595C1.06453 0.47794 1.95525 0.847267 1.95525 1.43384C1.95525 1.4773 1.95525 1.54247 1.93353 1.58592C2.23769 1.39039 2.65045 1.26005 3.12841 1.17314C2.4332 0.977612 1.91181 0.67347 1.91181 0.23897C1.91181 0.152064 1.93353 0.0651724 1.97698 0C1.12969 0 0.4345 0.152078 0 0.347595L0 0.347595Z" transform="translate(20.617065 0.5648689)" id="Shape" fill="#FFFFFF" fill-rule="evenodd" stroke="none" />
            <path d="M0 0.651737C0 1.04278 1.0428 1.49902 2.5201 1.49902C2.69389 1.49902 2.86769 1.49902 3.0415 1.4773C3.10667 1.26005 3.3022 1.08625 3.56291 0.955892C3.23703 0.782095 3.01978 0.543112 3.01978 0.260689C3.01978 0.217237 3.01978 0.173784 3.0415 0.130345C2.38975 0.0868921 1.71628 0.0217197 1.0428 0C0.391061 0.130345 0 0.391047 0 0.651737L0 0.651737Z" transform="translate(22.833008 0.15210724)" id="Shape" fill="#FFFFFF" fill-rule="evenodd" stroke="none" />
            <path d="M0.588063 0.65175C1.10947 0.45622 1.82639 0.369328 2.49986 0.369328C3.17333 0.369328 3.86853 0.477953 4.41166 0.65175C4.45511 0.63003 4.49856 0.608297 4.56373 0.586578C3.15161 0.347608 1.63086 0.130358 0.0232048 0C0.00148511 0.0434527 0.00148511 0.0869053 0.00148511 0.108625C-0.0202346 0.304142 0.197015 0.499672 0.588063 0.65175L0.588063 0.65175Z" transform="translate(26.155457 0.28245163)" id="Shape" fill="#FFFFFF" fill-rule="evenodd" stroke="none" />
            <path d="M2.52009 0C1.0428 0 0 0.4345 0 0.84728C0 1.23833 1.0428 1.69456 2.52009 1.69456C3.08494 1.69456 3.60634 1.62939 3.99739 1.52076C3.99739 1.49904 3.99739 1.47731 3.99739 1.43386C3.99739 1.17316 4.19292 0.934186 4.49706 0.760388C3.97566 0.608311 3.58461 0.369341 3.45427 0.0651856C3.15011 0.021733 2.84597 0 2.52009 0L2.52009 0Z" transform="translate(22.441895 1.9335442)" id="Shape" fill="#FFFFFF" fill-rule="evenodd" stroke="none" />
            <path d="M0 0.869C0 1.1297 0.477952 1.43385 1.23833 1.58592C1.75973 1.41213 2.4332 1.3035 3.10667 1.3035C3.54117 1.3035 3.97567 1.34695 4.36672 1.41213C4.80122 1.26005 5.04019 1.0428 5.04019 0.847281C5.04019 0.456233 3.99739 0 2.52009 0C1.0428 0.021733 0 0.477953 0 0.869L0 0.869Z" transform="translate(26.135193 0.91246414)" id="Shape" fill="#FFFFFF" fill-rule="evenodd" stroke="none" />
            <path d="M0 0.847281C0 1.23833 1.0428 1.69456 2.52009 1.69456C3.99739 1.69456 5.04019 1.26006 5.04019 0.847281C5.04019 0.456233 3.99739 0 2.52009 0C1.0428 0 0 0.45622 0 0.847281L0 0.847281Z" transform="translate(26.721802 2.520115)" id="Shape" fill="#FFFFFF" fill-rule="evenodd" stroke="none" />
            <path d="M0 0.499672C0.4345 0.65175 0.782095 0.869 0.89072 1.1297C1.21659 1.17316 1.56419 1.21661 1.97697 1.21661C3.45427 1.21661 4.49707 0.782108 4.49707 0.369328C4.49707 0.238983 4.38844 0.130358 4.21464 0C2.93286 0.0217197 1.67281 0.108625 0.45622 0.19553C0.347595 0.325862 0.173797 0.434487 0 0.499672L0 0.499672Z" transform="translate(14.490601 0.043483734)" id="Shape" fill="#FFFFFF" fill-rule="evenodd" stroke="none" />
            <path d="M0.238983 0.21725C0.347608 0.162954 0.434513 0.0543291 0.521405 0C0.347608 0.0542959 0.173811 0.108625 0 0.108625C0.0869053 0.162954 0.152078 0.162954 0.238983 0.21725L0.238983 0.21725Z" transform="translate(13.751953 0.3258896)" id="Shape" fill="#FFFFFF" fill-rule="evenodd" stroke="none" />
            <path d="M0.238956 0.477953C0.673456 0.391047 1.15141 0.325875 1.62936 0.325875C2.56353 0.325875 3.56289 0.521405 4.06256 0.869C4.12774 0.847281 4.21464 0.825548 4.27981 0.825548C4.25809 0.4345 3.21528 0 1.75972 0C1.0428 0 0.4345 0.108625 0 0.260703C0.108612 0.325875 0.173784 0.391047 0.238956 0.477953L0.238956 0.477953Z" transform="translate(10.84082 0.5648689)" id="Shape" fill="#FFFFFF" fill-rule="evenodd" stroke="none" />
            <path d="M0.23897 0.477953C0.23897 0.65175 0.152064 0.825548 0 0.955905C0.23897 0.934186 0.499672 0.912453 0.738655 0.912453C1.34695 0.912453 1.95525 0.999358 2.45494 1.1297C2.45494 1.1297 2.45494 1.1297 2.45494 1.1297C2.12906 0.955905 1.91181 0.716923 1.91181 0.4345C1.91181 0.282422 1.97698 0.152078 2.08561 0.0217197C1.86836 0 1.65111 0 1.41214 0C0.934185 0 0.477966 0.0434527 0.108638 0.130345C0.195517 0.23897 0.23897 0.369328 0.23897 0.477953L0.23897 0.477953Z" transform="translate(15.055481 1.5424995)" id="Shape" fill="#FFFFFF" fill-rule="evenodd" stroke="none" />
            <path d="M0 0.84728C0 1.02108 0.21725 1.21661 0.608297 1.39041C1.1297 1.19488 1.84663 1.10798 2.52009 1.10798C3.19356 1.10798 3.88877 1.21661 4.43189 1.39041C4.82294 1.23833 5.04019 1.04281 5.04019 0.84728C5.04019 0.456233 3.99739 0 2.52009 0C1.0428 0.021733 0 0.456233 0 0.84728L0 0.84728Z" transform="translate(17.249695 1.1514397)" id="Shape" fill="#FFFFFF" fill-rule="evenodd" stroke="none" />
            <path d="M0.673483 1.10798C0.673483 1.28178 0.586578 1.43386 0.456233 1.5642C0.499686 1.5642 0.543139 1.58592 0.586578 1.58592C1.10798 1.41213 1.78145 1.3035 2.45492 1.3035C2.88942 1.3035 3.32392 1.34695 3.71497 1.41213C4.14947 1.26005 4.38844 1.0428 4.38844 0.847281C4.38844 0.456233 3.34564 0 1.86835 0C1.08625 0 0.4345 0.130345 0 0.304155C0.391061 0.543138 0.673483 0.782108 0.673483 1.10798L0.673483 1.10798Z" transform="translate(17.923218 2.4983902)" id="Shape" fill="#FFFFFF" fill-rule="evenodd" stroke="none" />
            <path d="M2.02042 0C1.15142 0 0.4345 0.152078 0 0.369328C0.173797 0.521405 0.260703 0.673483 0.260703 0.869C0.260703 1.0428 0.173797 1.19488 0.021733 1.34695C0.456233 1.54248 1.17315 1.69455 2.02044 1.69455C3.49773 1.69455 4.54053 1.26005 4.54053 0.847267C4.54052 0.4345 3.49772 0 2.02042 0L2.02042 0Z" transform="translate(18.335876 4.1277733)" id="Shape" fill="#FFFFFF" fill-rule="evenodd" stroke="none" />
            <path d="M0 0.977625C0.4345 1.1297 0.782094 1.34695 0.890719 1.60766C1.21659 1.65111 1.56419 1.69456 1.97697 1.69456C3.45427 1.69456 4.49706 1.26006 4.49706 0.847281C4.49706 0.456233 3.45427 0 1.97697 0C1.49902 0 1.06452 0.0434527 0.695189 0.130345C0.695189 0.152064 0.695189 0.173797 0.695189 0.195517C0.716922 0.543125 0.4345 0.803828 0 0.977625L0 0.977625Z" transform="translate(10.493164 1.1731682)" id="Shape" fill="#FFFFFF" fill-rule="evenodd" stroke="none" />
            <path d="M1.97697 1.04281C1.99869 1.04281 2.02042 1.04281 2.06387 1.04281C2.54183 1.04281 2.99805 1.08626 3.43255 1.17316C3.99739 0.999358 4.345 0.760375 4.345 0.543125C4.345 0.347595 4.10603 0.152078 3.71497 0C2.36802 0.23897 1.12969 0.499672 0 0.825548C0.108625 0.825548 0.19553 0.825548 0.304155 0.825548C0.847267 0.803841 1.47728 0.890746 1.97697 1.04281L1.97697 1.04281Z" transform="translate(6.5827637 0.8472786)" id="Shape" fill="#FFFFFF" fill-rule="evenodd" stroke="none" />
            <path d="M0.130331 1.06452C0.369301 1.0428 0.630004 1.02106 0.868987 1.02106C0.934159 1.02106 0.999332 1.02106 1.06452 1.02106C1.30349 0.91244 1.56419 0.847267 1.86835 0.782095C1.84663 0.45622 1.10797 0.0868921 0 0C0.23897 0.152078 0.369328 0.347595 0.369328 0.586578C0.369314 0.760362 0.282409 0.91244 0.130331 1.06452L0.130331 1.06452Z" transform="translate(9.276672 2.2159843)" id="Shape" fill="#FFFFFF" fill-rule="evenodd" stroke="none" />
            <path d="M0 0.152078C0.999345 0.304155 1.84662 0.65175 1.84662 1.21661C1.84662 1.39041 1.75972 1.54248 1.62937 1.67283C1.71628 1.67283 1.80317 1.67283 1.89008 1.65111C1.95525 1.43386 2.15078 1.26006 2.41148 1.1297C2.08561 0.955905 1.86836 0.716922 1.86836 0.4345C1.86836 0.282422 1.93353 0.152078 2.04216 0.0217197C1.82491 0 1.60766 0 1.36869 0C0.825547 0.021733 0.369328 0.0651856 0 0.152078L0 0.152078Z" transform="translate(11.12323 3.1501427)" id="Shape" fill="#FFFFFF" fill-rule="evenodd" stroke="none" />
            <path d="M0 0.847281C0 1.02108 0.21725 1.21661 0.608297 1.39041C1.1297 1.19488 1.84663 1.10798 2.52009 1.10798C3.19356 1.10798 3.88877 1.21661 4.43189 1.39041C4.82294 1.23833 5.04019 1.04281 5.04019 0.847281C5.04019 0.456233 3.99739 0 2.52009 0C1.0428 0.021733 0 0.456233 0 0.847281L0 0.847281Z" transform="translate(13.252258 2.7590866)" id="Shape" fill="#FFFFFF" fill-rule="evenodd" stroke="none" />
            <path d="M0.4345 0.0434527C0.304156 0.021733 0.152078 0 0 0C0.23897 0.173797 0.391048 0.369328 0.391048 0.608298C0.391048 0.716923 0.347595 0.825548 0.282423 0.934173C0.608298 0.89072 0.955893 0.869 1.28177 0.869C1.28177 0.869 1.30349 0.869 1.30349 0.869C1.34694 0.825548 1.41211 0.803828 1.45557 0.760375C0.955893 0.586578 0.564845 0.347595 0.4345 0.0434527L0.4345 0.0434527Z" transform="translate(12.578796 5.170574)" id="Shape" fill="#FFFFFF" fill-rule="evenodd" stroke="none" />
            <path d="M0 0.869C0 1.1297 0.477953 1.43384 1.23833 1.58592C1.75973 1.41212 2.4332 1.3035 3.10667 1.3035C3.54117 1.3035 3.97567 1.34695 4.36672 1.41212C4.80122 1.26005 5.04019 1.0428 5.04019 0.84728C5.04019 0.456233 3.99739 0 2.52009 0C1.0428 0.0217197 0 0.477939 0 0.869L0 0.869Z" transform="translate(13.252258 4.1277733)" id="Shape" fill="#FFFFFF" fill-rule="evenodd" stroke="none" />
            <path d="M4.36672 0.977625C4.38844 0.934173 4.41017 0.89072 4.41017 0.847281C4.41017 0.456233 3.36738 0 1.89008 0C1.10798 0 0.456233 0.130345 0 0.304155C0.912453 0.391061 1.78145 0.65175 2.08559 1.06453C2.52009 0.977625 2.99805 0.912453 3.476 0.912453C3.78014 0.912453 4.0843 0.934173 4.36672 0.977625L4.36672 0.977625Z" transform="translate(14.468872 5.7354183)" id="Shape" fill="#FFFFFF" fill-rule="evenodd" stroke="none" />
            <path d="M0 0.977625C0.4345 1.1297 0.782095 1.34695 0.89072 1.60766C1.21659 1.65111 1.56419 1.69456 1.97697 1.69456C3.45427 1.69456 4.49706 1.26006 4.49706 0.84728C4.49706 0.4345 3.45427 0 1.97697 0C1.49902 0 1.06452 0.0434527 0.695189 0.130345C0.695189 0.152064 0.695189 0.173797 0.695189 0.195517C0.695189 0.543125 0.4345 0.803828 0 0.977625L0 0.977625Z" transform="translate(4.866455 1.9335442)" id="Shape" fill="#FFFFFF" fill-rule="evenodd" stroke="none" />
            <path d="M0.738642 0.716936C1.30349 0.543138 1.65109 0.304155 1.65109 0.0869053C1.65109 0.0651856 1.65109 0.021733 1.62938 0C1.0428 0.19553 0.499672 0.391047 0 0.608297C0.260703 0.63003 0.499672 0.673483 0.738642 0.716936L0.738642 0.716936Z" transform="translate(3.6281128 2.0638924)" id="Shape" fill="#FFFFFF" fill-rule="evenodd" stroke="none" />
            <path d="M0.63003 0.869C1.06453 0.782095 1.54248 0.716922 2.02044 0.716922C2.43322 0.716922 2.84598 0.760375 3.23703 0.825547C3.23703 0.825547 3.25875 0.825547 3.25875 0.825547C3.23703 0.4345 2.21595 0.0217197 0.782095 0C0.499672 0.130345 0.23897 0.282422 0 0.4345C0.304155 0.543125 0.521405 0.695189 0.63003 0.869L0.63003 0.869Z" transform="translate(2.237671 2.9328995)" id="Shape" fill="#FFFFFF" fill-rule="evenodd" stroke="none" />
            <path d="M0.630017 1.34695C0.868987 1.32523 1.12969 1.3035 1.36867 1.3035C1.39039 1.3035 1.39039 1.3035 1.41212 1.3035C1.4773 1.23833 1.5642 1.17316 1.67283 1.1297C1.34695 0.955906 1.1297 0.716923 1.1297 0.4345C1.1297 0.282423 1.19488 0.152078 1.3035 0.0217197C1.08625 0 0.869 0 0.63003 0C0.41278 0 0.19553 0 0 0.0217197C0.521405 0.21725 0.869 0.499673 0.869 0.847268C0.868987 1.0428 0.782095 1.2166 0.630017 1.34695L0.630017 1.34695Z" transform="translate(6.213379 3.9322472)" id="Shape" fill="#FFFFFF" fill-rule="evenodd" stroke="none" />
            <path d="M0 0.847281C0 1.02108 0.21725 1.21661 0.608297 1.39041C1.1297 1.19488 1.84662 1.10798 2.52009 1.10798C3.19356 1.10798 3.88877 1.21661 4.43189 1.39041C4.82294 1.23833 5.04019 1.04281 5.04019 0.847281C5.04019 0.456233 3.99739 0 2.52009 0C1.04281 0.021733 0 0.456233 0 0.847281L0 0.847281Z" transform="translate(7.6254883 3.5194645)" id="Shape" fill="#FFFFFF" fill-rule="evenodd" stroke="none" />
            <path d="M2.21594 1.28178C2.34628 1.28178 2.45491 1.28178 2.58527 1.28178C2.99805 1.28178 3.38909 1.32523 3.78014 1.39041C3.88877 1.34695 3.99739 1.32523 4.10602 1.28178C4.36672 1.15144 4.5188 0.977625 4.5188 0.847281C4.5188 0.456233 3.476 0 1.9987 0C1.15142 0 0.4345 0.152078 0 0.347595C1.06452 0.41278 2.06386 0.738656 2.21594 1.28178L2.21594 1.28178Z" transform="translate(8.146912 4.9315987)" id="Shape" fill="#FFFFFF" fill-rule="evenodd" stroke="none" />
            <path d="M0 0.217249C0.21725 0.193115 0.41278 0.193115 0.63003 0.193115C0.760375 0.193115 0.869 0.193115 0.999358 0.193115C1.04281 0.144833 1.10798 0.0965504 1.15144 0.0482826C0.934186 0.0241486 0.695216 0 0.434513 0C0.304169 0 0.195544 0 0.0869186 0C0.0651724 0.0965504 0.0434394 0.168982 0 0.217249L0 0.217249Z" transform="translate(10.2977295 6.4740734)" id="Shape" fill="#FFFFFF" fill-rule="evenodd" stroke="none" />
            <path d="M4.49708 0.847281C4.49708 0.456233 3.45428 0 1.97698 0C1.49903 0 1.06453 0.0434527 0.695203 0.130345C0.695203 0.152064 0.695203 0.173797 0.695203 0.195517C0.695203 0.521392 0.41278 0.782095 0 0.955892C0.4345 1.10797 0.782095 1.32522 0.89072 1.58592C1.21659 1.62938 1.56419 1.67283 1.97697 1.67283C3.45428 1.67283 4.49708 1.23833 4.49708 0.847281L4.49708 0.847281Z" transform="translate(2.3028564 3.9539623)" id="Shape" fill="#FFFFFF" fill-rule="evenodd" stroke="none" />
            <path d="M1.1297 1.21661C1.69455 1.04281 2.04215 0.803828 2.04215 0.586578C2.04215 0.369328 1.75973 0.152078 1.28178 0C0.738655 0.347595 0.325875 0.716923 0 1.08625C0.391061 1.10798 0.782108 1.15142 1.1297 1.21661L1.1297 1.21661Z" transform="translate(0.67352295 3.5629196)" id="Shape" fill="#FFFFFF" fill-rule="evenodd" stroke="none" />
            <path d="M1.69455 1.28177C1.95525 1.06452 2.38975 0.912439 2.8677 0.825547C2.84598 0.4345 1.82491 0 0.369328 0C0.130358 0.369328 0 0.760375 0 1.15142C0 1.26005 0 1.34695 0.0217197 1.45558C0.477939 1.34695 0.999345 1.28178 1.52075 1.28178C1.56419 1.28177 1.62937 1.28177 1.69455 1.28177L1.69455 1.28177Z" transform="translate(0.08691406 4.953327)" id="Shape" fill="#FFFFFF" fill-rule="evenodd" stroke="none" />
            <path d="M2.47664 1.17314C1.78144 0.977612 1.26005 0.67347 1.26005 0.23897C1.26005 0.152064 1.28177 0.0651724 1.32522 0C0.825547 0 0.369314 0.0651724 0 0.152078C0.173797 0.673483 0.564845 1.19488 1.17316 1.67283C1.17316 1.67283 1.19488 1.67283 1.19488 1.67283C1.4773 1.43383 1.95525 1.28177 2.47664 1.17314L2.47664 1.17314Z" transform="translate(0.19555664 6.539261)" id="Shape" fill="#FFFFFF" fill-rule="evenodd" stroke="none" />
            <path d="M2.52008 1.67281C2.368 1.54247 2.28111 1.39039 2.28111 1.19486C2.28111 0.868987 2.58527 0.608284 3.01977 0.412767C3.01977 0.260689 3.08494 0.130345 3.19356 0.0217197C2.97631 0 2.75906 0 2.52009 0C1.0428 0 0 0.4345 0 0.84728C0.0217064 1.23831 1.04278 1.67281 2.52008 1.67281L2.52008 1.67281Z" transform="translate(1.7380981 5.930969)" id="Shape" fill="#FFFFFF" fill-rule="evenodd" stroke="none" />
            <path d="M1.73799 0.499686C2.86769 0.499686 4.06256 0.782108 4.43189 1.28178C4.5188 1.26006 4.62742 1.23833 4.73605 1.21661C4.90984 1.10798 4.99675 0.977638 4.99675 0.84728C4.99675 0.456233 3.95395 0 2.47665 0C1.17316 0 0.19553 0.347595 0 0.695203C0.499659 0.586591 1.12969 0.499686 1.73799 0.499686L1.73799 0.499686Z" transform="translate(5.1054077 5.496443)" id="Shape" fill="#FFFFFF" fill-rule="evenodd" stroke="none" />
            <path d="M3.28048 1.60766C2.88944 1.41213 2.65045 1.17316 2.65045 0.869C2.65045 0.586578 2.8677 0.347595 3.23703 0.152078C3.21531 0.130358 3.19358 0.0869053 3.19358 0.0651724C2.91116 0.0217197 2.607 0 2.25941 0C1.21661 0 0.391061 0.21725 0 0.477953C0.586578 0.912453 1.32522 1.3035 2.21595 1.67283C2.23767 1.67283 2.23767 1.67283 2.25941 1.67283C2.62873 1.67283 2.97634 1.65111 3.28048 1.60766L3.28048 1.60766Z" transform="translate(1.6293945 7.907919)" id="Shape" fill="#FFFFFF" fill-rule="evenodd" stroke="none" />
            <path d="M3.06323 1.06453C2.49839 0.869001 2.10733 0.586578 2.10733 0.19553C2.10733 0.130358 2.12905 0.0651857 2.15078 0C2.08561 0 2.04216 0 1.97698 0C1.49903 0 1.06453 0.0434527 0.695203 0.130345C0.695203 0.152064 0.695203 0.173797 0.695203 0.195517C0.695203 0.521392 0.41278 0.782095 0 0.955893C0.4345 1.10797 0.782095 1.32522 0.89072 1.58592C1.21659 1.62938 1.56419 1.67283 1.97697 1.67283C2.10731 1.67283 2.23767 1.67283 2.36802 1.65111C2.45494 1.43386 2.69391 1.23833 3.06323 1.06453L3.06323 1.06453Z" transform="translate(8.950684 6.930294)" id="Shape" fill="#FFFFFF" fill-rule="evenodd" stroke="none" />
            <path d="M4.12774 1.47731C4.69258 1.30351 5.04019 1.06453 5.04019 0.847281C5.04019 0.456233 3.99739 0 2.52009 0C1.0428 0 0 0.4345 0 0.847281C0 1.10798 0.4345 1.36869 1.15142 1.54248C1.62937 1.41214 2.21595 1.34695 2.7808 1.34695C3.237 1.32523 3.71496 1.39041 4.12774 1.47731L4.12774 1.47731Z" transform="translate(4.323303 6.3002625)" id="Shape" fill="#FFFFFF" fill-rule="evenodd" stroke="none" />
            <path d="M5.04019 0.825548C5.01847 0.4345 3.97566 0 2.52009 0C1.0428 0 0 0.4345 0 0.847281C0 1.15144 0.65175 1.49903 1.65109 1.62938C2.19422 1.41213 2.95459 1.28178 3.69325 1.28178C3.75842 1.28178 3.80187 1.28178 3.86705 1.28178C4.12774 1.08625 4.56224 0.91244 5.04019 0.825548L5.04019 0.825548Z" transform="translate(4.562317 7.929657)" id="Shape" fill="#FFFFFF" fill-rule="evenodd" stroke="none" />
            <path d="M2.3463 0.23897C2.3463 0.152064 2.36802 0.0651724 2.41147 0C1.06452 0.0217197 0.108625 0.391047 0 0.760375C0.825547 1.02108 1.69455 1.23833 2.65045 1.45558C2.91116 1.34695 3.23703 1.26005 3.56291 1.19488C2.8677 0.999345 2.3463 0.67347 2.3463 0.23897L2.3463 0.23897Z" transform="translate(5.757202 9.515579)" id="Shape" fill="#FFFFFF" fill-rule="evenodd" stroke="none" />
            <path d="M2.49868 1.69455C2.67248 1.69455 2.84627 1.69455 3.02008 1.67283C3.08526 1.45558 3.28079 1.28178 3.54149 1.15142C3.21561 0.977625 2.99836 0.738642 2.99836 0.45622C2.99836 0.391047 3.02008 0.325875 3.04182 0.260689C2.97664 0.195517 2.93319 0.108612 2.91147 0.0217197C2.78113 0.0217197 2.65077 0 2.52043 0C1.04313 0 0.000331497 0.4345 0.000331497 0.847281C-0.0214147 1.23831 1.02138 1.69455 2.49868 1.69455L2.49868 1.69455Z" transform="translate(8.428955 8.907284)" id="Shape" fill="#FFFFFF" fill-rule="evenodd" stroke="none" />
            <path d="M0 0C0.0217197 0.173797 0.23897 0.369327 0.608297 0.499672C0.738642 0.456219 0.890719 0.412767 1.0428 0.369327C0.608297 0.304155 0.260703 0.17381 0 0L0 0Z" transform="translate(11.731506 9.385218)" id="Shape" fill="#FFFFFF" fill-rule="evenodd" stroke="none" />
            <path d="M2.49837 0.0651724C2.21595 0.0217197 1.9118 0 1.5642 0C0.955905 0 0.41278 0.0651724 0 0.19553C1.10797 0.41278 2.28112 0.608311 3.54117 0.760375C3.54117 0.760375 3.54117 0.760375 3.56289 0.760375C3.01978 0.608297 2.62873 0.369328 2.49837 0.0651724L2.49837 0.0651724Z" transform="translate(8.972412 10.884251)" id="Shape" fill="#FFFFFF" fill-rule="evenodd" stroke="none" />
            <path d="M1.23833 1.3035C1.45558 1.23833 1.69455 1.17316 1.95525 1.1297C1.26005 0.934173 0.760375 0.63003 0.760375 0.19553C0.760375 0.130358 0.782095 0.0651856 0.803828 0C0.304155 0.173797 0 0.391047 0 0.608297C1.32599e-05 0.847267 0.477953 1.1297 1.23833 1.3035L1.23833 1.3035Z" transform="translate(11.709839 10.167332)" id="Shape" fill="#FFFFFF" fill-rule="evenodd" stroke="none" />
            <path d="M1.65111 0.23897C1.65111 0.152065 1.67283 0.0651724 1.71628 0C1.02108 0 0.4345 0.108625 0 0.23897C0.543125 0.304142 1.10797 0.369315 1.69455 0.412767C1.65111 0.347595 1.65111 0.304142 1.65111 0.23897L1.65111 0.23897Z" transform="translate(13.100159 11.492558)" id="Shape" fill="#FFFFFF" fill-rule="evenodd" stroke="none" />
            <path d="M4.49708 0.847281C4.49708 0.456233 3.45428 0 1.97698 0C1.49903 0 1.06453 0.0434527 0.695203 0.130345C0.695203 0.152064 0.695203 0.173797 0.695203 0.195517C0.695203 0.521392 0.41278 0.782095 0 0.955892C0.4345 1.10797 0.782095 1.32522 0.89072 1.58592C1.21659 1.62938 1.56419 1.67283 1.97697 1.67283C3.476 1.69455 4.49708 1.26005 4.49708 0.847281L4.49708 0.847281Z" transform="translate(15.9678955 6.930294)" id="Shape" fill="#FFFFFF" fill-rule="evenodd" stroke="none" />
            <path d="M4.12774 1.47731C4.69258 1.30351 5.04019 1.06453 5.04019 0.847281C5.04019 0.456233 3.99739 0 2.52009 0C1.0428 0 0 0.4345 0 0.847281C0 1.10798 0.4345 1.36869 1.15142 1.54248C1.62937 1.41214 2.21595 1.34695 2.7808 1.34695C3.21528 1.32523 3.69324 1.39041 4.12774 1.47731L4.12774 1.47731Z" transform="translate(11.362183 6.3002625)" id="Shape" fill="#FFFFFF" fill-rule="evenodd" stroke="none" />
            <path d="M5.04019 0.825548C5.01847 0.4345 3.97566 0 2.52009 0C1.0428 0 0 0.4345 0 0.847281C0 1.15144 0.65175 1.49903 1.65109 1.62938C2.19422 1.41213 2.95459 1.28178 3.69325 1.28178C3.75842 1.28178 3.80187 1.28178 3.86705 1.28178C4.14947 1.08625 4.56224 0.91244 5.04019 0.825548L5.04019 0.825548Z" transform="translate(11.579407 7.929657)" id="Shape" fill="#FFFFFF" fill-rule="evenodd" stroke="none" />
            <path d="M2.36803 0.23897C2.36803 0.152064 2.38975 0.0651724 2.4332 0C0.999358 0.0217197 0 0.45622 0 0.84728C0 1.21661 0.934173 1.65111 2.30285 1.67283C2.607 1.45558 3.06322 1.28178 3.60635 1.19488C2.88942 0.999345 2.36803 0.67347 2.36803 0.23897L2.36803 0.23897Z" transform="translate(12.774414 9.515579)" id="Shape" fill="#FFFFFF" fill-rule="evenodd" stroke="none" />
            <path d="M3.56289 1.1297C3.23702 0.955905 3.01977 0.716922 3.01977 0.4345C3.01977 0.282422 3.08494 0.152078 3.19356 0.0217197C2.97631 0 2.75906 0 2.52009 0C1.0428 0 0 0.4345 0 0.84728C0 1.23833 1.0428 1.69456 2.52009 1.69456C2.69389 1.69456 2.86769 1.69456 3.0415 1.67284C3.12839 1.43384 3.30219 1.26005 3.56289 1.1297L3.56289 1.1297Z" transform="translate(15.424805 8.928997)" id="Shape" fill="#FFFFFF" fill-rule="evenodd" stroke="none" />
            <path d="M4.43189 1.39041C4.82294 1.23833 5.04019 1.04281 5.04019 0.847281C5.04019 0.456233 3.99739 0 2.52009 0C1.0428 0 0 0.4345 0 0.847281C0 1.02108 0.21725 1.21661 0.608297 1.39041C1.1297 1.19488 1.84663 1.10798 2.52009 1.10798C3.19356 1.10798 3.9105 1.19488 4.43189 1.39041L4.43189 1.39041Z" transform="translate(18.72705 8.516216)" id="Shape" fill="#FFFFFF" fill-rule="evenodd" stroke="none" />
            <path d="M4.49706 0.760375C3.97566 0.608298 3.58461 0.369328 3.45427 0.0651724C3.17184 0.0217197 2.86769 0 2.52009 0C1.0428 0 0 0.4345 0 0.847281C0 0.912453 0.0217197 0.977625 0.0869053 1.04281C1.36869 1.15144 2.67218 1.21661 4.04086 1.23834C4.106 1.06453 4.27981 0.89072 4.49706 0.760375L4.49706 0.760375Z" transform="translate(15.033752 10.884251)" id="Shape" fill="#FFFFFF" fill-rule="evenodd" stroke="none" />
            <path d="M5.04019 0.84728C5.04019 0.456233 3.99739 0 2.52009 0C1.0428 0 0 0.4345 0 0.84728C0 1.10798 0.477952 1.41212 1.23833 1.5642C1.75973 1.39041 2.4332 1.28178 3.10667 1.28178C3.54117 1.28178 3.97567 1.32523 4.36672 1.39041C4.77949 1.23833 5.04019 1.0428 5.04019 0.84728L5.04019 0.84728Z" transform="translate(18.748718 9.906624)" id="Shape" fill="#FFFFFF" fill-rule="evenodd" stroke="none" />
            <path d="M2.4332 0C1.19487 0 0.260702 0.304156 0 0.651751C0.325875 0.651751 0.673469 0.651751 0.999344 0.651751C2.28112 0.651751 3.54117 0.608298 4.7795 0.543126C4.41018 0.238983 3.54118 0 2.4332 0L2.4332 0Z" transform="translate(19.422241 11.492548)" id="Shape" fill="#FFFFFF" fill-rule="evenodd" stroke="none" />
          </g>
        </g>
        <path d="M0 4.19293C0 1.87724 6.55574 0 14.6426 0C22.7296 0 29.2853 1.87724 29.2853 4.19293C29.2853 6.50862 22.7296 8.38585 14.6426 8.38585C6.55574 8.38585 0 6.50862 0 4.19293Z" transform="translate(7.9296265 2.6287231)" id="Ellipse" fill="#C72E27" fill-rule="evenodd" stroke="none" />
        <path d="M0 3.6498C0 1.63407 5.69007 0 12.7091 0C19.7282 0 25.4182 1.63407 25.4182 3.6498C25.4182 5.66553 19.7282 7.2996 12.7091 7.2996C5.69007 7.2996 0 5.66553 0 3.6498Z" transform="translate(9.863159 3.171852)" id="Ellipse" fill="#D63F2B" fill-rule="evenodd" stroke="none" />
        <path d="M0 2.71563C0 1.21583 4.25053 0 9.49382 0C14.7371 0 18.9876 1.21583 18.9876 2.71563C18.9876 4.21542 14.7371 5.43125 9.49382 5.43125C4.25053 5.43125 0 4.21542 0 2.71563Z" transform="translate(13.07843 4.1060295)" id="Ellipse" fill="#E54D3D" fill-rule="evenodd" stroke="none" />
      </g>
    </g>
  </g>
</svg>