<?xml version="1.0" encoding="utf-8"?>
<svg width="45px" height="32px" viewBox="0 0 45 32" version="1.1" xmlns:xlink="http://www.w3.org/1999/xlink" xmlns="http://www.w3.org/2000/svg">
  <defs>
    <filter id="filter_1">
      <feColorMatrix in="SourceGraphic" type="matrix" values="0 0 0 0 1 0 0 0 0 1 0 0 0 0 1 0 0 0 1 0" />
    </filter>
    <path d="M0 0L23.8679 0L23.8679 23.8679L0 23.8679L0 0Z" id="path_1" />
    <clipPath id="mask_1">
      <use xlink:href="#path_1" />
    </clipPath>
  </defs>
  <g id="Group-62">
    <g id="Group-44">
      <g id="Group-33">
        <g id="Group-32">
          <g id="Group-31">
            <g id="Group-31">
              <path d="M5.999 0L39.001 0Q39.1483 0 39.2954 0.00722606Q39.4424 0.0144521 39.589 0.0288868Q39.7356 0.0433215 39.8812 0.0649301Q40.0269 0.0865387 40.1713 0.115269Q40.3158 0.143999 40.4586 0.179782Q40.6015 0.215565 40.7424 0.258315Q40.8833 0.301064 41.022 0.350677Q41.1607 0.40029 41.2967 0.456647Q41.4328 0.513003 41.5659 0.575968Q41.699 0.638933 41.8289 0.708354Q41.9588 0.777776 42.0851 0.853486Q42.2114 0.929196 42.3339 1.01101Q42.4563 1.09283 42.5746 1.18056Q42.6929 1.26828 42.8067 1.36171Q42.9206 1.45514 43.0297 1.55403Q43.1388 1.65293 43.2429 1.75707Q43.3471 1.8612 43.446 1.97032Q43.5449 2.07944 43.6383 2.19327Q43.7317 2.30711 43.8194 2.4254Q43.9072 2.54369 43.989 2.66613Q44.0708 2.78858 44.1465 2.9149Q44.2222 3.04121 44.2916 3.17109Q44.3611 3.30097 44.424 3.4341Q44.487 3.56722 44.5434 3.70328Q44.5997 3.83934 44.6493 3.978Q44.6989 4.11666 44.7417 4.25758Q44.7844 4.39851 44.8202 4.54136Q44.856 4.68422 44.8847 4.82865Q44.9135 4.97309 44.9351 5.11876Q44.9567 5.26444 44.9711 5.411Q44.9855 5.55755 44.9928 5.70464Q45 5.85173 45 5.999L45 26.001Q45 26.1483 44.9928 26.2954Q44.9855 26.4424 44.9711 26.589Q44.9567 26.7356 44.9351 26.8812Q44.9135 27.0269 44.8847 27.1713Q44.856 27.3158 44.8202 27.4586Q44.7844 27.6015 44.7417 27.7424Q44.6989 27.8833 44.6493 28.022Q44.5997 28.1607 44.5434 28.2967Q44.487 28.4328 44.424 28.5659Q44.3611 28.699 44.2916 28.8289Q44.2222 28.9588 44.1465 29.0851Q44.0708 29.2114 43.989 29.3339Q43.9072 29.4563 43.8194 29.5746Q43.7317 29.6929 43.6383 29.8067Q43.5449 29.9206 43.446 30.0297Q43.3471 30.1388 43.2429 30.2429Q43.1388 30.3471 43.0297 30.446Q42.9206 30.5449 42.8067 30.6383Q42.6929 30.7317 42.5746 30.8194Q42.4563 30.9072 42.3339 30.989Q42.2114 31.0708 42.0851 31.1465Q41.9588 31.2222 41.8289 31.2916Q41.699 31.3611 41.5659 31.424Q41.4328 31.487 41.2967 31.5433Q41.1607 31.5997 41.022 31.6493Q40.8833 31.6989 40.7424 31.7417Q40.6015 31.7844 40.4586 31.8202Q40.3158 31.856 40.1713 31.8847Q40.0269 31.9135 39.8812 31.9351Q39.7356 31.9567 39.589 31.9711Q39.4424 31.9855 39.2954 31.9928Q39.1483 32 39.001 32L5.999 32Q5.85173 32 5.70464 31.9928Q5.55755 31.9855 5.411 31.9711Q5.26444 31.9567 5.11876 31.9351Q4.97309 31.9135 4.82865 31.8847Q4.68422 31.856 4.54136 31.8202Q4.39851 31.7844 4.25758 31.7417Q4.11666 31.6989 3.978 31.6493Q3.83934 31.5997 3.70328 31.5434Q3.56722 31.487 3.4341 31.424Q3.30097 31.3611 3.17109 31.2916Q3.04121 31.2222 2.9149 31.1465Q2.78858 31.0708 2.66613 30.989Q2.54369 30.9072 2.4254 30.8194Q2.30711 30.7317 2.19327 30.6383Q2.07944 30.5449 1.97032 30.446Q1.8612 30.3471 1.75707 30.2429Q1.65293 30.1388 1.55403 30.0297Q1.45514 29.9206 1.36171 29.8067Q1.26829 29.6929 1.18056 29.5746Q1.09283 29.4563 1.01101 29.3339Q0.929196 29.2114 0.853486 29.0851Q0.777776 28.9588 0.708354 28.8289Q0.638933 28.699 0.575968 28.5659Q0.513003 28.4328 0.456647 28.2967Q0.40029 28.1607 0.350677 28.022Q0.301064 27.8833 0.258315 27.7424Q0.215565 27.6015 0.179782 27.4586Q0.143999 27.3158 0.115269 27.1713Q0.0865387 27.0269 0.0649301 26.8812Q0.0433215 26.7356 0.0288868 26.589Q0.0144521 26.4424 0.00722606 26.2954Q0 26.1483 0 26.001L0 5.999Q0 5.85173 0.00722606 5.70464Q0.0144521 5.55755 0.0288868 5.411Q0.0433215 5.26444 0.0649301 5.11876Q0.0865387 4.97309 0.115269 4.82865Q0.143999 4.68422 0.179782 4.54136Q0.215565 4.39851 0.258315 4.25758Q0.301064 4.11666 0.350677 3.978Q0.40029 3.83934 0.456647 3.70328Q0.513003 3.56722 0.575968 3.4341Q0.638933 3.30097 0.708354 3.17109Q0.777776 3.04121 0.853486 2.9149Q0.929196 2.78858 1.01101 2.66613Q1.09283 2.54369 1.18056 2.4254Q1.26828 2.30711 1.36171 2.19327Q1.45514 2.07944 1.55403 1.97032Q1.65293 1.8612 1.75707 1.75707Q1.8612 1.65293 1.97032 1.55403Q2.07944 1.45514 2.19327 1.36171Q2.30711 1.26829 2.4254 1.18056Q2.54369 1.09283 2.66613 1.01101Q2.78858 0.929196 2.9149 0.853486Q3.04121 0.777776 3.17109 0.708354Q3.30097 0.638933 3.4341 0.575968Q3.56722 0.513003 3.70328 0.456647Q3.83934 0.40029 3.978 0.350677Q4.11666 0.301064 4.25758 0.258315Q4.39851 0.215565 4.54136 0.179782Q4.68422 0.143999 4.82865 0.115269Q4.97309 0.0865387 5.11876 0.0649301Q5.26444 0.0433215 5.411 0.0288868Q5.55755 0.0144521 5.70464 0.00722606Q5.85173 0 5.999 0L5.999 0Z" id="Rectangle" fill="#38A9FF" fill-rule="evenodd" stroke="none" />
            </g>
          </g>
        </g>
      </g>
    </g>
    <g id="undo-svgrepo-com" transform="translate(10.13208 4)" filter="url(#filter_1)">
      <path d="M0 0L23.8679 0L23.8679 23.8679L0 23.8679L0 0Z" id="Background" fill="none" fill-rule="evenodd" stroke="none" />
      <g clip-path="url(#mask_1)">
        <g id="Group">
          <g id="Group">
            <path d="M1.0433e-06 23.8679L0 1.89685e-06L23.8679 0L23.8679 23.8679L1.0433e-06 23.8679Z" id="Rectangle" fill="#000000" fill-opacity="0" fill-rule="evenodd" stroke="none" />
            <path d="M17.6214 16.9119C17.1533 16.9255 16.7391 16.6107 16.6269 16.1561C15.7094 12.5205 12.6028 9.85601 8.86987 9.50289L8.86987 10.6167C8.86944 11.3292 8.44222 11.9718 7.78564 12.2478C7.0744 12.5746 6.23758 12.4539 5.6477 11.9394L0.615542 7.55368C0.225005 7.22112 2.37107e-07 6.734 0 6.22105C0 5.70811 0.225005 5.22098 0.615542 4.88843L5.6477 0.492748C6.24579 -0.0310605 7.09835 -0.148386 7.8157 0.194399C8.47223 0.470486 8.89937 1.11315 8.8997 1.82537L8.8997 2.98894C14.4994 3.42188 18.8389 8.06368 18.8944 13.6798C18.893 14.5146 18.7895 15.3462 18.5861 16.156C18.474 16.6107 18.0598 16.9255 17.5916 16.9119L17.6214 16.9119Z" transform="translate(2.4872437 3.972536)" id="Shape" fill="#000000" fill-rule="evenodd" stroke="none" />
          </g>
        </g>
      </g>
    </g>
  </g>
</svg>