<?xml version="1.0" encoding="utf-8"?>
<svg width="66px" height="66px" viewBox="0 0 66 66" version="1.1" xmlns:xlink="http://www.w3.org/1999/xlink" xmlns="http://www.w3.org/2000/svg">
  <g id="gobo" transform="translate(0.75 0.75)">
    <path d="M0 0L64 0L64 64L0 64L0 0Z" id="Rectangle" fill="#FFFFFF" fill-opacity="0" fill-rule="evenodd" stroke="none" />
    <g id="Group-69" transform="translate(4.299988 4.3477173)">
      <g id="gobo">
        <g id="Group-68">
          <path d="M1.00645 13.0818C0.408322 12.6998 0.0635796 12.0691 0.0080452 11.2556C-0.127048 9.2664 1.44721 5.6638 4.1288 3.38536C5.96002 1.82937 12.5718 -0.48851 13.9565 0.0909843C14.0708 0.139015 14.2242 0.262276 14.2288 0.32461C14.3582 0.57082 14.341 0.971451 14.1478 1.35919C13.6125 2.43569 12.3331 3.86304 10.9168 5.20655C9.81597 6.25437 8.5685 7.43766 7.43075 8.77687L6.38719 10.0132C3.84748 13.0528 2.53411 14.0584 1.00646 13.0818L1.00646 13.0818L1.00646 13.0818L1.00645 13.0818Z" transform="matrix(0.94551855 -0.32556817 0.32556817 0.94551855 0 29.942596)" id="Shape" fill="#FFC93E" fill-rule="evenodd" stroke="#FF9A00" stroke-width="1.5" />
          <path d="M1.61449e-05 2.08206C1.61449e-05 1.34485 0.2068 0.285861 1.35071 0.0468201C3.00106 -0.299391 4.88931 1.37175 5.40288 1.86344C5.36491 2.0591 6.00709 6.00701 6.00709 6.34889C6.00709 7.50642 5.69782 7.55228 5.5778 7.5713C4.44782 7.73579 1.43639 4.56916 0.0541338 2.72677C0.0351151 2.62679 0 2.40421 0 2.08204L0 2.08204L0 2.08204L1.61449e-05 2.08206Z" transform="translate(27.861244 44.897614)" id="Shape" fill="#FFC93E" fill-rule="evenodd" stroke="#FF9A00" stroke-width="1.5" />
          <path d="M0.936048 7.90399C0.11684 7.01526 0 4.60659 0 3.58198C0 3.14728 0.0221992 2.85806 0.0232809 2.8491L0.024734 2.8269C0.024734 2.8269 0.0221992 2.73405 0.0221992 2.70001C0.0221992 0.770159 1.79868 0.100696 2.09974 0C3.12826 0.0125284 4.90617 0.4992 5.33049 1.23316C5.37348 1.30738 5.41362 1.40052 5.41362 1.5199C5.41362 1.62453 5.38244 1.75136 5.2936 1.9044C5.25238 1.97463 4.52199 3.7006 3.90415 5.02408L3.46266 6.24794C3.13222 7.31731 2.61223 8.38744 2.04631 8.38744C1.59909 8.38814 1.23602 8.22976 0.936048 7.90397L0.936048 7.90397L0.936048 7.90397L0.936048 7.90399Z" transform="translate(22.34945 44.607605)" id="Shape" fill="#FFC93E" fill-rule="evenodd" stroke="#FF9A00" stroke-width="1.5" />
          <path d="M6.11115 11.1618L5.31237 9.75235C4.43757 8.22889 3.42692 6.83405 2.53566 5.6063C1.3899 4.02476 0.39291 2.38841 0.0628601 1.23228C-0.0561438 0.815837 0.00123508 0.418415 0.172516 0.198715C0.188984 0.139576 0.361734 0.045355 0.483563 0.0202336C1.95149 -0.296916 8.02777 3.19151 9.54371 5.05582C11.7646 7.787 12.6526 11.6177 12.1573 13.5472C11.9541 14.3356 11.4997 14.8943 10.8414 15.1602C9.15992 15.8397 8.05361 14.6133 6.11115 11.1618L6.11115 11.1618L6.11115 11.1618L6.11115 11.1618Z" transform="translate(40.109352 26.252258)" id="Shape" fill="#FFC93E" fill-rule="evenodd" stroke="#FF9A00" stroke-width="1.5" />
          <path d="M13.5932 11.6028C15.7503 10.4305 14.6355 0.353887 15.1926 0.0521737C16.5126 -0.663158 19.8289 6.17 20.9406 8.73717C22.0524 11.3044 22.5525 11.7231 23.4572 11.6027C24.3618 11.4824 24.5544 7.04346 24.9572 6.05219C25.3599 5.06091 28.7863 9.1937 29.5533 9.99039C31.3936 11.9018 34.4583 15.7558 36.4572 19.8351C38.8716 24.7624 39.2508 30.0808 39.2508 32.0221C39.2508 40.9542 31.421 47.242 20.9406 47.242C18.9968 47.242 17.0956 46.9696 15.2898 46.4342L15.1926 46.4063C15.1926 46.4063 12.3579 46.1679 8.73146 50.9347C8.00392 51.8916 8.06879 52.7836 7.04351 52.5091C6.70161 52.4177 6.45038 52.1665 6.24537 51.7102C5.75515 50.6222 6.11707 48.0444 6.71632 46.3973L6.81052 46.1385L6.59407 45.9672C6.54102 45.9249 0.659376 41.6391 0.0651634 35.4976C-0.452667 30.1442 2.25165 27.0962 3.3737 25.4211L4.01843 24.3473C4.83229 22.367 6.00327 22.2649 4.6515 19.8351C3.84438 18.3844 2.5417 16.2675 2.83596 15.7701C3.16246 15.2188 4.32932 15.8052 5.50766 16.3674C6.46311 16.824 7.38229 17.4691 8.02059 17.0437C8.68428 16.6018 8.24888 15.4915 7.64569 13.9555C7.07843 12.5127 4.92998 9.88087 6.41686 9.29266C7.90373 8.70446 11.5559 12.7119 13.5932 11.6027L13.5932 11.6027L13.5932 11.6027L13.5932 11.6028Z" transform="translate(8.942863 0)" id="Shape" fill="#FFC42C" fill-rule="evenodd" stroke="#FF9A00" stroke-width="1.5" />
          <g id="Group" transform="translate(24.900002 37.993195)">
            <path d="M8.7712 1.43197C6.18358 2.53736 6.5353 5.75304 7.96727 6.07964C7.06287 7.18503 4.12353 6.93381 2.79203 6.43136C-2.05662 4.62254 0.882729 0 0.882729 0C0.882729 0 4.50036 2.83885 11.5598 0.87929" id="Shape" fill="#BF355D" fill-rule="evenodd" stroke="none" />
            <path d="M0 0.635196C0 0.635196 1.33149 -0.168719 2.91421 0.0322563C4.22057 0.208119 5.85354 1.66522 5.85354 1.66522C5.85354 1.66522 2.51226 2.46915 0 0.635196L0 0.635196Z" transform="translate(1.2847137 4.9671326)" id="Shape" fill="#F54F6B" fill-rule="evenodd" stroke="none" />
          </g>
          <g id="Group-66" transform="translate(14.884239 23.052277)">
            <path d="M0 7C0 3.13401 3.13401 0 7 0C10.866 0 14 3.13401 14 7C14 10.866 10.866 14 7 14C3.13401 14 0 10.866 0 7Z" id="Ellipse-3" fill="#FFFFFF" fill-rule="evenodd" stroke="none" />
            <path d="M0 4.35891C0 1.95155 1.95155 0 4.35891 0C6.76627 0 8.71782 1.95155 8.71782 4.35891C8.71782 6.76627 6.76627 8.71782 4.35891 8.71782C1.95155 8.71782 0 6.76627 0 4.35891Z" transform="translate(3.5 3.5)" id="Ellipse-4" fill="#603813" fill-rule="evenodd" stroke="none" />
            <path d="M0 1.05C0 0.470101 0.470101 0 1.05 0C1.6299 0 2.1 0.470101 2.1 1.05C2.1 1.6299 1.6299 2.1 1.05 2.1C0.470101 2.1 0 1.6299 0 1.05Z" transform="translate(5.600006 4.9000244)" id="Ellipse-5" fill="#FFFFFF" fill-rule="evenodd" stroke="none" />
            <path d="M0 1.4C0 0.626801 0.626802 0 1.4 0C2.1732 0 2.8 0.626801 2.8 1.4C2.8 2.1732 2.1732 2.8 1.4 2.8C0.626802 2.8 0 2.1732 0 1.4Z" transform="translate(6.3000183 7.6999817)" id="Ellipse-6" fill="#FFFFFF" fill-rule="evenodd" stroke="none" />
          </g>
          <g id="Group-67" transform="translate(31.900032 23.352234)">
            <path d="M0 7C0 3.13401 3.13401 0 7 0C10.866 0 14 3.13401 14 7C14 10.866 10.866 14 7 14C3.13401 14 0 10.866 0 7Z" id="Ellipse-7" fill="#FFFFFF" fill-rule="evenodd" stroke="none" />
            <path d="M0 4.36135C0 1.95264 1.95264 0 4.36135 0C6.77005 0 8.7227 1.95264 8.7227 4.36135C8.7227 6.77005 6.77005 8.72269 4.36135 8.72269C1.95264 8.72269 0 6.77005 0 4.36135Z" transform="translate(2.8893127 3.9071045)" id="Ellipse-8" fill="#603813" fill-rule="evenodd" stroke="none" />
            <path d="M0 0.7C0 0.313401 0.313401 0 0.7 0C1.0866 0 1.4 0.313401 1.4 0.7C1.4 1.0866 1.0866 1.4 0.7 1.4C0.313401 1.4 0 1.0866 0 0.7Z" transform="translate(4.8554535 8.964508)" id="Ellipse-9" fill="#FFFFFF" fill-rule="evenodd" stroke="none" />
            <path d="M0 1.4C0 0.626801 0.626801 0 1.4 0C2.1732 0 2.8 0.626801 2.8 1.4C2.8 2.1732 2.1732 2.8 1.4 2.8C0.626801 2.8 0 2.1732 0 1.4Z" transform="translate(7.2733383 6.1978455)" id="Ellipse-10" fill="#FFFFFF" fill-rule="evenodd" stroke="none" />
          </g>
        </g>
      </g>
    </g>
  </g>
</svg>