<?xml version="1.0" encoding="utf-8"?>
<svg width="31px" height="26px" viewBox="0 0 31 26" version="1.1" xmlns:xlink="http://www.w3.org/1999/xlink" xmlns="http://www.w3.org/2000/svg">
  <g id="taco" transform="matrix(0.9135454 -0.40673664 0.40673664 0.9135454 0 10.5190735)">
    <g id="Group-16" transform="matrix(1 2.9823823E-09 -2.9823823E-09 1 0 2.861023E-06)">
      <g id="Group" transform="matrix(1 2.9823823E-09 -2.9823823E-09 1 0 2.861023E-06)">
        <path d="M1.3922 12.4832C-1.65152 12.4832 0.190994 -0.185903 7.95374 0.00207043C15.8609 0.193728 18.7317 12.4832 18.7317 12.4832L1.3922 12.4832Z" transform="translate(0.5157471 3.3890538)" id="Shape" fill="#EFAB00" fill-rule="evenodd" stroke="none" />
        <path d="M24.2832 10.7871C24.2832 10.7871 8.48495 14.9938 5.64931 15.4116C1.85204 15.9712 0.593543 14.7502 0.135177 12.773C-0.623071 9.50243 2.01957 9.39454 2.82942 7.60765C3.63894 5.82042 1.73444 2.91307 5.52367 2.76297C8.69302 2.63732 8.74128 0.202075 10.2993 0.0231586C12.7158 -0.254269 13.2435 2.03991 15.0314 2.6792C16.7201 3.28299 17.6087 1.73801 19.4988 2.4976C21.1182 3.14863 21.1912 6.60882 23.3242 7.3282C26.8005 8.50093 24.2832 10.7871 24.2832 10.7871" transform="translate(0.6981201 1.525879E-05)" id="Shape" fill="#59C059" fill-rule="evenodd" stroke="none" />
        <path d="M0.465111 1.97546C0.120331 1.87092 -0.0766826 1.50268 0.0281911 1.1579L0.238274 0.464989C0.342812 0.120209 0.710717 -0.0764694 1.05583 0.0280685L2.90069 0.587288C3.2458 0.692162 3.44248 1.06007 3.33761 1.40517L3.12753 2.09775C3.02299 2.44286 2.65508 2.63921 2.30997 2.53467L0.465111 1.97545" transform="translate(3.9885252 7.809342)" id="Shape" fill="#E8511C" fill-rule="evenodd" stroke="none" />
        <path d="M3.21748 0.0149574C3.59945 0.112125 4.1456 0.527599 4.59123 0.638172C3.43861 3.62358 3.23088 6.48502 1.8035 6.58554L1.79681 6.58554C0.701149 6.49508 -0.481621 5.46978 0.201904 4.41433C0.60733 3.78776 -0.0225835 3.01042 0.148292 2.29004C0.39289 1.25134 1.45504 1.02684 1.82361 0.922978C2.22568 0.812405 2.65121 -0.129124 3.21748 0.0149574" transform="translate(0 9.280655)" id="Shape" fill="#C18500" fill-rule="evenodd" stroke="none" />
        <path d="M1.46757 0.177246C1.12915 0.790413 0.851051 1.42033 0.616508 2.04355L0.301552 1.94638L0 1.85625C0.244598 1.23269 0.532753 0.606125 0.881218 0L1.46757 0.177246Z" transform="translate(4.621338 7.9790344)" id="Shape" fill="#C6431A" fill-rule="evenodd" stroke="none" />
        <path d="M3.4344 0.103874C2.32534 3.02563 2.10085 5.79995 0.72374 5.94402C0.562912 5.94402 0.482498 5.94402 0.214447 5.95407L0.14743 5.95407C0.097168 5.95407 0.0502625 5.95072 0 5.94737C1.42737 5.84686 1.63511 2.98541 2.78773 0C2.90836 0.0301514 3.01892 0.0368576 3.11945 0.00669861L3.4344 0.103874Z" transform="translate(1.8034668 9.918839)" id="Shape" fill="#A06B00" fill-rule="evenodd" stroke="none" />
        <path d="M0.998267 1.8023C0.673255 1.9581 0.279555 1.81939 0.124084 1.49404L0.0637732 1.36872C-0.0916986 1.04338 0.047019 0.650348 0.372031 0.49454L1.27167 0.063983C1.59702 -0.0918246 1.99039 0.0468931 2.14586 0.371905L2.20617 0.497554C2.36164 0.822566 2.22292 1.21627 1.89791 1.37174L0.998267 1.8023" transform="translate(4.8461914 4.1492467)" id="Shape" fill="#E8511C" fill-rule="evenodd" stroke="none" />
        <path d="M9.47223 0.00559711C9.22763 0.00894642 8.97634 0.0223513 8.71834 0.0424547C4.2218 0.38757 1.92661 2.54203 0.586357 4.97458L0 4.797C1.35365 2.4348 3.64549 0.380872 8.03147 0.0424547C8.53406 0.00224781 9.0132 -0.00780773 9.47224 0.00559711" transform="translate(5.5025635 3.1818848)" id="Shape" fill="#4BA04B" fill-rule="evenodd" stroke="none" />
        <path d="M0.0873223 1.16717C-0.0929452 0.854894 0.0149498 0.45181 0.327557 0.27155L0.646542 0.0872622C0.958829 -0.0930052 1.36191 0.0152254 1.54217 0.327169L2.22336 1.50726C2.40362 1.81954 2.29573 2.22229 1.98312 2.40288L1.66414 2.58684C1.35185 2.7671 0.948773 2.65921 0.768506 2.34693L0.0873223 1.16717" transform="translate(22.647947 7.078461)" id="Shape" fill="#E8511C" fill-rule="evenodd" stroke="none" />
        <path d="M0.996354 2.07504C0.656267 2.195 0.279993 2.01541 0.160036 1.67532L0.0374012 1.32786C-0.0828914 0.987772 0.0967044 0.611498 0.4368 0.491205L1.72143 0.0371952C2.06152 -0.0827618 2.43779 0.0971699 2.55775 0.436922L2.68072 0.78438C2.80101 1.12447 2.62108 1.50108 2.28099 1.62103L0.996362 2.07504" transform="translate(14.01123 1.6488191)" id="Shape" fill="#E8511C" fill-rule="evenodd" stroke="none" />
        <path d="M0 12.6916C3.01557 12.6916 0.744842 0.892335 11.811 0.0429468C20.6205 -0.633208 22.801 6.84071 23.2591 10.7656C23.3787 11.7899 22.589 12.6916 21.5583 12.6916L0 12.6916Z" transform="translate(2.4106445 3.1806793)" id="Shape" fill="#FFBF00" fill-rule="evenodd" stroke="none" />
        <path d="M0.335276 2.10246C0.238108 2.10246 0.141611 2.06024 0.0752659 1.97882C-0.0416699 1.83542 -0.0198956 1.62433 0.123514 1.50772L1.88259 0.0749855C2.02633 -0.0412788 2.23742 -0.0201759 2.35403 0.123234C2.47097 0.266636 2.44919 0.477726 2.30578 0.594669L0.546702 2.02707C0.484385 2.07766 0.409662 2.10246 0.335276 2.10246" transform="translate(10.112304 0.7839813)" id="Shape" fill="#FFBF00" fill-rule="evenodd" stroke="none" />
        <path d="M2.56471 1.09266C2.54393 1.09266 2.52316 1.09099 2.50206 1.08664L0.272886 0.664793C0.0909481 0.630621 -0.0283375 0.455046 0.00584221 0.273436C0.04035 0.0914974 0.215925 -0.0297947 0.3972 0.00639152L2.62671 0.428572C2.80865 0.462744 2.92793 0.638319 2.89342 0.819929C2.86326 0.980757 2.72253 1.09267 2.56473 1.09267" transform="translate(19.305422 2.8424532)" id="Shape" fill="#FFBF00" fill-rule="evenodd" stroke="none" />
        <path d="M2.09308 2.10423C2.0187 2.10423 1.94365 2.07977 1.88132 2.02851L0.12325 0.594445C-0.0201526 0.477844 -0.0415988 0.266754 0.0756726 0.123344C0.192608 -0.019722 0.403363 -0.0418396 0.547108 0.0754319L2.30518 1.50984C2.44858 1.62644 2.47003 1.83753 2.35276 1.98094C2.28675 2.06202 2.19025 2.10424 2.09308 2.10424" transform="translate(0.73486334 8.709336)" id="Shape" fill="#FFBF00" fill-rule="evenodd" stroke="none" />
        <path d="M0.410248 0.849387C-0.136246 0.849387 -0.137253 0 0.410248 0C0.957077 0 0.957748 0.849387 0.410248 0.849387" transform="translate(21.32178 9.007066)" id="Shape" fill="#EFAB00" fill-rule="evenodd" stroke="none" />
        <path d="M0.410246 0.849388C-0.136248 0.849388 -0.137247 0 0.410246 0C0.957067 0 0.957739 0.849388 0.410246 0.849388" transform="translate(16.971802 9.766847)" id="Shape" fill="#EFAB00" fill-rule="evenodd" stroke="none" />
        <path d="M0.410246 0.849388C-0.136248 0.849388 -0.137247 0 0.410246 0C0.957067 0 0.958075 0.849388 0.410246 0.849388" transform="translate(16.446045 13.2641)" id="Shape" fill="#EFAB00" fill-rule="evenodd" stroke="none" />
        <path d="M0.410245 0.849388C-0.136249 0.849388 -0.137248 0 0.410245 0C0.956738 0 0.957738 0.849388 0.410245 0.849388" transform="translate(9.251709 13.688812)" id="Shape" fill="#EFAB00" fill-rule="evenodd" stroke="none" />
        <path d="M0.410245 0.849389C-0.136249 0.849389 -0.137248 0 0.410245 0C0.956738 0 0.957738 0.849389 0.410245 0.849389" transform="translate(10.093384 6.3036656)" id="Shape" fill="#EFAB00" fill-rule="evenodd" stroke="none" />
        <path d="M0.410246 0.849717C-0.136248 0.849717 -0.137247 0 0.410246 0C0.956739 0 0.957739 0.849717 0.410246 0.849717" transform="translate(14.596313 4.378723)" id="Shape" fill="#EFAB00" fill-rule="evenodd" stroke="none" />
        <path d="M0.410244 0.849388C-0.136248 0.849388 -0.137248 0 0.410244 0C0.956737 0 0.957737 0.849388 0.410244 0.849388" transform="translate(12.388916 10.281237)" id="Shape" fill="#EFAB00" fill-rule="evenodd" stroke="none" />
        <path d="M0.410245 0.849388C-0.136249 0.849388 -0.137248 0 0.410245 0C0.956738 0 0.957738 0.849388 0.410245 0.849388" transform="translate(7.687134 10.616319)" id="Shape" fill="#EFAB00" fill-rule="evenodd" stroke="none" />
        <path d="M0.410249 0.849388C-0.136246 0.849388 -0.137253 0 0.410249 0C0.956744 0 0.957751 0.849388 0.410249 0.849388" transform="translate(22.151243 12.456879)" id="Shape" fill="#EFAB00" fill-rule="evenodd" stroke="none" />
        <path d="M0.410494 0.849389C-0.136328 0.849389 -0.137335 0 0.410494 0C0.956987 0 0.957987 0.849389 0.410494 0.849389" transform="translate(18.837036 5.878922)" id="Shape" fill="#EFAB00" fill-rule="evenodd" stroke="none" />
        <path d="M0.0454702 0L0.5 0.411688C0.34849 0.547413 0.181823 0.518421 0 0.381203C0.0151452 0.259228 0.030302 0.137218 0.0454472 0" transform="translate(4.5911865 9.835221)" id="Shape" fill="#4BA04B" fill-rule="evenodd" stroke="none" />
      </g>
    </g>
  </g>
</svg>